<?xml version="1.0" encoding="UTF-8"?>
<!DOCTYPE svg PUBLIC "-//W3C//DTD SVG 1.1//EN" "http://www.w3.org/Graphics/SVG/1.1/DTD/svg11.dtd">
<!-- Creator: CorelDRAW -->
<svg xmlns="http://www.w3.org/2000/svg" xml:space="preserve" width="6.82666in" height="6.82666in" style="shape-rendering:geometricPrecision; text-rendering:geometricPrecision; image-rendering:optimizeQuality; fill-rule:evenodd; clip-rule:evenodd"
viewBox="0 0 6.82666 6.82666"
 xmlns:xlink="http://www.w3.org/1999/xlink">
 <defs>
  <style type="text/css">
   <![CDATA[
    .fil0 {fill:#42A5F5}
    .fil2 {fill:#FFFFFE}
    .fil1 {fill:#FFFFFE;fill-rule:nonzero}
   ]]>
  </style>
 </defs>
 <g id="Layer_x0020_1">
  <metadata id="CorelCorpID_0Corel-Layer"/>
  <circle class="fil0" cx="3.41333" cy="3.41333" r="3.41333"/>
  <g id="_281892728">
   <path id="_281893520" class="fil1" d="M2.94378 3.04084l-0.00015748 0 -0.000275591 -3.93701e-006c-0.0907559,-0.00011811 -0.199713,-0.0371929 -0.282925,-0.117484 -0.0664567,-0.064122 -0.116717,-0.155213 -0.128421,-0.276059 -0.000866142,-0.00896063 -0.00154724,-0.0244764 -0.00205118,-0.0412441 -0.000681102,-0.0224016 -0.00109055,-0.0495787 -0.00118898,-0.0626575 -0.00120472,-0.155917 0.0491299,-0.257638 0.128646,-0.322236 0.0773976,-0.0628858 0.178772,-0.0860039 0.284925,-0.0880906l-7.87402e-006 -0.000275591c0.00327559,-6.29921e-005 0.0065,9.05512e-005 0.00966929,0.000440945 0.103693,0.0029252 0.202409,0.026378 0.278161,0.0879252 0.0795118,0.0645984 0.129846,0.166323 0.128646,0.322236 -9.84252e-005,0.0130787 -0.000507874,0.0402559 -0.00118504,0.0626575 -0.000507874,0.0167677 -0.00118898,0.0322835 -0.00205512,0.0412441 -0.0120394,0.124295 -0.0583583,0.215461 -0.124409,0.279193 -0.0771457,0.0744409 -0.179154,0.109024 -0.283831,0.114063l7.87402e-006 0.000204724c-0.00118504,5.51181e-005 -0.00237008,8.26772e-005 -0.00354724,8.26772e-005l0 3.93701e-006z"/>
   <path id="_281893328" class="fil1" d="M2.51456 2.8498c-0.0868819,0.0490551 -0.161713,0.121846 -0.217941,0.210827 -0.0696732,0.110264 -0.110921,0.2455 -0.110921,0.390815l0 0.010937c0,0.047689 0.0174094,0.0917244 0.0454606,0.124256 0.0304961,0.0353701 0.0733858,0.0573307 0.121299,0.0573307l1.18265 0c0.0479134,0 0.0908031,-0.0219606 0.121299,-0.0573307 0.0280512,-0.0325315 0.0454606,-0.0765669 0.0454606,-0.124256l0 -0.010937c0,-0.144303 -0.0405709,-0.278551 -0.109193,-0.388228 -0.0558504,-0.0892559 -0.130346,-0.162409 -0.216941,-0.211913 -0.0230669,0.0470472 -0.0537598,0.0904016 -0.093185,0.128445 -0.235591,0.227315 -0.620854,0.154776 -0.767984,-0.129945z"/>
   <path id="_281893208" class="fil2" d="M3.8635 1.9106l0.000141732 -0.000137795 0.00554724 0.00551575c0.0145197,0.013811 0.0287717,0.0279724 0.0427362,0.0424843l0.00404724 0.00402756c0.00755118,0.00750787 0.00416535,0.00429921 0.0087874,0.00958661 0.230697,0.264118 0.371563,0.600283 0.362228,0.95352 -0.00944094,0.35735 -0.158945,0.693504 -0.418386,0.939583 -0.25861,0.245295 -0.603819,0.377752 -0.960106,0.368335 -0.331307,-0.00875591 -0.644429,-0.137913 -0.884433,-0.363496l-0.000141732 0.000137795 -0.00554331 -0.00550787c-0.0145197,-0.013811 -0.0287717,-0.0279764 -0.0427402,-0.0424961l-0.00404724 -0.00402362c-0.00755118,-0.00750787 -0.00416929,-0.00429921 -0.0087874,-0.00958661 -0.230701,-0.264118 -0.371563,-0.60028 -0.362228,-0.953516 0.00876378,-0.331591 0.138142,-0.644969 0.364083,-0.885055l-0.00011811 -0.000125984 0.00491732 -0.00494882c0.0138071,-0.0145197 0.0279685,-0.0287638 0.0424803,-0.0427283l0.00402756 -0.00405118c0.00751181,-0.00755118 0.00429921,-0.00416929 0.00959055,-0.00878346 0.264114,-0.230701 0.60028,-0.371563 0.953512,-0.362228 0.331307,0.00875197 0.644429,0.137913 0.884433,0.363496zm-1.63437 0.212886l-0.0010315 0.00111811 -0.00209449 0.0021378c-0.00109449,0.00111811 -0.00221654,0.00220866 -0.00335039,0.00328346l-0.014437 0.0136969c-0.193524,0.190602 -0.30502,0.446524 -0.312213,0.718685 -0.00718898,0.271976 0.0766102,0.553535 0.280642,0.742268l0.00153937 0.00143307 0.00201969 0.00197244c0.00185433,0.0018189 0.00111811,0.00107874 0.00315354,0.0032126l0.0160236 0.0167953c0.190366,0.192165 0.445378,0.302831 0.716496,0.309996 0.278055,0.00735039 0.547248,-0.0958307 0.749087,-0.287276 0.202378,-0.191961 0.319232,-0.453756 0.326594,-0.732594 0.00718898,-0.271976 -0.0766063,-0.553539 -0.280642,-0.742272l-0.00153937 -0.00143307 -0.00201969 -0.00197244c-0.00185433,-0.0018189 -0.00112205,-0.00107874 -0.00315748,-0.0032126l-0.0160157 -0.0167953c-0.19037,-0.192161 -0.445378,-0.302835 -0.7165,-0.309996 -0.272138,-0.00719291 -0.55322,0.077189 -0.742386,0.280764l-0.000169291 0.000188976z"/>
   <path id="_281892056" class="fil2" d="M3.91522 3.69967l0.349087 0.368039c0.0561063,0.0591535 0.0537992,0.15272 -0.0052874,0.208929 -0.0591299,0.0562559 -0.152902,0.0539449 -0.209083,-0.0052874l-0.349087 -0.368043c-0.0561063,-0.0591496 -0.0537992,-0.152717 0.0052874,-0.208929 0.0591299,-0.056252 0.152902,-0.0539409 0.209083,0.00529134z"/>
   <path id="_281892488" class="fil1" d="M3.98744 4.22871l0.241469 -0.229031 0.0508858 0.0534843 -0.050937 -0.0537008c0.0296575,-0.0281299 0.0765079,-0.0268898 0.104638,0.00276772 0.0012126,0.00127953 0.00237008,0.00259449 0.00347638,0.00393701l0.869024 0.916209 -0.0534843 0.0508858 0.0536969 -0.0509331c0.0281299,0.0296575 0.0268937,0.0765039 -0.00276378,0.104634 -0.00127953,0.00121654 -0.00259843,0.00237008 -0.00394094,0.00347638l-0.241465 0.229035 -0.0508858 -0.0534882 0.0509331 0.0537008c-0.0296575,0.0281299 -0.0765039,0.0268898 -0.104634,-0.00276378 -0.00121654,-0.00128346 -0.00237008,-0.00259843 -0.00347638,-0.00394094l-0.869028 -0.916209 0.0534882 -0.0508858 -0.0537008 0.0509331c-0.0281299,-0.0296535 -0.0268898,-0.0765039 0.00276378,-0.104634 0.00128346,-0.00121654 0.00259843,-0.00237008 0.00394094,-0.00347638z"/>
   <path id="_281892200" class="fil1" d="M3.93816 4.27546c-0.0295394,0.0281024 -0.0307047,0.0748307 -0.00260236,0.10437 0.0281024,0.0295394 0.0748346,0.0307047 0.104374,0.00260236l0.336142 -0.318835c0.0295394,-0.0281024 0.0307047,-0.0748346 0.00260236,-0.104374 -0.0281024,-0.0295354 -0.0748346,-0.0307008 -0.104374,-0.00259843l-0.336142 0.318835z"/>
  </g>
 </g>
</svg>
