<?xml version="1.0" encoding="UTF-8"?>
<!DOCTYPE svg PUBLIC "-//W3C//DTD SVG 1.1//EN" "http://www.w3.org/Graphics/SVG/1.1/DTD/svg11.dtd">
<!-- Creator: CorelDRAW -->
<svg xmlns="http://www.w3.org/2000/svg" xml:space="preserve" width="6.82666in" height="6.82666in" style="shape-rendering:geometricPrecision; text-rendering:geometricPrecision; image-rendering:optimizeQuality; fill-rule:evenodd; clip-rule:evenodd"
viewBox="0 0 6.82666 6.82666"
 xmlns:xlink="http://www.w3.org/1999/xlink">
 <defs>
  <style type="text/css">
   <![CDATA[
    .fil0 {fill:#FFCA28}
    .fil1 {fill:#FFFFFE}
    .fil2 {fill:#FFFFFE;fill-rule:nonzero}
   ]]>
  </style>
 </defs>
 <g id="Layer_x0020_1">
  <metadata id="CorelCorpID_0Corel-Layer"/>
  <circle class="fil0" cx="3.41333" cy="3.41333" r="3.41333"/>
  <g id="_281893592">
   <path id="_281894408" class="fil1" d="M2.48023 3.11277l1.44841 0 0 0.524157 -1.44841 0c-0.0207835,0 -0.0376378,-0.0168504 -0.0376378,-0.0376339l0 -0.44889c0,-0.0207835 0.0168543,-0.0376339 0.0376378,-0.0376339zm1.52369 0l0.34252 0c0.0207835,0 0.0376378,0.0168504 0.0376378,0.0376339l0 0.44889c0,0.0207835 -0.0168543,0.0376339 -0.0376378,0.0376339l-0.34252 0 0 -0.524157zm0.134776 0.141783l0.123713 0.123713 -0.123713 0.123713 0 -0.247425zm-1.54257 0.232126l-0.0517441 -0.216827 0.0447756 0 0.0327165 0.148925 0.0396299 -0.148925 0.0520512 0 0.0380118 0.151449 0.0332717 -0.151449 0.0440709 0 -0.0526535 0.216827 -0.0464449 0 -0.0431654 -0.162102 -0.043063 0.162102 -0.0474567 0zm0.433969 0l-0.0476614 0 -0.0189291 -0.0492717 -0.086685 0 -0.0178701 0.0492717 -0.0464488 0 0.0844646 -0.216827 0.0462953 0 0.0868346 0.216827zm-0.080626 -0.0857717l-0.0298898 -0.0804724 -0.0292795 0.0804724 0.0591693 0zm0.104248 0.0857717l0 -0.216827 0.0426102 0 0.088752 0.144787 0 -0.144787 0.0406929 0 0 0.216827 -0.0439764 0 -0.0873858 -0.141406 0 0.141406 -0.0406929 0zm0.267118 0l0 -0.180126 -0.0643189 0 0 -0.0367008 0.172303 0 0 0.0367008 -0.0641654 0 0 0.180126 -0.0438189 0zm0.136256 0l0 -0.216827 0.16074 0 0 0.0367008 -0.116969 0 0 0.048063 0.108843 0 0 0.0364961 -0.108843 0 0 0.0590197 0.121114 0 0 0.0365472 -0.164886 0zm0.20189 -0.216827l0.0800157 0c0.0180236,0 0.0317559,0.0013622 0.041248,0.0041378 0.0127205,0.00373228 0.023626,0.0103976 0.0326614,0.0199921 0.00908661,0.00954331 0.0160039,0.0212559 0.020748,0.0350866 0.00469685,0.0138819 0.00707087,0.0309449 0.00707087,0.0512913 0,0.0178228 -0.00222441,0.0332205 -0.00666535,0.0461457 -0.00540157,0.015748 -0.013122,0.0285197 -0.0232205,0.0382677 -0.0075748,0.00741732 -0.0178228,0.0131732 -0.030748,0.017311 -0.00964173,0.00308268 -0.022563,0.00459449 -0.0387717,0.00459449l-0.0823386 0 0 -0.216827zm0.0437677 0.0367008l0 0.143579 0.0326654 0c0.0122165,0 0.0210512,-0.00065748 0.0265039,-0.0020748 0.00707087,-0.00176378 0.0129764,-0.00474409 0.0176693,-0.00898425 0.00469685,-0.00424016 0.00848425,-0.0112559 0.0114567,-0.0209488 0.00292913,-0.00969291 0.00444882,-0.0229685 0.00444882,-0.0397323 0,-0.0167598 -0.00151969,-0.0295827 -0.00444882,-0.0385709 -0.00297244,-0.00898819 -0.00711417,-0.016 -0.0124173,-0.021 -0.00535039,-0.00504724 -0.0121142,-0.00843307 -0.0202953,-0.0101969 -0.0061063,-0.00141732 -0.0180709,-0.00207087 -0.0359449,-0.00207087l-0.0196378 0z"/>
   <path id="_281894000" class="fil2" d="M2.252 2.1902l2.32265 0c0.0500709,0 0.0955433,0.0204291 0.128453,0.0533465 0.0329134,0.0329134 0.0533465,0.0783819 0.0533465,0.128453l0 1.46986c0,0.0412362 -0.0334331,0.0746693 -0.0746693,0.0746693l-2.53691 0c-0.0412362,0 -0.0746693,-0.0334331 -0.0746693,-0.0746693l0 -1.46986c0,-0.0500669 0.0204331,-0.0955394 0.0533465,-0.128453 0.0329134,-0.0329173 0.0783819,-0.0533465 0.128453,-0.0533465zm2.32265 0.149335l-2.32265 0c-0.00884646,0 -0.0169528,0.00367717 -0.0228701,0.00959449 -0.00591732,0.00591732 -0.00959055,0.0140236 -0.00959055,0.0228701l0 1.3952 2.38757 0 0 -1.3952c0,-0.00885039 -0.00367717,-0.0169528 -0.00959055,-0.0228701 -0.00591732,-0.00591732 -0.0140236,-0.00959449 -0.0228701,-0.00959449z"/>
   <path id="_281893928" class="fil2" d="M2.86884 4.48713l1.03467 0 -0.125028 -0.250862 -0.797335 0 -0.112303 0.250862zm2.22004 0.149339l-3.35112 0c-0.0453465,0 -0.0994213,-0.022 -0.135634,-0.0523898 -0.0142323,-0.0119331 -0.026689,-0.0258701 -0.0361693,-0.0412323 -0.0122441,-0.0198465 -0.0193031,-0.0414449 -0.0193031,-0.0640276 0,-0.0253819 0.00822047,-0.0498307 0.026811,-0.0719882l0.511453 -0.609484c0.0136102,-0.0182992 0.0353937,-0.0301496 0.0599488,-0.0301496l2.53691 0 0 3.93701e-006c0.0212953,1.1811e-005 0.042437,0.00907874 0.0571969,0.0266654l-0.0571969 0.0479961 0.0571654 -0.0478346 0.51424 0.612803c0.0185906,0.0221575 0.026815,0.0466181 0.026815,0.072 0,0.0225906 -0.00705906,0.044185 -0.0193031,0.0640236 -0.0094685,0.0153543 -0.0219291,0.0292835 -0.0361575,0.0412244 -0.0362244,0.0303898 -0.0903071,0.0523898 -0.135654,0.0523898z"/>
   <g>
    <path id="_281893784" class="fil2" d="M3.41333 2.81319l-6.29921e-005 0 -0.000114173 -3.93701e-006c-0.0371063,-4.72441e-005 -0.0816535,-0.0152047 -0.115673,-0.0480315 -0.0271693,-0.0262165 -0.0477205,-0.0634606 -0.0525039,-0.112866 -0.000354331,-0.00366535 -0.000633858,-0.0100079 -0.000838583,-0.0168622 -0.000279528,-0.00916142 -0.000444882,-0.0202717 -0.000484252,-0.0256181 -0.000496063,-0.063748 0.0200827,-0.105335 0.0525945,-0.131748 0.0316417,-0.0257087 0.0730906,-0.0351614 0.116488,-0.0360157l0 -0.000110236c0.00133858,-2.75591e-005 0.00265748,3.54331e-005 0.00395276,0.000177165 0.0423937,0.00120079 0.0827559,0.0107874 0.113724,0.0359488 0.0325079,0.0264134 0.0530866,0.0680039 0.0525945,0.131748 -3.93701e-005,0.00534646 -0.000204724,0.0164567 -0.000484252,0.0256181 -0.000204724,0.00685433 -0.000484252,0.0131969 -0.000838583,0.0168622 -0.00492126,0.050815 -0.0238583,0.0880906 -0.0508661,0.114146 -0.0315394,0.030437 -0.0732441,0.0445748 -0.116043,0.0466339l7.87402e-006 8.66142e-005c-0.000488189,1.9685e-005 -0.000972441,3.14961e-005 -0.00145276,3.14961e-005l0 3.93701e-006z"/>
    <path id="_281893856" class="fil2" d="M3.23785 2.73509c-0.0355236,0.0200551 -0.0661181,0.0498189 -0.0891063,0.0861969 -0.0284843,0.0450787 -0.0453504,0.10037 -0.0453504,0.159783l0 0.00447244c0,0.0194961 0.00711811,0.0375 0.0185866,0.0507992 0.0124685,0.0144646 0.0300039,0.0234409 0.0495945,0.0234409l0.48352 0c0.0195906,0 0.037126,-0.00897638 0.0495945,-0.0234409 0.0114685,-0.0132992 0.0185866,-0.0313031 0.0185866,-0.0507992l0 -0.00447244c0,-0.0589961 -0.0165866,-0.113886 -0.0446457,-0.158724 -0.0228307,-0.0364921 -0.0532913,-0.0664016 -0.0886969,-0.0866417 -0.00942913,0.0192323 -0.0219764,0.0369606 -0.0380984,0.0525118 -0.0963189,0.092937 -0.253831,0.0632835 -0.313984,-0.053126z"/>
   </g>
  </g>
 </g>
</svg>
