<?xml version="1.0" encoding="UTF-8"?>
<!DOCTYPE svg PUBLIC "-//W3C//DTD SVG 1.1//EN" "http://www.w3.org/Graphics/SVG/1.1/DTD/svg11.dtd">
<!-- Creator: CorelDRAW -->
<svg xmlns="http://www.w3.org/2000/svg" xml:space="preserve" width="6.82666in" height="6.82666in" style="shape-rendering:geometricPrecision; text-rendering:geometricPrecision; image-rendering:optimizeQuality; fill-rule:evenodd; clip-rule:evenodd"
viewBox="0 0 6.82666 6.82666"
 xmlns:xlink="http://www.w3.org/1999/xlink">
 <defs>
  <style type="text/css">
   <![CDATA[
    .fil0 {fill:#AB47BC}
    .fil1 {fill:#FFFFFE;fill-rule:nonzero}
   ]]>
  </style>
 </defs>
 <g id="Layer_x0020_1">
  <metadata id="CorelCorpID_0Corel-Layer"/>
  <circle class="fil0" cx="3.41333" cy="3.41333" r="3.41333"/>
  <g id="_281899376">
   <path id="_281900576" class="fil1" d="M3.41333 2.13468c0.323874,0 0.617106,0.131287 0.829366,0.343547 0.212256,0.212256 0.343543,0.505488 0.343543,0.829366 0,0.219339 -0.0605,0.424906 -0.165764,0.600945 -0.100713,0.168429 -0.242413,0.309457 -0.411264,0.409272l0 0.000838583 -1.19177 0 0 -0.000846457c-0.168846,-0.099815 -0.310547,-0.240835 -0.411256,-0.409268 -0.105264,-0.176039 -0.165764,-0.381606 -0.165764,-0.600941 0,-0.323878 0.131287,-0.61711 0.343543,-0.829366 0.21226,-0.21226 0.505492,-0.343547 0.829366,-0.343547zm0.595882 2.26175l0 0.204634 -1.19177 0 0 -0.204634 1.19177 0zm0 0.282413l0 0.276976c0,0.0429567 -0.0348268,0.0777795 -0.0777795,0.0777795l-1.03621 0c-0.0429528,0 -0.0777795,-0.0348228 -0.0777795,-0.0777795l0 -0.276976 1.19177 0z"/>
   <path id="_281900552" class="fil1" d="M3.80045 4.9974c0,-0.0427913 -0.034689,-0.0774764 -0.0774764,-0.0774764 -0.283598,0 -0.272945,0.00911417 -0.615492,-0.00699606 -0.0427874,-0.00201181 -0.0791063,0.0310394 -0.0811181,0.0738307 -0.000307087,0.00640157 -0.00046063,0.00977953 -0.00046063,0.0101299 0,0.0843976 0.0480118,0.158433 0.12563,0.209906 0.0682087,0.0452283 0.160866,0.0732087 0.261795,0.0732087 0.100748,0 0.193295,-0.0278976 0.26152,-0.0730276 0.0773228,-0.0511457 0.12528,-0.125035 0.125602,-0.209575z"/>
   <path id="_281899856" class="fil1" d="M3.33555 1.87085c0,0.0429567 0.0348228,0.0777795 0.0777795,0.0777795 0.0429567,0 0.0777795,-0.0348228 0.0777795,-0.0777795l0 -0.246402c0,-0.0429567 -0.0348228,-0.0777795 -0.0777795,-0.0777795 -0.0429567,0 -0.0777795,0.0348228 -0.0777795,0.0777795l0 0.246402z"/>
   <path id="_281900048" class="fil1" d="M2.00475 3.35721c0.0429567,0 0.0777795,-0.0348268 0.0777795,-0.0777795 0,-0.0429567 -0.0348228,-0.0777795 -0.0777795,-0.0777795l-0.246402 0c-0.0429567,0 -0.0777795,0.0348228 -0.0777795,0.0777795 0,0.0429528 0.0348228,0.0777795 0.0777795,0.0777795l0.246402 0z"/>
   <path id="_281899784" class="fil1" d="M5.06831 3.35721c0.0429567,0 0.0777795,-0.0348268 0.0777795,-0.0777795 0,-0.0429567 -0.0348228,-0.0777795 -0.0777795,-0.0777795l-0.246402 0c-0.0429567,0 -0.0777795,0.0348228 -0.0777795,0.0777795 0,0.0429528 0.0348228,0.0777795 0.0777795,0.0777795l0.246402 0z"/>
   <path id="_281899208" class="fil1" d="M2.36232 2.33841c0.0303701,0.0303701 0.0796142,0.0303701 0.109984,0 0.0303701,-0.0303701 0.0303701,-0.0796142 0,-0.109984l-0.174232 -0.174236c-0.0303701,-0.0303701 -0.0796142,-0.0303701 -0.109984,0 -0.0303701,0.0303701 -0.0303701,0.0796142 0,0.109984l0.174232 0.174236z"/>
   <path id="_281899160" class="fil1" d="M4.52859 4.50467c0.0303701,0.0303701 0.0796142,0.0303701 0.109984,0 0.0303701,-0.0303701 0.0303701,-0.0796142 0,-0.109984l-0.174232 -0.174232c-0.0303701,-0.0303701 -0.0796142,-0.0303701 -0.109984,0 -0.0303701,0.0303701 -0.0303701,0.0796142 0,0.109984l0.174232 0.174232z"/>
   <path id="_281899472" class="fil1" d="M4.35435 2.22842c-0.0303701,0.0303701 -0.0303701,0.0796142 0,0.109984 0.0303701,0.0303701 0.0796142,0.0303701 0.109984,0l0.174232 -0.174236c0.0303701,-0.0303701 0.0303701,-0.0796142 0,-0.109984 -0.0303701,-0.0303701 -0.0796142,-0.0303701 -0.109984,0l-0.174232 0.174236z"/>
   <path id="_281899424" class="fil1" d="M2.18809 4.39469c-0.0303701,0.0303701 -0.0303701,0.0796142 0,0.109984 0.0303701,0.0303701 0.0796142,0.0303701 0.109984,0l0.174232 -0.174232c0.0303701,-0.0303701 0.0303701,-0.0796142 0,-0.109984 -0.0303701,-0.0303701 -0.0796142,-0.0303701 -0.109984,0l-0.174232 0.174232z"/>
  </g>
 </g>
</svg>
