<?xml version="1.0" encoding="UTF-8"?>
<!DOCTYPE svg PUBLIC "-//W3C//DTD SVG 1.1//EN" "http://www.w3.org/Graphics/SVG/1.1/DTD/svg11.dtd">
<!-- Creator: CorelDRAW -->
<svg xmlns="http://www.w3.org/2000/svg" xml:space="preserve" width="6.82666in" height="6.82666in" style="shape-rendering:geometricPrecision; text-rendering:geometricPrecision; image-rendering:optimizeQuality; fill-rule:evenodd; clip-rule:evenodd"
viewBox="0 0 6.82666 6.82666"
 xmlns:xlink="http://www.w3.org/1999/xlink">
 <defs>
  <style type="text/css">
   <![CDATA[
    .fil0 {fill:#FF9800}
    .fil1 {fill:#FFFFFE}
   ]]>
  </style>
 </defs>
 <g id="Layer_x0020_1">
  <metadata id="CorelCorpID_0Corel-Layer"/>
  <circle class="fil0" cx="3.41333" cy="3.41333" r="3.41333"/>
  <path class="fil1" d="M2.07167 1.54667l1.82438 0 0 0.781173c0,0.0858819 0.0696772,0.155555 0.155555,0.155555l0.781173 0 0 2.71883c0,0.0429528 -0.0348268,0.0777795 -0.0777795,0.0777795l-2.68333 0c-0.0429528,0 -0.0777795,-0.0348268 -0.0777795,-0.0777795l0 -3.57778c0,-0.0429567 0.0348268,-0.0777795 0.0777795,-0.0777795zm0.331626 2.39076l2.02008 0 0 0.116665 -2.02008 0 0 -0.116665zm0 -0.400343l2.02008 0 0 0.116669 -2.02008 0 0 -0.116669zm0 0.800685l2.02008 0 0 0.116665 -2.02008 0 0 -0.116665zm0.42872 -1.42278l-9.05512e-005 0 -0.000153543 0c-0.0513228,-6.69291e-005 -0.112941,-0.0210315 -0.16,-0.0664409 -0.0375866,-0.0362677 -0.0660079,-0.0877795 -0.0726299,-0.156126 -0.000488189,-0.00506299 -0.000874016,-0.0138386 -0.00115748,-0.0233228 -0.000385827,-0.0126654 -0.00061811,-0.0280394 -0.000673228,-0.0354331 -0.000681102,-0.0881772 0.0277835,-0.145705 0.072752,-0.18224 0.0437717,-0.035563 0.101102,-0.0486339 0.161134,-0.049815l-3.93701e-006 -0.000153543c0.00185433,-3.54331e-005 0.00367323,4.72441e-005 0.00546457,0.000244094 0.0586457,0.00166142 0.114476,0.0149213 0.157311,0.0497244 0.0449685,0.0365354 0.073437,0.094063 0.0727559,0.18224 -5.51181e-005,0.0073937 -0.000287402,0.0227677 -0.000673228,0.0354331 -0.000283465,0.00948425 -0.000669291,0.0182598 -0.00115748,0.0233228 -0.00681102,0.0702953 -0.0330039,0.121854 -0.0703622,0.157898 -0.043626,0.0420945 -0.101315,0.0616575 -0.160512,0.0645039l0 0.00011811c-0.000669291,3.14961e-005 -0.00133465,4.72441e-005 -0.00200394,4.72441e-005l0 0zm-0.242736 -0.108035c-0.0491378,0.0277402 -0.0914567,0.0689055 -0.123252,0.119228 -0.0394055,0.0623583 -0.0627323,0.138843 -0.0627323,0.221024l0 0.00618504c0,0.0269685 0.00984646,0.0518701 0.0257087,0.0702677 0.017248,0.0200039 0.0415,0.0324252 0.0685984,0.0324252l0.668827 0c0.0270984,0 0.0513543,-0.0124213 0.0686024,-0.0324252 0.0158583,-0.0183976 0.0257047,-0.0432992 0.0257047,-0.0702677l0 -0.00618504c0,-0.0816102 -0.0229449,-0.157535 -0.061752,-0.219559 -0.0315866,-0.0504764 -0.0737126,-0.0918504 -0.122685,-0.119846 -0.0130433,0.0266102 -0.0304055,0.051126 -0.0527047,0.0726417 -0.133228,0.128555 -0.35111,0.0875315 -0.434315,-0.0734882zm1.46233 -0.401343c-0.0429528,0 -0.0777795,-0.0348268 -0.0777795,-0.0777795l0 -0.702756c0,-0.0433228 0.0342874,-0.0784134 0.0777795,-0.0784134 0.0217244,0 0.0413583,0.00890551 0.0554724,0.0232638l0.702909 0.702913 7.87402e-006 -7.87402e-006c0.0303701,0.030374 0.0303701,0.079622 0,0.109996 -0.015189,0.015185 -0.0350945,0.0227835 -0.055,0.0227795l-0.70339 3.93701e-006zm-0.639327 0.75874l1.0017 0 0 0.116665 -1.0017 0 0 -0.116665zm0.361213 -0.27637l0.104591 0.0331181c-0.016063,0.0583976 -0.0427087,0.101728 -0.080063,0.130114 -0.0372283,0.0282677 -0.0846693,0.0424606 -0.142067,0.0424606 -0.0709724,0 -0.12937,-0.0242795 -0.175063,-0.0727126 -0.0457008,-0.0485591 -0.0686102,-0.114929 -0.0686102,-0.198976 0,-0.0890236 0.0230354,-0.15813 0.0689843,-0.207433 0.0459409,-0.049185 0.106331,-0.0738386 0.181287,-0.0738386 0.0653661,0 0.118535,0.0192992 0.159374,0.0580236 0.0244055,0.0227874 0.0425866,0.0556575 0.0547874,0.0984882l-0.106957 0.0255236c-0.00622441,-0.0277677 -0.0194213,-0.0496772 -0.0395945,-0.0657402 -0.0200472,-0.016063 -0.0444528,-0.0240315 -0.0730906,-0.0240315 -0.0395945,0 -0.0718425,0.0141969 -0.0964961,0.0427087 -0.0246535,0.0283898 -0.0369803,0.0744567 -0.0369803,0.138209 0,0.0676102 0.0120787,0.115795 0.0364803,0.144437 0.0242795,0.0287638 0.0559094,0.0430787 0.0947559,0.0430787 0.0287638,0 0.0534134,-0.00908661 0.0740827,-0.0273898 0.0206732,-0.0181811 0.0354882,-0.0469449 0.0445787,-0.0860394zm0.333697 0.196602l-0.19113 -0.53478 0.117165 0 0.13522 0.395827 0.130988 -0.395827 0.114551 0 -0.1915 0.53478 -0.115295 0z"/>
 </g>
</svg>
