<?xml version="1.0" encoding="UTF-8"?>
<!DOCTYPE svg PUBLIC "-//W3C//DTD SVG 1.1//EN" "http://www.w3.org/Graphics/SVG/1.1/DTD/svg11.dtd">
<!-- Creator: CorelDRAW -->
<svg xmlns="http://www.w3.org/2000/svg" xml:space="preserve" width="6.82666in" height="6.82666in" style="shape-rendering:geometricPrecision; text-rendering:geometricPrecision; image-rendering:optimizeQuality; fill-rule:evenodd; clip-rule:evenodd"
viewBox="0 0 6.82666 6.82666"
 xmlns:xlink="http://www.w3.org/1999/xlink">
 <defs>
  <style type="text/css">
   <![CDATA[
    .fil0 {fill:#9E9E9E}
    .fil1 {fill:#FFFFFE;fill-rule:nonzero}
   ]]>
  </style>
 </defs>
 <g id="Layer_x0020_1">
  <metadata id="CorelCorpID_0Corel-Layer"/>
  <circle class="fil0" cx="3.41333" cy="3.41333" r="3.41333"/>
  <g id="_450004168">
   <path id="_450005488" class="fil1" d="M1.62444 1.99962l3.57778 0c0.0429528,0 0.0777795,0.0348228 0.0777795,0.0777795l0 2.12741c0,0.0429567 -0.0348268,0.0777795 -0.0777795,0.0777795l-3.57778 0c-0.0429567,0 -0.0777795,-0.0348228 -0.0777795,-0.0777795l0 -2.12741c0,-0.0429567 0.0348228,-0.0777795 0.0777795,-0.0777795zm3.42024 0.246705l-3.26461 0 0 1.63006 3.26461 0 0 -1.63006z"/>
   <path id="_450004936" class="fil1" d="M3.72438 4.28259c0,-0.0429528 -0.139268,-0.0777795 -0.311047,-0.0777795 -0.17178,0 -0.311047,0.0348268 -0.311047,0.0777795l0 0.466669c0,0.0429528 0.139268,0.0777795 0.311047,0.0777795 0.17178,0 0.311047,-0.0348268 0.311047,-0.0777795l0 -0.466669z"/>
   <path id="_450005560" class="fil1" d="M2.60951 4.74925c0,0.0429567 0.0399882,0.0777795 0.089315,0.0777795l1.42901 0c0.0493268,0 0.089315,-0.0348228 0.089315,-0.0777795 0,-0.24565 -1.60764,-0.250902 -1.60764,0z"/>
   <g>
    <path id="_450005104" class="fil1" d="M3.57245 2.55531c0.102098,-0.0968386 0.23374,-0.143134 0.364031,-0.139693 0.130563,0.00344882 0.259697,0.0565827 0.356433,0.158571 0.0968465,0.102098 0.143134,0.233744 0.139693,0.364035 -0.00344882,0.130563 -0.0565787,0.259693 -0.158571,0.356429 -0.102098,0.0968425 -0.23374,0.143138 -0.364028,0.139697 -0.130567,-0.00344882 -0.259701,-0.0565827 -0.356437,-0.158571 -0.0968425,-0.102098 -0.143134,-0.233744 -0.139693,-0.364035 0.00344882,-0.130567 0.0565866,-0.259697 0.158571,-0.356433zm0.360386 0.0152559c-0.0907677,-0.00239764 -0.182425,0.0298031 -0.253441,0.0971575 -0.0711299,0.0674646 -0.108177,0.157177 -0.110567,0.247665 -0.00239764,0.0907717 0.0297992,0.182429 0.0971575,0.253445 0.0674685,0.071126 0.157177,0.108173 0.247669,0.110567 0.0907677,0.00239764 0.182421,-0.0298031 0.253437,-0.0971614 0.071126,-0.0674606 0.108177,-0.157169 0.110567,-0.247665 0.00239764,-0.0907677 -0.0297953,-0.182425 -0.0971575,-0.253441 -0.0674646,-0.0711299 -0.157177,-0.108173 -0.247665,-0.110567z"/>
    <path id="_450004840" class="fil1" d="M4.29198 3.20099c-0.0293583,-0.0312087 -0.0784685,-0.0327047 -0.109677,-0.00334252 -0.0312087,0.0293622 -0.0327047,0.0784724 -0.00334252,0.109681l0.422398 0.450598c0.0293622,0.0312087 0.0784724,0.0327047 0.109677,0.00334252 0.0312087,-0.0293622 0.0327047,-0.0784724 0.00334252,-0.109681l-0.422398 -0.450598z"/>
    <polygon id="_450004648" class="fil1" points="2.0912,3.49209 4.24556,3.49209 4.39139,3.64765 2.0912,3.64765 "/>
    <path id="_450004288" class="fil1" d="M2.0912 3.02543l1.25335 0c0.00936614,0.0540276 0.0262441,0.106386 0.0500512,0.155559l-1.3034 0 0 -0.155559z"/>
    <path id="_450004240" class="fil1" d="M2.29478 2.42673l0.0895433 0 0 0.281465c0,0.036748 -0.00331102,0.0651102 -0.00973228,0.0848858 -0.00869685,0.025878 -0.0244291,0.046685 -0.0473071,0.062315 -0.022878,0.0157362 -0.053,0.0235 -0.0903701,0.0235 -0.0438898,0 -0.0776378,-0.0122126 -0.101343,-0.0368504 -0.0236063,-0.0245354 -0.0356102,-0.0605591 -0.0357165,-0.108075l0.0845748 -0.00973228c0.00103543,0.0254685 0.00476378,0.0434803 0.0111811,0.0540354 0.00973228,0.0159449 0.0245354,0.0239134 0.0443071,0.0239134 0.0199764,0 0.0341614,-0.00569291 0.0424409,-0.0171811 0.00828346,-0.0113858 0.0124213,-0.0350945 0.0124213,-0.0711181l0 -0.287157zm0.16687 0.225047c0,-0.0453425 0.00672835,-0.0833307 0.0202913,-0.114079 0.0101417,-0.022563 0.0239134,-0.0429567 0.0414055,-0.0609685 0.0174961,-0.0179094 0.0366457,-0.0312638 0.0574528,-0.0399567 0.0277441,-0.0118031 0.059626,-0.0175984 0.0958543,-0.0175984 0.0655276,0 0.117909,0.0202874 0.157248,0.0609724 0.0393346,0.0405748 0.0590039,0.0970945 0.0590039,0.169457 0,0.0718386 -0.0195669,0.127945 -0.0585906,0.168528 -0.0390276,0.0404724 -0.0912008,0.0607638 -0.156417,0.0607638 -0.0661457,0 -0.118736,-0.020189 -0.157764,-0.0604528 -0.0390236,-0.040374 -0.0584843,-0.0959606 -0.0584843,-0.166665zm0.0924409 -0.003c0,0.0503071 0.0116969,0.0885079 0.0348858,0.114488 0.0232913,0.0259843 0.0527953,0.0389213 0.0886102,0.0389213 0.0357126,0 0.0651142,-0.0128346 0.0880945,-0.0387165 0.022878,-0.0257717 0.0343701,-0.0643858 0.0343701,-0.115937 0,-0.0509331 -0.011185,-0.0889213 -0.0334409,-0.114079 -0.0223583,-0.0250512 -0.0520669,-0.0375748 -0.0890236,-0.0375748 -0.0370551,0 -0.066874,0.0127323 -0.0895433,0.0380945 -0.0225669,0.0253622 -0.0339528,0.063563 -0.0339528,0.114803zm0.409102 -0.222047l0.17774 0c0.0351969,0 0.0614882,0.00144882 0.0787795,0.00445276 0.0172874,0.00289764 0.0327087,0.00900394 0.046374,0.0183228 0.0136614,0.00931496 0.0249488,0.0216339 0.0340551,0.0371614 0.00911024,0.0154252 0.0136654,0.032815 0.0136654,0.0519646 0,0.0208071 -0.00559055,0.0399606 -0.0167717,0.0573504 -0.0112795,0.0173898 -0.0265,0.0304331 -0.0456457,0.0391299 0.0270157,0.00786614 0.0479252,0.0213268 0.0624173,0.0402677 0.0145945,0.0190472 0.0218425,0.0414055 0.0218425,0.0670787 0,0.020185 -0.00465748,0.0398543 -0.0140787,0.0590039 -0.00942126,0.0190512 -0.0222559,0.0343701 -0.0385079,0.0457559 -0.016252,0.0113858 -0.0363346,0.0184252 -0.060248,0.0211181 -0.0149055,0.00155118 -0.0510354,0.00258661 -0.10828,0.00300394l-0.151343 0 0 -0.44461zm0.0898504 0.0740157l0 0.102791 0.0587992 0c0.0349921,0 0.0567323,-0.000515748 0.0652165,-0.00155512 0.0153189,-0.00175591 0.0274331,-0.00703543 0.0362323,-0.0158346 0.00879921,-0.00879921 0.0131457,-0.0203937 0.0131457,-0.0347795 0,-0.0137717 -0.00372441,-0.0249528 -0.0112795,-0.0335433 -0.00766142,-0.00859449 -0.0189449,-0.0137677 -0.0338543,-0.0155236 -0.00890157,-0.00103937 -0.0344685,-0.00155512 -0.0767047,-0.00155512l-0.0515551 0zm0 0.176807l0 0.118839 0.0830236 0c0.0324016,0 0.0528976,-0.000826772 0.0615945,-0.00268898 0.0133543,-0.00238189 0.0242205,-0.00838976 0.0326063,-0.0177008 0.00838583,-0.00942126 0.0126299,-0.0220512 0.0126299,-0.0377874 0,-0.0133504 -0.00331102,-0.0246378 -0.00973228,-0.0339528 -0.00652362,-0.0093189 -0.0158346,-0.0161496 -0.0280512,-0.0203937 -0.0122126,-0.00424409 -0.0388189,-0.00631496 -0.0796063,-0.00631496l-0.0724646 0z"/>
   </g>
  </g>
 </g>
</svg>
