<?xml version="1.0" encoding="UTF-8"?>
<!DOCTYPE svg PUBLIC "-//W3C//DTD SVG 1.1//EN" "http://www.w3.org/Graphics/SVG/1.1/DTD/svg11.dtd">
<!-- Creator: CorelDRAW -->
<svg xmlns="http://www.w3.org/2000/svg" xml:space="preserve" width="6.82666in" height="6.82666in" style="shape-rendering:geometricPrecision; text-rendering:geometricPrecision; image-rendering:optimizeQuality; fill-rule:evenodd; clip-rule:evenodd"
viewBox="0 0 6.82666 6.82666"
 xmlns:xlink="http://www.w3.org/1999/xlink">
 <defs>
  <style type="text/css">
   <![CDATA[
    .fil0 {fill:#607D8B}
    .fil2 {fill:#FFFFFE}
    .fil1 {fill:#FFFFFE;fill-rule:nonzero}
   ]]>
  </style>
 </defs>
 <g id="Layer_x0020_1">
  <metadata id="CorelCorpID_0Corel-Layer"/>
  <circle class="fil0" cx="3.41333" cy="3.41333" r="3.41333"/>
  <g id="_450006832">
   <path id="_450007600" class="fil1" d="M1.90677 2.66935c0.110764,0 0.205831,0.0816024 0.26998,0.213535 0.055685,0.114508 0.090126,0.270878 0.090126,0.441945 0,0.171067 -0.0344409,0.327437 -0.090126,0.441945 -0.0641496,0.131933 -0.159217,0.213535 -0.26998,0.213535 -0.110764,0 -0.205835,-0.0816024 -0.269984,-0.213535 -0.0556811,-0.114508 -0.090126,-0.270878 -0.090126,-0.441945 0,-0.171067 0.0344449,-0.327437 0.090126,-0.441945 0.0641496,-0.131933 0.15922,-0.213535 0.269984,-0.213535zm0.055374 0.402323c-0.0253504,-0.0521378 -0.0560512,-0.0843858 -0.0860866,-0.0843858 -0.0300354,0 -0.0607323,0.032248 -0.0860866,0.0843858 -0.0310433,0.0638386 -0.0502441,0.153276 -0.0502441,0.253157 0,0.0998819 0.0192047,0.189319 0.0502441,0.253157 0.0253543,0.0521378 0.0560512,0.0843858 0.0860866,0.0843858 0.0300354,0 0.0607362,-0.032248 0.0860866,-0.0843858 0.0310433,-0.0638386 0.050248,-0.153276 0.050248,-0.253157 0,-0.0998819 -0.0192008,-0.189319 -0.050248,-0.253157z"/>
   <path id="_450007072" class="fil1" d="M3.6693 3.96409c-0.00664961,-0.0279567 -0.0347087,-0.0452323 -0.0626654,-0.0385827 -0.0279606,0.00664961 -0.0452323,0.0347126 -0.0385827,0.0626693l0.00498031 0.0206614 0.050622 -0.0120433 -0.0507992 0.0122441c0.00225197,0.00933858 0.00688189,0.0174764 0.0130866,0.0239331 0.00482677,0.00569685 0.0109921,0.0120512 0.0183307,0.0196142 0.0208189,0.0214488 0.0553898,0.057063 0.0699409,0.0802874 0.0152205,0.0243504 0.0472992,0.031752 0.0716496,0.0165315 0.0243504,-0.0152205 0.031752,-0.0472992 0.0165315,-0.0716496 -0.0210433,-0.0335906 -0.0599685,-0.073689 -0.0834094,-0.0978386 -0.00476772,-0.00491339 -0.00548425,-0.00248031 -0.00665748,-0.00326772l-0.00302756 -0.0125591z"/>
   <path id="_450006928" class="fil1" d="M3.50093 4.11731c-0.00665354,0.0279567 -0.0347126,0.0452323 -0.0626693,0.0385827 -0.0649488,-0.0154528 -0.037748,-0.090622 -0.0023622,-0.127079 0.0208228,-0.0214488 0.0553898,-0.057063 0.0699409,-0.0802874 0.0152205,-0.0243504 0.0472992,-0.031752 0.0716496,-0.0165315 0.0243543,0.0152205 0.0317559,0.0472992 0.0165354,0.0716496 -0.0213268,0.0340354 -0.0882087,0.0933937 -0.0930945,0.113665z"/>
   <path id="_450006760" class="fil1" d="M3.5846 3.54045c0.0616024,0 0.117378,0.0249724 0.157756,0.0653504 0.040374,0.040374 0.0653465,0.0961535 0.0653465,0.157752 0,0.0616024 -0.0249724,0.117378 -0.0653465,0.157756 -0.040378,0.040374 -0.0961535,0.0653504 -0.157756,0.0653504 -0.0615984,0 -0.117378,-0.0249764 -0.157752,-0.0653504 -0.040374,-0.040378 -0.0653504,-0.0961535 -0.0653504,-0.157756 0,-0.0615984 0.0249764,-0.117378 0.0653504,-0.157752 0.040374,-0.040378 0.0961535,-0.0653504 0.157752,-0.0653504zm0.0788858 0.14422c-0.020185,-0.0201811 -0.0480787,-0.0326654 -0.0788858,-0.0326654 -0.0308071,0 -0.0587008,0.0124843 -0.0788819,0.0326654 -0.0201811,0.020185 -0.0326654,0.0480748 -0.0326654,0.0788819 0,0.0308071 0.0124843,0.0587008 0.0326654,0.0788858 0.0201811,0.0201811 0.0480748,0.0326654 0.0788819,0.0326654 0.0308071,0 0.0587008,-0.0124843 0.0788858,-0.0326654 0.0201811,-0.020185 0.0326654,-0.0480787 0.0326654,-0.0788858 0,-0.0308071 -0.0124843,-0.0586969 -0.0326654,-0.0788819z"/>
   <path id="_450007048" class="fil2" d="M3.69171 3.47902c0.175685,0.0438386 0.20213,0.172138 0.179417,0.341504 0.130886,0.0114961 0.358854,0.0268228 0.491268,0.0458543 0.184299,0.0264961 0.370571,0.0603504 0.558701,0.101228 0.00631496,0.00168504 0.0129488,0.00259055 0.0197992,0.00259055 0.103795,0 0.192508,-0.0885748 0.252335,-0.223606 0.0532402,-0.120154 0.0867717,-0.281953 0.0867717,-0.445441 0,-0.161728 -0.0317677,-0.309654 -0.083122,-0.418043 -0.0596024,-0.125815 -0.148228,-0.203642 -0.25172,-0.203642l-0.00383465 0c-0.00277165,-1.1811e-005 -0.00556693,0.000122047 -0.00838583,0.000417323l1.9685e-005 0.000200787c-0.415256,0.0433543 -0.829008,0.126437 -1.24125,0.13348l0 0.665457zm-0.239205 -0.66339l-0.00359843 0c-0.492547,-7.87402e-005 -0.984327,-0.0839921 -1.47533,-0.135563 -0.0419685,-0.00429528 -0.0794803,0.0262441 -0.0837756,0.0682165 -0.00429528,0.0419685 0.026248,0.0794803 0.0682165,0.0837756 0.0619567,0.00650787 0.123937,0.0126102 0.185961,0.0183071 0.00573228,0.0104606 0.0112638,0.021311 0.0165748,0.0325197 0.054248,0.114508 0.0878071,0.270878 0.0878071,0.441945 0,0.171067 -0.0335591,0.327437 -0.0878071,0.441945 -0.000456693,0.00096063 -0.000913386,0.00191732 -0.00137008,0.00287402l0.00164173 -0.000350394c-0.0715472,0.0152756 -0.142839,0.0319685 -0.213878,0.0500984 -0.0409764,0.0104094 -0.0657598,0.0520748 -0.0553504,0.0930551 0.0104094,0.0409764 0.0520748,0.0657598 0.0930512,0.0553504 0.223909,-0.0571457 0.450319,-0.0996102 0.679087,-0.12811 0.179268,-0.0223386 0.45722,-0.0361772 0.63748,-0.0418661 -0.0148504,-0.128685 0.0182244,-0.233201 0.151287,-0.304988l0 -0.677209z"/>
   <path id="_450006688" class="fil2" d="M3.5721 2.70909l3.93701e-006 0c0.0236575,0 0.0430118,0.0193543 0.0430118,0.0430118l0 0.807827 -0.0860236 0 0 -0.807827c0,-0.0236575 0.0193543,-0.0430118 0.0430079,-0.0430118z"/>
  </g>
 </g>
</svg>
