<?xml version="1.0" encoding="UTF-8"?>
<!DOCTYPE svg PUBLIC "-//W3C//DTD SVG 1.1//EN" "http://www.w3.org/Graphics/SVG/1.1/DTD/svg11.dtd">
<!-- Creator: CorelDRAW -->
<svg xmlns="http://www.w3.org/2000/svg" xml:space="preserve" width="6.82666in" height="6.82666in" style="shape-rendering:geometricPrecision; text-rendering:geometricPrecision; image-rendering:optimizeQuality; fill-rule:evenodd; clip-rule:evenodd"
viewBox="0 0 6.82666 6.82666"
 xmlns:xlink="http://www.w3.org/1999/xlink">
 <defs>
  <style type="text/css">
   <![CDATA[
    .fil0 {fill:#795548}
    .fil1 {fill:#FFFFFE}
    .fil2 {fill:#FFFFFE;fill-rule:nonzero}
   ]]>
  </style>
 </defs>
 <g id="Layer_x0020_1">
  <metadata id="CorelCorpID_0Corel-Layer"/>
  <circle class="fil0" cx="3.41333" cy="3.41333" r="3.41333"/>
  <g id="_450007768">
   <path id="_450008296" class="fil1" d="M3.56267 2.19501c0.27922,0.033874 0.529539,0.161492 0.718516,0.350469 0.188976,0.188976 0.316594,0.439295 0.350469,0.718516l-0.331654 0c-0.0824488,0 -0.149335,0.0668858 -0.149335,0.149335 0,0.0824488 0.0668858,0.149335 0.149335,0.149335l0.331654 0c-0.033874,0.27922 -0.161492,0.529539 -0.350469,0.718516 -0.188976,0.188976 -0.439295,0.316594 -0.718516,0.350469l0 -0.331654c0,-0.0824488 -0.0668858,-0.149335 -0.149335,-0.149335 -0.0824488,0 -0.149335,0.0668858 -0.149335,0.149335l0 0.331654c-0.27922,-0.033874 -0.529539,-0.161492 -0.718516,-0.350469 -0.188976,-0.188976 -0.316594,-0.439295 -0.350469,-0.718516l0.331654 0c0.0824488,0 0.149335,-0.0668858 0.149335,-0.149335 0,-0.0824488 -0.0668858,-0.149335 -0.149335,-0.149335l-0.331654 0c0.033874,-0.27922 0.161492,-0.529539 0.350469,-0.718516 0.188976,-0.188976 0.439295,-0.316594 0.718516,-0.350469l0 0.33165c0,0.0824488 0.0668858,0.149335 0.149335,0.149335 0.0824488,0 0.149335,-0.0668858 0.149335,-0.149335l0 -0.33165zm-0.149335 1.26012l-9.05512e-005 0 -0.000153543 -7.87402e-006c-0.0509213,-6.29921e-005 -0.112059,-0.0208661 -0.158748,-0.0659213 -0.0372913,-0.0359764 -0.0654921,-0.0870866 -0.072063,-0.154902 -0.000484252,-0.00502362 -0.000866142,-0.0137283 -0.00114961,-0.0231378 -0.00038189,-0.0125709 -0.000610236,-0.0278189 -0.000665354,-0.0351575 -0.000677165,-0.0874882 0.0275669,-0.144567 0.072185,-0.180815 0.0434252,-0.0352835 0.100307,-0.048252 0.159874,-0.0494252l-3.93701e-006 -0.000153543c0.00183858,-3.93701e-005 0.00364567,4.72441e-005 0.00542126,0.000244094 0.058185,0.00164567 0.113579,0.0148031 0.156079,0.0493346 0.0446142,0.036248 0.0728622,0.0933268 0.072185,0.180815 -5.51181e-005,0.00733858 -0.000283465,0.0225866 -0.000665354,0.0351575 -0.000283465,0.00940945 -0.000665354,0.0181142 -0.00114961,0.0231378 -0.00675591,0.0697441 -0.032748,0.120902 -0.069811,0.156665 -0.0432874,0.0417638 -0.100524,0.0611693 -0.159256,0.0639961l0 0.00011811c-0.000665354,3.14961e-005 -0.00132677,4.33071e-005 -0.00198819,4.33071e-005l0 7.87402e-006zm-0.240839 -0.107197c-0.0487559,0.0275236 -0.0907402,0.0683701 -0.122287,0.118299 -0.0390984,0.0618701 -0.0622441,0.137752 -0.0622441,0.219291l0 0.0061378c0,0.0267559 0.00977165,0.0514685 0.0255118,0.0697205 0.0171063,0.0198504 0.0411732,0.0321732 0.0680591,0.0321732l0.663594 0c0.0268898,0 0.0509567,-0.0123228 0.068063,-0.0321732 0.0157402,-0.018252 0.0255118,-0.0429646 0.0255118,-0.0697205l0 -0.0061378c0,-0.0809685 -0.0227677,-0.156299 -0.0612717,-0.217839 -0.0313386,-0.0500827 -0.0731339,-0.0911299 -0.121728,-0.118909 -0.0129409,0.0263976 -0.0301654,0.0507283 -0.0522913,0.0720748 -0.132189,0.127547 -0.348362,0.0868425 -0.430917,-0.0729173z"/>
   <path id="_450008392" class="fil2" d="M3.488 4.3c0,-0.0412362 -0.0334331,-0.0746693 -0.0746693,-0.0746693 -0.0412362,0 -0.0746693,0.0334331 -0.0746693,0.0746693l0 0.532c0,0.0412362 0.0334331,0.0746693 0.0746693,0.0746693 0.0412362,0 0.0746693,-0.0334331 0.0746693,-0.0746693l0 -0.532zm0.811996 -0.961335c-0.0412362,0 -0.0746693,0.0334331 -0.0746693,0.0746693 0,0.0412362 0.0334331,0.0746693 0.0746693,0.0746693l0.532 0c0.0412362,0 0.0746693,-0.0334331 0.0746693,-0.0746693 0,-0.0412362 -0.0334331,-0.0746693 -0.0746693,-0.0746693l-0.532 0zm-2.30533 0c-0.0412362,0 -0.0746693,0.0334331 -0.0746693,0.0746693 0,0.0412362 0.0334331,0.0746693 0.0746693,0.0746693l0.532 0c0.0412362,0 0.0746693,-0.0334331 0.0746693,-0.0746693 0,-0.0412362 -0.0334331,-0.0746693 -0.0746693,-0.0746693l-0.532 0zm1.49333 -1.344c0,-0.0412362 -0.0334331,-0.0746654 -0.0746693,-0.0746654 -0.0412362,0 -0.0746693,0.0334291 -0.0746693,0.0746654l0 0.532c0,0.0412362 0.0334331,0.0746693 0.0746693,0.0746693 0.0412362,0 0.0746693,-0.0334331 0.0746693,-0.0746693l0 -0.532z"/>
   <path id="_450007936" class="fil2" d="M1.54666 2.592c0,0.0412362 0.0334331,0.0746693 0.0746693,0.0746693 0.0412362,0 0.0746693,-0.0334331 0.0746693,-0.0746693l0 -0.895996 0.933331 0c0.0412362,0 0.0746693,-0.0334331 0.0746693,-0.0746693 0,-0.0412362 -0.0334331,-0.0746693 -0.0746693,-0.0746693l-1.008 0c-0.0412362,0 -0.0746693,0.0334331 -0.0746693,0.0746693l0 0.970665zm2.65067 -1.04533c-0.0412362,0 -0.0746693,0.0334331 -0.0746693,0.0746693 0,0.0412362 0.0334331,0.0746693 0.0746693,0.0746693l0.933331 0 0 0.895996c0,0.0412362 0.0334331,0.0746693 0.0746693,0.0746693 0.0412362,0 0.0746693,-0.0334331 0.0746693,-0.0746693l0 -0.970665c0,-0.0412362 -0.0334331,-0.0746693 -0.0746693,-0.0746693l-1.008 0zm1.08267 2.61333c0,-0.0412362 -0.0334331,-0.0746693 -0.0746693,-0.0746693 -0.0412362,0 -0.0746693,0.0334331 -0.0746693,0.0746693l0 0.970665 -0.933331 0c-0.0412362,0 -0.0746693,0.0334331 -0.0746693,0.0746693 0,0.0412362 0.0334331,0.0746693 0.0746693,0.0746693l1.008 0c0.0412362,0 0.0746693,-0.0334331 0.0746693,-0.0746693l0 -1.04533zm-2.65067 1.12c0.0412362,0 0.0746693,-0.0334331 0.0746693,-0.0746693 0,-0.0412362 -0.0334331,-0.0746693 -0.0746693,-0.0746693l-0.933331 0 0 -0.970665c0,-0.0412362 -0.0334331,-0.0746693 -0.0746693,-0.0746693 -0.0412362,0 -0.0746693,0.0334331 -0.0746693,0.0746693l0 1.04533c0,0.0412362 0.0334331,0.0746693 0.0746693,0.0746693l1.008 0z"/>
  </g>
 </g>
</svg>
