<?xml version="1.0" encoding="UTF-8"?>
<!DOCTYPE svg PUBLIC "-//W3C//DTD SVG 1.1//EN" "http://www.w3.org/Graphics/SVG/1.1/DTD/svg11.dtd">
<!-- Creator: CorelDRAW -->
<svg xmlns="http://www.w3.org/2000/svg" xml:space="preserve" width="6.82666in" height="6.82666in" style="shape-rendering:geometricPrecision; text-rendering:geometricPrecision; image-rendering:optimizeQuality; fill-rule:evenodd; clip-rule:evenodd"
viewBox="0 0 6.82666 6.82666"
 xmlns:xlink="http://www.w3.org/1999/xlink">
 <defs>
  <style type="text/css">
   <![CDATA[
    .fil0 {fill:#3F51B5}
    .fil1 {fill:#FFFFFE}
    .fil2 {fill:#FFFFFE;fill-rule:nonzero}
   ]]>
  </style>
 </defs>
 <g id="Layer_x0020_1">
  <metadata id="CorelCorpID_0Corel-Layer"/>
  <circle class="fil0" cx="3.41333" cy="3.41333" r="3.41333"/>
  <g id="_450010096">
   <path id="_450009760" class="fil1" d="M1.62444 1.60719l3.57777 0c0.0429567,0 0.0777795,0.0348228 0.0777795,0.0777795l0 1.71111c0,0.0429528 -0.0348228,0.0777795 -0.0777795,0.0777795l-3.57777 0c-0.0429567,0 -0.0777795,-0.0348268 -0.0777795,-0.0777795l0 -1.71111c0,-0.0429567 0.0348228,-0.0777795 0.0777795,-0.0777795zm0.928319 0.841752l0 -0.536957 0.105512 0 0.219783 0.358555 0 -0.358555 0.100768 0 0 0.536957 -0.10889 0 -0.216409 -0.350177 0 0.350177 -0.100764 0zm-0.374555 0.710988l0 -0.536957 0.108516 0 0 0.211283 0.212409 0 0 -0.211283 0.10839 0 0 0.536957 -0.10839 0 0 -0.234783 -0.212409 0 0 0.234783 -0.108516 0zm0.538079 0l0 -0.536957 0.108394 0 0 0.536957 -0.108394 0zm0.212031 0l0 -0.536957 0.228287 0c0.0573819,0 0.0990157,0.00487402 0.12502,0.0145039 0.026,0.00962598 0.0468819,0.026752 0.0625079,0.0513819 0.0156299,0.024752 0.0233819,0.0528819 0.0233819,0.0846378 0,0.0402559 -0.0118819,0.0736339 -0.0355079,0.0998898 -0.0236299,0.0261299 -0.0591339,0.0427559 -0.106268,0.0495079 0.0235039,0.013752 0.0428819,0.0287559 0.0581339,0.0451339 0.015252,0.016378 0.0357559,0.045378 0.0616339,0.0871378l0.0656339 0.104764 -0.129642 0 -0.0783858 -0.116894c-0.0278819,-0.0417559 -0.0468819,-0.0680079 -0.0571339,-0.0788858 -0.010252,-0.010874 -0.0211299,-0.018252 -0.0326339,-0.022378 -0.0115,-0.004 -0.029626,-0.006 -0.0546299,-0.006l-0.021878 0 0 0.224157 -0.10852 0zm0.10852 -0.309921l0.0801339 0c0.0520118,0 0.0845157,-0.00212598 0.0975157,-0.0065 0.012878,-0.00437795 0.0230039,-0.0120039 0.0303819,-0.0227559 0.00724803,-0.010752 0.011,-0.024126 0.011,-0.0402559 0,-0.018126 -0.00487795,-0.0326299 -0.0145,-0.0437559 -0.00962598,-0.011126 -0.0232559,-0.0181299 -0.0408858,-0.0211299 -0.00874803,-0.00112205 -0.035126,-0.00174803 -0.0791339,-0.00174803l-0.0845118 0 0 0.136146zm0.429563 0.309921l0 -0.536957 0.108394 0 0 0.536957 -0.108394 0zm0.212783 0l0 -0.536957 0.105516 0 0.219783 0.358555 0 -0.358555 0.100764 0 0 0.536957 -0.10889 0 -0.216409 -0.350177 0 0.350177 -0.100764 0zm0.790496 -0.197406l0 -0.0905118 0.233657 0 0 0.213906c-0.022752,0.0220039 -0.0556299,0.0413819 -0.0987638,0.0581339 -0.0431339,0.016626 -0.0867598,0.0250039 -0.130894,0.0250039 -0.0561339,0 -0.105142,-0.011752 -0.146898,-0.0352559 -0.0417598,-0.0236299 -0.0731378,-0.0572598 -0.0941417,-0.101138 -0.021,-0.0438819 -0.0315,-0.0915157 -0.0315,-0.143024 0,-0.0558819 0.011748,-0.105638 0.035126,-0.14915 0.0235039,-0.043378 0.0577598,-0.0767598 0.103016,-0.0998898 0.0343819,-0.017874 0.0772598,-0.026752 0.12852,-0.026752 0.0666378,0 0.118768,0.014 0.15615,0.0418819 0.0375079,0.0280039 0.0616339,0.0666339 0.0723858,0.11602l-0.107642 0.020126c-0.00762598,-0.0263819 -0.021878,-0.0472559 -0.0427559,-0.0625079 -0.020878,-0.0152559 -0.0468819,-0.0228819 -0.0781378,-0.0228819 -0.047378,0 -0.0850118,0.0150039 -0.113016,0.0450079 -0.0280039,0.0301299 -0.0418819,0.0746378 -0.0418819,0.133772 0,0.0636339 0.014126,0.111516 0.0425079,0.143398 0.028252,0.031878 0.0653819,0.0477559 0.111268,0.0477559 0.022752,0 0.0455039,-0.0045 0.0683819,-0.013378 0.022752,-0.00887795 0.0423819,-0.019752 0.0587598,-0.032378l0 -0.0681378 -0.124142 0zm-1.39822 -0.778744c0,-0.0547598 0.00812598,-0.100646 0.0245039,-0.137776 0.012252,-0.027252 0.028878,-0.0518819 0.0500079,-0.0736339 0.0211299,-0.0216299 0.0442559,-0.0377559 0.0693858,-0.0482598 0.0335039,-0.014248 0.0720079,-0.021252 0.115768,-0.021252 0.0791378,0 0.142398,0.0245039 0.189902,0.0736339 0.0475079,0.0490118 0.0712638,0.117272 0.0712638,0.204657 0,0.0867638 -0.0236299,0.154524 -0.0707598,0.203531 -0.0471339,0.0488819 -0.110142,0.0733858 -0.188906,0.0733858 -0.0798898,0 -0.143398,-0.024378 -0.190528,-0.0730118 -0.0471339,-0.0487559 -0.0706378,-0.11589 -0.0706378,-0.201276zm0.111642 -0.00362598c0,0.0607559 0.014126,0.106886 0.0421299,0.138268 0.0281299,0.031378 0.0637638,0.0470079 0.10702,0.0470079 0.0431299,0 0.0786339,-0.0155039 0.10639,-0.0467598 0.0276299,-0.031126 0.0415079,-0.0777598 0.0415079,-0.14002 0,-0.0615079 -0.0135039,-0.10739 -0.0403819,-0.137772 -0.0270039,-0.0302559 -0.0628858,-0.0453819 -0.107516,-0.0453819 -0.0447598,0 -0.0807638,0.0153819 -0.108146,0.0460079 -0.027248,0.0306299 -0.0410039,0.0767638 -0.0410039,0.13865zm0.569965 0.268787l-0.128146 -0.536957 0.110894 0 0.0810118 0.368807 0.0981378 -0.368807 0.128894 0 0.0941417 0.375055 0.0823858 -0.375055 0.109142 0 -0.130394 0.536957 -0.115016 0 -0.106894 -0.401433 -0.106642 0.401433 -0.117516 0z"/>
   <path id="_450010144" class="fil2" d="M3.55088 3.43059c0,-0.0429528 -0.0615866,-0.0777795 -0.137547,-0.0777795 -0.0759606,0 -0.137547,0.0348268 -0.137547,0.0777795l0 1.71111c0,0.0429528 0.0615866,0.0777795 0.137547,0.0777795 0.0759606,0 0.137547,-0.0348268 0.137547,-0.0777795l0 -1.71111z"/>
  </g>
 </g>
</svg>
