<?xml version="1.0" encoding="UTF-8"?>
<!DOCTYPE svg PUBLIC "-//W3C//DTD SVG 1.1//EN" "http://www.w3.org/Graphics/SVG/1.1/DTD/svg11.dtd">
<!-- Creator: CorelDRAW -->
<svg xmlns="http://www.w3.org/2000/svg" xml:space="preserve" width="6.82666in" height="6.82666in" style="shape-rendering:geometricPrecision; text-rendering:geometricPrecision; image-rendering:optimizeQuality; fill-rule:evenodd; clip-rule:evenodd"
viewBox="0 0 6.82666 6.82666"
 xmlns:xlink="http://www.w3.org/1999/xlink">
 <defs>
  <style type="text/css">
   <![CDATA[
    .fil0 {fill:#EC407A}
    .fil1 {fill:#FFFFFE}
   ]]>
  </style>
 </defs>
 <g id="Layer_x0020_1">
  <metadata id="CorelCorpID_0Corel-Layer"/>
  <circle class="fil0" cx="3.41333" cy="3.41333" r="3.41333"/>
  <g id="_450010888">
   <path id="_450011416" class="fil1" d="M2.45706 3.71894c0.0896299,0.0974409 0.203106,0.178823 0.325776,0.191091 0.0977283,0.00977165 0.186941,-0.0259646 0.264752,-0.0966457 0.0677992,-0.0615866 0.122421,-0.144598 0.164429,-0.232874 0.046752,-0.098252 0.0800039,-0.207161 0.100169,-0.31761 0.0373465,-0.204551 0.0319488,-0.427673 -0.0352835,-0.625512 -0.049748,-0.146378 -0.121945,-0.269004 -0.245398,-0.326205 -0.0172598,-0.008 -0.0349134,-0.0147559 -0.0528268,-0.0202795 -0.0582283,-0.0179528 -0.117783,-0.0115118 -0.172413,0.018622 -0.18111,0.0998976 -0.27126,0.417165 -0.215224,0.636547 0.0183228,0.0717008 0.0526142,0.146185 0.105902,0.188252 0.0133898,0.0105669 0.0280591,0.0193031 0.043622,0.0240984 0.0255315,0.00787008 0.051815,0.00500394 0.0757677,-0.00820866 0.0563543,-0.0310787 0.0872205,-0.103256 0.10226,-0.173972 0.00430709,-0.0202323 0.021563,-0.0325866 0.0383976,-0.0274213 0.0168189,0.00515354 0.0270945,0.0259134 0.0227953,0.0461417 -0.0181299,0.0852638 -0.0697441,0.187205 -0.137268,0.224441 -0.0373819,0.020622 -0.0775827,0.0249134 -0.117488,0.0126142 -0.0224055,-0.00690945 -0.0434685,-0.0184291 -0.0627874,-0.0336811 -0.0655551,-0.051748 -0.109102,-0.141366 -0.131717,-0.229882 -0.0670512,-0.263941 0.0372362,-0.624295 0.249555,-0.728118 0.0680591,-0.0375433 0.141484,-0.0454173 0.214134,-0.0230236 0.361012,0.111252 0.455862,0.682138 0.380287,1.06075 -0.023437,0.117429 -0.0572992,0.235303 -0.107307,0.340398 -0.0462953,0.0972835 -0.106689,0.188028 -0.181374,0.255866 -0.0802441,0.0728937 -0.163146,0.108437 -0.245425,0.114567 0.224909,0.0270827 0.50778,-0.0354173 0.76028,-0.141232 0.0076378,-0.129429 0.0140945,-0.258921 0.0189764,-0.38848 0.00724016,-0.192008 0.0111811,-0.384555 0.00824803,-0.576697 -0.00250394,-0.164012 -0.00936614,-0.331252 -0.0299685,-0.494063 -0.0328543,-0.259661 -0.176965,-0.441626 -0.372752,-0.558154 -0.109854,-0.0653898 -0.235992,-0.110185 -0.367866,-0.136535 -0.801228,-0.160134 -0.944831,1.42374 -0.400252,2.02521z"/>
   <path id="_450011320" class="fil1" d="M3.62982 4.6024l0.553831 0.677602 0.458957 -0.650516c0.0832205,-0.380819 0.0653071,-1.58309 -0.0432874,-2.17965 -0.175035,-0.961575 -1.06046,-0.964752 -1.82395,-0.855579 0.420201,0.0595276 0.843378,0.289189 0.905937,0.783614 0.0765118,0.604614 -0.00411417,1.65613 -0.0514843,2.22452z"/>
  </g>
 </g>
</svg>
