<?xml version="1.0" encoding="UTF-8"?>
<!DOCTYPE svg PUBLIC "-//W3C//DTD SVG 1.1//EN" "http://www.w3.org/Graphics/SVG/1.1/DTD/svg11.dtd">
<!-- Creator: CorelDRAW -->
<svg xmlns="http://www.w3.org/2000/svg" xml:space="preserve" width="6.82666in" height="6.82666in" style="shape-rendering:geometricPrecision; text-rendering:geometricPrecision; image-rendering:optimizeQuality; fill-rule:evenodd; clip-rule:evenodd"
viewBox="0 0 6.82666 6.82666"
 xmlns:xlink="http://www.w3.org/1999/xlink">
 <defs>
  <style type="text/css">
   <![CDATA[
    .fil0 {fill:#7E57C2}
    .fil1 {fill:#FFFFFE;fill-rule:nonzero}
   ]]>
  </style>
 </defs>
 <g id="Layer_x0020_1">
  <metadata id="CorelCorpID_0Corel-Layer"/>
  <circle class="fil0" cx="3.41333" cy="3.41333" r="3.41333"/>
  <g id="_450011944">
   <polygon id="_450012592" class="fil1" points="3.21422,2.98079 4.30933,2.98079 4.30933,3.09279 3.21422,3.09279 "/>
   <polygon id="_450012136" class="fil1" points="3.21422,2.71531 4.30933,2.71531 4.30933,2.82731 3.21422,2.82731 "/>
   <polygon id="_450012472" class="fil1" points="2.51732,3.21128 4.30933,3.21128 4.30933,3.32328 2.51732,3.32328 "/>
   <polygon id="_450012448" class="fil1" points="2.51732,3.44539 4.30933,3.44539 4.30933,3.55739 2.51732,3.55739 "/>
   <path id="_450012016" class="fil1" d="M2.252 2.1902l2.32265 0c0.0500709,0 0.0955433,0.0204291 0.128453,0.0533465 0.0329134,0.0329134 0.0533465,0.0783819 0.0533465,0.128453l0 1.46986c0,0.0412362 -0.0334331,0.0746693 -0.0746693,0.0746693l-2.53691 0c-0.0412362,0 -0.0746693,-0.0334331 -0.0746693,-0.0746693l0 -1.46986c0,-0.0500669 0.0204331,-0.0955394 0.0533465,-0.128453 0.0329134,-0.0329173 0.0783819,-0.0533465 0.128453,-0.0533465zm2.32265 0.149335l-2.32265 0c-0.00884646,0 -0.0169528,0.00367717 -0.0228701,0.00959449 -0.00591732,0.00591732 -0.00959055,0.0140236 -0.00959055,0.0228701l0 1.3952 2.38757 0 0 -1.3952c0,-0.00885039 -0.00367717,-0.0169528 -0.00959055,-0.0228701 -0.00591732,-0.00591732 -0.0140236,-0.00959449 -0.0228701,-0.00959449z"/>
   <path id="_450012400" class="fil1" d="M2.86884 4.48713l1.03467 0 -0.125028 -0.250862 -0.797335 0 -0.112303 0.250862zm2.22004 0.149339l-3.35112 0c-0.0453465,0 -0.0994213,-0.022 -0.135634,-0.0523898 -0.0142323,-0.0119331 -0.026689,-0.0258701 -0.0361693,-0.0412323 -0.0122441,-0.0198465 -0.0193031,-0.0414449 -0.0193031,-0.0640276 0,-0.0253819 0.00822047,-0.0498307 0.026811,-0.0719882l0.511453 -0.609484c0.0136102,-0.0182992 0.0353937,-0.0301496 0.0599488,-0.0301496l2.53691 0 0 3.93701e-006c0.0212953,1.1811e-005 0.042437,0.00907874 0.0571969,0.0266654l-0.0571969 0.0479961 0.0571654 -0.0478346 0.51424 0.612803c0.0185906,0.0221575 0.026815,0.0466181 0.026815,0.072 0,0.0225906 -0.00705906,0.044185 -0.0193031,0.0640236 -0.0094685,0.0153543 -0.0219291,0.0292835 -0.0361575,0.0412244 -0.0362244,0.0303898 -0.0903071,0.0523898 -0.135654,0.0523898z"/>
   <path id="_450012280" class="fil1" d="M2.64222 2.76809c-0.0355236,0.0200551 -0.0661142,0.049815 -0.0891024,0.0861969 -0.0284882,0.0450787 -0.0453504,0.10037 -0.0453504,0.159783l0 0.00447244c0,0.0194961 0.00711811,0.0375 0.0185866,0.0507992 0.0124646,0.0144646 0.03,0.0234409 0.0495906,0.0234409l0.48352 0c0.0195945,0 0.0371299,-0.00897638 0.0495945,-0.0234409 0.0114685,-0.0132992 0.0185866,-0.0313031 0.0185866,-0.0507992l0 -0.00447244c0,-0.059 -0.0165866,-0.113886 -0.0446417,-0.158724 -0.0228346,-0.0364961 -0.0532913,-0.0664016 -0.0886969,-0.0866457 -0.00942913,0.0192362 -0.0219803,0.0369646 -0.0380984,0.0525197 -0.0963189,0.092937 -0.253835,0.0632756 -0.313988,-0.0531299zm0.175484 0.0781063l-6.29921e-005 0 -0.000110236 -3.93701e-006c-0.0371063,-4.72441e-005 -0.0816535,-0.0152047 -0.115673,-0.0480315 -0.0271732,-0.0262165 -0.0477205,-0.0634606 -0.0525079,-0.11287 -0.000350394,-0.00366142 -0.000629921,-0.0100039 -0.000838583,-0.0168583 -0.000275591,-0.00916142 -0.000444882,-0.0202717 -0.000484252,-0.0256181 -0.000492126,-0.063748 0.0200866,-0.105335 0.0525984,-0.131748 0.0316417,-0.0257087 0.0730866,-0.0351614 0.116488,-0.0360157l-3.93701e-006 -0.000110236c0.00133858,-2.75591e-005 0.00265748,3.54331e-005 0.00395276,0.000177165 0.0423937,0.00120079 0.0827559,0.0107874 0.113724,0.0359488 0.0325079,0.0264134 0.0530906,0.068 0.0525984,0.131748 -3.93701e-005,0.00534646 -0.000208661,0.0164567 -0.000484252,0.0256181 -0.000208661,0.00685433 -0.000488189,0.0131969 -0.000838583,0.0168583 -0.00492126,0.0508189 -0.0238622,0.0880945 -0.0508661,0.11415 -0.0315433,0.0304331 -0.073248,0.0445748 -0.116043,0.0466339l3.93701e-006 8.66142e-005c-0.000488189,1.9685e-005 -0.000968504,3.14961e-005 -0.00145276,3.14961e-005l0 3.93701e-006z"/>
  </g>
 </g>
</svg>
