<?xml version="1.0" encoding="UTF-8"?>
<!DOCTYPE svg PUBLIC "-//W3C//DTD SVG 1.1//EN" "http://www.w3.org/Graphics/SVG/1.1/DTD/svg11.dtd">
<!-- Creator: CorelDRAW -->
<svg xmlns="http://www.w3.org/2000/svg" xml:space="preserve" width="6.82666in" height="6.82666in" style="shape-rendering:geometricPrecision; text-rendering:geometricPrecision; image-rendering:optimizeQuality; fill-rule:evenodd; clip-rule:evenodd"
viewBox="0 0 6.82666 6.82666"
 xmlns:xlink="http://www.w3.org/1999/xlink">
 <defs>
  <style type="text/css">
   <![CDATA[
    .fil0 {fill:#00838F}
    .fil1 {fill:#FFFFFE;fill-rule:nonzero}
   ]]>
  </style>
 </defs>
 <g id="Layer_x0020_1">
  <metadata id="CorelCorpID_0Corel-Layer"/>
  <circle class="fil0" cx="3.41333" cy="3.41333" r="3.41333"/>
  <g id="_450012760">
   <path id="_450014200" class="fil1" d="M2.98708 1.54666l0.851795 0c0.196232,0 0.269382,0.133492 0.344516,0.270622l0.00747244 0.0136181c0.0621024,0.112933 0.0882402,0.238783 0.085811,0.37489 -0.00234252,0.131075 -0.0314291,0.271299 -0.0803425,0.418291 -0.0274449,0.0824803 -0.0705,0.160902 -0.135465,0.216685 -0.0577835,0.0496181 -0.130669,0.080622 -0.221992,0.080622l-0.851795 0c-0.101831,0 -0.176626,-0.0388504 -0.235102,-0.0982795 -0.0529882,-0.0538543 -0.0892126,-0.122339 -0.119925,-0.192039 -0.0512087,-0.116213 -0.0803465,-0.239819 -0.082126,-0.372559 -0.00175591,-0.131138 0.0234764,-0.270039 0.0809134,-0.418189 0.0280945,-0.0724843 0.0652795,-0.14272 0.11952,-0.196673 0.0592047,-0.0588858 0.135539,-0.0969882 0.23672,-0.0969882z"/>
   <path id="_450013864" class="fil1" d="M3.53919 2.8906c0,-0.0429528 -0.0563504,-0.0777795 -0.125858,-0.0777795 -0.0695079,0 -0.125858,0.0348268 -0.125858,0.0777795l0 0.694209c0,0.0429567 0.0563504,0.0777835 0.125858,0.0777835 0.0695079,0 0.125858,-0.0348268 0.125858,-0.0777835l0 -0.694209z"/>
   <path id="_450013576" class="fil1" d="M3.49111 4.13339c0,-0.0429528 -0.0348228,-0.0777795 -0.0777795,-0.0777795 -0.0429567,0 -0.0777795,0.0348268 -0.0777795,0.0777795l0 0.694209c0,0.0429567 0.0348228,0.0777835 0.0777795,0.0777835 0.0429567,0 0.0777795,-0.0348268 0.0777795,-0.0777835l0 -0.694209z"/>
   <path id="_450013480" class="fil1" d="M3.55817 4.45171c0,-0.0252402 -0.0648504,-0.0457087 -0.144839,-0.0457087 -0.0799882,0 -0.144839,0.0204685 -0.144839,0.0457087l0 0.407961c0,0.0252402 0.0648504,0.0457087 0.144839,0.0457087 0.0799882,0 0.144839,-0.0204685 0.144839,-0.0457087l0 -0.407961z"/>
   <path id="_450014008" class="fil1" d="M2.37909 3.81533l0 -0.258209c0,-0.0429528 0.0348268,-0.0777795 0.0777795,-0.0777795 0.00874409,0 0.0171575,0.00144882 0.0250039,0.00411024 0.0326457,0.00927165 0.066685,0.0175394 0.10152,0.0249764 0.0377402,0.00805906 0.0764764,0.0152677 0.11548,0.0217953 0.271744,0.0455 0.524394,0.0655 0.761024,0.0641339 0.235988,-0.00136614 0.457161,-0.0240157 0.66637,-0.0638307 0.0400039,-0.00761024 0.0790748,-0.0154843 0.115744,-0.0237244 0.0375354,-0.00842913 0.0733228,-0.0173268 0.106205,-0.0268386l0.0215709 0.0744331 -0.021622 -0.0747126c0.0412598,-0.0119409 0.0843976,0.0118307 0.0963346,0.0530906 0.00224803,0.00776772 0.00322835,0.0156024 0.00306693,0.0232835l0 0.259272c0,0.101102 -0.0626614,0.171154 -0.158508,0.222768 -0.0780591,0.0420354 -0.179701,0.0713543 -0.283622,0.0964134 -0.173717,0.0418898 -0.357827,0.0657283 -0.554815,0.0671693 -0.196276,0.00144094 -0.404594,-0.0193189 -0.627268,-0.0665669 -0.106268,-0.0225433 -0.209035,-0.0522677 -0.287429,-0.0954094 -0.0952205,-0.0523937 -0.156835,-0.124016 -0.156835,-0.224374z"/>
   <path id="_450013552" class="fil1" d="M2.28868 2.80494c0,-0.0429567 -0.0348268,-0.0777795 -0.0777795,-0.0777795 -0.0429567,0 -0.0777795,0.0348228 -0.0777795,0.0777795l0 0.879543c0,0.0429528 0.0348228,0.0777795 0.0777795,0.0777795 0.0429528,0 0.0777795,-0.0348268 0.0777795,-0.0777795l0 -0.879543z"/>
   <path id="_450013816" class="fil1" d="M2.01868 2.77882c0,0.0529724 0.0348228,0.0959173 0.0777795,0.0959173l0.228878 0c0.0429567,0 0.0777835,-0.0429449 0.0777835,-0.0959173 0,-0.14565 -0.384441,-0.14565 -0.384441,0z"/>
   <path id="_450013312" class="fil1" d="M4.42354 2.77882c0,0.0529724 0.0348268,0.0959173 0.0777835,0.0959173l0.228878 0c0.0429567,0 0.0777795,-0.0429449 0.0777795,-0.0959173 0,-0.14565 -0.384441,-0.14565 -0.384441,0z"/>
   <path id="_450013624" class="fil1" d="M4.69355 2.80494c0,-0.0429567 -0.0348268,-0.0777795 -0.0777795,-0.0777795 -0.0429567,0 -0.0777795,0.0348228 -0.0777795,0.0777795l0 0.879543c0,0.0429528 0.0348228,0.0777795 0.0777795,0.0777795 0.0429528,0 0.0777795,-0.0348268 0.0777795,-0.0777795l0 -0.879543z"/>
   <path id="_450013768" class="fil1" d="M4.61577 3.76226c0.0429567,0 0.0777795,-0.0348268 0.0777795,-0.0777795 0,-0.0429567 -0.0348228,-0.0777795 -0.0777795,-0.0777795l-0.228882 0c-0.0429528,0 -0.0777795,0.0348228 -0.0777795,0.0777795 0,0.0429528 0.0348268,0.0777795 0.0777795,0.0777795l0.228882 0z"/>
   <path id="_450013888" class="fil1" d="M2.43978 3.76226c0.0429528,0 0.0777795,-0.0348268 0.0777795,-0.0777795 0,-0.0429567 -0.0348268,-0.0777795 -0.0777795,-0.0777795l-0.228882 0c-0.0429567,0 -0.0777795,0.0348228 -0.0777795,0.0777795 0,0.0429528 0.0348228,0.0777795 0.0777795,0.0777795l0.228882 0z"/>
   <path id="_450012952" class="fil1" d="M2.53089 5.14723c-0.0303701,0.0303701 -0.0303701,0.0796142 0,0.109984 0.0303701,0.0303701 0.0796142,0.0303701 0.109984,0l0.157299 -0.157299c0.582969,-0.109551 0.63011,-0.110469 1.21367,-0.0166378l0.173945 0.173937c0.0303701,0.0303701 0.0796142,0.0303701 0.109984,0 0.0303701,-0.0303701 0.0303701,-0.0796142 0,-0.109984l-0.190563 -0.190555c-0.0111772,-0.0115197 -0.026,-0.0196929 -0.0430512,-0.0225236l-0.0127244 0.0767323 0.0124567 -0.076563 -0.630031 -0.104504c-0.0104567,-0.00257087 -0.0216181,-0.00300394 -0.0328898,-0.000885827l3.54331e-005 0.000188976 -0.648012 0.12178c-0.0168228,0.00194094 -0.0331378,0.00935827 -0.0460394,0.0222598l3.93701e-006 7.87402e-006 -0.174067 0.174063z"/>
   <path id="_450012856" class="fil1" d="M3.41333 4.28347c-0.0214764,0 -0.0388898,0.0174134 -0.0388898,0.0388898 0,0.0214764 0.0174134,0.0388898 0.0388898,0.0388898l0.372508 0 0.0440472 0.0456732 0.0594134 0.0852244c0.0212795,0.0221299 0.0564803,0.022811 0.0786102,0.00152756 0.022122,-0.0212835 0.0228071,-0.0575709 0.00152362,-0.0797008l-0.0809291 -0.0587795 -0.0564094 -0.0584882c-0.00713386,-0.00855512 -0.0178701,-0.0132362 -0.029878,-0.0132362l-0.388886 0z"/>
  </g>
 </g>
</svg>
