<?xml version="1.0" encoding="UTF-8"?>
<!DOCTYPE svg PUBLIC "-//W3C//DTD SVG 1.1//EN" "http://www.w3.org/Graphics/SVG/1.1/DTD/svg11.dtd">
<!-- Creator: CorelDRAW -->
<svg xmlns="http://www.w3.org/2000/svg" xml:space="preserve" width="6.82666in" height="6.82666in" style="shape-rendering:geometricPrecision; text-rendering:geometricPrecision; image-rendering:optimizeQuality; fill-rule:evenodd; clip-rule:evenodd"
viewBox="0 0 6.82666 6.82666"
 xmlns:xlink="http://www.w3.org/1999/xlink">
 <defs>
  <style type="text/css">
   <![CDATA[
    .fil0 {fill:#8BC34A}
    .fil2 {fill:#FFFFFE}
    .fil1 {fill:#FFFFFE;fill-rule:nonzero}
   ]]>
  </style>
 </defs>
 <g id="Layer_x0020_1">
  <metadata id="CorelCorpID_0Corel-Layer"/>
  <circle class="fil0" cx="3.41333" cy="3.41333" r="3.41333"/>
  <g id="_450014536">
   <path id="_450015256" class="fil1" d="M3.12607 1.54779l2.0762 0c0.0429291,0 0.0777323,0.0348031 0.0777323,0.0777323l0 3.57562c0,0.0429291 -0.0348031,0.0777323 -0.0777323,0.0777323l-2.0762 0c-0.0429291,0 -0.0777323,-0.0348031 -0.0777323,-0.0777323l0 -3.57562c0,-0.0429291 0.0348031,-0.0777323 0.0777323,-0.0777323zm1.99847 0.155465l-1.92073 0 0 3.42016 1.92073 0 0 -3.42016z"/>
   <path id="_450015376" class="fil1" d="M3.03875 2.82063l-1.33662 0 0 2.30278 1.33662 0 0 -2.30278zm-1.41435 -0.155465l1.49209 0c0.0429291,0 0.0777323,0.0348031 0.0777323,0.0777323l0 2.45824c0,0.0429291 -0.0348031,0.0777323 -0.0777323,0.0777323l-1.49209 0c-0.0429291,0 -0.0777323,-0.0348031 -0.0777323,-0.0777323l0 -2.45824c0,-0.0429291 0.0348031,-0.0777323 0.0777323,-0.0777323z"/>
   <path id="_450014872" class="fil2" d="M3.07822 5.19628l0 -2.40905 -1.43378 0 0 2.40905 1.43378 0zm-0.592701 -2.02022l0.310594 0 0.0388661 0 0 0.0388661 0 0.310921 0 0.0388661 -0.0388661 0 -0.310594 0 -0.0388661 0 0 -0.0388661 0 -0.310921 0 -0.0388661 0.0388661 0zm-0.0388661 0.60163l0.0388661 0 0.310594 0 0.0388661 0 0 0.0388661 0 0.310921 0 0.0388701 -0.0388661 0 -0.310594 0 -0.0388661 0 0 -0.0388701 0 -0.310921 0 -0.0388661zm0.0388661 0.60163l0.310594 0 0.0388661 0 0 0.0388661 0 0.310925 0 0.0388661 -0.0388661 0 -0.310594 0 -0.0388661 0 0 -0.0388661 0 -0.310925 0 -0.0388661 0.0388661 0zm-0.230154 -1.20326l0.0388661 0 0 0.0388661 0 0.310921 0 0.0388661 -0.0388661 0 -0.310594 0 -0.0388661 0 0 -0.0388661 0 -0.310921 0 -0.0388661 0.0388661 0 0.310594 0zm-0.310594 0.60163l0.310594 0 0.0388661 0 0 0.0388661 0 0.310921 0 0.0388701 -0.0388661 0 -0.310594 0 -0.0388661 0 0 -0.0388701 0 -0.310921 0 -0.0388661 0.0388661 0zm0 0.60163l0.310594 0 0.0388661 0 0 0.0388661 0 0.310925 0 0.0388661 -0.0388661 0 -0.310594 0 -0.0388661 0 0 -0.0388661 0 -0.310925 0 -0.0388661 0.0388661 0z"/>
   <path id="_450015088" class="fil2" d="M3.14109 1.66209l0.0110866 3.46132 0.545598 0 0 -1.01432c0,-0.0429291 0.0348071,-0.0777323 0.0777362,-0.0777323l0.777307 0c0.0429291,0 0.0777323,0.0348031 0.0777323,0.0777323l0 1.01432 0.530413 -1.5748e-005 -0.0110827 -3.46132 -2.00879 1.5748e-005zm0.637622 1.92535l-0.310594 0 -0.0388661 0 0 -0.0388661 0 -0.310925 0 -0.0388661 0.0388661 0 0.310594 0 0.0388661 0 0 0.0388661 0 0.310925 0 0.0388661 -0.0388661 0zm0.191287 -0.0388661l0 -0.310925 0 -0.0388661 0.0388661 0 0.310594 0 0.0388661 0 0 0.0388661 0 0.310925 0 0.0388661 -0.0388661 0 -0.310594 0 -0.0388661 0 0 -0.0388661zm0.540748 0l0 -0.310925 0 -0.0388661 0.0388661 0 0.310594 0 0.0388661 0 0 0.0388661 0 0.310925 0 0.0388661 -0.0388661 0 -0.310594 0 -0.0388661 0 0 -0.0388661zm-0.540748 -0.601634l0 -0.310921 0 -0.0388661 0.0388661 0 0.310594 0 0.0388661 0 0 0.0388661 0 0.310921 0 0.0388661 -0.0388661 0 -0.310594 0 -0.0388661 0 0 -0.0388661zm-0.191287 0.0388661l-0.310594 0 -0.0388661 0 0 -0.0388661 0 -0.310921 0 -0.0388661 0.0388661 0 0.310594 0 0.0388661 0 0 0.0388661 0 0.310921 0 0.0388661 -0.0388661 0zm0.230154 -0.60163l-0.0388661 0 0 -0.0388661 0 -0.310921 0 -0.0388661 0.0388661 0 0.310594 0 0.0388661 0 0 0.0388661 0 0.310921 0 0.0388661 -0.0388661 0 -0.310594 0zm-0.230154 0l-0.310594 0 -0.0388661 0 0 -0.0388661 0 -0.310921 0 -0.0388661 0.0388661 0 0.310594 0 0.0388661 0 0 0.0388661 0 0.310921 0 0.0388661 -0.0388661 0zm0.732035 0.562764l0 -0.310921 0 -0.0388661 0.0388661 0 0.310594 0 0.0388661 0 0 0.0388661 0 0.310921 0 0.0388661 -0.0388661 0 -0.310594 0 -0.0388661 0 0 -0.0388661zm0 -0.60163l0 -0.310921 0 -0.0388661 0.0388661 0 0.310594 0 0.0388661 0 0 0.0388661 0 0.310921 0 0.0388661 -0.0388661 0 -0.310594 0 -0.0388661 0 0 -0.0388661z"/>
   <rect id="_450014584" class="fil2" x="4.12371" y="3.98335" width="0.0546546" height="1.17204"/>
  </g>
 </g>
</svg>
