<?xml version="1.0" encoding="UTF-8"?>
<!DOCTYPE svg PUBLIC "-//W3C//DTD SVG 1.1//EN" "http://www.w3.org/Graphics/SVG/1.1/DTD/svg11.dtd">
<!-- Creator: CorelDRAW -->
<svg xmlns="http://www.w3.org/2000/svg" xml:space="preserve" width="6.82666in" height="6.82666in" style="shape-rendering:geometricPrecision; text-rendering:geometricPrecision; image-rendering:optimizeQuality; fill-rule:evenodd; clip-rule:evenodd"
viewBox="0 0 6.82666 6.82666"
 xmlns:xlink="http://www.w3.org/1999/xlink">
 <defs>
  <style type="text/css">
   <![CDATA[
    .fil0 {fill:#C0CA33}
    .fil2 {fill:#FFFFFE}
    .fil1 {fill:#FFFFFE;fill-rule:nonzero}
   ]]>
  </style>
 </defs>
 <g id="Layer_x0020_1">
  <metadata id="CorelCorpID_0Corel-Layer"/>
  <circle class="fil0" cx="3.41333" cy="3.41333" r="3.41333"/>
  <g id="_450015760">
   <g>
    <path id="_450016648" class="fil1" d="M1.62444 1.99962l3.57778 0c0.0429567,0 0.0777795,0.0348268 0.0777795,0.0777795l0 2.12742c0,0.0429528 -0.0348228,0.0777795 -0.0777795,0.0777795l-3.57778 0c-0.0429528,0 -0.0777795,-0.0348268 -0.0777795,-0.0777795l0 -2.12742c0,-0.0429528 0.0348268,-0.0777795 0.0777795,-0.0777795zm3.42024 0.246705l-3.26461 0 0 1.63006 3.26461 0 0 -1.63006z"/>
    <path id="_450016984" class="fil1" d="M3.72437 4.28259c0,-0.0429528 -0.139268,-0.0777795 -0.311047,-0.0777795 -0.17178,0 -0.311047,0.0348268 -0.311047,0.0777795l0 0.466665c0,0.0429567 0.139268,0.0777795 0.311047,0.0777795 0.17178,0 0.311047,-0.0348228 0.311047,-0.0777795l0 -0.466665z"/>
    <path id="_450017104" class="fil1" d="M2.6095 4.74926c0,0.0429528 0.0399921,0.0777795 0.089315,0.0777795l1.42901 0c0.0493268,0 0.089315,-0.0348268 0.089315,-0.0777795 0,-0.24565 -1.60764,-0.250902 -1.60764,0z"/>
   </g>
   <path id="_450016360" class="fil1" d="M2.13139 2.46467l0.0895433 0 0 0.295299c0,0.0385551 -0.00331496,0.068315 -0.00973228,0.0890591 -0.00869685,0.0271496 -0.0244291,0.0489803 -0.0473071,0.065378 -0.022878,0.0165079 -0.0530039,0.0246535 -0.090374,0.0246535 -0.0438858,0 -0.0776339,-0.012815 -0.101339,-0.0386614 -0.0236024,-0.0257402 -0.0356142,-0.0635354 -0.0357165,-0.113386l0.0845748 -0.0102087c0.00103543,0.0267205 0.00476378,0.0456181 0.0111811,0.0566929 0.00972835,0.0167244 0.0245354,0.0250866 0.0443071,0.0250866 0.0199764,0 0.0341614,-0.00597244 0.0424409,-0.0180236 0.00827953,-0.0119488 0.0124213,-0.0368228 0.0124213,-0.0746142l0 -0.301276zm0.16687 0.23611c0,-0.0475709 0.00672835,-0.0874252 0.0202874,-0.119685 0.0101457,-0.0236732 0.0239134,-0.0450709 0.0414094,-0.0639646 0.0174921,-0.0187913 0.0366457,-0.0327992 0.0574528,-0.0419213 0.0277402,-0.0123858 0.059622,-0.0184646 0.0958543,-0.0184646 0.0655276,0 0.117909,0.0212835 0.157244,0.0639685 0.0393346,0.0425709 0.0590079,0.10187 0.0590079,0.177787 0,0.0753701 -0.0195669,0.134236 -0.0585945,0.176811 -0.0390236,0.0424646 -0.0912008,0.063748 -0.156413,0.063748 -0.0661457,0 -0.118736,-0.0211772 -0.157764,-0.0634252 -0.0390236,-0.0423543 -0.0584843,-0.100677 -0.0584843,-0.174854zm0.0924409 -0.00314961c0,0.0527835 0.0116969,0.0928583 0.0348819,0.120118 0.0232953,0.0272598 0.0527992,0.0408346 0.0886142,0.0408346 0.0357126,0 0.0651102,-0.0134685 0.0880906,-0.0406181 0.0228819,-0.0270433 0.034374,-0.0675512 0.034374,-0.121638 0,-0.053437 -0.011185,-0.0932953 -0.0334409,-0.119685 -0.0223583,-0.0262795 -0.0520669,-0.0394252 -0.0890236,-0.0394252 -0.0370591,0 -0.066874,0.0133622 -0.0895433,0.0399685 -0.0225669,0.0266102 -0.0339528,0.066685 -0.0339528,0.120445zm0.409102 -0.232961l0.17774 0c0.0351929,0 0.0614882,0.00152362 0.0787795,0.00466929 0.0172874,0.00304331 0.0327087,0.00945276 0.046374,0.0192283 0.0136614,0.00977165 0.0249488,0.0226969 0.0340551,0.0389882 0.00911024,0.0161811 0.0136654,0.0344252 0.0136654,0.0545197 0,0.0218268 -0.00559055,0.0419213 -0.0167717,0.0601654 -0.0112835,0.018248 -0.0265,0.0319331 -0.0456496,0.0410551 0.0270157,0.00825197 0.0479291,0.0223701 0.0624213,0.042248 0.0145945,0.0199843 0.0218425,0.0434409 0.0218425,0.070374 0,0.0211772 -0.00465748,0.041815 -0.0140787,0.0619055 -0.00942126,0.0199843 -0.0222559,0.0360591 -0.0385118,0.0480039 -0.016252,0.0119488 -0.0363346,0.0193307 -0.0602441,0.0221575 -0.0149094,0.00162598 -0.0510354,0.0027126 -0.108283,0.00314567l-0.151339 0 0 -0.466461zm0.0898504 0.0776575l0 0.107839 0.0587992 0c0.0349882,0 0.0567283,-0.00053937 0.0652165,-0.00162598 0.0153189,-0.00184646 0.0274331,-0.00738583 0.0362323,-0.0166142 0.00879528,-0.00923228 0.0131457,-0.0213937 0.0131457,-0.0364921 0,-0.0144488 -0.00372441,-0.0261732 -0.0112835,-0.0351929 -0.00766142,-0.00901181 -0.0189409,-0.0144409 -0.0338543,-0.0162835 -0.00889764,-0.00109055 -0.0344685,-0.00162992 -0.0767047,-0.00162992l-0.0515512 0zm0 0.185496l0 0.124681 0.0830236 0c0.0323976,0 0.0528976,-0.000870079 0.0615906,-0.00282283 0.0133583,-0.0025 0.0242244,-0.00880315 0.0326102,-0.0185748 0.00838583,-0.00988189 0.0126299,-0.0231339 0.0126299,-0.0396417 0,-0.0140079 -0.00331102,-0.0258465 -0.00973228,-0.0356181 -0.00652362,-0.00977953 -0.0158386,-0.0169488 -0.0280551,-0.0214016 -0.0122126,-0.00445276 -0.0388189,-0.00662205 -0.0796024,-0.00662205l-0.0724646 0z"/>
   <polygon id="_450016216" class="fil1" points="3.33586,2.85369 4.89143,2.85369 4.89143,2.93147 3.33586,2.93147 "/>
   <polygon id="_450015976" class="fil1" points="3.3313,2.46567 4.88686,2.46567 4.88686,2.54345 3.3313,2.54345 "/>
   <path id="_450016264" class="fil2" d="M1.9398 3.09652l2.94706 0 0 0.404469 -0.370504 -0.0971339 0.0599488 0.242583 -2.6365 0 0 -0.549917zm0.793228 0.44663l-0.0754606 0 -0.0299764 -0.0780197 -0.13726 0 -0.0282953 0.0780197 -0.0735472 0 0.13374 -0.343343 0.0733031 0 0.137496 0.343343zm-0.127661 -0.135815l-0.0473268 -0.127429 -0.0463622 0.127429 0.093689 0zm0.287969 0.135815l0 -0.343343 0.111193 0c0.0421299,0 0.0696299,0.00175984 0.0824213,0.00519685 0.0196614,0.00511417 0.0362126,0.0163071 0.0494803,0.0335748 0.0132717,0.0172677 0.0199055,0.0395709 0.0199055,0.0668307 0,0.0211024 -0.00383858,0.0388504 -0.0115118,0.0531575 -0.00767323,0.0143898 -0.0173465,0.0256614 -0.0291772,0.0338937 -0.011748,0.00815748 -0.0237402,0.0135906 -0.0358937,0.0162283 -0.0165472,0.00327953 -0.0405276,0.00496063 -0.0719449,0.00496063l-0.0451654 0 0 0.1295 -0.0693071 0zm0.0693071 -0.285224l0 0.0973661 0.0378898 0c0.0273425,0 0.0456457,-0.00175984 0.0548425,-0.00535433 0.00918898,-0.00359843 0.0163858,-0.00919291 0.0216614,-0.0168701 0.00519685,-0.00767323 0.00783465,-0.0165472 0.00783465,-0.0266969 0,-0.0124724 -0.00367717,-0.0227874 -0.0110315,-0.0309409 -0.00727559,-0.00807087 -0.0166299,-0.013189 -0.0278189,-0.015189 -0.00831496,-0.00159843 -0.0249409,-0.00231496 -0.0498819,-0.00231496l-0.0334961 0zm0.374142 0.285224l0 -0.343343 0.111197 0c0.0421299,0 0.0696299,0.00175984 0.0824173,0.00519685 0.0196654,0.00511417 0.0362165,0.0163071 0.0494843,0.0335748 0.0132717,0.0172677 0.0199055,0.0395709 0.0199055,0.0668307 0,0.0211024 -0.00383858,0.0388504 -0.0115118,0.0531575 -0.00767323,0.0143898 -0.0173465,0.0256614 -0.0291772,0.0338937 -0.011752,0.00815748 -0.0237441,0.0135906 -0.0358937,0.0162283 -0.0165472,0.00327953 -0.0405315,0.00496063 -0.0719488,0.00496063l-0.0451614 0 0 0.1295 -0.069311 0zm0.069311 -0.285224l0 0.0973661 0.0378898 0c0.0273386,0 0.0456457,-0.00175984 0.0548386,-0.00535433 0.00919291,-0.00359843 0.0163858,-0.00919291 0.0216614,-0.0168701 0.00519685,-0.00767323 0.00783465,-0.0165472 0.00783465,-0.0266969 0,-0.0124724 -0.00367717,-0.0227874 -0.0110315,-0.0309409 -0.00727559,-0.00807087 -0.016626,-0.013189 -0.0278189,-0.015189 -0.00831102,-0.00159843 -0.0249409,-0.00231496 -0.0498819,-0.00231496l-0.0334921 0zm0.375976 0.285224l0 -0.340543 0.069311 0 0 0.282665 0.17235 0 0 0.057878 -0.241661 0zm0.46072 0l0 -0.144531 -0.125748 -0.198811 0.0812992 0 0.0808189 0.135819 0.0791417 -0.135819 0.0798622 0 -0.126228 0.199291 0 0.144051 -0.0691457 0z"/>
   <polygon id="_450015784" class="fil1" points="4.80542,3.76622 4.68108,3.63981 4.634,3.71783 4.56981,3.45807 4.82646,3.52536 4.75257,3.57141 4.87692,3.69781 "/>
  </g>
 </g>
</svg>
