<?xml version="1.0" encoding="UTF-8"?>
<!DOCTYPE svg PUBLIC "-//W3C//DTD SVG 1.1//EN" "http://www.w3.org/Graphics/SVG/1.1/DTD/svg11.dtd">
<!-- Creator: CorelDRAW -->
<svg xmlns="http://www.w3.org/2000/svg" xml:space="preserve" width="6.82666in" height="6.82666in" style="shape-rendering:geometricPrecision; text-rendering:geometricPrecision; image-rendering:optimizeQuality; fill-rule:evenodd; clip-rule:evenodd"
viewBox="0 0 6.82666 6.82666"
 xmlns:xlink="http://www.w3.org/1999/xlink">
 <defs>
  <style type="text/css">
   <![CDATA[
    .fil0 {fill:#EF5350}
    .fil1 {fill:#FFFFFE}
    .fil2 {fill:#FFFFFE;fill-rule:nonzero}
   ]]>
  </style>
 </defs>
 <g id="Layer_x0020_1">
  <metadata id="CorelCorpID_0Corel-Layer"/>
  <circle class="fil0" cx="3.41333" cy="3.41333" r="3.41333"/>
  <g id="_450017536">
   <path id="_450017824" class="fil1" d="M1.54793 3.11488l0.288441 -0.0393583 0.00306299 0.0772205c0.00155512,0.0392953 0.00841339,0.124705 0.0365276,0.155772 0.0217165,0.0239961 0.051252,0.0306378 0.0827323,0.0306378 0.025311,0 0.0503583,-0.00450787 0.0720079,-0.0182126 0.0167598,-0.0106063 0.0282362,-0.0238622 0.034748,-0.0426457 0.0126929,-0.036626 0.0136417,-0.0982717 0.0136417,-0.136724l0 -0.948646 0.309016 0 0 0.939146c0,0.0895236 -0.00801181,0.193453 -0.0445748,0.276248 -0.0320157,0.0724921 -0.083563,0.128913 -0.153039,0.167063 -0.0711614,0.0390709 -0.150236,0.0546811 -0.230909,0.0546811 -0.116642,0 -0.227693,-0.0314252 -0.30865,-0.119043 -0.083622,-0.0905 -0.106354,-0.21672 -0.104126,-0.336028l0.00112205 -0.0601102z"/>
   <path id="_450017656" class="fil1" d="M5.1099 2.84662c0.0352717,0.0228701 0.0668071,0.051311 0.0933661,0.0861181 0.0526339,0.0689882 0.0767323,0.149272 0.0767323,0.235843 0,0.0690276 -0.0147283,0.135484 -0.0452008,0.1975 -0.0273937,0.0557638 -0.0643543,0.106319 -0.114327,0.143898 -0.0486063,0.0365551 -0.105728,0.0598819 -0.16435,0.0748504 -0.0717717,0.0183228 -0.14924,0.0235551 -0.223102,0.0235551l-0.556472 0 0 -1.41546 0.548756 0c0.0868346,0 0.181929,0.00942913 0.262276,0.0444409 0.0715748,0.031185 0.128799,0.0803701 0.169945,0.146681 0.038874,0.0626457 0.0607244,0.13148 0.0607244,0.205339 0,0.0683425 -0.0191614,0.132307 -0.0549134,0.19052 -0.0152126,0.0247717 -0.0332126,0.0469409 -0.0534331,0.0667205zm-0.624043 -0.117843l0.205598 0c0.0398661,0 0.102421,-0.000417323 0.140776,-0.0118976 0.0228701,-0.00684646 0.0458071,-0.0179331 0.0602126,-0.0376732 0.0147638,-0.0202205 0.0191575,-0.045378 0.0191575,-0.0699331 0,-0.0263031 -0.0052874,-0.0517323 -0.0194409,-0.0741535 -0.0118386,-0.018748 -0.0277008,-0.0300787 -0.0487913,-0.036748 -0.0453307,-0.0143346 -0.125587,-0.0145433 -0.172988,-0.0145433l-0.184524 0 0 0.244949zm0 0.588697l0.247161 0c0.0308819,0 0.0721299,0.000614173 0.102496,-0.00483465 0.0250157,-0.00448819 0.0510551,-0.0121417 0.072811,-0.0256142 0.0173307,-0.0107323 0.0300197,-0.0265906 0.0396299,-0.0443622 0.0123661,-0.022874 0.0167874,-0.0482874 0.0167874,-0.0740827 0,-0.0304961 -0.0065748,-0.0589094 -0.0240433,-0.0841457 -0.0163307,-0.0236063 -0.0383898,-0.0382598 -0.0655906,-0.0471378 -0.0477795,-0.0155945 -0.114772,-0.0176102 -0.164654,-0.0176102l-0.224598 0 0 0.297787z"/>
   <path id="_450017488" class="fil1" d="M2.87854 2.28814c0.178331,-0.109602 0.39111,-0.143622 0.594689,-0.0950315 0.202303,0.0482874 0.373193,0.175701 0.485626,0.349858 0.00340945,0.00528346 0.0012874,0.00180315 0.00456693,0.00743307 0.104256,0.178917 0.140945,0.388669 0.0926969,0.590815 -0.0482874,0.202291 -0.175717,0.373142 -0.349831,0.485606 -0.00535039,0.00345669 -0.00186614,0.00132283 -0.0074685,0.00459055 -0.178917,0.104236 -0.388669,0.140941 -0.590811,0.0926929 -0.202287,-0.0482835 -0.373031,-0.175791 -0.485591,-0.349803 -0.00348425,-0.00538583 -0.0013622,-0.00192913 -0.00458661,-0.00745669 -0.104339,-0.178902 -0.140969,-0.388697 -0.0927126,-0.59085 0.0486063,-0.203638 0.17502,-0.378213 0.353421,-0.487854zm0.530461 0.174941c-0.131945,-0.0314882 -0.269555,-0.00957087 -0.38515,0.0614764 -0.115531,0.0710079 -0.19728,0.183768 -0.22876,0.315661 -0.0313976,0.131543 -0.00966142,0.268736 0.060874,0.384154l0.000712598 0.00116535c0.0707205,0.115728 0.183756,0.197134 0.315555,0.228591 0.131579,0.0314094 0.268705,0.00942126 0.384224,-0.0609134l0.00120079 -0.000732283c0.115843,-0.0705354 0.197039,-0.183752 0.228484,-0.315492 0.0314173,-0.131634 0.00922047,-0.268717 -0.0609843,-0.384335l-0.000708661 -0.00116929c-0.0703976,-0.115929 -0.183752,-0.196972 -0.315449,-0.228406z"/>
   <path id="_450017392" class="fil2" d="M3.75079 3.57333c-0.0202913,-0.0330157 -0.0635118,-0.0433268 -0.0965236,-0.0230354 -0.0330157,0.0202953 -0.0433268,0.0635118 -0.0230354,0.0965236l0.161728 0.263142c0.0202913,0.0330118 0.0635079,0.0433268 0.0965236,0.0230315 0.0330118,-0.0202913 0.0433268,-0.0635079 0.0230315,-0.0965236l-0.161724 -0.263138z"/>
   <path id="_450017224" class="fil2" d="M3.72998 3.86629l0.173717 -0.106768 0.0367441 0.0597795 -0.0367559 -0.0598071c0.0330315,-0.0202992 0.0762677,-0.00998031 0.096563,0.0230512 0.000358268,0.00057874 0.00069685,0.00115354 0.00103543,0.00174016l0.403256 0.656114 -0.0597795 0.0367441 0.0598031 -0.0367598c0.0202992,0.0330276 0.00998031,0.0762638 -0.0230472,0.096563 -0.000570866,0.000350394 -0.00114173,0.000692913 -0.00172047,0.00102362l-0.173717 0.106772 -0.0367441 -0.0597795 0.0367559 0.0598031c-0.0330236,0.0202992 -0.0762598,0.00998031 -0.096563,-0.0230472 -0.000346457,-0.000566929 -0.000688976,-0.00114173 -0.00102362,-0.00172047l-0.403264 -0.656138 0.0597795 -0.0367441 -0.0598071 0.0367598c-0.0202992,-0.0330276 -0.00998031,-0.0762638 0.0230472,-0.096563 0.000570866,-0.000350394 0.00114173,-0.000692913 0.00172047,-0.00102362z"/>
   <path id="_450017272" class="fil2" d="M3.69582 3.88729c-0.0330157,0.0202913 -0.0433268,0.0635079 -0.0230354,0.0965236 0.0202953,0.0330157 0.0635118,0.0433268 0.0965236,0.0230354l0.240335 -0.147713c0.0330157,-0.0202913 0.0433268,-0.0635118 0.0230354,-0.0965236 -0.0202953,-0.0330157 -0.0635118,-0.0433268 -0.0965236,-0.0230354l-0.240335 0.147713z"/>
   <path id="_450017632" class="fil2" d="M2.82748 2.90782c-0.00205906,0.0162559 0.00945669,0.0310984 0.0257087,0.0331535 0.016252,0.00205906 0.0310984,-0.00945669 0.0331535,-0.0257087 0.0133701,-0.104878 0.0647559,-0.196685 0.13928,-0.262311 0.0744449,-0.0655551 0.17202,-0.104882 0.277858,-0.104882 0.0100315,0 0.0195787,0.000311024 0.028622,0.000925197 0.00981496,0.000669291 0.019315,0.00163386 0.0284764,0.00288583 0.016252,0.00218504 0.0312008,-0.00922441 0.0333858,-0.0254764 0.0021811,-0.016252 -0.00922441,-0.0312047 -0.0254764,-0.0333858 -0.0110669,-0.00151575 -0.0218898,-0.00263386 -0.0324291,-0.00335039 -0.0113189,-0.000771654 -0.022185,-0.00115748 -0.0325787,-0.00115748 -0.120776,0 -0.232165,0.0449055 -0.317177,0.119772 -0.0849409,0.0747953 -0.143535,0.179622 -0.158823,0.299535z"/>
  </g>
 </g>
</svg>
