<?xml version="1.0" encoding="UTF-8"?>
<!DOCTYPE svg PUBLIC "-//W3C//DTD SVG 1.1//EN" "http://www.w3.org/Graphics/SVG/1.1/DTD/svg11.dtd">
<!-- Creator: CorelDRAW -->
<svg xmlns="http://www.w3.org/2000/svg" xml:space="preserve" width="6.82666in" height="6.82666in" style="shape-rendering:geometricPrecision; text-rendering:geometricPrecision; image-rendering:optimizeQuality; fill-rule:evenodd; clip-rule:evenodd"
viewBox="0 0 6.82666 6.82666"
 xmlns:xlink="http://www.w3.org/1999/xlink">
 <defs>
  <style type="text/css">
   <![CDATA[
    .fil0 {fill:#66BB6A}
    .fil1 {fill:#FFFFFE;fill-rule:nonzero}
   ]]>
  </style>
 </defs>
 <g id="Layer_x0020_1">
  <metadata id="CorelCorpID_0Corel-Layer"/>
  <circle class="fil0" cx="3.41333" cy="3.41333" r="3.41333"/>
  <g id="_450018208">
   <path id="_449987128" class="fil1" d="M2.637 1.88825c-0.0448228,0.00523622 -0.0900591,0.0109961 -0.13572,0.0172756 -0.113244,0.0155748 -0.225909,0.0340197 -0.337937,0.0554488 -0.0637913,0.0122047 -0.123776,0.0388819 -0.167303,0.0795591 -0.0439409,0.0410748 -0.0712441,0.094626 -0.0712441,0.160276l0 3.00285c0,0.0421575 0.0341772,0.0763346 0.0763386,0.0763346l2.82439 0c0.0421614,0 0.0763386,-0.0341772 0.0763386,-0.0763346l0 -3.00285c0,-0.0657756 -0.0274094,-0.119748 -0.0715591,-0.161008 -0.0434488,-0.0406142 -0.103602,-0.0672677 -0.167882,-0.0788268 -0.11285,-0.0202835 -0.224941,-0.0379803 -0.336201,-0.0529134 -0.0456654,-0.00612992 -0.0909646,-0.011811 -0.13589,-0.0170315l0.0584724 0.23389 -0.00587795 0.073248 -0.344689 0.804268 -0.15615 -0.233543 -0.0111299 -0.0166417 -0.0792283 0.0771024 0.303165 1.49775 -0.446016 0.477346 -0.00683071 0.00470079c-0.061437,0.0422913 -0.138783,0.0447717 -0.19187,-0.0122323l-0.438433 -0.470843 0.303339 -1.49672 -0.0793701 -0.0771575 -0.167315 0.250236 -0.344689 -0.804268 -0.00588189 -0.073248 0.0591693 -0.236669z"/>
   <g>
    <path id="_449986912" class="fil1" d="M3.41589 1.69934c-0.159634,0 -0.302606,0.0221732 -0.40472,0.0580236 -0.0782953,0.0274882 -0.126724,0.0560039 -0.126724,0.0790236 0,0.0243465 0.0493543,0.0625669 0.125772,0.101638 0.0899291,0.0459803 0.211087,0.0829803 0.339366,0.0956732l0.12635 0.0125079 -0.0705866 0.105571 -0.384256 0.574689 -0.0779528 0.116591 -0.0553346 -0.129114 -0.229008 -0.534343 -0.00387402 -0.0483071 0.0763346 -0.305343 0.000870079 0.000216535c0.00606693,-0.0902244 0.0923976,-0.164587 0.228949,-0.212528 0.117858,-0.0413819 0.278776,-0.0669724 0.454815,-0.0669724l0 0.152673z"/>
    <path id="_450018760" class="fil1" d="M3.41075 1.69934c0.15963,0 0.302606,0.0221732 0.404717,0.0580236 0.0782953,0.0274882 0.126724,0.0560039 0.126724,0.0790236 0,0.0243465 -0.0493543,0.0625669 -0.125768,0.101638 -0.0899291,0.0459803 -0.211091,0.0829803 -0.33937,0.0956732l-0.12635 0.0125079 0.0705906 0.105571 0.384252 0.574689 0.0779567 0.116591 0.0553346 -0.129114 0.229004 -0.534343 0.00387795 -0.0483071 -0.0763386 -0.305343 -0.000870079 0.000216535c-0.00606693,-0.0902244 -0.0923976,-0.164587 -0.228949,-0.212528 -0.117858,-0.0413819 -0.278776,-0.0669724 -0.454811,-0.0669724l0 0.152673z"/>
   </g>
   <path id="_450018880" class="fil1" d="M3.58005 2.86l0.292232 1.44371 -0.413516 0.442559c-0.0340276,0.0234213 -0.0646575,0.0209213 -0.0927205,-0.00137402l-0.411689 -0.442122 0.291421 -1.43791c0.0503898,-0.0151378 0.111094,-0.0237953 0.17587,-0.0237953 0.0571063,0 0.111453,0.00677165 0.158402,0.0189331z"/>
   <path id="_450018232" class="fil1" d="M3.13885 2.68768l0.102276 0.0994173c0.0538268,-0.0142992 0.115744,-0.0223622 0.18052,-0.0223622 0.0593307,0 0.116598,0.00677559 0.167465,0.0190433l0.0987008 -0.0960591 -0.274496 -0.410531 -0.274465 0.410492z"/>
  </g>
 </g>
</svg>
