<?xml version="1.0" encoding="UTF-8"?>
<!DOCTYPE svg PUBLIC "-//W3C//DTD SVG 1.1//EN" "http://www.w3.org/Graphics/SVG/1.1/DTD/svg11.dtd">
<!-- Creator: CorelDRAW -->
<svg xmlns="http://www.w3.org/2000/svg" xml:space="preserve" width="6.82666in" height="6.82666in" style="shape-rendering:geometricPrecision; text-rendering:geometricPrecision; image-rendering:optimizeQuality; fill-rule:evenodd; clip-rule:evenodd"
viewBox="0 0 6.82666 6.82666"
 xmlns:xlink="http://www.w3.org/1999/xlink">
 <defs>
  <style type="text/css">
   <![CDATA[
    .fil0 {fill:#42A5F5}
    .fil2 {fill:#FFFFFE}
    .fil1 {fill:#FFFFFE;fill-rule:nonzero}
   ]]>
  </style>
 </defs>
 <g id="Layer_x0020_1">
  <metadata id="CorelCorpID_0Corel-Layer"/>
  <circle class="fil0" cx="3.41333" cy="3.41333" r="3.41333"/>
  <g id="_449987416">
   <path id="_449989000" class="fil1" d="M1.62872 4.3642l0.863402 0 0 -0.684622c0,-0.0445276 0.0367362,-0.080626 0.0820512,-0.080626l1.67832 0c0.045315,0 0.0820512,0.0360984 0.0820512,0.080626l0 0.684622 0.863402 0c0.045315,0 0.0820551,0.0360984 0.0820551,0.080626l0 0.640984c0,0.0445276 -0.0367402,0.080626 -0.0820551,0.080626l-3.56923 0c-0.045315,0 -0.0820551,-0.0360984 -0.0820551,-0.080626l0 -0.640984c0,-0.0445276 0.0367402,-0.080626 0.0820551,-0.080626z"/>
   <path id="_449988976" class="fil2" d="M3.26238 2.41757c-0.0847559,0.0565906 -0.177012,0.101055 -0.275724,0.133878l0 -0.437071c0.0618504,-0.0284331 0.120965,-0.0679409 0.173012,-0.107815 0.0735079,-0.0563228 0.132693,-0.125689 0.164138,-0.212732l0.0186929 -0.0517362 0.380067 0 0 1.71038 -0.460185 0 0 -1.03491z"/>
   <path id="_449989384" class="fil1" d="M2.84006 3.47686c0.0215906,0.00310236 0.0416575,-0.0115827 0.044815,-0.0327992 0.00315748,-0.0212126 -0.0117874,-0.0409331 -0.033378,-0.0440354 -0.0696417,-0.0100433 -0.137248,-0.0257953 -0.197945,-0.043252 -0.0819213,-0.0235591 -0.151772,-0.0502677 -0.197343,-0.0703583 -0.125717,-0.0554331 -0.232953,-0.151972 -0.308287,-0.274787 -0.0734803,-0.119795 -0.116406,-0.264512 -0.116406,-0.420496 0,-0.124343 0.0276772,-0.244421 0.0784921,-0.350728 0.0506181,-0.105913 0.124217,-0.198335 0.21626,-0.267787 0.0173228,-0.0129961 0.0206417,-0.0373386 0.00741732,-0.0543583 -0.0132244,-0.0170236 -0.038,-0.0202874 -0.0553228,-0.00729134 -0.102157,0.0770866 -0.183748,0.179461 -0.239748,0.296638 -0.055815,0.116776 -0.0862205,0.248094 -0.0862205,0.383528 0,0.170484 0.0471457,0.32902 0.127843,0.460583 0.0834685,0.136075 0.203059,0.24339 0.343835,0.305457 0.0479528,0.0211417 0.121421,0.0492402 0.207535,0.074 0.0644882,0.0185472 0.135815,0.0352087 0.208453,0.045689z"/>
   <path id="_449989240" class="fil1" d="M2.73039 3.32866c-0.0421929,-0.00729134 -0.0818268,-0.0253937 -0.114677,-0.0523228 -0.0328071,-0.0268898 -0.0588504,-0.0624134 -0.0739685,-0.104575 -0.0151929,-0.0423701 -0.017622,-0.0860551 -0.00926772,-0.12698l0.0387874 0.00759055 -0.0386339 -0.00759055 3.93701e-006 -1.9685e-005 -0.00015748 -3.54331e-005c0.000259843,-0.00127559 0.00057874,-0.00252362 0.00096063,-0.00374409 0.00908268,-0.0410827 0.0289173,-0.0792362 0.0574764,-0.110339l0.0293622 0.0259646 -0.0293701 -0.0260433c0.010185,-0.0110866 0.0253937,-0.0150669 0.0391654,-0.011622 0.042189,0.00729134 0.0818228,0.0253937 0.114673,0.0523228 0.032811,0.0268937 0.0588543,0.0624134 0.0739724,0.104575 0.015126,0.042185 0.0175039,0.085878 0.00911024,0.12698 -0.0086811,0.0425315 -0.0288425,0.0820827 -0.0582835,0.114142l-0.0293583 -0.0259685 0.0293661 0.0260433c-0.0101811,0.0110906 -0.0253898,0.0150669 -0.0391614,0.011622z"/>
   <path id="_449989072" class="fil1" d="M2.35438 3.16317c-0.0404724,-0.0145433 -0.0764961,-0.0395157 -0.104205,-0.0721693 -0.0272677,-0.0321299 -0.0463504,-0.0716496 -0.0535394,-0.11589 -0.00717717,-0.0442047 -0.00155906,-0.0875827 0.0141772,-0.126465 0.0162835,-0.0402441 0.0433504,-0.0755787 0.0782244,-0.101965l0.0241063 0.0306732 -0.0241378 -0.0307992c0.0117717,-0.00890551 0.0270315,-0.0102874 0.0397795,-0.00490945 0.0404685,0.0145394 0.0764961,0.0395157 0.104205,0.0721732 0.0272638,0.032126 0.0463504,0.0716457 0.0535354,0.115886 0.00717717,0.0442047 0.00155906,0.0875827 -0.0141693,0.126465 -0.0162835,0.0402441 -0.0433543,0.0755787 -0.0782283,0.101965l-0.0241063 -0.0306732 0.0241339 0.0307992c-0.0117717,0.00890551 -0.0270276,0.0102874 -0.0397756,0.00490945z"/>
   <path id="_449988592" class="fil1" d="M2.09595 2.7233c-0.0167047,-0.0386969 -0.0228622,-0.0809843 -0.017874,-0.12237 0.00500394,-0.0415 0.0211024,-0.0822677 0.0488858,-0.117839 0.0277677,-0.0355472 0.0637638,-0.0613937 0.103429,-0.0769331 0.0408307,-0.0159921 0.0854961,-0.0209409 0.128965,-0.0141929l-0.00602756 0.0382638 0.00617717 -0.0383937c0.0152598,0.00237008 0.0270945,0.0130236 0.0315079,0.0265591 0.0167087,0.0387008 0.0228661,0.0809921 0.017878,0.122378 -0.005,0.0415 -0.0210984,0.0822717 -0.0488819,0.117839 -0.0277677,0.0355472 -0.0637638,0.0613937 -0.103429,0.0769331 -0.0408307,0.0159921 -0.0855,0.0209449 -0.128969,0.0141929l0.00602756 -0.0382677 -0.00617717 0.0383937c-0.0152638,-0.00237008 -0.0270984,-0.0130236 -0.0315118,-0.026563z"/>
   <path id="_449988352" class="fil1" d="M2.19645 2.26095c0.00524016,-0.0419567 0.0217047,-0.0819449 0.0475512,-0.115681 0.0256496,-0.0334764 0.0604528,-0.0607795 0.102606,-0.0777441 0.0423543,-0.0170433 0.0866063,-0.021622 0.128551,-0.0154724 0.0435118,0.00637402 0.0847205,0.024248 0.118941,0.0516772l-0.024874 0.030063 0.0250039 -0.030122c0.011626,0.0093189 0.0164646,0.0237874 0.013878,0.0373228 -0.00524409,0.0419567 -0.0217047,0.0819449 -0.0475551,0.115681 -0.0256457,0.0334764 -0.0604449,0.0607835 -0.102602,0.0777441 -0.0423583,0.0170433 -0.0866063,0.021622 -0.128555,0.0154724 -0.0435118,-0.00637402 -0.0847165,-0.024248 -0.118941,-0.0516772l0.024878 -0.030063 -0.0250039 0.030122c-0.011626,-0.0093189 -0.0164646,-0.0237874 -0.013878,-0.0373228z"/>
   <path id="_449988256" class="fil1" d="M2.40782 3.44467c-0.0208543,0.037122 -0.051374,0.0682441 -0.0882165,0.0900394 -0.036378,0.0215236 -0.0790787,0.034 -0.124866,0.0342323 -0.0455906,0.000228346 -0.0883504,-0.0118307 -0.125008,-0.0330118 -0.0380354,-0.0219764 -0.0694724,-0.0536693 -0.0907008,-0.091563l-6.29921e-005 3.14961e-005c-0.00720079,-0.0128583 -0.0062126,-0.0279764 0.00124803,-0.039563 0.0208504,-0.0371299 0.0513819,-0.0682638 0.0882323,-0.0900669 0.036378,-0.0215197 0.0790748,-0.034 0.12487,-0.0342323 0.0455866,-0.000228346 0.0883465,0.0118307 0.125008,0.0330118 0.0380315,0.0219764 0.0694764,0.0536732 0.0907008,0.0915709l5.90551e-005 -3.14961e-005c0.00720472,0.0128661 0.0062126,0.0279961 -0.00126378,0.0395827z"/>
   <path id="_449988664" class="fil1" d="M1.57045 2.57043c0.0372283,-0.0207126 0.0794567,-0.0315039 0.122157,-0.0312717 0.0427441,0.000232283 0.0858465,0.0113504 0.124815,0.0344213 0.0389606,0.0230709 0.0691024,0.0553228 0.0892835,0.0923465 0.0207756,0.0381142 0.0307953,0.0812008 0.0288425,0.124413l-0.0394055 -0.00166929 0.0395197 0.00172835c-0.000677165,0.0149921 -0.00990945,0.0276181 -0.0228661,0.0335354 -0.0372244,0.0207126 -0.0794567,0.0315039 -0.122161,0.0312717 -0.0427402,-0.000232283 -0.0858425,-0.0113465 -0.124811,-0.0344213 -0.0389606,-0.0230669 -0.0690984,-0.055315 -0.0892835,-0.0923465 -0.0207756,-0.0381102 -0.0307953,-0.0811969 -0.0288425,-0.124413l0.0394055 0.00166929 -0.0395197 -0.00172835c0.000677165,-0.0149882 0.00991339,-0.0276142 0.0228661,-0.0335354z"/>
   <path id="_449988208" class="fil1" d="M1.68329 2.09285c0.0425945,-0.00306693 0.0854055,0.0049252 0.123894,0.023063 0.0384882,0.0181378 0.0726102,0.0463189 0.0978504,0.0836181 0.0252126,0.0372677 0.0384449,0.0790669 0.0405787,0.120949 0.00219685,0.0431378 -0.00749606,0.0862835 -0.0280748,0.124551l-0.0349213 -0.0180709 0.0349764 0.0181614c-0.00716142,0.0133189 -0.0210827,0.0208622 -0.0354252,0.0207126 -0.0425906,0.00306693 -0.0854055,-0.0049252 -0.12389,-0.023063 -0.0384882,-0.0181378 -0.0726102,-0.0463189 -0.0978504,-0.0836181 -0.0252165,-0.0372677 -0.0384488,-0.079063 -0.0405827,-0.120945 -0.00219291,-0.0431417 0.0075,-0.0862874 0.0280787,-0.124551l0.0349213 0.0180669 -0.0349764 -0.0181614c0.00716142,-0.013315 0.0210827,-0.0208622 0.0354213,-0.0207126z"/>
   <path id="_449988496" class="fil1" d="M2.09711 1.7017c0.0311614,0.0291693 0.0540197,0.0660276 0.0661575,0.106583 0.0119843,0.0400512 0.0134764,0.0837598 0.00214173,0.12724 -0.0113425,0.0435157 -0.0340512,0.0811654 -0.0641811,0.110646 -0.0311969,0.0305276 -0.0703504,0.052374 -0.113079,0.0629764l1.1811e-005 5.51181e-005c-0.0145472,0.00360236 -0.029252,-0.00121654 -0.0387598,-0.0113346 -0.0311693,-0.0291693 -0.0540276,-0.0660354 -0.0661614,-0.106587 -0.0119843,-0.0400551 -0.0134764,-0.0837598 -0.00214173,-0.127236 0.0113465,-0.0435197 0.0340512,-0.0811693 0.0641811,-0.110646 0.0311969,-0.0305315 0.0703504,-0.052374 0.113079,-0.0629764l-1.1811e-005 -5.51181e-005c0.0145472,-0.0036063 0.029252,0.00121654 0.0387638,0.0113346z"/>
   <path id="_449987968" class="fil1" d="M2.25968 1.95896c-0.0105236,-0.0414921 -0.0095315,-0.0852244 0.0027874,-0.126362 0.0120236,-0.0401535 0.0348386,-0.0777205 0.068248,-0.108169 0.0335039,-0.0305394 0.0733858,-0.0501142 0.115051,-0.0588819 0.0429094,-0.00903543 0.087811,-0.00653543 0.129614,0.00731102l-0.0125157 0.036748 0.0126339 -0.0368386c0.0136654,0.00452756 0.0231575,0.0156772 0.0260236,0.0285866 0.0105236,0.0414882 0.00953543,0.0852205 -0.00277953,0.126358 -0.0120276,0.0401575 -0.0348386,0.0777205 -0.068252,0.108173 -0.0335039,0.0305354 -0.0733858,0.0501142 -0.115047,0.0588819 -0.0429173,0.00903543 -0.087815,0.00653543 -0.129622,-0.00731102l0.0125157 -0.036748 -0.0126299 0.0368386c-0.0136693,-0.00452756 -0.0231575,-0.0156772 -0.0260276,-0.0285866z"/>
   <path id="_449988280" class="fil1" d="M1.66216 3.01081c0.0333425,-0.0268228 0.0735551,-0.0445748 0.116264,-0.0513819 0.0420315,-0.00670079 0.0863622,-0.00272047 0.128768,0.0137283 0.042374,0.016437 0.0775079,0.0432756 0.103555,0.076378 0.0269567,0.0342598 0.044122,0.0751417 0.0494803,0.118071l-0.0391417 0.00476772 0.0392638 -0.00472835c0.00181102,0.0144921 -0.00475197,0.0280984 -0.0159528,0.0361417 -0.0333386,0.0268189 -0.0735591,0.0445748 -0.116272,0.0513819 -0.0420197,0.00669685 -0.0863504,0.00272047 -0.12876,-0.0137283 -0.042374,-0.016437 -0.0775079,-0.0432756 -0.103551,-0.076374 -0.0269606,-0.0342638 -0.044126,-0.0751496 -0.0494803,-0.118079l0.0391378 -0.00476772 -0.0392638 0.00473228c-0.00181102,-0.0144921 0.00474803,-0.0280984 0.0159528,-0.0361417z"/>
   <path id="_449988448" class="fil1" d="M3.9866 3.47686c-0.0215906,0.00310236 -0.0416575,-0.0115827 -0.044815,-0.0327992 -0.00315748,-0.0212126 0.0117874,-0.0409331 0.033378,-0.0440354 0.0696417,-0.0100433 0.137248,-0.0257953 0.197945,-0.043252 0.0819213,-0.0235591 0.151772,-0.0502677 0.197343,-0.0703583 0.125717,-0.0554331 0.232953,-0.151972 0.308287,-0.274787 0.0734803,-0.119795 0.116406,-0.264512 0.116406,-0.420496 0,-0.124343 -0.0276772,-0.244421 -0.0784921,-0.350728 -0.0506181,-0.105913 -0.124217,-0.198335 -0.21626,-0.267787 -0.0173228,-0.0129961 -0.0206417,-0.0373386 -0.00741732,-0.0543583 0.0132244,-0.0170236 0.038,-0.0202874 0.0553228,-0.00729134 0.102157,0.0770866 0.183748,0.179461 0.239748,0.296638 0.055815,0.116776 0.0862205,0.248094 0.0862205,0.383528 0,0.170484 -0.0471457,0.32902 -0.127843,0.460583 -0.0834685,0.136075 -0.203059,0.24339 -0.343835,0.305457 -0.0479528,0.0211417 -0.121421,0.0492402 -0.207535,0.074 -0.0644882,0.0185472 -0.135815,0.0352087 -0.208453,0.045689z"/>
   <path id="_449988424" class="fil1" d="M4.09627 3.32866c0.0421929,-0.00729134 0.0818268,-0.0253937 0.114677,-0.0523228 0.0328071,-0.0268898 0.0588504,-0.0624134 0.0739685,-0.104575 0.0151929,-0.0423701 0.017622,-0.0860551 0.00926772,-0.12698l-0.0387874 0.00759055 0.0386339 -0.00759055 -3.93701e-006 -1.9685e-005 0.00015748 -3.54331e-005c-0.000259843,-0.00127559 -0.00057874,-0.00252362 -0.00096063,-0.00374409 -0.00908268,-0.0410827 -0.0289173,-0.0792362 -0.0574764,-0.110339l-0.0293622 0.0259646 0.0293701 -0.0260433c-0.010185,-0.0110866 -0.0253937,-0.0150669 -0.0391654,-0.011622 -0.042189,0.00729134 -0.0818228,0.0253937 -0.114673,0.0523228 -0.032811,0.0268937 -0.0588543,0.0624134 -0.0739724,0.104575 -0.015126,0.042185 -0.0175039,0.085878 -0.00911024,0.12698 0.0086811,0.0425315 0.0288425,0.0820827 0.0582835,0.114142l0.0293583 -0.0259685 -0.0293661 0.0260433c0.0101811,0.0110906 0.0253898,0.0150669 0.0391614,0.011622z"/>
   <path id="_449988064" class="fil1" d="M4.47228 3.16317c0.0404724,-0.0145433 0.0764961,-0.0395157 0.104205,-0.0721693 0.0272677,-0.0321299 0.0463504,-0.0716496 0.0535394,-0.11589 0.00717717,-0.0442047 0.00155906,-0.0875827 -0.0141772,-0.126465 -0.0162835,-0.0402441 -0.0433504,-0.0755787 -0.0782244,-0.101965l-0.0241063 0.0306732 0.0241378 -0.0307992c-0.0117717,-0.00890551 -0.0270315,-0.0102874 -0.0397795,-0.00490945 -0.0404685,0.0145394 -0.0764961,0.0395157 -0.104205,0.0721732 -0.0272638,0.032126 -0.0463504,0.0716457 -0.0535354,0.115886 -0.00717717,0.0442047 -0.00155906,0.0875827 0.0141693,0.126465 0.0162835,0.0402441 0.0433543,0.0755787 0.0782283,0.101965l0.0241063 -0.0306732 -0.0241339 0.0307992c0.0117717,0.00890551 0.0270276,0.0102874 0.0397756,0.00490945z"/>
   <path id="_449987896" class="fil1" d="M4.73071 2.7233c0.0167047,-0.0386969 0.0228622,-0.0809843 0.017874,-0.12237 -0.00500394,-0.0415 -0.0211024,-0.0822677 -0.0488858,-0.117839 -0.0277677,-0.0355472 -0.0637638,-0.0613937 -0.103429,-0.0769331 -0.0408307,-0.0159921 -0.0854961,-0.0209409 -0.128965,-0.0141929l0.00602756 0.0382638 -0.00617717 -0.0383937c-0.0152598,0.00237008 -0.0270945,0.0130236 -0.0315079,0.0265591 -0.0167087,0.0387008 -0.0228661,0.0809921 -0.017878,0.122378 0.005,0.0415 0.0210984,0.0822717 0.0488819,0.117839 0.0277677,0.0355472 0.0637638,0.0613937 0.103429,0.0769331 0.0408307,0.0159921 0.0855,0.0209449 0.128969,0.0141929l-0.00602756 -0.0382677 0.00617717 0.0383937c0.0152638,-0.00237008 0.0270984,-0.0130236 0.0315118,-0.026563z"/>
   <path id="_449987680" class="fil1" d="M4.63021 2.26095c-0.00524016,-0.0419567 -0.0217047,-0.0819449 -0.0475512,-0.115681 -0.0256496,-0.0334764 -0.0604528,-0.0607795 -0.102606,-0.0777441 -0.0423543,-0.0170433 -0.0866063,-0.021622 -0.128551,-0.0154724 -0.0435118,0.00637402 -0.0847205,0.024248 -0.118941,0.0516772l0.024874 0.030063 -0.0250039 -0.030122c-0.011626,0.0093189 -0.0164646,0.0237874 -0.013878,0.0373228 0.00524409,0.0419567 0.0217047,0.0819449 0.0475551,0.115681 0.0256457,0.0334764 0.0604449,0.0607835 0.102602,0.0777441 0.0423583,0.0170433 0.0866063,0.021622 0.128555,0.0154724 0.0435118,-0.00637402 0.0847165,-0.024248 0.118941,-0.0516772l-0.024878 -0.030063 0.0250039 0.030122c0.011626,-0.0093189 0.0164646,-0.0237874 0.013878,-0.0373228z"/>
   <path id="_449987584" class="fil1" d="M4.41884 3.44467c0.0208543,0.037122 0.051374,0.0682441 0.0882165,0.0900394 0.036378,0.0215236 0.0790787,0.034 0.124866,0.0342323 0.0455906,0.000228346 0.0883504,-0.0118307 0.125008,-0.0330118 0.0380354,-0.0219764 0.0694724,-0.0536693 0.0907008,-0.091563l6.29921e-005 3.14961e-005c0.00720079,-0.0128583 0.0062126,-0.0279764 -0.00124803,-0.039563 -0.0208504,-0.0371299 -0.0513819,-0.0682638 -0.0882323,-0.0900669 -0.036378,-0.0215197 -0.0790748,-0.034 -0.12487,-0.0342323 -0.0455866,-0.000228346 -0.0883465,0.0118307 -0.125008,0.0330118 -0.0380315,0.0219764 -0.0694764,0.0536732 -0.0907008,0.0915709l-5.90551e-005 -3.14961e-005c-0.00720472,0.0128661 -0.0062126,0.0279961 0.00126378,0.0395827z"/>
   <path id="_449987752" class="fil1" d="M5.25621 2.57043c-0.0372283,-0.0207126 -0.0794567,-0.0315039 -0.122157,-0.0312717 -0.0427441,0.000232283 -0.0858465,0.0113504 -0.124815,0.0344213 -0.0389606,0.0230709 -0.0691024,0.0553228 -0.0892835,0.0923465 -0.0207756,0.0381142 -0.0307953,0.0812008 -0.0288425,0.124413l0.0394055 -0.00166929 -0.0395197 0.00172835c0.000677165,0.0149921 0.00990945,0.0276181 0.0228661,0.0335354 0.0372244,0.0207126 0.0794567,0.0315039 0.122161,0.0312717 0.0427402,-0.000232283 0.0858425,-0.0113465 0.124811,-0.0344213 0.0389606,-0.0230669 0.0690984,-0.055315 0.0892835,-0.0923465 0.0207756,-0.0381102 0.0307953,-0.0811969 0.0288425,-0.124413l-0.0394055 0.00166929 0.0395197 -0.00172835c-0.000677165,-0.0149882 -0.00991339,-0.0276142 -0.0228661,-0.0335354z"/>
   <path id="_449987776" class="fil1" d="M5.14337 2.09285c-0.0425945,-0.00306693 -0.0854055,0.0049252 -0.123894,0.023063 -0.0384882,0.0181378 -0.0726102,0.0463189 -0.0978504,0.0836181 -0.0252126,0.0372677 -0.0384449,0.0790669 -0.0405787,0.120949 -0.00219685,0.0431378 0.00749606,0.0862835 0.0280748,0.124551l0.0349213 -0.0180709 -0.0349764 0.0181614c0.00716142,0.0133189 0.0210827,0.0208622 0.0354252,0.0207126 0.0425906,0.00306693 0.0854055,-0.0049252 0.12389,-0.023063 0.0384882,-0.0181378 0.0726102,-0.0463189 0.0978504,-0.0836181 0.0252165,-0.0372677 0.0384488,-0.079063 0.0405827,-0.120945 0.00219291,-0.0431417 -0.0075,-0.0862874 -0.0280787,-0.124551l-0.0349213 0.0180669 0.0349764 -0.0181614c-0.00716142,-0.013315 -0.0210827,-0.0208622 -0.0354213,-0.0207126z"/>
   <path id="_449987512" class="fil1" d="M4.72955 1.7017c-0.0311614,0.0291693 -0.0540197,0.0660276 -0.0661575,0.106583 -0.0119843,0.0400512 -0.0134764,0.0837598 -0.00214173,0.12724 0.0113425,0.0435157 0.0340512,0.0811654 0.0641811,0.110646 0.0311969,0.0305276 0.0703504,0.052374 0.113079,0.0629764l-1.1811e-005 5.51181e-005c0.0145472,0.00360236 0.029252,-0.00121654 0.0387598,-0.0113346 0.0311693,-0.0291693 0.0540276,-0.0660354 0.0661614,-0.106587 0.0119843,-0.0400551 0.0134764,-0.0837598 0.00214173,-0.127236 -0.0113465,-0.0435197 -0.0340512,-0.0811693 -0.0641811,-0.110646 -0.0311969,-0.0305315 -0.0703504,-0.052374 -0.113079,-0.0629764l1.1811e-005 -5.51181e-005c-0.0145472,-0.0036063 -0.029252,0.00121654 -0.0387638,0.0113346z"/>
   <path id="_449987920" class="fil1" d="M4.56698 1.95896c0.0105236,-0.0414921 0.0095315,-0.0852244 -0.0027874,-0.126362 -0.0120236,-0.0401535 -0.0348386,-0.0777205 -0.068248,-0.108169 -0.0335039,-0.0305394 -0.0733858,-0.0501142 -0.115051,-0.0588819 -0.0429094,-0.00903543 -0.087811,-0.00653543 -0.129614,0.00731102l0.0125157 0.036748 -0.0126339 -0.0368386c-0.0136654,0.00452756 -0.0231575,0.0156772 -0.0260236,0.0285866 -0.0105236,0.0414882 -0.00953543,0.0852205 0.00277953,0.126358 0.0120276,0.0401575 0.0348386,0.0777205 0.068252,0.108173 0.0335039,0.0305354 0.0733858,0.0501142 0.115047,0.0588819 0.0429173,0.00903543 0.087815,0.00653543 0.129622,-0.00731102l-0.0125157 -0.036748 0.0126299 0.0368386c0.0136693,-0.00452756 0.0231575,-0.0156772 0.0260276,-0.0285866z"/>
   <path id="_449987440" class="fil1" d="M5.1645 3.01081c-0.0333425,-0.0268228 -0.0735551,-0.0445748 -0.116264,-0.0513819 -0.0420315,-0.00670079 -0.0863622,-0.00272047 -0.128768,0.0137283 -0.042374,0.016437 -0.0775079,0.0432756 -0.103555,0.076378 -0.0269567,0.0342598 -0.044122,0.0751417 -0.0494803,0.118071l0.0391417 0.00476772 -0.0392638 -0.00472835c-0.00181102,0.0144921 0.00475197,0.0280984 0.0159528,0.0361417 0.0333386,0.0268189 0.0735591,0.0445748 0.116272,0.0513819 0.0420197,0.00669685 0.0863504,0.00272047 0.12876,-0.0137283 0.042374,-0.016437 0.0775079,-0.0432756 0.103551,-0.076374 0.0269606,-0.0342638 0.044126,-0.0751496 0.0494803,-0.118079l-0.0391378 -0.00476772 0.0392638 0.00473228c0.00181102,-0.0144921 -0.00474803,-0.0280984 -0.0159528,-0.0361417z"/>
  </g>
 </g>
</svg>
