<?xml version="1.0" encoding="UTF-8"?>
<!DOCTYPE svg PUBLIC "-//W3C//DTD SVG 1.1//EN" "http://www.w3.org/Graphics/SVG/1.1/DTD/svg11.dtd">
<!-- Creator: CorelDRAW -->
<svg xmlns="http://www.w3.org/2000/svg" xml:space="preserve" width="6.82666in" height="6.82666in" style="shape-rendering:geometricPrecision; text-rendering:geometricPrecision; image-rendering:optimizeQuality; fill-rule:evenodd; clip-rule:evenodd"
viewBox="0 0 6.82666 6.82666"
 xmlns:xlink="http://www.w3.org/1999/xlink">
 <defs>
  <style type="text/css">
   <![CDATA[
    .fil0 {fill:#AB47BC}
    .fil1 {fill:#FFFFFE}
    .fil2 {fill:#FFFFFE;fill-rule:nonzero}
   ]]>
  </style>
 </defs>
 <g id="Layer_x0020_1">
  <metadata id="CorelCorpID_0Corel-Layer"/>
  <circle class="fil0" cx="3.41333" cy="3.41333" r="3.41333"/>
  <g id="_449990896">
   <path id="_449991376" class="fil1" d="M4.33552 3.37719c-0.0254094,-0.00262992 -0.0776339,0.00429134 -0.156319,0.0204921l-0.139787 0.0287913 0.0516535 0.209535 0.160169 -0.0329843c0.0625079,-0.0128701 0.101689,-0.0224764 0.117654,-0.0292165 0.0247283,-0.0095 0.0430866,-0.0244094 0.0552126,-0.0441693 0.0120827,-0.019937 0.0147795,-0.0438937 0.00793701,-0.0716378 -0.00580315,-0.0235433 -0.0170984,-0.042122 -0.0335315,-0.056 -0.0166299,-0.0138346 -0.0375748,-0.0221811 -0.0629882,-0.024811zm-2.67148 -1.36991c-0.0531181,0.0210984 -0.117988,0.0578937 -0.11737,0.0843622l0.000307087 -7.87402e-006c0.0110709,0.470496 0.0728465,0.991346 0.16589,1.50697 0.102866,0.570094 0.244063,1.13517 0.397283,1.61969l0.000425197 0.00169685c0.0102402,0.038748 0.0529094,0.0625669 0.0953031,0.0532087l-1.5748e-005 -6.29921e-005 3.01044 -0.664677 0.00245276 -0.000476378c0.0424961,-0.00895276 0.0690079,-0.0477008 0.0592087,-0.0865394l-0.00019685 3.93701e-005c-0.120264,-0.476902 -0.216929,-0.952854 -0.29113,-1.42786 -0.0740118,-0.473799 -0.125421,-0.944398 -0.155374,-1.41194 9.84252e-005,-0.00392913 -0.000153543,-0.00790945 -0.000783465,-0.0119252 -0.00618898,-0.0394567 -0.0462087,-0.0668583 -0.089378,-0.0612008l7.87402e-006 6.69291e-005 -2.19564 0.294268 0.0194291 0.0184331c0.0603465,0.057252 0.0583937,0.151496 -0.00402362,0.206402 -0.0163228,0.0143622 -0.00983465,0.00816929 -0.0222126,0.016063l-0.128087 0.0816299 0.15763 0.393524 -0.359043 -0.265161 -0.0599331 0.0381929 8.66142e-005 0.00011811 -0.0715709 0.0456063c-0.0654685,0.0417165 -0.154713,0.0274764 -0.20198,-0.0344567 -0.0138268,-0.018122 -0.00820079,-0.0119134 -0.0149567,-0.0246654l-0.0175827 -0.0331693 -0.000232283 0.000102362 -0.0344606 -0.0650394c-0.0222283,-0.0419409 -0.0208622,-0.0905276 0.00109055,-0.131012 -0.0482598,-0.00703937 -0.0900984,-0.0374764 -0.113374,-0.0813976l-0.0322087 -0.0607717zm0.344343 0.973965c-0.00749606,-0.0429291 0.0212283,-0.083811 0.0641575,-0.0913071l2.33057 -0.406622c0.0429291,-0.00749606 0.083811,0.0212283 0.0913071,0.0641575 0.00749213,0.0429331 -0.0212323,0.083815 -0.0641614,0.0913071l-2.33056 0.406626c-0.0429331,0.00749606 -0.083815,-0.0212283 -0.0913071,-0.0641614zm0.459138 0.30424l0.172752 -0.0355787 0.122358 0.49628c0.0159724,0.0647992 0.0219094,0.116126 0.018126,0.153539 -0.00552756,0.0490866 -0.0268346,0.0920236 -0.0641772,0.128673 -0.0372953,0.0368346 -0.0920354,0.0624882 -0.164134,0.0773386 -0.0846732,0.017437 -0.155087,0.00931102 -0.211528,-0.0247165 -0.0562008,-0.033878 -0.0950236,-0.092626 -0.115878,-0.176362l0.158929 -0.0507559c0.0130669,0.0444843 0.0280866,0.0747638 0.0450551,0.0908307 0.0257047,0.0242441 0.0577244,0.0324173 0.0958701,0.024563 0.0385472,-0.00794094 0.0634291,-0.0236142 0.0744134,-0.0471614 0.0110236,-0.0233701 0.00870866,-0.066815 -0.00695276,-0.130331l-0.124835 -0.506319zm0.419764 0.330504c-0.0197126,-0.0799488 -0.0232441,-0.149606 -0.0104488,-0.209201 0.00975984,-0.0438189 0.0274567,-0.085248 0.053374,-0.123957 0.0259685,-0.0385276 0.0571102,-0.069685 0.0934685,-0.0932835 0.0483898,-0.0318268 0.107382,-0.0547165 0.17728,-0.0691102 0.126413,-0.0260354 0.236287,-0.0110748 0.329862,0.0450315 0.0935236,0.0559173 0.156039,0.147764 0.187496,0.275346 0.0312323,0.126673 0.017878,0.233374 -0.0397717,0.320425 -0.0576929,0.0868701 -0.149528,0.143374 -0.275343,0.169287 -0.12761,0.0262795 -0.237843,0.0115827 -0.330634,-0.0439134 -0.0928425,-0.0556772 -0.154547,-0.145965 -0.185283,-0.270626zm0.869748 -0.596075l0.342894 -0.0706181c0.0679016,-0.0139803 0.11926,-0.021874 0.153913,-0.0234528 0.0346102,-0.00175197 0.0670236,0.00288583 0.0974331,0.0138858 0.0304134,0.011 0.0575354,0.0282362 0.0818583,0.0519921 0.0242795,0.0235787 0.0406299,0.052437 0.0489488,0.0862008 0.00904724,0.036685 0.00659055,0.0726772 -0.00741732,0.10778 -0.0142087,0.0351457 -0.0378937,0.064189 -0.071063,0.0871299 0.0555472,0.00313386 0.101736,0.0185591 0.137929,0.0462008 0.0364409,0.0277874 0.0601417,0.0643307 0.0713031,0.109598 0.00877165,0.0355906 0.00833465,0.072122 -0.00151181,0.109634 -0.00988976,0.0373228 -0.0279961,0.0694409 -0.0544016,0.0959764 -0.0264016,0.0265315 -0.0620866,0.0469213 -0.107051,0.0611693 -0.0280827,0.00865748 -0.0973268,0.0248346 -0.207587,0.048315l-0.291972 0.060126 -0.193276 -0.783937zm-1.47661 1.43854c-0.00937008,-0.0424173 0.0174213,-0.0844055 0.0598425,-0.0937756l2.32807 -0.514043c0.0424213,-0.00936614 0.0844094,0.0174252 0.0937756,0.0598465 0.00937008,0.0424173 -0.0174252,0.0844094 -0.0598425,0.0937756l-2.32807 0.514043c-0.0424213,0.00936614 -0.0844094,-0.0174252 -0.0937756,-0.0598465zm0.955677 -1.20314c-0.0714961,0.0147205 -0.123476,0.0490197 -0.156185,0.102744 -0.0325157,0.053685 -0.037878,0.125559 -0.0156024,0.215909 0.0218701,0.0887047 0.0610433,0.151409 0.117075,0.188008 0.0562244,0.0365591 0.118768,0.0476575 0.18787,0.0334252 0.0688976,-0.014189 0.120031,-0.0485 0.153118,-0.103264 0.0329291,-0.0545394 0.038311,-0.127185 0.0158976,-0.218083 -0.0221378,-0.0897992 -0.0602205,-0.152346 -0.114094,-0.187854 -0.0540236,-0.0352874 -0.116783,-0.0455709 -0.188079,-0.0308858zm0.726449 -0.140594l0.044685 0.181244 0.113433 -0.0233583c0.0675039,-0.0139055 0.109217,-0.0234567 0.125142,-0.0286535 0.0287913,-0.00918504 0.0498622,-0.0233071 0.0630118,-0.0423189 0.0131496,-0.0190118 0.0165,-0.0411811 0.0102441,-0.0665512 -0.00598425,-0.0242756 -0.0180354,-0.0425079 -0.0363504,-0.0546575 -0.0185118,-0.0121024 -0.0425315,-0.016748 -0.0720512,-0.0139291 -0.0176299,0.0017126 -0.0671811,0.0109606 -0.148657,0.0277402l-0.0994567 0.0204843z"/>
   <path id="_449990824" class="fil2" d="M1.78787 1.59359c0.0603228,-0.0384409 0.127327,-0.0488622 0.192382,-0.0382638 0.0668937,0.0109055 0.130992,0.0446614 0.181799,0.0928543l0.0865118 0.0820748 9.84252e-005 -9.05512e-005c0.0205669,0.0195118 0.0247598,0.047937 0.0128701,0.0710866 -0.00466142,0.0116929 -0.00672441,0.0231614 -0.0059252,0.0336535 0.000688976,0.00903937 0.00370866,0.0175472 0.00926378,0.0248307 0.00702756,0.0092126 0.0181929,0.0156969 0.031685,0.0193031 0.0175079,0.0046811 0.0382992,0.00458268 0.059878,-0.000393701l-3.93701e-005 -0.000129921c0.0266457,-0.00616535 0.0535945,0.00264173 0.0702087,0.0206299l0.0838425 0.0795433 0.000102362 -9.05512e-005c0.0266299,0.0252677 0.025811,0.0654882 -0.00183071,0.0898228 -0.00387795,0.00340945 -0.00807087,0.00633071 -0.0124961,0.00875591l-0.461 0.293799 8.66142e-005 0.000114173c-0.0314882,0.0200669 -0.074815,0.0130039 -0.0967677,-0.0157717 -0.00333071,-0.0043622 -0.00597244,-0.00897638 -0.00795669,-0.0137323l-0.0520472 -0.0982087 -0.000228346 0.000102362c-0.0115945,-0.021874 -0.00822441,-0.0468268 0.00643307,-0.065185 0.0120866,-0.0165984 0.0190669,-0.0336969 0.0202402,-0.0493346 0.000956693,-0.0127756 -0.00199213,-0.0247598 -0.00933071,-0.034378 -0.00536614,-0.00703543 -0.0129528,-0.012437 -0.0219764,-0.0161457 -0.0117598,-0.00483071 -0.0256693,-0.00707087 -0.0405984,-0.00667323l7.87402e-006 0.000244094c-0.0304094,0.000826772 -0.0568346,-0.0163307 -0.0670591,-0.0409409l-0.0517835 -0.0977047c-0.0319055,-0.0602047 -0.0444094,-0.126724 -0.0325197,-0.187665 0.0116142,-0.0595354 0.0455906,-0.113512 0.10615,-0.152106z"/>
   <polygon id="_449990416" class="fil2" points="2.49637,2.53061 2.30781,2.16918 2.21061,2.15615 2.19758,2.25335 "/>
  </g>
 </g>
</svg>
