<?xml version="1.0" encoding="UTF-8"?>
<!DOCTYPE svg PUBLIC "-//W3C//DTD SVG 1.1//EN" "http://www.w3.org/Graphics/SVG/1.1/DTD/svg11.dtd">
<!-- Creator: CorelDRAW -->
<svg xmlns="http://www.w3.org/2000/svg" xml:space="preserve" width="6.82666in" height="6.82666in" style="shape-rendering:geometricPrecision; text-rendering:geometricPrecision; image-rendering:optimizeQuality; fill-rule:evenodd; clip-rule:evenodd"
viewBox="0 0 6.82666 6.82666"
 xmlns:xlink="http://www.w3.org/1999/xlink">
 <defs>
  <style type="text/css">
   <![CDATA[
    .fil0 {fill:#424242}
    .fil1 {fill:#FFFFFE}
    .fil2 {fill:#FFFFFE;fill-rule:nonzero}
   ]]>
  </style>
 </defs>
 <g id="Layer_x0020_1">
  <metadata id="CorelCorpID_0Corel-Layer"/>
  <circle class="fil0" cx="3.41333" cy="3.41333" r="3.41333"/>
  <g id="_449991136">
   <g>
    <path id="_449992024" class="fil1" d="M2.1358 1.65078l3.06887 0 0.0753307 0 0 0.0753307 0 3.06887 0 0.0486811 0 0.0193465c-0.00458268,-0.00576378 -0.00957874,-0.0112638 -0.015,-0.0164528l-0.287528 -0.275165c-0.022748,-0.0217677 -0.0511654,-0.0363937 -0.0816654,-0.0425l-0.148886 -0.136299 0.166224 0 0 -0.150661 -0.206996 0c0.0419016,-0.084752 0.0676378,-0.176701 0.0758701,-0.271299l0.131126 0 0 -0.150657 -0.132858 0c-0.0117717,-0.107071 -0.0458386,-0.209516 -0.0995669,-0.301299l0.232425 0 0 -0.150657 -0.348091 0c-0.00601181,-0.00609055 -0.0121339,-0.0121024 -0.018374,-0.0180079 -0.147256,-0.139453 -0.34252,-0.21413 -0.545217,-0.208602 -0.197571,0.00537795 -0.383724,0.0862126 -0.522228,0.22661l-1.05192 0 0 0.150657 0.936307 0c-0.0539331,0.0920945 -0.0879606,0.194614 -0.0996732,0.301299l-0.836634 0 0 0.150657 0.83498 0c0.00831102,0.0952047 0.0342126,0.187028 0.0758583,0.271299l-0.910839 0 0 0.150661 1.00905 0c0.0190157,0.0227598 0.039437,0.0445276 0.0612402,0.0651732 0.147256,0.139445 0.342516,0.214126 0.545213,0.208602 0.154906,-0.00422047 0.304004,-0.0550118 0.428366,-0.145685l0.232654 0.212996c0.00774409,0.0289331 0.0232441,0.055374 0.0452126,0.0763937l0.287528 0.275165c0.0237205,0.0227008 0.0525945,0.0368976 0.0827598,0.0426732 -0.0501378,0.0304252 -0.10889,0.0479803 -0.171571,0.0479803l0 0 0 -0.000295276 -3.05482 -3.93701e-006c-0.00466535,0.000192913 -0.00934252,0.000299213 -0.0140512,0.000299213l0 0c-0.0914409,0 -0.17452,-0.0373583 -0.234697,-0.0975354 -0.0601772,-0.0601772 -0.0975354,-0.143256 -0.0975354,-0.234693l0 -2.60557c0,-0.0416024 0.0337283,-0.0753307 0.0753307,-0.0753307 0.0416024,0 0.0753307,0.0337283 0.0753307,0.0753307l0 2.60557c0,0.0498543 0.0204528,0.0952323 0.0533937,0.128173 0.0329409,0.0329409 0.0783228,0.0533937 0.128177,0.0533937l0 0c0.0498543,0 0.0952362,-0.0204528 0.128177,-0.0533937 0.0329409,-0.0329409 0.0533937,-0.0783189 0.0533937,-0.128173l0 -0.0486811 0 -3.06887 0 -0.0753307 0.0753307 0zm0.36685 0.361327l1.05459 0 0.0753307 0 0 0.0753307 0 0.903937 0 0.0753307 -0.0753307 0 -1.05459 0 -0.0753307 0 0 -0.0753307 0 -0.903937 0 -0.0753307 0.0753307 0zm1.17605 2.22983l0.686882 0c0.0021811,-0.00221654 0.00435433,-0.00444882 0.00649606,-0.00671654 0.0696496,-0.0735551 0.113701,-0.16587 0.127433,-0.264583l-0.95474 0c0.0142047,0.102335 0.0608425,0.197114 0.133929,0.271299zm0.282752 -2.19801l0.0818701 0 0 0.25735c0,0.0335984 -0.00302756,0.0595315 -0.00889764,0.0776102 -0.00794882,0.0236654 -0.0223346,0.042685 -0.043252,0.0569803 -0.0209173,0.0143858 -0.0484606,0.0214882 -0.0826299,0.0214882 -0.0401299,0 -0.0709882,-0.0111693 -0.0926614,-0.0336969 -0.0215787,-0.0224331 -0.0325591,-0.0553701 -0.0326535,-0.098811l0.0773307 -0.00890157c0.000944882,0.0232874 0.00435039,0.0397559 0.0102205,0.0494055 0.0088937,0.0145787 0.0224331,0.0218661 0.0405118,0.0218661 0.0182638,0 0.0312323,-0.00520472 0.0388031,-0.0157087 0.0075748,-0.0104134 0.0113583,-0.0320906 0.0113583,-0.0650276l0 -0.262555zm0.152575 0.205764c0,-0.0414528 0.00614961,-0.076189 0.0185512,-0.104303 0.00927559,-0.0206299 0.0218622,-0.0392756 0.0378583,-0.0557441 0.0159961,-0.016378 0.0335079,-0.0285866 0.0525315,-0.0365354 0.0253661,-0.0107913 0.0545157,-0.0160906 0.0876457,-0.0160906 0.0599134,0 0.107803,0.0185512 0.143772,0.055748 0.0359685,0.0370984 0.0539488,0.0887795 0.0539488,0.154941 0,0.065685 -0.0178898,0.116984 -0.0535709,0.154087 -0.0356811,0.0370079 -0.0833858,0.055563 -0.143016,0.055563 -0.0604764,0 -0.108563,-0.0184606 -0.144248,-0.0552756 -0.0356772,-0.0369134 -0.0534724,-0.0877402 -0.0534724,-0.15239zm0.0845236 -0.00274409c0,0.046 0.0106929,0.0809291 0.0318898,0.104685 0.0213031,0.0237559 0.0482756,0.0355866 0.0810236,0.0355866 0.0326535,0 0.0595354,-0.0117362 0.0805433,-0.0353976 0.0209213,-0.0235669 0.0314291,-0.058874 0.0314291,-0.106008 0,-0.0465709 -0.0102244,-0.0813031 -0.0305748,-0.104303 -0.0204409,-0.0229055 -0.0476102,-0.0343583 -0.0813976,-0.0343583 -0.0338819,0 -0.0611417,0.0116417 -0.081874,0.0348268 -0.0206299,0.0231929 -0.0310394,0.058122 -0.0310394,0.104969zm0.374047 -0.20302l0.162516 0c0.0321811,0 0.0562205,0.00132677 0.0720315,0.00407087 0.0158071,0.00264961 0.0299055,0.00823228 0.0423976,0.016752 0.0124961,0.00851575 0.022815,0.0197795 0.0311457,0.0339803 0.00832677,0.0141024 0.0124882,0.03 0.0124882,0.0475118 0,0.0190236 -0.00511024,0.0365354 -0.0153307,0.052437 -0.010315,0.0159016 -0.0242323,0.0278268 -0.0417402,0.0357756 0.0247008,0.00719291 0.0438228,0.0195 0.0570709,0.0368228 0.0133465,0.0174134 0.0199724,0.0378543 0.0199724,0.0613268 0,0.0184567 -0.00425984,0.0364409 -0.012874,0.0539528 -0.00861024,0.0174134 -0.0203465,0.0314213 -0.0352087,0.0418307 -0.0148583,0.0104134 -0.0332205,0.0168504 -0.0550866,0.019315 -0.0136299,0.00141732 -0.0466614,0.00236614 -0.0990039,0.00274409l-0.138378 0 0 -0.40652zm0.0821575 0.0676732l0 0.0939843 0.0537638 0c0.0319882,0 0.0518701,-0.000472441 0.059626,-0.00142126 0.0140079,-0.0016063 0.0250827,-0.00643307 0.0331299,-0.0144803 0.00804331,-0.00804331 0.0120197,-0.0186417 0.0120197,-0.0317953 0,-0.0125945 -0.00340551,-0.022815 -0.010315,-0.0306732 -0.00700787,-0.00785433 -0.0173228,-0.0125827 -0.0309528,-0.0141929 -0.0081378,-0.000948819 -0.0315197,-0.00142126 -0.0701378,-0.00142126l-0.0471339 0zm0 0.161661l0 0.108657 0.0759094 0c0.029626,0 0.0483661,-0.000759843 0.056315,-0.00246063 0.0122126,-0.00217717 0.0221496,-0.00766929 0.029815,-0.016185 0.00766929,-0.00861417 0.0115512,-0.0201614 0.0115512,-0.0345472 0,-0.0122087 -0.00302756,-0.0225276 -0.00890157,-0.0310433 -0.00596063,-0.00851969 -0.0144803,-0.0147677 -0.0256496,-0.0186457 -0.0111654,-0.00388189 -0.0354921,-0.00577559 -0.0727835,-0.00577559l-0.0662559 0zm-1.10727 1.54672l0.949331 0c-0.0177953,-0.101248 -0.0675512,-0.194248 -0.143343,-0.26602 -0.013315,-0.0126102 -0.027248,-0.024374 -0.0417165,-0.0352795l-0.579276 0c-0.021378,0.016126 -0.0415472,0.0341142 -0.0602677,0.0538819 -0.0655984,0.0692756 -0.108484,0.155189 -0.124728,0.247417zm0.23574 -1.28057l1.12992 0 0 0.150657 -1.12992 0 0 -0.150657zm0 0.376642l1.12992 0 0 0.150661 -1.12992 0 0 -0.150661z"/>
    <path id="_449991928" class="fil2" d="M1.62199 2.16276c-0.0416024,0 -0.0753307,0.0337283 -0.0753307,0.0753307 0,0.0416024 0.0337283,0.0753307 0.0753307,0.0753307l0.473602 0c0.0415984,0 0.0753268,-0.0337283 0.0753268,-0.0753307 0,-0.0416024 -0.0337283,-0.0753307 -0.0753268,-0.0753307l-0.473602 0z"/>
   </g>
   <path id="_449992312" class="fil2" d="M3.51928 3.42766c0.131433,-0.138795 0.306811,-0.211185 0.484098,-0.216016 0.177165,-0.00482677 0.356161,0.0579213 0.494988,0.189382 0.138795,0.131437 0.211185,0.306815 0.216016,0.484098 0.00422835,0.155091 -0.0433346,0.311575 -0.143441,0.441299l0.293917 0.269524c0.0231024,0.000377953 0.046122,0.00907087 0.0640276,0.0262087l0.287528 0.275165c0.0284488,0.0272205 0.036189,0.0682677 0.0227953,0.102984 -0.000940945,0.00254331 -0.00203543,0.00505118 -0.00327953,0.00750394 -0.00416535,0.00850787 -0.00968504,0.0165276 -0.0165709,0.0237205l0 0c-0.0360984,0.0377165 -0.0964882,0.0390433 -0.134205,0.00294488l-0.287524 -0.275161c-0.0175276,-0.0167795 -0.0271969,-0.0388031 -0.0289016,-0.0613661l-0.294098 -0.269681c-0.124197,0.107409 -0.278228,0.16363 -0.433728,0.167866 -0.177161,0.00482677 -0.356161,-0.0579213 -0.494988,-0.189382 -0.138795,-0.131437 -0.211185,-0.306815 -0.21602,-0.484102 -0.00482283,-0.177161 0.0579252,-0.356161 0.189386,-0.494988zm0.48772 -0.0758071c-0.14115,0.00384646 -0.280909,0.0616181 -0.385807,0.172394 -0.104874,0.110752 -0.154933,0.253508 -0.151087,0.39478 0.00384252,0.14115 0.0616181,0.280909 0.172394,0.385811 0.110748,0.104874 0.253508,0.154933 0.394776,0.151083 0.141154,-0.00384252 0.280913,-0.0616181 0.385815,-0.172394 0.104874,-0.110748 0.154929,-0.253508 0.151083,-0.394776 -0.00384252,-0.14115 -0.0616181,-0.280913 -0.172394,-0.385815 -0.110748,-0.10487 -0.253508,-0.154929 -0.39478,-0.151083z"/>
  </g>
 </g>
</svg>
