<?xml version="1.0" encoding="UTF-8"?>
<!DOCTYPE svg PUBLIC "-//W3C//DTD SVG 1.1//EN" "http://www.w3.org/Graphics/SVG/1.1/DTD/svg11.dtd">
<!-- Creator: CorelDRAW -->
<svg xmlns="http://www.w3.org/2000/svg" xml:space="preserve" width="6.82666in" height="6.82666in" style="shape-rendering:geometricPrecision; text-rendering:geometricPrecision; image-rendering:optimizeQuality; fill-rule:evenodd; clip-rule:evenodd"
viewBox="0 0 6.82666 6.82666"
 xmlns:xlink="http://www.w3.org/1999/xlink">
 <defs>
  <style type="text/css">
   <![CDATA[
    .fil0 {fill:#FF9800}
    .fil1 {fill:#FFFFFE;fill-rule:nonzero}
   ]]>
  </style>
 </defs>
 <g id="Layer_x0020_1">
  <metadata id="CorelCorpID_0Corel-Layer"/>
  <circle class="fil0" cx="3.41333" cy="3.41333" r="3.41333"/>
  <g id="_449992840">
   <path id="_449993128" class="fil1" d="M4.16494 2.52032l-2.25556 0c-0.0429567,0 -0.0777795,0.0348268 -0.0777795,0.0777795l0 1.16954c0,0.0429528 0.0348228,0.0777795 0.0777795,0.0777795l1.67267 0 0.442496 0.476276 -0.000125984 0.00011811c0.0292323,0.0314685 0.0784488,0.0332795 0.109917,0.00404331 0.0227126,-0.0210984 0.0299685,-0.0525984 0.0212638,-0.0803307l-0.101492 -0.400106 0.110831 0c0.0429528,0 0.0777795,-0.0348268 0.0777795,-0.0777795l0 -1.16954c0,-0.0429528 -0.0348268,-0.0777795 -0.0777795,-0.0777795zm-1.74006 0.342528l0.129618 0 0 0.407441c0,0.0531929 -0.00479134,0.0942559 -0.0140906,0.122874 -0.0125827,0.0374646 -0.0353583,0.0675827 -0.0684724,0.0902087 -0.033122,0.0227756 -0.0767244,0.0340197 -0.130823,0.0340197 -0.0635315,0 -0.112386,-0.0176811 -0.146697,-0.0533465 -0.0341693,-0.0355157 -0.0515512,-0.0876614 -0.0517008,-0.156441l0.122425 -0.0140866c0.00150394,0.0368622 0.00689764,0.062937 0.016185,0.0782205 0.0140866,0.0230787 0.0355157,0.0346102 0.0641378,0.0346102 0.0289173,0 0.0494488,-0.00824016 0.061437,-0.0248661 0.0119882,-0.0164882 0.0179803,-0.0508031 0.0179803,-0.102953l0 -0.415681zm0.241559 0.325776c0,-0.0656339 0.00973622,-0.12063 0.0293701,-0.165138 0.0146811,-0.0326654 0.0346102,-0.062185 0.0599331,-0.0882559 0.0253307,-0.0259291 0.0530512,-0.0452559 0.0831732,-0.0578425 0.0401535,-0.0170827 0.0863071,-0.0254724 0.138756,-0.0254724 0.0948543,0 0.170677,0.0293661 0.227622,0.0882598 0.0569409,0.0587362 0.0854134,0.140555 0.0854134,0.245299 0,0.103992 -0.0283268,0.185213 -0.084815,0.243957 -0.0564921,0.0585866 -0.13202,0.0879606 -0.226425,0.0879606 -0.095748,0 -0.171874,-0.0292244 -0.22837,-0.0875118 -0.0564882,-0.0584409 -0.0846575,-0.138909 -0.0846575,-0.241256zm0.133811 -0.00434646c0,0.0728268 0.0169331,0.128122 0.0504961,0.165736 0.0337165,0.0376063 0.0764291,0.0563346 0.128272,0.0563346 0.0516969,0 0.0942559,-0.0185787 0.127524,-0.0560394 0.0331181,-0.037311 0.049752,-0.0932047 0.049752,-0.167831 0,-0.0737283 -0.016189,-0.12872 -0.0484055,-0.165134 -0.0323661,-0.0362638 -0.0753701,-0.0543937 -0.12887,-0.0543937 -0.0536417,0 -0.0968031,0.0184291 -0.129618,0.0551417 -0.0326693,0.0367165 -0.0491496,0.0920079 -0.0491496,0.166185zm0.592201 -0.321429l0.257291 0c0.0509488,0 0.0890118,0.00210236 0.114035,0.00644488 0.0250236,0.00419685 0.0473504,0.0130394 0.0671299,0.0265276 0.0197795,0.0134803 0.0361181,0.031315 0.0493031,0.0537953 0.013185,0.0223228 0.0197795,0.0475 0.0197795,0.0752205 0,0.0301181 -0.00809449,0.0578425 -0.0242756,0.0830157 -0.0163307,0.0251732 -0.0383622,0.0440591 -0.0660827,0.0566457 0.0391102,0.0113858 0.0693819,0.0308701 0.0903583,0.0582913 0.021126,0.0275709 0.0316181,0.059937 0.0316181,0.0970984 0,0.0292205 -0.00674016,0.0576929 -0.020378,0.0854134 -0.0136378,0.0275787 -0.0322165,0.049752 -0.055748,0.0662323 -0.0235236,0.0164843 -0.0525945,0.0266732 -0.0872126,0.0305709 -0.0215748,0.00224803 -0.073874,0.00374803 -0.15674,0.00434646l-0.219079 0 0 -0.643602zm0.130067 0.107146l0 0.148799 0.0851181 0c0.0506496,0 0.0821181,-0.000751969 0.0944016,-0.00224803 0.0221772,-0.00254724 0.0397126,-0.0101929 0.0524488,-0.0229291 0.0127323,-0.0127323 0.0190315,-0.0295157 0.0190315,-0.0503465 0,-0.0199331 -0.00539764,-0.0361142 -0.0163307,-0.0485551 -0.0110945,-0.012437 -0.0274252,-0.0199252 -0.0490079,-0.0224724 -0.0128819,-0.0015 -0.0498937,-0.00224803 -0.111035,-0.00224803l-0.074626 0zm0 0.255941l0 0.172024 0.120181 0c0.0469016,0 0.0765709,-0.00119685 0.0891614,-0.0038937 0.0193307,-0.00344488 0.035063,-0.0121378 0.0472008,-0.025622 0.0121417,-0.0136378 0.0182835,-0.0319213 0.0182835,-0.0546969 0,-0.0193307 -0.00479528,-0.0356654 -0.0140866,-0.0491457 -0.00944488,-0.0134921 -0.0229291,-0.0233819 -0.0406102,-0.0295276 -0.0176772,-0.00614173 -0.0561929,-0.0091378 -0.115236,-0.0091378l-0.104894 0z"/>
   <path id="_449993080" class="fil1" d="M4.78727 1.54666l-1.94979 0c-0.0572205,0 -0.109189,0.0233543 -0.146811,0.0609764 -0.037622,0.0376181 -0.0609764,0.0895866 -0.0609764,0.146807l0 0.688102 0.155559 0 0 -0.42922 2.05424 0 0 2.48889 -2.05424 0 0 -0.579012 -0.155559 0 0 1.14901c0,0.0572205 0.0233543,0.109189 0.0609764,0.146811 0.037622,0.0376181 0.0895906,0.0609724 0.146811,0.0609724l1.94979 0c0.0572205,0 0.109189,-0.0233543 0.146811,-0.0609724 0.037622,-0.037622 0.0609724,-0.0895906 0.0609724,-0.146811l0 -3.31777c0,-0.0572205 -0.0233504,-0.109189 -0.0609724,-0.146807 -0.037622,-0.037622 -0.0895906,-0.0609764 -0.146811,-0.0609764zm-1.24712 3.42222c-0.0429528,0 -0.0777795,-0.0348228 -0.0777795,-0.0777795 0,-0.0429528 0.0348268,-0.0777795 0.0777795,-0.0777795l0.544449 0c0.0429528,0 0.0777795,0.0348268 0.0777795,0.0777795 0,0.0429567 -0.0348268,0.0777795 -0.0777795,0.0777795l-0.544449 0zm0.152811 -3.07223c-0.0214764,0 -0.0388898,-0.0174134 -0.0388898,-0.0388898 0,-0.0214764 0.0174134,-0.0388898 0.0388898,-0.0388898l0.238827 0c0.0214764,0 0.0388898,0.0174134 0.0388898,0.0388898 0,0.0214764 -0.0174134,0.0388898 -0.0388898,0.0388898l-0.238827 0z"/>
  </g>
 </g>
</svg>
