<?xml version="1.0" encoding="UTF-8"?>
<!DOCTYPE svg PUBLIC "-//W3C//DTD SVG 1.1//EN" "http://www.w3.org/Graphics/SVG/1.1/DTD/svg11.dtd">
<!-- Creator: CorelDRAW -->
<svg xmlns="http://www.w3.org/2000/svg" xml:space="preserve" width="6.82666in" height="6.82666in" style="shape-rendering:geometricPrecision; text-rendering:geometricPrecision; image-rendering:optimizeQuality; fill-rule:evenodd; clip-rule:evenodd"
viewBox="0 0 6.82666 6.82666"
 xmlns:xlink="http://www.w3.org/1999/xlink">
 <defs>
  <style type="text/css">
   <![CDATA[
    .fil0 {fill:#9E9E9E}
    .fil1 {fill:#FFFFFE}
    .fil2 {fill:#FFFFFE;fill-rule:nonzero}
   ]]>
  </style>
 </defs>
 <g id="Layer_x0020_1">
  <metadata id="CorelCorpID_0Corel-Layer"/>
  <circle class="fil0" cx="3.41333" cy="3.41333" r="3.41333"/>
  <g id="_449993560">
   <path id="_449994736" class="fil1" d="M2.69128 2.87675c0.316067,0 0.602224,0.128122 0.809366,0.33526 0.207138,0.207138 0.335256,0.493295 0.335256,0.809366 0,0.316067 -0.128118,0.60222 -0.33526,0.809358 -0.207138,0.207138 -0.493295,0.33526 -0.809362,0.33526 -0.316067,0 -0.602224,-0.128122 -0.809362,-0.33526 -0.207138,-0.207138 -0.335256,-0.493291 -0.335256,-0.809358 0,-0.316071 0.128118,-0.602228 0.335256,-0.809366 0.207138,-0.207138 0.493295,-0.33526 0.809362,-0.33526zm0.0805669 0.380024c0,-0.0419764 -0.0340315,-0.0760079 -0.0760079,-0.0760079 -0.0419764,0 -0.0760039,0.0340315 -0.0760039,0.0760079l0 0.760043c0,0.0260079 0.0130709,0.0489646 0.033,0.0626693l0.408457 0.331197c0.0324646,0.0263976 0.080185,0.0214803 0.106583,-0.0109882 0.0263976,-0.0324646 0.0214803,-0.080185 -0.0109843,-0.106583l-0.385043 -0.312209 0 -0.72413z"/>
   <path id="_449994040" class="fil2" d="M2.31581 2.85967l0 -2.3622e-005 0.00562992 -0.00179921 0.000350394 -0.000114173 0.00038189 -0.000114173c0.00434646,-0.00137795 0.00870472,-0.00272835 0.0130709,-0.00405906l0.00144094 -0.000437008c0.00449606,-0.0013622 0.00900787,-0.00270472 0.0135236,-0.00401575l0.000204724 -5.51181e-005c0.00453937,-0.0013189 0.00909055,-0.00261024 0.0136496,-0.00387402l0.00103937 -0.000287402c0.00451575,-0.00124803 0.0090315,-0.00247244 0.013563,-0.00366929l0.000925197 -0.000244094c0.00435827,-0.00114567 0.00872047,-0.00226378 0.0130906,-0.00336614l0.00135827 -0.00034252c0.00452362,-0.00112992 0.00905906,-0.00223622 0.0135984,-0.0033189l0.00080315 -0.000192913c0.00451181,-0.00106693 0.00902756,-0.00211417 0.0135512,-0.00313386l0.000807087 -0.000181102c0.00465354,-0.00104724 0.0093189,-0.00206299 0.0139882,-0.00305512l0.000688976 -0.000145669c0.00451575,-0.000952756 0.0090315,-0.00188583 0.0135591,-0.0027874l0.00118504 -0.00023622c0.00465748,-0.000925197 0.0093189,-0.00182283 0.0139882,-0.00269685l0.000417323 -7.87402e-005c0.00468898,-0.000870079 0.00938583,-0.00171654 0.0140866,-0.00253543l0.00065748 -0.000114173c0.00475591,-0.000826772 0.00951575,-0.00162598 0.0142874,-0.0023937l0.000535433 -8.66142e-005c0.00461811,-0.000744094 0.00924016,-0.00146063 0.0138701,-0.00215354l0.00106299 -0.000153543c0.00461024,-0.000685039 0.00922441,-0.00134252 0.0138504,-0.00197244l0.00133465 -0.000185039c0.00464173,-0.000625984 0.00928346,-0.00122835 0.0139331,-0.00180709l0.000326772 -3.93701e-005c0.0048189,-0.000594488 0.00964173,-0.00115748 0.0144724,-0.00169685l0.000783465 -8.66142e-005c0.00465354,-0.000515748 0.00931102,-0.00100394 0.0139764,-0.0014685l0.000885827 -9.05512e-005c0.00471654,-0.000464567 0.00943701,-0.000901575 0.0141654,-0.00131102l0.00117323 -9.84252e-005c0.00478346,-0.000409449 0.00957087,-0.000795276 0.0143661,-0.00114961l2.75591e-005 0c0.00474016,-0.000350394 0.00948031,-0.000673228 0.0142283,-0.000968504l0.00175984 -0.000106299c0.00455118,-0.000279528 0.00911024,-0.000531496 0.0136732,-0.000759843l0.000503937 -2.75591e-005 0.00042126 -1.9685e-005c0.00480315,-0.00023622 0.00961024,-0.000440945 0.0144213,-0.00061811l0.000598425 -1.9685e-005c0.00493701,-0.000185039 0.00988583,-0.000338583 0.0148346,-0.00046063l1.5748e-005 0 0.000212598 -7.87402e-006c0.00477559,-0.000114173 0.00955906,-0.000204724 0.0143386,-0.00026378l0.0013189 -1.1811e-005c0.00483858,-5.51181e-005 0.0096811,-9.05512e-005 0.0145315,-9.05512e-005 0.324768,0 0.6335,0.127909 0.86311,0.35752 0.229606,0.22961 0.357516,0.538339 0.357516,0.86311 0,0.00492126 -3.14961e-005,0.00984252 -9.05512e-005,0.0147598l-1.1811e-005 0.00112205c-6.29921e-005,0.00474803 -0.000145669,0.00949213 -0.00026378,0.0142323l-1.9685e-005 0.000625984c-0.00011811,0.00487402 -0.000271654,0.00974409 -0.000448819,0.0146102l-1.5748e-005 0.00042126c-0.000177165,0.00484646 -0.000385827,0.00968504 -0.000625984,0.0145197l-3.14961e-005 0.000708661c-0.00023622,0.00475591 -0.000503937,0.00951181 -0.000791339,0.0142598l-2.75591e-005 0.000531496 -2.75591e-005 0.00042126c-0.000614173,0.00985827 -0.00133858,0.0196969 -0.00218898,0.0295157l-3.54331e-005 0.000429134c-0.000413386,0.00477165 -0.000854331,0.00953937 -0.00132283,0.0142992l-9.44882e-005 0.000933071c-0.00046063,0.00466929 -0.000948819,0.00933465 -0.00146457,0.0139961l-0.000110236 0.000968504c-0.000527559,0.00472047 -0.00107874,0.00944094 -0.00166142,0.0141496l-6.69291e-005 0.000547244c-0.00057874,0.00470079 -0.00118898,0.0093937 -0.00182677,0.0140827l-7.48031e-005 0.000562992 0 1.9685e-005 -9.44882e-005 0.000637795c-0.000622047,0.00456299 -0.00126772,0.00912205 -0.00194094,0.0136732l-0.000200787 0.0013189c-0.000681102,0.00457087 -0.00138976,0.0091378 -0.00212205,0.0136969l-0.000122047 0.000751969c-0.000755906,0.00469291 -0.00154331,0.00937795 -0.00235433,0.0140551l-9.84252e-005 0.000559055c-0.000826772,0.00475591 -0.0016811,0.0095 -0.00256299,0.0142402l-8.26772e-005 0.000440945c-0.000885827,0.00474409 -0.00179528,0.00948031 -0.00274016,0.0142087l-5.11811e-005 0.000283465 -7.87402e-005 0.000389764c-0.000944882,0.00473622 -0.00191732,0.00945276 -0.00291732,0.0141732l-4.33071e-005 0.000204724c-0.000992126,0.0046811 -0.00201575,0.00936614 -0.00306693,0.0140315l-0.000216535 0.00096063c-0.0021063,0.00935433 -0.00432677,0.0186811 -0.00664961,0.0279724l-0.000232283 0.000933071 -0.00030315 0.0012126 -7.87402e-006 0c-0.013063,0.0517835 -0.0295039,0.102551 -0.049185,0.152012l1.16934 0c0.0784567,0 0.149732,-0.0320433 0.201354,-0.0836654 0.0516181,-0.0516181 0.0836614,-0.122894 0.0836614,-0.20135l0 -1.53278 -0.152012 0 -2.81217 0 -0.152012 0 0 0.265276c0.0492402,-0.0236063 0.100016,-0.0438701 0.152012,-0.0606535zm1.72322 0.773681l0 -0.295835c0,-0.0198661 0.0161063,-0.0359724 0.0359764,-0.0359724l0.287783 0c0.0198661,0 0.0359724,0.0161063 0.0359724,0.0359724l0 0.295835c0,0.0198661 -0.0161063,0.0359764 -0.0359724,0.0359764l-0.287783 0c-0.0198701,0 -0.0359764,-0.0161102 -0.0359764,-0.0359764zm0.0359764 0.128028l0.287783 0c0.0198661,0 0.0359724,0.0161063 0.0359724,0.0359724l0 0.295835c0,0.0198661 -0.0161063,0.0359724 -0.0359724,0.0359724l-0.287783 0c-0.0198701,0 -0.0359764,-0.0161063 -0.0359764,-0.0359724l0 -0.295835c0,-0.0198661 0.0161063,-0.0359724 0.0359764,-0.0359724zm0 -0.919669l0.287783 0c0.0198661,0 0.0359724,0.0161063 0.0359724,0.0359724l0 0.295835c0,0.0198661 -0.0161063,0.0359724 -0.0359724,0.0359724l-0.287783 0c-0.0198701,0 -0.0359764,-0.0161063 -0.0359764,-0.0359724l0 -0.295835c0,-0.0198661 0.0161063,-0.0359724 0.0359764,-0.0359724zm0.532516 0.827618c-0.0198661,0 -0.0359724,-0.0161102 -0.0359724,-0.0359764l0 -0.295835c0,-0.0198661 0.0161063,-0.0359724 0.0359724,-0.0359724l0.287783 0c0.0198701,0 0.0359764,0.0161063 0.0359764,0.0359724l0 0.295835c0,0.0198661 -0.0161063,0.0359764 -0.0359764,0.0359764l-0.287783 0zm0 0.0920512l0.287783 0c0.0198701,0 0.0359764,0.0161063 0.0359764,0.0359724l0 0.295835c0,0.0198661 -0.0161063,0.0359724 -0.0359764,0.0359724l-0.287783 0c-0.0198661,0 -0.0359724,-0.0161063 -0.0359724,-0.0359724l0 -0.295835c0,-0.0198661 0.0161063,-0.0359724 0.0359724,-0.0359724zm0 -0.919669l0.287783 0c0.0198701,0 0.0359764,0.0161063 0.0359764,0.0359724l0 0.295835c0,0.0198661 -0.0161063,0.0359724 -0.0359764,0.0359724l-0.287783 0c-0.0198661,0 -0.0359724,-0.0161063 -0.0359724,-0.0359724l0 -0.295835c0,-0.0198661 0.0161063,-0.0359724 0.0359724,-0.0359724zm0.672472 -0.262665l0 -0.437795c0,-0.0784567 -0.0320433,-0.149732 -0.0836614,-0.201354 -0.051622,-0.0516181 -0.122898,-0.0836614 -0.201354,-0.0836614l-0.133012 0 0 0.260469c0,0.0839252 -0.0680866,0.152008 -0.152012,0.152008 -0.0839252,0 -0.152012,-0.0680827 -0.152012,-0.152008l0 -0.260469 -0.354681 0 0 0.260469c0,0.0839252 -0.0680866,0.152008 -0.152012,0.152008 -0.0839252,0 -0.152012,-0.0680827 -0.152012,-0.152008l0 -0.260469 -0.354685 0 0 0.260469c0,0.0839252 -0.0680827,0.152008 -0.152008,0.152008 -0.0839252,0 -0.152012,-0.0680827 -0.152012,-0.152008l0 -0.260469 -0.354685 0 0 0.260469c0,0.0839252 -0.0680827,0.152008 -0.152008,0.152008 -0.0839291,0 -0.152012,-0.0680827 -0.152012,-0.152008l0 -0.260469 -0.133012 0c-0.0784528,0 -0.149732,0.0320433 -0.20135,0.0836614 -0.051622,0.051622 -0.0836654,0.122898 -0.0836654,0.201354l0 0.437795 3.11619 0z"/>
   <path id="_449993656" class="fil2" d="M2.80985 1.73667c0,-0.0419724 -0.0340315,-0.0760039 -0.0760039,-0.0760039 -0.0419764,0 -0.0760079,0.0340315 -0.0760079,0.0760039l0 0.380028c0,0.0419724 0.0340315,0.0760039 0.0760079,0.0760039 0.0419724,0 0.0760039,-0.0340315 0.0760039,-0.0760039l0 -0.380028zm1.97612 0c0,-0.0419724 -0.0340315,-0.0760039 -0.0760079,-0.0760039 -0.0419764,0 -0.0760079,0.0340315 -0.0760079,0.0760039l0 0.380028c0,0.0419724 0.0340315,0.0760039 0.0760079,0.0760039 0.0419764,0 0.0760079,-0.0340315 0.0760079,-0.0760039l0 -0.380028zm-0.658705 0c0,-0.0419724 -0.0340315,-0.0760039 -0.0760079,-0.0760039 -0.0419764,0 -0.0760079,0.0340315 -0.0760079,0.0760039l0 0.380028c0,0.0419724 0.0340315,0.0760039 0.0760079,0.0760039 0.0419764,0 0.0760079,-0.0340315 0.0760079,-0.0760039l0 -0.380028zm-0.658709 0c0,-0.0419724 -0.0340276,-0.0760039 -0.0760039,-0.0760039 -0.0419764,0 -0.0760079,0.0340315 -0.0760079,0.0760039l0 0.380028c0,0.0419724 0.0340315,0.0760039 0.0760079,0.0760039 0.0419764,0 0.0760039,-0.0340315 0.0760039,-0.0760039l0 -0.380028z"/>
  </g>
 </g>
</svg>
