<?xml version="1.0" encoding="UTF-8"?>
<!DOCTYPE svg PUBLIC "-//W3C//DTD SVG 1.1//EN" "http://www.w3.org/Graphics/SVG/1.1/DTD/svg11.dtd">
<!-- Creator: CorelDRAW -->
<svg xmlns="http://www.w3.org/2000/svg" xml:space="preserve" width="6.82666in" height="6.82666in" style="shape-rendering:geometricPrecision; text-rendering:geometricPrecision; image-rendering:optimizeQuality; fill-rule:evenodd; clip-rule:evenodd"
viewBox="0 0 6.82666 6.82666"
 xmlns:xlink="http://www.w3.org/1999/xlink">
 <defs>
  <style type="text/css">
   <![CDATA[
    .fil0 {fill:#FF5722}
    .fil1 {fill:#FFFFFE}
    .fil2 {fill:#FFFFFE;fill-rule:nonzero}
   ]]>
  </style>
 </defs>
 <g id="Layer_x0020_1">
  <metadata id="CorelCorpID_0Corel-Layer"/>
  <circle class="fil0" cx="3.41333" cy="3.41333" r="3.41333"/>
  <g id="_449994472">
   <path id="_449995480" class="fil1" d="M1.65994 1.54667l1.82438 0 0 0.781173c0,0.0858819 0.0696772,0.155555 0.155555,0.155555l0.781173 0 0 1.14094 -1.22287 0.807598c-0.0618346,0.0518346 -0.268421,0.334575 -0.320094,0.408858 -0.0249488,0.0358661 -0.0354528,0.0795866 -0.026626,0.122681 0.0172008,0.0840157 0.0995787,0.138394 0.183594,0.121197 0.134618,-0.0275591 0.26924,-0.0554055 0.404102,-0.0830236 0.0177756,-0.0036378 0.0338031,-0.00816535 0.0498819,-0.0169724l0.932012 -0.615283 0 0.832827c0,0.0429528 -0.0348268,0.0777795 -0.0777795,0.0777795l-2.68333 0c-0.0429567,0 -0.0777835,-0.0348268 -0.0777835,-0.0777795l0 -3.57778c0,-0.0429567 0.0348268,-0.0777795 0.0777835,-0.0777795zm1.97994 0.858953c-0.0429567,0 -0.0777795,-0.0348268 -0.0777795,-0.0777795l0 -0.702756c0,-0.0433228 0.0342835,-0.0784134 0.0777795,-0.0784134 0.0217205,0 0.0413583,0.00890551 0.0554724,0.0232638l0.702909 0.702913 3.93701e-006 -7.87402e-006c0.030374,0.030374 0.030374,0.079622 0,0.109996 -0.015185,0.015185 -0.0350906,0.0227835 -0.0549961,0.0227795l-0.70339 3.93701e-006zm-1.64831 1.64937l0.973681 0 0 0.116665 -0.973681 0 0 -0.116665zm0 -1.70782l0.465594 0 0 0.116665 -0.465594 0 0 -0.116665zm0 1.29301l2.02007 0 0 0.116665 -2.02007 0 0 -0.116665zm0 -0.414815l2.02007 0 0 0.116665 -2.02007 0 0 -0.116665zm0 -0.414815l2.02007 0 0 0.116665 -2.02007 0 0 -0.116665z"/>
   <path id="_449995432" class="fil2" d="M3.25919 4.48485l1.36945 -0.904402 0.27298 0.378563 -1.36944 0.904402 -0.272988 -0.378563zm1.44989 -0.957524l0.243354 -0.160717 0.0428386 0.0647165 -0.0428622 -0.0649016c0.0358465,-0.0236732 0.0840945,-0.0138071 0.107764,0.0220394 0.000940945,0.00142126 0.0018189,0.0028622 0.00264961,0.0043189l0.168614 0.255307 -0.0647165 0.0428425 0.0649016 -0.0428622c0.0236732,0.0358425 0.0138071,0.0840906 -0.0220394,0.107764 -0.00141732,0.000937008 -0.0028622,0.00181496 -0.0043189,0.00264961l-0.223201 0.147406 -0.272984 -0.378563zm-1.25739 1.38913c-0.00892913,0.0048937 -0.0184843,0.00785433 -0.028122,0.00899606l-0.404154 0.0827638 5.51181e-005 0.000251969c-0.0420827,0.00861811 -0.083189,-0.0185118 -0.0918031,-0.0605945 -0.0046811,-0.0228661 0.00119685,-0.045437 0.0142835,-0.0626693l0.237181 -0.340965 0.00832677 0.0057874 0.264232 0.366429zm-0.264268 -0.366472l-0.00833465 -0.00579921c0.000677165,-0.000976378 0.00137402,-0.00192913 0.00208661,-0.00286614l0.00624803 0.00866535z"/>
  </g>
 </g>
</svg>
