<?xml version="1.0" encoding="UTF-8"?>
<!DOCTYPE svg PUBLIC "-//W3C//DTD SVG 1.1//EN" "http://www.w3.org/Graphics/SVG/1.1/DTD/svg11.dtd">
<!-- Creator: CorelDRAW -->
<svg xmlns="http://www.w3.org/2000/svg" xml:space="preserve" width="6.82666in" height="6.82666in" style="shape-rendering:geometricPrecision; text-rendering:geometricPrecision; image-rendering:optimizeQuality; fill-rule:evenodd; clip-rule:evenodd"
viewBox="0 0 6.82666 6.82666"
 xmlns:xlink="http://www.w3.org/1999/xlink">
 <defs>
  <style type="text/css">
   <![CDATA[
    .fil0 {fill:#607D8B}
    .fil2 {fill:#FFFFFE}
    .fil1 {fill:#FFFFFE;fill-rule:nonzero}
   ]]>
  </style>
 </defs>
 <g id="Layer_x0020_1">
  <metadata id="CorelCorpID_0Corel-Layer"/>
  <circle class="fil0" cx="3.41333" cy="3.41333" r="3.41333"/>
  <g id="_449995864">
   <path id="_449996200" class="fil1" d="M2.20021 1.62457c0,-0.0430276 -0.0348819,-0.0779094 -0.0779094,-0.0779094 -0.0430276,0 -0.0779134,0.0348819 -0.0779134,0.0779094l0 0.441035c0,0.0430276 0.0348858,0.0779134 0.0779134,0.0779134 0.0430276,0 0.0779094,-0.0348858 0.0779094,-0.0779134l0 -0.441035zm1.85639 0c0,-0.0430276 -0.0348819,-0.0779094 -0.0779094,-0.0779094 -0.0430276,0 -0.0779134,0.0348819 -0.0779134,0.0779094l0 0.441035c0,0.0430276 0.0348858,0.0779134 0.0779134,0.0779134 0.0430276,0 0.0779094,-0.0348858 0.0779094,-0.0779134l0 -0.441035zm-0.618795 0c0,-0.0430276 -0.0348858,-0.0779094 -0.0779134,-0.0779094 -0.0430276,0 -0.0779094,0.0348819 -0.0779094,0.0779094l0 0.441035c0,0.0430276 0.0348819,0.0779134 0.0779094,0.0779134 0.0430276,0 0.0779134,-0.0348858 0.0779134,-0.0779134l0 -0.441035zm-0.618799 0c0,-0.0430276 -0.0348819,-0.0779094 -0.0779094,-0.0779094 -0.0430276,0 -0.0779134,0.0348819 -0.0779134,0.0779094l0 0.441035c0,0.0430276 0.0348858,0.0779134 0.0779134,0.0779134 0.0430276,0 0.0779094,-0.0348858 0.0779094,-0.0779134l0 -0.441035z"/>
   <path id="_449996008" class="fil2" d="M1.65697 1.84214l0.309508 0 0 0.223472c0,0.0860315 0.0697913,0.155819 0.155823,0.155819 0.0860276,0 0.155819,-0.0697874 0.155819,-0.155819l0 -0.223472 0.307157 0 0 0.223472c0,0.0860315 0.0697874,0.155819 0.155819,0.155819 0.0860276,0 0.155819,-0.0697874 0.155819,-0.155819l0 -0.223472 0.104 0 0.203157 0 0 0.223472c0,0.0860315 0.0697913,0.155819 0.155819,0.155819 0.0860315,0 0.155819,-0.0697874 0.155819,-0.155819l0 -0.223472 0.307157 0 0 0.223472c0,0.0860315 0.0697913,0.155819 0.155823,0.155819 0.0860276,0 0.155819,-0.0697874 0.155819,-0.155819l0 -0.223472 0.21035 0c0.0430276,0 0.0779094,0.0348819 0.0779094,0.0779094l0 0.84426 -1.1811e-005 0 0 0.857224 -1.22494 0.808969c-0.0619409,0.0519213 -0.268874,0.335142 -0.320634,0.409547 -0.0249961,0.0359291 -0.0355118,0.0797244 -0.0266732,0.122894 0.0172283,0.0841575 0.099748,0.138626 0.183906,0.121398 0.134846,-0.0276063 0.269697,-0.0554961 0.404787,-0.0831614 0.0178071,-0.00364567 0.0338583,-0.00817717 0.0499685,-0.0170039l0.933587 -0.616323 0 0.834236c0,0.0430276 -0.0348819,0.0779094 -0.0779094,0.0779094l-2.68788 0c-0.0430276,0 -0.0779094,-0.0348819 -0.0779094,-0.0779094l0 -3.28204c0,-0.0430276 0.0348819,-0.0779094 0.0779094,-0.0779094zm0.332189 2.21078l0.975335 0 0 0.116862 -0.975335 0 0 -0.116862zm0 -1.71072l0.466386 0 0 0.116866 -0.466386 0 0 -0.116866zm0 1.2952l2.0235 0 0 0.116866 -2.0235 0 0 -0.116866zm0 -0.415516l2.0235 0 0 0.116862 -2.0235 0 0 -0.116862zm0 -0.41552l2.0235 0 0 0.116866 -2.0235 0 0 -0.116866z"/>
   <path id="_449995888" class="fil1" d="M3.25893 4.48351l1.37177 -0.905933 0.273445 0.379205 -1.37176 0.905933 -0.273449 -0.379205zm1.45234 -0.959146l0.243768 -0.160988 0.0429134 0.0648228 -0.042937 -0.0650118c0.0359055,-0.0237126 0.0842362,-0.0138268 0.107949,0.0220787 0.000940945,0.00142126 0.0018189,0.00286614 0.00265354,0.00432677l0.168898 0.25574 -0.0648228 0.0429134 0.0650118 -0.042937c0.0237126,0.0359055 0.0138268,0.0842362 -0.0220787,0.107949 -0.00142126,0.000940945 -0.00286614,0.0018189 -0.00432677,0.00265354l-0.223579 0.147657 -0.273449 -0.379205zm-1.25952 1.39148c-0.00894882,0.00490157 -0.0185157,0.00787008 -0.0281693,0.00901181l-0.404839 0.0829016 5.11811e-005 0.000255906c-0.0421535,0.00862992 -0.0833268,-0.0185433 -0.0919567,-0.0606969 -0.00468898,-0.0229055 0.00119685,-0.0455157 0.0143071,-0.0627756l0.237583 -0.341543 0.00834252 0.00579921 0.264681 0.367047zm-0.264717 -0.367094l-0.00835039 -0.00580709c0.000677165,-0.000980315 0.00137795,-0.00193307 0.00209449,-0.00287008l0.00625591 0.00867717z"/>
  </g>
 </g>
</svg>
