<?xml version="1.0" encoding="UTF-8"?>
<!DOCTYPE svg PUBLIC "-//W3C//DTD SVG 1.1//EN" "http://www.w3.org/Graphics/SVG/1.1/DTD/svg11.dtd">
<!-- Creator: CorelDRAW -->
<svg xmlns="http://www.w3.org/2000/svg" xml:space="preserve" width="6.82666in" height="6.82666in" style="shape-rendering:geometricPrecision; text-rendering:geometricPrecision; image-rendering:optimizeQuality; fill-rule:evenodd; clip-rule:evenodd"
viewBox="0 0 6.82666 6.82666"
 xmlns:xlink="http://www.w3.org/1999/xlink">
 <defs>
  <style type="text/css">
   <![CDATA[
    .fil0 {fill:#795548}
    .fil1 {fill:#FFFFFE}
   ]]>
  </style>
 </defs>
 <g id="Layer_x0020_1">
  <metadata id="CorelCorpID_0Corel-Layer"/>
  <circle class="fil0" cx="3.41333" cy="3.41333" r="3.41333"/>
  <path class="fil1" d="M4.2413 4.95495c0.197472,-0.245571 0.310563,-0.55126 0.323358,-0.866622l0.0318268 -0.784189c0.00521654,-0.128531 -0.0970079,-0.237 -0.225165,-0.24161 -0.0407087,-0.0014685 -0.0816299,0.0081063 -0.11761,0.0271575l-0.108795 0.0575984 -0.00919685 -0.122756c-0.0039685,-0.0529331 -0.0257874,-0.102902 -0.0619803,-0.141776 -0.0425827,-0.0457362 -0.100177,-0.0721102 -0.162646,-0.0743189 -0.0329567,-0.00116535 -0.066,0.00464961 -0.0965433,0.0170787l-0.127563 0.0519213 0.135248 -1.06773c0.00777953,-0.0614016 -0.00920472,-0.123622 -0.0471181,-0.172547 -0.0382913,-0.0494134 -0.0933307,-0.0807913 -0.155343,-0.0886417 -0.12735,-0.0161181 -0.245059,0.0750709 -0.261193,0.202433l-0.224807 1.43556 -0.23839 -1.1377c-0.00925984,-0.061815 -0.0418937,-0.116138 -0.0921575,-0.153299 -0.050248,-0.0371496 -0.111764,-0.0524449 -0.173559,-0.0431811 -0.0618307,0.00926772 -0.116134,0.0418858 -0.153307,0.0921614 -0.0371575,0.050248 -0.0524291,0.111768 -0.0431732,0.173567l0.190598 1.27256 -0.101539 0.0102717c-0.074189,0.00750394 -0.196354,0.0593189 -0.241169,0.120988 -0.0444567,0.0611772 -0.061185,0.140701 -0.0450906,0.214598l0.131827 0.605386c0.0610236,0.280244 0.290732,0.4955 0.537799,0.622378 0.0622441,0.0319606 0.117638,0.0753858 0.148547,0.139638 0.0212992,0.0442756 0.0254291,0.128453 0.0288425,0.17613l0.997835 0c0.0122402,-0.0812598 0.022126,-0.123102 0.0405354,-0.16039 0.0297441,-0.0602717 0.0780039,-0.112508 0.119929,-0.164661z"/>
 </g>
</svg>
