<?xml version="1.0" encoding="UTF-8"?>
<!DOCTYPE svg PUBLIC "-//W3C//DTD SVG 1.1//EN" "http://www.w3.org/Graphics/SVG/1.1/DTD/svg11.dtd">
<!-- Creator: CorelDRAW -->
<svg xmlns="http://www.w3.org/2000/svg" xml:space="preserve" width="6.82666in" height="6.82666in" style="shape-rendering:geometricPrecision; text-rendering:geometricPrecision; image-rendering:optimizeQuality; fill-rule:evenodd; clip-rule:evenodd"
viewBox="0 0 6.82666 6.82666"
 xmlns:xlink="http://www.w3.org/1999/xlink">
 <defs>
  <style type="text/css">
   <![CDATA[
    .fil0 {fill:#009688}
    .fil1 {fill:#FFFFFE;fill-rule:nonzero}
   ]]>
  </style>
 </defs>
 <g id="Layer_x0020_1">
  <metadata id="CorelCorpID_0Corel-Layer"/>
  <circle class="fil0" cx="3.41333" cy="3.41333" r="3.41333"/>
  <g id="_449997904">
   <path id="_449998192" class="fil1" d="M1.74863 3.27319l1.44263 0c0.0960315,0.180374 0.425551,0.395382 0.611224,0.47561 0.0167126,0.00722047 0.0345236,0.0115512 0.052685,0.0127835l0.11102 0.00754331c0.101732,0.0703425 0.26139,0.119787 0.311394,-0.038622 0.00612205,-0.0194016 0.00800394,-0.0395079 0.00611417,-0.0592874 0.0668937,0.108087 0.212516,0.00619685 0.272846,-0.0567323l0 0.371685 -1.49208 0.194618 -1.49209 -0.194618 0 -0.536732c0,-0.0485472 0.0197992,-0.0926299 0.0517087,-0.124535 0.0319055,-0.0319094 0.0759882,-0.0517126 0.124539,-0.0517126zm2.80792 0.803811l0 1.02674c0,0.0485512 -0.0198031,0.0926339 -0.0517087,0.124539 -0.0319055,0.0319094 -0.0759882,0.0517087 -0.124539,0.0517087l-2.63167 0c-0.0485512,0 -0.0926339,-0.0197992 -0.124539,-0.0517087 -0.0319094,-0.0319055 -0.0517087,-0.0759882 -0.0517087,-0.124539l0 -1.02678 1.49394 0.194197 1.49022 -0.194161z"/>
   <path id="_449998264" class="fil1" d="M2.46239 3.35163c0,0.044374 0.0359724,0.0803465 0.0803465,0.0803465 0.0443701,0 0.0803425,-0.0359724 0.0803425,-0.0803465l0 -0.23785c0,-0.0126339 0.00522835,-0.024185 0.0136496,-0.0326024 0.00841732,-0.00841732 0.0199685,-0.0136457 0.0326024,-0.0136457l0.393874 0c-0.0253858,-0.0519291 -0.0468228,-0.105622 -0.0640236,-0.160689l-0.32985 0c-0.0569882,0 -0.10874,0.0232598 -0.146213,0.0607244 -0.0374646,0.0374685 -0.0607283,0.0892244 -0.0607283,0.146213l0 0.23785z"/>
   <path id="_449998552" class="fil1" d="M2.13203 3.26382c0,-0.0443701 -0.0359724,-0.0803425 -0.0803425,-0.0803425 -0.0443701,0 -0.0803425,0.0359724 -0.0803425,0.0803425l0 0.0613819c0,0.0443701 0.0359724,0.0803425 0.0803425,0.0803425 0.0443701,0 0.0803425,-0.0359724 0.0803425,-0.0803425l0 -0.0613819z"/>
   <path id="_449997376" class="fil1" d="M3.5323 2.76824c0.0319803,-0.392953 0.396516,-0.835449 0.588567,-1.04342 0.0434606,-0.047063 0.162213,-0.184579 0.234571,-0.177925 0.0092126,0.000846457 0.0196181,0.0076063 0.0152126,0.0149843 -0.0482992,0.0809724 -0.0913071,0.250602 0.134189,0.674803 0.0530197,0.107319 0.118858,0.240587 0.197059,0.423059 0.063437,0.14802 0.0748346,0.287165 0.0542756,0.414004 -0.0254528,0.157028 -0.0997008,0.293055 -0.184287,0.402827 -0.0223543,0.0290079 -0.0429016,0.0547992 -0.061622,0.0771496 -0.0184055,0.0219685 -0.0365,0.0424606 -0.0544803,0.0615394 -0.00493701,0.00606299 -0.0109488,0.0114173 -0.0179685,0.0157598 -0.033878,0.0209646 -0.0783386,0.0105 -0.0993031,-0.023374l0.0613386 -0.0379646 -0.0611457 0.0377598c-0.0839094,-0.135583 -0.136965,-0.300854 -0.169902,-0.440953 -0.0525787,0.170339 -0.0645157,0.275776 0.026248,0.482768 0.00942913,0.0167756 0.0121654,0.0372638 0.00591339,0.057063 -0.0119921,0.0379921 -0.0525118,0.0590669 -0.0905039,0.0470748l1.1811e-005 -3.93701e-005c-0.0475394,-0.0150039 -0.0957008,-0.0443346 -0.147524,-0.0879331 -0.0482047,-0.0405551 -0.0988622,-0.0925 -0.155016,-0.156232 -0.0963268,-0.109319 -0.168185,-0.232965 -0.214701,-0.357008 -0.0498583,-0.132961 -0.0704882,-0.266543 -0.0609331,-0.383941z"/>
   <path id="_449997640" class="fil1" d="M3.66616 2.18746c-0.0549016,-0.135465 -0.14148,-0.349315 -0.10739,-0.456811 -0.0261457,-0.00245276 -0.0725079,0.0306614 -0.0889252,0.0486929 -0.206016,0.198874 -0.458756,0.567705 -0.45072,0.864906 0.00541732,0.200024 0.0869803,0.402311 0.224917,0.580705 0.14298,0.184921 0.347409,0.345059 0.590307,0.450094 0.00857874,0.00370472 0.0174488,0.00577953 0.0262677,0.00637795 -0.0396339,-0.0377874 -0.077063,-0.0783898 -0.112953,-0.119118 -0.18874,-0.214193 -0.318909,-0.512094 -0.295433,-0.800583 0.0152008,-0.186744 0.0968465,-0.373402 0.189957,-0.533894 0.00784252,-0.0135197 0.0158386,-0.0269764 0.0239724,-0.0403701z"/>
   <path id="_449997184" class="fil1" d="M4.71727 2.49574l0.000933071 0.00205512 0.000929134 0.00205512 7.08661e-005 0.000149606 0.000862205 0.00190551 0.000929134 0.00205512 0.000933071 0.00205512 0.000311024 0.000681102 0.00061811 0.00137795 0.000933071 0.00205512 0.000929134 0.00205906 0.000547244 0.0012126 0.000377953 0.00084252 0.000929134 0.00205906 0.000925197 0.00205906 0.000787402 0.00174803 0.000141732 0.000307087 0.000925197 0.00205906 0.000925197 0.00206299 0.000925197 0.00205512 0.000102362 0.000228346 0.000822835 0.00183465 0.00092126 0.00205906 0.00092126 0.00206299 0.00034252 0.000759843 0.00150394 0.00336614 0.00092126 0.00205906 0.00057874 0.00129528 0.00034252 0.000767717 0.00092126 0.00206299 0.000917323 0.00206299 0.000814961 0.00183465 0.000102362 0.000232283 0.00092126 0.00206299 0.000913386 0.00206299 0.00092126 0.00206693 0.000133858 0.00030315 0.000783465 0.00176378 0.000913386 0.00206693 0.000913386 0.00206693 0.000370079 0.000838583 0.000543307 0.00122441 0.000913386 0.00207087 0.000913386 0.00206693 0.000610236 0.00137795 0.00030315 0.000692913 0.000909449 0.00207087 0.000913386 0.00206693 0.00084252 0.00191732 7.08661e-005 0.000153543 0.000909449 0.00207087 0.000905512 0.00207087 0.000913386 0.00207087 0.000165354 0.00038189 0.000740157 0.00169291 0.000909449 0.00207087 0.000905512 0.0020748 0.000401575 0.000917323 0.000503937 0.00115354 0.000901575 0.0020748 0.000905512 0.0020748 0.000637795 0.00145669 0.000267717 0.00061811 0.000905512 0.0020748 0.000901575 0.0020748 0.000866142 0.002 3.54331e-005 7.87402e-005 0.000901575 0.00207874 0.000901575 0.00207874 0.000901575 0.0020748 0.00019685 0.00046063 0.000700787 0.00161811 0.000897638 0.00208268 0.000897638 0.00207874 0.000433071 0.001 0.000464567 0.00107874 0.000897638 0.00207874 0.000893701 0.00208268 0.000665354 0.00154331 0.000232283 0.00053937 0.000893701 0.00208268 0.000897638 0.00208268 0.000889764 0.00208661c0.0628268,0.146591 0.0853189,0.300709 0.0597402,0.458504 -0.000374016,0.00229921 -0.000755906,0.00459449 -0.00115354,0.00688583l-0.000114173 0.000700787 -0.000110236 0.000625984c-0.000366142,0.00213386 -0.000748031,0.00425984 -0.00112992,0.00638583l-0.000165354 0.000917323c-0.000401575,0.00220079 -0.000811024,0.00440551 -0.00122835,0.00660236l-0.000232283 0.00120472 -0.00127165 0.00651181 -0.000173228 0.000862205c-0.000456693,0.00227165 -0.000925197,0.00454331 -0.00140157,0.00680709l-0.000133858 0.000645669c-0.000472441,0.00224409 -0.000956693,0.00448819 -0.00144882,0.00672441l-7.08661e-005 0.000322835 -3.93701e-006 1.1811e-005c-0.00053937,0.00245669 -0.00108661,0.00490945 -0.00164961,0.00735827l-2.3622e-005 8.66142e-005 -6.69291e-005 0.000299213c-0.000507874,0.00221654 -0.0010315,0.0044252 -0.00155512,0.0066378l-0.000200787 0.000826772 -0.00161024 0.00659843 -0.000200787 0.000822835c-0.000559055,0.00224803 -0.00112992,0.00449213 -0.00170866,0.00673228l-0.000188976 0.00073622c-0.000562992,0.00217717 -0.0011378,0.00434646 -0.00171654,0.00651575l-0.000295276 0.00109843 -0.00164567 0.00606693 -0.000177165 0.000629921 -0.000129921 0.000464567 -0.00184252 0.0065315 -9.05512e-005 0.000307087 -7.87402e-006 2.3622e-005 -0.000110236 0.000393701 -0.00177559 0.00608661 -0.000240157 0.000822835 -0.000177165 0.000586614 -0.00173228 0.00574803 -0.000452756 0.00148425c-0.000629921,0.00205118 -0.00126772,0.00410236 -0.00191339,0.00614567l-0.000370079 0.0011811 -0.00199606 0.00622835 -0.000299213 0.00092126 -0.00212598 0.00643701 -0.000251969 0.000755906 -0.00215748 0.00636614 -0.00011811 0.000334646c-0.000744094,0.00216535 -0.0015,0.00432677 -0.00225984,0.00648819l-0.000240157 0.000681102 -9.44882e-005 0.00026378 -3.54331e-005 0.000114173c-0.000759843,0.00214567 -0.00153543,0.00429134 -0.00230709,0.00642913l-0.000200787 0.000547244c-0.000759843,0.00209449 -0.00152756,0.00417717 -0.00230315,0.00626378l-0.00042126 0.0011378 -0.00233858 0.00619291 -0.000362205 0.000944882c-0.00080315,0.0021063 -0.00161811,0.00420866 -0.00243701,0.00630709l-0.000311024 0.000787402c-0.000771654,0.00196457 -0.00153937,0.00392913 -0.00232677,0.00588583l-0.000251969 0.000629921 -0.000370079 0.000917323 -0.00240157 0.00591339 -6.29921e-005 0.000153543 -1.9685e-005 4.33071e-005 -0.00011811 0.000283465 -0.00245276 0.00591339 -0.000338583 0.000814961 -0.000224409 0.000531496 -0.00233071 0.00548425 -0.000704724 0.00164961 -0.00235827 0.00542913 -0.000629921 0.00144488 -0.00270079 0.00608268 -0.000311024 0.00069685 -0.00276772 0.00611024 -0.000448819 0.000976378 -0.0026378 0.0057126 -0.000106299 0.000220472 -0.00015748 0.000338583 -0.000480315 0.00102362 -0.00247638 0.00524016 -0.000283465 0.000602362 -0.000110236 0.000228346c-0.00176772,0.00370866 -0.00355906,0.00740945 -0.00537402,0.0110984l-1.1811e-005 7.87402e-006c-0.0327992,0.066626 -0.0730866,0.129764 -0.11872,0.188984 -0.0128898,0.0167283 -0.0259173,0.033378 -0.0391693,0.0498386 0.00911811,0.000397638 0.0184567,-0.00076378 0.0276614,-0.00366929 0.166307,-0.0524921 0.343535,-0.16598 0.466724,-0.315287 0.108098,-0.13102 0.175681,-0.289957 0.161717,-0.461547 -0.0150591,-0.185028 -0.38698,-0.83563 -0.58165,-0.817724 0.0024685,0.0234803 0.0268583,0.302157 -0.0427559,0.328571 0.0304567,0.0630472 0.0602559,0.126228 0.0892126,0.189945z"/>
  </g>
 </g>
</svg>
