<?xml version="1.0" encoding="UTF-8"?>
<!DOCTYPE svg PUBLIC "-//W3C//DTD SVG 1.1//EN" "http://www.w3.org/Graphics/SVG/1.1/DTD/svg11.dtd">
<!-- Creator: CorelDRAW -->
<svg xmlns="http://www.w3.org/2000/svg" xml:space="preserve" width="6.82666in" height="6.82666in" style="shape-rendering:geometricPrecision; text-rendering:geometricPrecision; image-rendering:optimizeQuality; fill-rule:evenodd; clip-rule:evenodd"
viewBox="0 0 6.82666 6.82666"
 xmlns:xlink="http://www.w3.org/1999/xlink">
 <defs>
  <style type="text/css">
   <![CDATA[
    .fil0 {fill:#3F51B5}
    .fil1 {fill:#FFFFFE;fill-rule:nonzero}
   ]]>
  </style>
 </defs>
 <g id="Layer_x0020_1">
  <metadata id="CorelCorpID_0Corel-Layer"/>
  <circle class="fil0" cx="3.41333" cy="3.41333" r="3.41333"/>
  <g id="_449998912">
   <path id="_449998720" class="fil1" d="M3.37641 3.45073c0.000110236,0.161886 0.00023622,0.353898 0.000358268,0.580543l-0.255953 0c-0.0880197,0 -0.167988,0.0359528 -0.225909,0.093878 -0.0579252,0.0579213 -0.093878,0.137886 -0.093878,0.225906l0 3.93701e-006c0,0.0880197 0.0359528,0.167984 0.093878,0.225909 0.0579213,0.0579252 0.13789,0.093878 0.225909,0.093878l0.256283 0c0.000102362,0.216421 0.000185039,0.424024 0.000216535,0.60915l-1.82941 0 0 -1.82868 0.608028 0 0 0.000145669c0.0206024,0 0.0373071,-0.0167047 0.0373071,-0.0373071 0,-0.00109449 -5.11811e-005,-0.00217717 -0.000145669,-0.00324803l3.93701e-006 -0.290276 0.000145669 0c0,-0.0382283 0.00761024,-0.074622 0.0213701,-0.107736 0.0143189,-0.0344646 0.0353976,-0.0656142 0.0615787,-0.0917953 0.0261772,-0.0261811 0.0573307,-0.0472559 0.0917913,-0.0615787 0.0331142,-0.0137598 0.0695118,-0.0213661 0.107736,-0.0213661l7.87402e-006 0c0.0382244,0 0.0746181,0.0076063 0.107736,0.0213661 0.0344646,0.0143228 0.0656102,0.0353976 0.0917874,0.0615787 0.0261811,0.0261811 0.0472598,0.0573307 0.0615787,0.0917953 0.0137598,0.0331142 0.0213701,0.0695079 0.0213701,0.107736l0 0.293142c0,0.0206024 0.0167047,0.0373071 0.037311,0.0373071 0.113843,0 0.282528,-0.000149606 0.580898,-0.000354331z"/>
   <path id="_449999296" class="fil1" d="M3.45077 3.3763c-7.48031e-005,-0.189756 -0.000125984,-0.371272 -0.000133858,-0.539819l0.255831 0c0.0480906,0 0.0941496,-0.00968504 0.136303,-0.0272008 0.0437756,-0.0181929 0.0831299,-0.044752 0.115984,-0.0776102 0.0328543,-0.0328543 0.0594173,-0.0722047 0.0776063,-0.11598 0.0175157,-0.0421535 0.0272008,-0.0882126 0.0272008,-0.136303l0 -3.93701e-006c0,-0.0480906 -0.00968504,-0.0941496 -0.0272008,-0.136303 -0.018189,-0.0437756 -0.044752,-0.0831299 -0.0776063,-0.115984 -0.0328543,-0.0328543 -0.0722087,-0.0594173 -0.115984,-0.0776063 -0.0421535,-0.0175157 -0.0882126,-0.0272047 -0.136303,-0.0272047l0 0.000149606 -0.256358 -3.93701e-006 0 -0.575764 1.82865 0 0 1.82869 -0.0969646 5.51181e-005 -0.4945 0.000251969 -0.0214567 1.1811e-005 -3.93701e-006 0.329563c0,0.0880157 -0.0359567,0.167984 -0.093878,0.225909 -0.0579252,0.0579213 -0.13789,0.093878 -0.225909,0.093878l-3.93701e-006 0c-0.0880197,0 -0.167984,-0.0359567 -0.225906,-0.093878 -0.0579252,-0.0579252 -0.093878,-0.137894 -0.093878,-0.225909l0 -0.329224 -0.0210157 1.1811e-005 -0.0319213 1.5748e-005c-0.178146,9.44882e-005 -0.352709,0.000185039 -0.522551,0.000259843z"/>
   <path id="_449999416" class="fil1" d="M1.5479 3.37699l0 -1.83033 1.82788 0 0 0.612925 -0.000145669 0c0,0.0206063 0.0167047,0.0373071 0.0373071,0.0373071 0.00109449,0 0.00217717,-4.72441e-005 0.00324803,-0.000141732l0.290276 3.93701e-006 0 0.000145669c0.0382283,0 0.074622,0.0076063 0.107736,0.0213661 0.0344606,0.0143228 0.0656142,0.0353976 0.0917953,0.0615787 0.0261772,0.0261811 0.0472559,0.0573307 0.0615787,0.0917953 0.0137559,0.0331142 0.0213661,0.0695079 0.0213661,0.107736l0 3.93701e-006c0,0.0382283 -0.00761024,0.074622 -0.0213661,0.107736 -0.0143228,0.0344646 -0.0354016,0.0656102 -0.0615787,0.0917913 -0.0261811,0.0261811 -0.0573346,0.0472559 -0.0917953,0.0615787 -0.0331142,0.0137598 -0.0695079,0.0213701 -0.107736,0.0213701l-0.293142 0c-0.0206024,0 -0.0373071,0.0167047 -0.0373071,0.0373071 0,0.108843 0.000137795,0.291374 0.000334646,0.577161 -0.187787,7.87402e-005 -0.369496,0.000133858 -0.543539,0.000137795l0 -0.255831c0,-0.0480906 -0.00968504,-0.0941496 -0.0272008,-0.136303 -0.0181929,-0.0437756 -0.044752,-0.0831299 -0.0776063,-0.115984 -0.0328583,-0.0328543 -0.0722087,-0.0594173 -0.115984,-0.0776063 -0.0421535,-0.0175157 -0.0882126,-0.0272047 -0.136299,-0.0272047l-7.87402e-006 0c-0.0480866,0 -0.0941457,0.00968898 -0.136303,0.0272047 -0.0437756,0.018189 -0.083126,0.044752 -0.115984,0.0776063 -0.0328543,0.0328543 -0.0594173,0.0722087 -0.0776063,0.115984 -0.0175157,0.0421535 -0.0272008,0.0882126 -0.0272008,0.136303l0.000145669 0 -3.93701e-006 0.256358 -0.570862 0z"/>
  </g>
 </g>
</svg>
