<?xml version="1.0" encoding="UTF-8"?>
<!DOCTYPE svg PUBLIC "-//W3C//DTD SVG 1.1//EN" "http://www.w3.org/Graphics/SVG/1.1/DTD/svg11.dtd">
<!-- Creator: CorelDRAW -->
<svg xmlns="http://www.w3.org/2000/svg" xml:space="preserve" width="6.82666in" height="6.82666in" style="shape-rendering:geometricPrecision; text-rendering:geometricPrecision; image-rendering:optimizeQuality; fill-rule:evenodd; clip-rule:evenodd"
viewBox="0 0 6.82666 6.82666"
 xmlns:xlink="http://www.w3.org/1999/xlink">
 <defs>
  <style type="text/css">
   <![CDATA[
    .fil0 {fill:#EC407A}
    .fil1 {fill:#FFFFFE}
    .fil2 {fill:#FFFFFE;fill-rule:nonzero}
   ]]>
  </style>
 </defs>
 <g id="Layer_x0020_1">
  <metadata id="CorelCorpID_0Corel-Layer"/>
  <circle class="fil0" cx="3.41333" cy="3.41333" r="3.41333"/>
  <g id="_449999512">
   <path id="_450000064" class="fil1" d="M3.7093 1.62376l1.31562 0c0.11,0 0.255083,0.152118 0.255083,0.265791l0 0.564874c0,0.105047 -0.140772,0.265791 -0.239945,0.265791l-0.757681 0 -0.598224 0.329646 0.0924488 -0.335248c-0.064748,-0.00979134 -0.123378,-0.0319291 -0.170016,-0.0625748 -0.0735551,-0.0483307 -0.119063,-0.118028 -0.119063,-0.197614l0 -0.564874c0,-0.0936142 0.141524,-0.265791 0.22178,-0.265791zm0.241319 0.30111l0.0916929 0 0 0.288232c0,0.0376339 -0.00338976,0.0666772 -0.00996457,0.0869252 -0.00890551,0.0265 -0.0250157,0.0478071 -0.0484409,0.063815 -0.0234291,0.0161142 -0.0542756,0.0240669 -0.0925472,0.0240669 -0.0449449,0 -0.0795039,-0.0125079 -0.103776,-0.0377402 -0.0241732,-0.025126 -0.0364685,-0.0620157 -0.0365748,-0.110669l0.0866063 -0.00996457c0.00106299,0.0260748 0.00487795,0.0445197 0.0114488,0.0553346 0.00996457,0.0163268 0.025126,0.0244843 0.045374,0.0244843 0.0204567,0 0.0349803,-0.00582677 0.0434606,-0.0175906 0.00848031,-0.0116614 0.0127205,-0.0359409 0.0127205,-0.0728307l0 -0.294063zm0.170882 0.230461c0,-0.0464331 0.00688976,-0.0853386 0.0207795,-0.116823 0.0103858,-0.0231063 0.0244843,-0.0439921 0.0424016,-0.0624331 0.0179134,-0.0183425 0.0375236,-0.0320157 0.0588307,-0.0409173 0.0284134,-0.0120866 0.0610591,-0.0180236 0.0981614,-0.0180236 0.0671024,0 0.120744,0.0207756 0.161028,0.062437 0.0402795,0.0415551 0.0604213,0.0994331 0.0604213,0.173535 0,0.073563 -0.0200354,0.13102 -0.06,0.172575 -0.0399646,0.0414488 -0.0933937,0.0622283 -0.160177,0.0622283 -0.0677362,0 -0.121587,-0.0206732 -0.161555,-0.0619055 -0.0399606,-0.0413465 -0.0598898,-0.0982717 -0.0598898,-0.170673zm0.0946614 -0.0030748c0,0.0515197 0.0119803,0.0906339 0.0357244,0.117244 0.0238543,0.0266063 0.0540669,0.0398543 0.0907402,0.0398543 0.0365748,0 0.0666811,-0.0131417 0.0902126,-0.0396457 0.0234291,-0.0263937 0.0351969,-0.0659331 0.0351969,-0.118728 0,-0.0521535 -0.0114528,-0.0910591 -0.0342441,-0.116819 -0.0228937,-0.0256535 -0.0533189,-0.0384764 -0.0911654,-0.0384764 -0.0379449,0 -0.0684764,0.0130394 -0.0916929,0.0390079 -0.0231102,0.0259724 -0.0347717,0.0650906 -0.0347717,0.117563zm0.418937 -0.227386l0.182016 0c0.0360433,0 0.0629685,0.00148425 0.0806693,0.00455906 0.0177047,0.0029685 0.0334961,0.00922441 0.0474921,0.0187638 0.0139921,0.00953937 0.0255472,0.0221535 0.034878,0.0380591 0.00932677,0.0157913 0.0139921,0.0336024 0.0139921,0.0532126 0,0.0213071 -0.00572835,0.0409213 -0.0171732,0.0587283 -0.0115551,0.0178071 -0.0271378,0.0311654 -0.046748,0.0400709 0.0276654,0.00805512 0.0490787,0.0218386 0.0639213,0.0412402 0.0149449,0.0195039 0.0223661,0.0423976 0.0223661,0.068685 0,0.0206732 -0.00476772,0.040815 -0.0144173,0.0604213 -0.00964567,0.0195118 -0.0227913,0.0352008 -0.039437,0.0468583 -0.0166417,0.0116614 -0.0372047,0.0188701 -0.0616969,0.021626 -0.0152598,0.00159055 -0.0522598,0.00264961 -0.110878,0.0030748l-0.154984 0 0 -0.455299zm0.0920118 0.0757953l0 0.105264 0.0602165 0c0.0358307,0 0.0580906,-0.000527559 0.0667795,-0.00159055 0.015689,-0.00179921 0.0280945,-0.00720866 0.0371063,-0.0162165 0.00900787,-0.00901181 0.0134606,-0.0208819 0.0134606,-0.0356181 0,-0.0140984 -0.00381496,-0.0255472 -0.0115512,-0.0343465 -0.00784646,-0.00879921 -0.0194016,-0.0140984 -0.0346693,-0.0158976 -0.00911417,-0.00106299 -0.0352953,-0.00159449 -0.0785472,-0.00159449l-0.0527953 0zm0 0.181059l0 0.121697 0.0850197 0c0.0331811,0 0.0541732,-0.000850394 0.0630748,-0.00275591 0.0136772,-0.00243701 0.0248071,-0.00858661 0.0333898,-0.018126 0.00859055,-0.00964961 0.012937,-0.0225827 0.012937,-0.0386969 0,-0.0136693 -0.0033937,-0.0252283 -0.0099685,-0.0347638 -0.0066811,-0.00954331 -0.0162165,-0.0165433 -0.0287244,-0.0208858 -0.0125118,-0.00434646 -0.0397559,-0.0064685 -0.0815197,-0.0064685l-0.0742087 0z"/>
   <path id="_450000232" class="fil2" d="M2.08589 3.90074c-0.142465,0.0804291 -0.265157,0.199783 -0.357346,0.345685 -0.114248,0.180795 -0.181874,0.402539 -0.181874,0.640803l0 0.0179409c0,0.0781811 0.0285472,0.150386 0.0745354,0.203728 0.05,0.058 0.120327,0.0940079 0.198886,0.0940079l1.93913 0c0.0785748,0 0.148898,-0.0360079 0.198902,-0.0940079 0.0459882,-0.0533425 0.0745354,-0.125547 0.0745354,-0.203728l0 -0.0179409c0,-0.236606 -0.0665236,-0.456736 -0.179035,-0.636559 -0.0915827,-0.146354 -0.21372,-0.266295 -0.355713,-0.347476 -0.0378189,0.0771457 -0.0881535,0.148236 -0.152795,0.210614 -0.386283,0.37272 -1.01798,0.253776 -1.25922,-0.213067zm0.703772 0.313236l-0.000267717 0 -0.000440945 -1.1811e-005c-0.148807,-0.000188976 -0.327461,-0.0609764 -0.463902,-0.192634 -0.108965,-0.105138 -0.19137,-0.254488 -0.210567,-0.45265 -0.00141732,-0.014685 -0.0025315,-0.0401181 -0.0033622,-0.0676181 -0.00111417,-0.0367244 -0.00179134,-0.0812874 -0.00194488,-0.102728 -0.00197638,-0.255654 0.0805512,-0.422445 0.210933,-0.52837 0.126906,-0.103106 0.293122,-0.141008 0.467173,-0.144433l-1.1811e-005 -0.000452756c0.00537402,-9.84252e-005 0.0106575,0.000141732 0.0158504,0.000716535 0.17002,0.00481102 0.331894,0.0432598 0.456087,0.144169 0.130374,0.105925 0.212913,0.272717 0.210937,0.52837 -0.00015748,0.0214409 -0.000830709,0.0660039 -0.00194882,0.102728 -0.000826772,0.0275 -0.00194488,0.0529331 -0.00335827,0.0676181 -0.0197402,0.203807 -0.0956929,0.353291 -0.203992,0.457791 -0.126496,0.122051 -0.293752,0.17876 -0.465382,0.187016l7.87402e-006 0.00034252c-0.00194488,9.05512e-005 -0.00387795,0.000133858 -0.00581102,0.000133858l0 1.1811e-005z"/>
  </g>
 </g>
</svg>
