<?xml version="1.0" encoding="UTF-8"?>
<!DOCTYPE svg PUBLIC "-//W3C//DTD SVG 1.1//EN" "http://www.w3.org/Graphics/SVG/1.1/DTD/svg11.dtd">
<!-- Creator: CorelDRAW -->
<svg xmlns="http://www.w3.org/2000/svg" xml:space="preserve" width="6.82666in" height="6.82666in" style="shape-rendering:geometricPrecision; text-rendering:geometricPrecision; image-rendering:optimizeQuality; fill-rule:evenodd; clip-rule:evenodd"
viewBox="0 0 6.82666 6.82666"
 xmlns:xlink="http://www.w3.org/1999/xlink">
 <defs>
  <style type="text/css">
   <![CDATA[
    .fil0 {fill:#7E57C2}
    .fil1 {fill:#FFFFFE;fill-rule:nonzero}
   ]]>
  </style>
 </defs>
 <g id="Layer_x0020_1">
  <metadata id="CorelCorpID_0Corel-Layer"/>
  <circle class="fil0" cx="3.41333" cy="3.41333" r="3.41333"/>
  <g id="_450000280">
   <path id="_450001696" class="fil1" d="M2.82311 2.11159l0 -0.384169c0,-0.054126 -0.0309488,-0.101528 -0.0809764,-0.134394 -0.0435906,-0.0286457 -0.102583,-0.0463701 -0.166618,-0.0463701l-0.723862 0c-0.0640354,0 -0.123028,0.0177244 -0.166622,0.0463701 -0.0500236,0.0328661 -0.0809724,0.0802677 -0.0809724,0.134394l0 0.384169c0,0.054122 0.0309488,0.101524 0.0809724,0.134394 0.0435906,0.0286457 0.102587,0.0463661 0.166622,0.0463661l0.430882 0 0.378024 0.204634 -0.0340512 -0.208445c0.0440354,-0.00665354 0.0839094,-0.0217126 0.115626,-0.0425551 0.0500276,-0.0328701 0.0809764,-0.0802717 0.0809764,-0.134394zm-0.96824 -0.241024l-0.0440591 -0.162689 0.038126 0 0.0278543 0.111744 0.0337402 -0.111744 0.0443189 0 0.0323661 0.113638 0.0283228 -0.113638 0.0375236 0 -0.0448307 0.162689 -0.0395472 0 -0.036748 -0.121626 -0.0366614 0.121626 -0.0404055 0zm0.289748 -0.0375l0.0352835 0.00518898c-0.00455512,0.0114055 -0.011689,0.0200748 -0.0214882,0.0260276 -0.00975591,0.00598425 -0.0220039,0.00893701 -0.0367087,0.00893701 -0.023252,0 -0.0404449,-0.00666929 -0.051626,-0.0200748 -0.00880709,-0.0107205 -0.0132362,-0.0242835 -0.0132362,-0.0406102 0,-0.0195433 0.00580709,-0.0348425 0.0174094,-0.0459055 0.0115591,-0.011063 0.0262205,-0.0165945 0.0439291,-0.0165945 0.0198976,0 0.0355906,0.00579921 0.0471102,0.0173898 0.0114724,0.0115906 0.0169764,0.0293189 0.0165,0.0532205l-0.0886693 0c0.000255906,0.00924016 0.00309449,0.016437 0.00855512,0.0215551 0.00545669,0.00514961 0.0122913,0.00772441 0.0204173,0.00772441 0.00554331,0 0.010185,-0.00132283 0.0139685,-0.00397638 0.00377953,-0.00268898 0.00665748,-0.00697244 0.00855512,-0.0128819zm0.00201575 -0.0315118c-0.000255906,-0.00905512 -0.00287795,-0.0159094 -0.00790551,-0.0206102 -0.00503543,-0.00469685 -0.0111772,-0.00704331 -0.0183976,-0.00704331 -0.00774016,0 -0.0140984,0.0025 -0.0191299,0.00746063 -0.00502756,0.0049252 -0.00751969,0.0116654 -0.00743307,0.0201929l0.0528661 0zm0.151201 0.0690118l-0.035378 0 0 -0.117839 0.0328386 0 0 0.0167441c0.00562992,-0.00792126 0.0107047,-0.0131457 0.0151732,-0.0156496 0.00451181,-0.0025 0.00958661,-0.0037874 0.0152992,-0.0037874 0.00808268,0 0.0158228,0.00197244 0.0232992,0.00590945l-0.0109567 0.0271614c-0.00593701,-0.00337008 -0.0114803,-0.00507874 -0.0165945,-0.00507874 -0.00498425,0 -0.00915748,0.0011811 -0.0125906,0.00360236 -0.00348425,0.00238189 -0.00614961,0.00674409 -0.00812598,0.0130315 -0.00197244,0.0062874 -0.00296457,0.0194685 -0.00296457,0.0395039l0 0.0364016zm0.143906 -0.0375l0.0352874 0.00518898c-0.00455512,0.0114055 -0.0116929,0.0200748 -0.0214921,0.0260276 -0.00975591,0.00598425 -0.0220039,0.00893701 -0.0367087,0.00893701 -0.023248,0 -0.0404409,-0.00666929 -0.051622,-0.0200748 -0.00881102,-0.0107205 -0.0132362,-0.0242835 -0.0132362,-0.0406102 0,-0.0195433 0.00580315,-0.0348425 0.0174094,-0.0459055 0.0115591,-0.011063 0.0262205,-0.0165945 0.0439252,-0.0165945 0.0199016,0 0.0355906,0.00579921 0.0471102,0.0173898 0.0114764,0.0115906 0.0169764,0.0293189 0.0165039,0.0532205l-0.0886732 0c0.000259843,0.00924016 0.00309449,0.016437 0.00855512,0.0215551 0.00545669,0.00514961 0.0122953,0.00772441 0.0204173,0.00772441 0.00554724,0 0.010189,-0.00132283 0.0139724,-0.00397638 0.00377559,-0.00268898 0.00665748,-0.00697244 0.00855118,-0.0128819zm0.00201969 -0.0315118c-0.000255906,-0.00905512 -0.00288189,-0.0159094 -0.00790945,-0.0206102 -0.0050315,-0.00469685 -0.0111772,-0.00704331 -0.0183976,-0.00704331 -0.00773622,0 -0.0140984,0.0025 -0.019126,0.00746063 -0.00502756,0.0049252 -0.00752362,0.0116654 -0.00743307,0.0201929l0.0528661 0zm-0.61498 0.284925l0 -0.162689 0.037311 0 0 0.0640157 0.0730236 0 0 -0.0640157 0.0372677 0 0 0.162689 -0.0372677 0 0 -0.0711378 -0.0730236 0 0 0.0711378 -0.037311 0zm0.185902 -0.133827l0 -0.0288622 0.035374 0 0 0.0288622 -0.035374 0zm0 0.133827l0 -0.117839 0.035374 0 0 0.117839 -0.035374 0zm0.105524 0l-0.035378 0 0 -0.117839 0.0328425 0 0 0.0167402c0.00562992,-0.00791732 0.0107008,-0.0131417 0.0151693,-0.0156417 0.00451181,-0.0025 0.00958661,-0.00379134 0.0153031,-0.00379134 0.00807874,0 0.0158189,0.00197244 0.0232953,0.00590945l-0.0109567 0.0271614c-0.00593701,-0.00337008 -0.0114803,-0.00507874 -0.0165906,-0.00507874 -0.00498819,0 -0.00916142,0.00117717 -0.0125945,0.00360236 -0.00348425,0.00238189 -0.00614567,0.00674016 -0.00812598,0.0130315 -0.00197638,0.00628346 -0.00296457,0.0194646 -0.00296457,0.0395039l0 0.0364016zm0.0664961 -0.133827l0 -0.0288622 0.035374 0 0 0.0288622 -0.035374 0zm0 0.133827l0 -0.117839 0.035374 0 0 0.117839 -0.035374 0zm0.193291 0l-0.035374 0 0 -0.0601496c0,-0.0127244 -0.000771654,-0.0209449 -0.00227953,-0.0246969 -0.00150394,-0.0037126 -0.00399606,-0.00662992 -0.0073937,-0.00871654 -0.00339764,-0.00204331 -0.00748031,-0.00310236 -0.012248,-0.00310236 -0.00614567,0 -0.0116496,0.00148031 -0.0165079,0.00443307 -0.00485433,0.00299213 -0.00820866,0.00688976 -0.0100157,0.0117795 -0.00180315,0.00488583 -0.00270472,0.0138976 -0.00270472,0.0270787l0 0.053374 -0.035374 0 0 -0.117839 0.0328386 0 0 0.0173071c0.011689,-0.0133346 0.0263898,-0.02 0.0440984,-0.02 0.00778346,0 0.0149606,0.00125197 0.0214055,0.0037126 0.00644882,0.0025 0.0113504,0.00564961 0.0146575,0.00950787 0.00330709,0.00386614 0.00562992,0.00822047 0.00692126,0.0131102 0.00133071,0.00488583 0.00197638,0.0118543 0.00197638,0.0209449l0 0.0732559zm0.032622 0.00776772l0.0404094 0.0043189c0.000685039,0.00416535 0.00223228,0.00700394 0.00464173,0.00855906 0.00335039,0.00223622 0.00867717,0.00333071 0.0158583,0.00333071 0.00924409,0 0.0161614,-0.00120866 0.0208031,-0.00366929 0.00309449,-0.00162992 0.00545669,-0.00424409 0.00705118,-0.00788189 0.0010748,-0.0025748 0.00162992,-0.00734646 0.00162992,-0.014315l0 -0.0171969c-0.0105709,0.0127244 -0.0239409,0.0190866 -0.0400551,0.0190866 -0.0179724,0 -0.0322008,-0.00670079 -0.042685,-0.0200748 -0.00820866,-0.0106024 -0.0123386,-0.023748 -0.0123386,-0.0395079 0,-0.0197756 0.00541732,-0.0348465 0.0162087,-0.0453031 0.0107874,-0.0104173 0.0242008,-0.0156457 0.0402323,-0.0156457 0.0165039,0 0.0301693,0.00640157 0.0409173,0.0192047l0 -0.0165118 0.0330945 0 0 0.105756c0,0.0139016 -0.0012874,0.0242795 -0.00390945,0.0311732 -0.00257874,0.0068937 -0.00623228,0.0122756 -0.0109173,0.0162126 -0.00472835,0.00390157 -0.0110039,0.00697244 -0.0188268,0.00920472 -0.00786614,0.00220079 -0.0177953,0.00333465 -0.0297874,0.00333465 -0.0226969,0 -0.0387677,-0.00344488 -0.0482244,-0.0102638 -0.0095,-0.00685827 -0.0142283,-0.0155315 -0.0142283,-0.0260236 0,-0.00106299 4.33071e-005,-0.00231102 0.000125984,-0.0037874zm0.0315984 -0.0691339c0,0.0125039 0.00274803,0.0216732 0.00824803,0.0274646 0.00550394,0.00579921 0.012252,0.00871654 0.0203346,0.00871654 0.00863386,0 0.0159449,-0.00299606 0.0219213,-0.00894488 0.00592913,-0.00594488 0.00893701,-0.0147677 0.00893701,-0.0264764 0,-0.0121969 -0.00288189,-0.021248 -0.00859449,-0.0271575 -0.00567717,-0.00594882 -0.0128937,-0.00890157 -0.021622,-0.00890157 -0.00850787,0 -0.0154724,0.00291732 -0.0209764,0.0087126 -0.0055,0.00583465 -0.00824803,0.0146575 -0.00824803,0.0265866zm0.143043 0.019437l-0.00920079 -0.0825787 0 -0.0381811 0.0383031 0 0 0.0381811 -0.00907087 0.0825787 -0.0200315 0zm-0.00769291 0.0419291l0 -0.0311693 0.035374 0 0 0.0311693 -0.035374 0zm-0.360154 -0.378602l0.0312795 0.000137795 -0.0204803 0.0574213 -0.0277835 -0.000137795 0.0169843 -0.0574213z"/>
   <path id="_450001744" class="fil1" d="M2.10157 3.45142l2.7373 0c0.0521063,0 0.0943504,0.0341142 0.0943504,0.0761929l0 1.67619c0,0.0420787 -0.0422441,0.0761929 -0.0943504,0.0761929l-2.7373 0c-0.0521063,0 -0.0943504,-0.0341142 -0.0943504,-0.0761929l0 -1.67619c0,-0.0420787 0.0422441,-0.0761929 0.0943504,-0.0761929z"/>
   <path id="_450001288" class="fil1" d="M2.97192 2.51469c-0.100866,0.0569488 -0.18774,0.141457 -0.253012,0.24476 -0.0808937,0.128008 -0.128776,0.43085 -0.128776,0.599551 0,0.00572441 0.00288583,0.0111102 0.00787008,0.0162323l1.75106 0c0.000799213,-0.00117323 0.00124016,-0.00235039 0.00124016,-0.0035315l0 -0.0127008c0,-0.167528 -0.0471024,-0.469224 -0.126768,-0.596543 -0.0648425,-0.103626 -0.151323,-0.188551 -0.251854,-0.246028 -0.0267795,0.054622 -0.0624173,0.104953 -0.108189,0.149122 -0.2735,0.263902 -0.720768,0.179681 -0.891575,-0.150862zm0.169339 0.0853858c-0.0771535,-0.0744409 -0.1355,-0.180189 -0.149091,-0.320492 -0.00100394,-0.0104016 -0.00179134,-0.0284055 -0.00238189,-0.047874 -0.000787402,-0.0260039 -0.00126378,-0.0575591 -0.00137402,-0.0727402 -0.00140157,-0.181012 0.0570315,-0.299106 0.149346,-0.374106 0.167898,-0.136413 0.496787,-0.13661 0.664917,0 0.092311,0.075 0.150752,0.193094 0.14935,0.374106 -0.000110236,0.0151811 -0.000586614,0.0467362 -0.00137795,0.0727402 -0.000586614,0.0194685 -0.00137402,0.0374724 -0.00237795,0.047874 -0.0139764,0.144299 -0.0677559,0.250142 -0.144437,0.324134 -0.186244,0.179705 -0.478791,0.173693 -0.662575,-0.00364173z"/>
   <path id="_450000400" class="fil1" d="M1.79403 3.45143c-0.0420787,0 -0.0761929,0.056185 -0.0761929,0.12548 0,0.0692992 0.0341142,0.12548 0.0761929,0.12548l3.35238 0c0.0420787,0 0.0761929,-0.0561811 0.0761929,-0.12548 0,-0.0692953 -0.0341142,-0.12548 -0.0761929,-0.12548l-3.35238 0z"/>
  </g>
 </g>
</svg>
