<?xml version="1.0" encoding="UTF-8"?>
<!DOCTYPE svg PUBLIC "-//W3C//DTD SVG 1.1//EN" "http://www.w3.org/Graphics/SVG/1.1/DTD/svg11.dtd">
<!-- Creator: CorelDRAW -->
<svg xmlns="http://www.w3.org/2000/svg" xml:space="preserve" width="6.82666in" height="6.82666in" style="shape-rendering:geometricPrecision; text-rendering:geometricPrecision; image-rendering:optimizeQuality; fill-rule:evenodd; clip-rule:evenodd"
viewBox="0 0 6.82666 6.82666"
 xmlns:xlink="http://www.w3.org/1999/xlink">
 <defs>
  <style type="text/css">
   <![CDATA[
    .fil0 {fill:#00838F}
    .fil1 {fill:#FFFFFE;fill-rule:nonzero}
   ]]>
  </style>
 </defs>
 <g id="Layer_x0020_1">
  <metadata id="CorelCorpID_0Corel-Layer"/>
  <circle class="fil0" cx="3.41333" cy="3.41333" r="3.41333"/>
  <g id="_450002008">
   <path id="_450002080" class="fil1" d="M2.32026 3.58937c0.213614,0 0.407016,0.0865906 0.547016,0.226591 0.139996,0.139996 0.226587,0.333398 0.226587,0.547012 0,0.213614 -0.0865906,0.40702 -0.226587,0.547016 -0.14,0.139996 -0.333402,0.226591 -0.547016,0.226591 -0.21361,0 -0.407012,-0.0865945 -0.547012,-0.226591 -0.139996,-0.139996 -0.226591,-0.333402 -0.226591,-0.547016 0,-0.213614 0.0865945,-0.407016 0.226591,-0.547012 0.139992,-0.14 0.333398,-0.226591 0.547012,-0.226591zm0.352035 0.640949c0.0309409,-0.0297638 0.0318937,-0.0789803 0.00212992,-0.109921 -0.0297638,-0.0309409 -0.0789803,-0.0318898 -0.109921,-0.00212992l-0.356634 0.344398 -0.12972 -0.134335c-0.0297638,-0.0309409 -0.0789843,-0.0318937 -0.109921,-0.00212992 -0.0309409,0.0297638 -0.0318937,0.0789803 -0.00212992,0.109921l0.179965 0.186362c0.0012126,0.00145276 0.00248425,0.00287008 0.0038189,0.00425591 0.0299055,0.0309646 0.0792559,0.0318228 0.11022,0.00192126l-0.000145669 -0.000149606 0.412339 -0.398193z"/>
   <path id="_450002272" class="fil1" d="M2.94325 3.10129c-0.171004,0.0965433 -0.318276,0.239803 -0.428933,0.414933 -0.00320472,0.0050748 -0.00637008,0.010185 -0.00951575,0.015315 0.156972,0.0347047 0.30174,0.113445 0.417594,0.229299 0.160161,0.160165 0.249417,0.375583 0.249417,0.60213 0,0.10424 -0.0189134,0.206118 -0.0549173,0.301346l1.83489 0c0.094311,0 0.178724,-0.0432205 0.238744,-0.112843 0.0551969,-0.0640276 0.0894685,-0.150697 0.0894685,-0.244539l0 -0.0215354c0,-0.284008 -0.0798543,-0.548232 -0.214906,-0.764079 -0.109925,-0.175673 -0.256528,-0.319638 -0.426965,-0.417083 -0.0453976,0.0926024 -0.105819,0.177929 -0.183409,0.252803 -0.463665,0.447386 -1.22191,0.30461 -1.51147,-0.255748zm0.844752 0.37598l-0.000318898 0 -0.000527559 -7.87402e-006c-0.178622,-0.000228346 -0.393063,-0.0731929 -0.556835,-0.231224 -0.130795,-0.126205 -0.229709,-0.305472 -0.252752,-0.543327 -0.00169685,-0.0176299 -0.00303937,-0.0481535 -0.0040315,-0.0811614 -0.00134252,-0.0440866 -0.00214961,-0.0975787 -0.00233465,-0.123315 -0.00237402,-0.306858 0.096685,-0.507067 0.253189,-0.634209 0.152327,-0.123764 0.351839,-0.169256 0.560756,-0.173366l-1.1811e-005 -0.000543307c0.00644882,-0.000125984 0.0127913,0.000173228 0.0190236,0.000858268 0.204079,0.00577165 0.398378,0.0519291 0.547453,0.173051 0.156492,0.127142 0.255563,0.32735 0.253189,0.634209 -0.000185039,0.0257362 -0.000992126,0.0792283 -0.00233465,0.123315 -0.000996063,0.0330079 -0.00233465,0.0635315 -0.0040315,0.0811614 -0.0236929,0.244634 -0.114858,0.424063 -0.244854,0.549496 -0.151839,0.1465 -0.352598,0.214571 -0.558614,0.22448l1.1811e-005 0.000413386c-0.00233071,0.000106299 -0.00465354,0.000161417 -0.00697638,0.000161417l0 7.87402e-006z"/>
  </g>
 </g>
</svg>
