<?xml version="1.0" encoding="UTF-8"?>
<!DOCTYPE svg PUBLIC "-//W3C//DTD SVG 1.1//EN" "http://www.w3.org/Graphics/SVG/1.1/DTD/svg11.dtd">
<!-- Creator: CorelDRAW -->
<svg xmlns="http://www.w3.org/2000/svg" xml:space="preserve" width="6.82666in" height="6.82666in" style="shape-rendering:geometricPrecision; text-rendering:geometricPrecision; image-rendering:optimizeQuality; fill-rule:evenodd; clip-rule:evenodd"
viewBox="0 0 6.82666 6.82666"
 xmlns:xlink="http://www.w3.org/1999/xlink">
 <defs>
  <style type="text/css">
   <![CDATA[
    .fil0 {fill:#8BC34A}
    .fil2 {fill:#FFFFFE}
    .fil1 {fill:#FFFFFE;fill-rule:nonzero}
   ]]>
  </style>
 </defs>
 <g id="Layer_x0020_1">
  <metadata id="CorelCorpID_0Corel-Layer"/>
  <circle class="fil0" cx="3.41333" cy="3.41333" r="3.41333"/>
  <g id="_450003064">
   <path id="_450003208" class="fil1" d="M4.67485 3.51685c0.173846,0.0757087 0.323209,0.209335 0.430051,0.380091 0.110043,0.175858 0.175091,0.391358 0.175091,0.623224l0 0.0183031c0,0.067563 -0.0244213,0.129665 -0.0637559,0.175291 -0.0417874,0.0484646 -0.100244,0.0785472 -0.165272,0.0785472l-0.951535 0 -0.00069685 -0.00538976c0.00729134,-0.0516496 0.0186693,-0.104181 0.0301575,-0.154606 0.0171693,-0.0753307 0.0367165,-0.150323 0.0579803,-0.224598 0.0297008,-0.103764 0.0633661,-0.212039 0.105791,-0.311307 0.029878,-0.0699134 0.0675945,-0.137217 0.108004,-0.201543 0.0454449,-0.0723386 0.095189,-0.142028 0.146504,-0.210299 0.0408386,-0.0543386 0.0831063,-0.107543 0.124024,-0.16178 0.00142913,-0.0018937 0.00264567,-0.00388189 0.00365748,-0.00593307zm-0.613315 1.08c-0.0162874,-0.0697913 -0.0345512,-0.13926 -0.0542677,-0.208122 -0.0306378,-0.106984 -0.0654331,-0.218634 -0.109177,-0.320996 -0.0300591,-0.0703346 -0.0680079,-0.138177 -0.108469,-0.203016 -0.0462126,-0.0740551 -0.096752,-0.145496 -0.148882,-0.215484 -0.0388346,-0.0521378 -0.0788543,-0.103287 -0.118157,-0.155028 0.0217913,0.0011811 0.0422598,0.0120276 0.0554055,0.0297874 0.0122992,0.0145354 0.0249449,0.0282638 0.0379252,0.0411299 0.0144409,0.0143189 0.0293701,0.0278386 0.0447756,0.0405039 0.0570394,0.0468898 0.123358,0.0847283 0.193909,0.110075 0.0673701,0.0242047 0.138465,0.0369803 0.20878,0.0352953 0.104776,-0.00251181 0.199303,-0.024185 0.281587,-0.0623386 0.0830472,-0.0385039 0.153681,-0.0940866 0.209768,-0.163902l-0.000149606 -0.00011811c0.0111811,-0.0139134 0.0263701,-0.0227087 0.0425827,-0.0260591 -0.0382323,0.050248 -0.0770945,0.0999882 -0.114827,0.150654 -0.0521299,0.0699882 -0.102673,0.141429 -0.148886,0.215484 -0.0404606,0.0648386 -0.0784094,0.132681 -0.108469,0.203016 -0.0437441,0.102362 -0.0785354,0.214012 -0.109177,0.320996 -0.0197165,0.0688622 -0.0379843,0.138331 -0.0542717,0.208122zm-0.0378898 0.195457l-0.951531 0c-0.0650315,0 -0.123488,-0.0300827 -0.165272,-0.0785472 -0.0393386,-0.045626 -0.0637598,-0.107728 -0.0637598,-0.175291l0 -0.0183031c0,-0.233563 0.0661102,-0.45063 0.177787,-0.627358 0.106634,-0.168752 0.254941,-0.300843 0.427354,-0.375957 0.00101181,0.00205118 0.00222835,0.00403937 0.00365748,0.00593307 0.0409173,0.0542362 0.083185,0.107441 0.124028,0.16178 0.051315,0.0682717 0.101055,0.137961 0.1465,0.210299 0.0404094,0.0643268 0.078126,0.13163 0.108004,0.201543 0.0424252,0.0992677 0.0760906,0.207543 0.105791,0.311307 0.0212638,0.0742756 0.040815,0.149268 0.0579803,0.224598 0.0114882,0.0504252 0.0228661,0.102957 0.0301575,0.154606l-0.00069685 0.00538976z"/>
   <path id="_450003040" class="fil1" d="M4.3067 2.61384l0.00320079 0.000787402 0.000409449 0.000102362 0.00240157 0.000614173 0.000413386 0.000110236 0.00127953 0.000334646 0.00201181 0.000531496 0.00116142 0.000314961 0.00245276 0.000669291 0.000322835 9.05512e-005 0.00251969 0.000716535 0.000728346 0.000200787 0.000326772 9.84252e-005 0.00279921 0.000814961 0.000188976 5.51181e-005 0.00326378 0.000980315 0.000204724 6.29921e-005 0.00264961 0.000814961 0.000496063 0.000153543 0.00157087 0.000496063 0.000826772 0.00026378 0.00138976 0.000444882 0.0020315 0.000665354 0.000771654 0.000251969 0.000543307 0.000177165 0.00274803 0.00092126 2.75591e-005 1.1811e-005 0.00277165 0.000944882 0.000480315 0.000169291 0.00228346 0.000799213 0.000992126 0.000354331 0.000629921 0.000224409 0.00191732 0.000688976 0.00155512 0.000566929 0.00101181 0.000370079 0.00201181 0.000748031 0.000149606 5.51181e-005 0.00250394 0.000944882 0.000240157 9.05512e-005 0.00274016 0.00105512 0.00026378 0.000102362 7.87402e-005 3.14961e-005 0.00297638 0.00117323 0.000177165 6.69291e-005 0.00196063 0.000787402 0.00126378 0.000511811 0.00061811 0.000251969 0.00167717 0.000688976 0.00162205 0.000669291 0.000248031 0.000102362 0.00225984 0.000948819 4.33071e-005 1.9685e-005 0.00283071 0.0012126 0.000267717 0.000114173 5.11811e-005 1.9685e-005 0.0026378 0.00114961 0.000547244 0.000240157 0.00213386 0.000944882 0.00103937 0.000464567 0.000594488 0.000267717 0.00198819 0.000901575 0.00057874 0.000259843 0.0011378 0.000523622 0.000791339 0.000366142 0.00170079 0.000787402 0.000165354 7.87402e-005 0.00249213 0.00116929 0.00015748 7.48031e-005 0.0026378 0.00126378 0.00201181 0.000976378 0.000834646 0.000405512 0.00166929 0.000822835 0.0011811 0.000582677 0.00177165 0.000885827 0.000389764 0.00019685 0.00177165 0.000893701 0.000259843 0.000133858 0.00209843 0.0010748 0.000708661 0.000362205 0.000354331 0.000185039 0.00257874 0.00134646 0.000122047 6.29921e-005 0.00244488 0.00129134 0.000598425 0.000318898 0.000511811 0.000279528 0.00243701 0.00131496 0.000177165 9.44882e-005 0.0023622 0.00129134 0.000547244 0.000299213 0.00100787 0.000559055 0.00198819 0.00111024 0.000535433 0.00030315 0.00244094 0.00138189 7.08661e-005 3.93701e-005 0.0025 0.00143701 0.000385827 0.000224409 0.000720472 0.00042126 0.00201969 0.0011811 0.000200787 0.00011811 0.00163386 0.000964567 0.00129134 0.000767717 0.00117323 0.000704724 0.00173622 0.00104724 0.000712598 0.000433071 0.00217323 0.00133465 0.00026378 0.000161417 0.00241732 0.00150394 0.000188976 0.00011811 0.00222047 0.00139764 0.000165354 0.000106299 0.00142126 0.000905512 0.000807087 0.000515748 0.00106693 0.000688976 0.000476378 0.000307087 0.00169291 0.00110236 0.000641732 0.000417323 0.000866142 0.000570866 0.00192126 0.00127165 0.000433071 0.000287402 0.00233465 0.00157087c0.056,0.0378386 0.0965827,0.0816339 0.104882,0.118055l-5.90551e-005 1.1811e-005 0.00030315 0.00179528 -8.66142e-005 1.5748e-005 7.87402e-006 2.75591e-005 3.93701e-006 2.3622e-005 3.93701e-006 2.75591e-005 7.87402e-006 2.3622e-005 3.93701e-006 2.75591e-005 3.93701e-006 2.75591e-005 7.87402e-006 2.3622e-005 3.93701e-006 2.75591e-005c8.26772e-005,0.000413386 0.000177165,0.000822835 0.000271654,0.00123622l3.93701e-006 2.3622e-005 7.87402e-006 2.75591e-005 3.93701e-006 2.3622e-005 3.93701e-006 2.75591e-005 7.87402e-006 2.3622e-005 7.87402e-006 2.3622e-005 0 3.93701e-006 3.93701e-006 2.75591e-005 7.87402e-006 2.3622e-005c0.00401969,0.0243661 0.00679921,0.048315 0.00808661,0.0717402l6.29921e-005 0.00111417 5.51181e-005 0.00111417 5.90551e-005 0.00111417 5.11811e-005 0.00111811 5.11811e-005 0.00111417 4.72441e-005 0.00111417 4.72441e-005 0.00111417 4.33071e-005 0.00111417 4.33071e-005 0.00111811 3.93701e-005 0.00111417 3.93701e-005 0.00111811 3.54331e-005 0.00111811 2.75591e-005 0.00111417 3.93701e-006 3.93701e-006 2.75591e-005 0.00111417 3.93701e-006 0 2.75591e-005 0.00111811 2.3622e-005 0.00111811 1.9685e-005 0.00111811 3.93701e-006 0 1.9685e-005 0.00111811 1.9685e-005 0.00111811 1.1811e-005 0.00111811 3.93701e-006 0 1.1811e-005 0.00111811 0 0 7.87402e-006 0.00112205 3.93701e-006 0 3.93701e-006 0.00111811 3.93701e-006 0 7.87402e-006 0.00111811 0 0.00112205 0 0.00224016 0 0.00111811 -3.93701e-006 0 -3.93701e-006 0.00112205 -3.93701e-006 0 -3.93701e-006 0.00112205 -3.93701e-006 0 -7.87402e-006 0.00112205 0 0 -2.75591e-005 0.00224016 -3.93701e-006 0 -3.54331e-005 0.00224803 -3.93701e-006 0c-0.000496063,0.0243819 -0.00276772,0.0476339 -0.00629921,0.0717638 -0.0205906,0.140654 -0.0749567,0.243693 -0.149449,0.315567 -0.094563,0.091248 -0.223098,0.134118 -0.356921,0.141008l0 -7.87402e-005c-0.111709,0 -0.246512,-0.0461181 -0.350205,-0.146177 -0.00125197,-0.00120472 -0.00249606,-0.00241732 -0.00373622,-0.00364173l-0.000141732 -0.000137795 -0.00357087 -0.00355512 -5.90551e-005 -5.90551e-005 -0.00166929 -0.00169291 -0.00226378 -0.00230709 -0.000948819 -0.000988189 -0.00268504 -0.00279134 -0.00149606 -0.00157874 -0.00216929 -0.00230315 -0.00192913 -0.00209055 -0.00166929 -0.00181102 -0.00175591 -0.00194094 -0.00195276 -0.00216142 -0.00162992 -0.00183858 -0.00194488 -0.00220866 -0.00174803 -0.00201181 -0.00176772 -0.00205118 -0.00175197 -0.00206299 -0.00182283 -0.00215748 -0.00162598 -0.00195669 -0.00184646 -0.00223622 -0.00179134 -0.00219685 -0.00159843 -0.00198819 -0.00169291 -0.00212205 -0.00187008 -0.00237008 -0.00167717 -0.00215354 -0.00138189 -0.0017874 -0.00205512 -0.00269685 -0.00142126 -0.00188583 -0.00186614 -0.00250394 -0.00145669 -0.00197638 -0.00166929 -0.00229134 -0.00192913 -0.00267717 -0.00129134 -0.0018189 -0.00169685 -0.00241732 -0.00164567 -0.00235433 -0.00148031 -0.00216142 -0.00172441 -0.0025315 -0.00149213 -0.00223228 -0.00152362 -0.00229134 -0.00175197 -0.00267323 -0.00137402 -0.00211811 -0.00152362 -0.0023937 -0.00161417 -0.00254331 -0.00107087 -0.00172441 -0.00192913 -0.00311417 -0.00011811 -0.000185039c-0.000885827,-0.00145276 -0.00177165,-0.00291732 -0.00264961,-0.00438189l-6.69291e-005 -0.000110236 -0.00212598 -0.00359843 -0.000791339 -0.00133858 -0.000141732 -0.000248031c-0.000937008,-0.0016063 -0.00186614,-0.00322441 -0.0027874,-0.00484646l-3.93701e-005 -6.69291e-005c-0.000937008,-0.00164567 -0.0018622,-0.00329921 -0.00278346,-0.00496063l-6.69291e-005 -0.000125984c-0.000897638,-0.00162205 -0.0017874,-0.00325197 -0.00267323,-0.00488976l-0.000169291 -0.000318898 -0.000870079 -0.00162992 -0.00181102 -0.00341732 -0.00104724 -0.00201969 -0.00161417 -0.00311024 -0.00148425 -0.00294882 -0.00111811 -0.00222441 -0.00138976 -0.00282677 -0.00126772 -0.00259449 -0.00130315 -0.00272835 -0.00124803 -0.0026378 -0.00122441 -0.00264173 -0.00128346 -0.00277953 -0.00123228 -0.00273622 -0.00124803 -0.00279528 -0.00115354 -0.00262598 -0.00120866 -0.00278346 -0.00138583 -0.00326772 -0.000874016 -0.00208268 -0.00140945 -0.00340945 -0.000984252 -0.00242913 -0.00117717 -0.00293701 -0.00112992 -0.00287402 -0.00112205 -0.00290551 -0.00106299 -0.00279134 -0.00107087 -0.00285827 -0.0011378 -0.00308661 -0.00096063 -0.00265354 -0.0011378 -0.00320079 -0.00102362 -0.0029252 -0.000893701 -0.00261811 -0.00109055 -0.00322441 -0.00107874 -0.00326772 -0.000818898 -0.00250394 -0.00106299 -0.00335039 -0.000929134 -0.00296063 -0.000799213 -0.00261417 -0.00105118 -0.00348031 -0.000905512 -0.0030748 -0.000846457 -0.0029252 -0.00110236 -0.00391339 -0.000582677 -0.00209843 -0.00112992 -0.0041811 -0.000606299 -0.00226378 -0.000799213 -0.00310236 -0.000854331 -0.00333858 -4.72441e-005 -0.000192913c-0.000488189,-0.00193701 -0.000964567,-0.00388583 -0.00143701,-0.00583858l-9.44882e-005 -0.000401575c-0.000488189,-0.00203543 -0.000964567,-0.00408268 -0.00143701,-0.00613386l-3.54331e-005 -0.000161417c-0.000476378,-0.00211024 -0.000948819,-0.00422835 -0.00141339,-0.00635039l-1.5748e-005 -7.48031e-005c-0.000456693,-0.00209843 -0.000901575,-0.00420472 -0.00133858,-0.00632283l-6.69291e-005 -0.000322835c-0.000417323,-0.00203543 -0.000826772,-0.00407874 -0.00122835,-0.00612992l-5.51181e-005 -0.000279528 -0.000444882 -0.00233858 -0.000838583 -0.00445669 -0.000409449 -0.00229134 -0.000744094 -0.00417323 -0.00057874 -0.00344094 -0.000555118 -0.00331102 -0.000515748 -0.00327953 -0.000562992 -0.00361811 -0.000464567 -0.00316142 -0.000527559 -0.00364567 -0.000448819 -0.00326378 -0.000480315 -0.0035748 -0.000464567 -0.00369291 -0.00026378 -0.00212992c0.0955945,-0.0989606 0.168114,-0.13328 0.234063,-0.164492 0.071063,-0.0336299 0.135575,-0.0641732 0.209043,-0.148929 -0.00261417,0.0356181 -0.00885039,0.0647126 -0.0143386,0.0792205 -0.00562598,0.0115787 -0.00726378,0.0251496 -0.00366535,0.0385551 0.00793307,0.0295394 0.038315,0.0470512 0.0678583,0.0391181l-1.9685e-005 -6.69291e-005c0.144689,-0.0389252 0.195811,-0.125461 0.245638,-0.250693 0.0279016,-0.0701142 0.0546496,-0.144024 0.076,-0.216429 0.00287008,-0.00972441 0.0130197,-0.015311 0.0227598,-0.0124488 0.00970079,0.00285039 0.0152874,0.0130079 0.0124252,0.0227165 -0.0216496,0.0734055 -0.0489606,0.148449 -0.0772441,0.219535 -0.00583465,0.0146654 -0.011815,0.029315 -0.0180236,0.0438661zm0.597535 0.955728c0.00147244,-0.0659094 -0.00379921,-0.325504 -0.00762598,-0.514374 -0.00211024,-0.103843 -0.00377953,-0.186047 -0.00367323,-0.199921 0.00243701,-0.315165 -0.0963346,-0.51837 -0.252417,-0.645181 -0.152402,-0.123823 -0.355878,-0.170217 -0.570898,-0.175303 -0.00312598,-0.000338583 -0.00631102,-0.000484252 -0.00953937,-0.00042126l7.87402e-006 0.000271654c-0.217469,0.00427953 -0.423559,0.0503504 -0.577531,0.175453 -0.156083,0.126815 -0.254858,0.330016 -0.252421,0.645181 0.000212598,0.0275591 0.00714173,0.258925 0.0136102,0.452272 0.00324409,0.0969724 0.00640551,0.185098 0.00861024,0.234925 0.0463031,-0.0323189 0.0953819,-0.0607362 0.146957,-0.0846102l-0.00105906 -0.00288583 0.0692165 -0.0255591c0.0607874,-0.0224528 0.128512,-0.00164961 0.168406,0.0487323 0.00971654,0.0122717 0.0209173,0.0235236 0.0320236,0.0345276 0.0126732,0.012563 0.0258976,0.0245709 0.0396811,0.0359016 0.0509961,0.0419252 0.109843,0.0752992 0.171984,0.097626 0.0581142,0.020878 0.120193,0.0324528 0.182043,0.0309685 0.0868661,-0.00208268 0.173197,-0.0188346 0.252291,-0.0555079 0.0675551,-0.0313228 0.126413,-0.0758898 0.174382,-0.132409l0.00873228 -0.0108661c0.0417087,-0.0519173 0.112681,-0.0685512 0.173717,-0.0430866 0.0837677,0.0349488 0.162098,0.0801772 0.233504,0.134268z"/>
   <path id="_450002704" class="fil2" d="M2.60636 2.8705l-0.241091 0.402213c-0.031311,0.0522362 -0.0997638,0.0693346 -0.151976,0.0380079 -0.0188307,-0.0112992 -0.0320039,-0.0275906 -0.0425354,-0.0465433l-0.433524 -0.783165 -0.190571 0.106067 0.130402 -0.457748 0.457744 0.130398 -0.204429 0.113783 0.343579 0.62126 0.222854 -0.371417c0.0413543,-0.0689213 0.134339,-0.0816811 0.185327,-0.0159213l0.392988 0.506823c0.00397244,0.00512205 0.00741732,0.0104882 0.0103504,0.0160276l-0.176173 0.129539c-0.00318898,-0.00320866 -0.00622441,-0.00664567 -0.00906693,-0.010315l-0.293878 -0.379008z"/>
  </g>
 </g>
</svg>
