<?xml version="1.0" encoding="UTF-8"?>
<!DOCTYPE svg PUBLIC "-//W3C//DTD SVG 1.1//EN" "http://www.w3.org/Graphics/SVG/1.1/DTD/svg11.dtd">
<!-- Creator: CorelDRAW -->
<svg xmlns="http://www.w3.org/2000/svg" xml:space="preserve" width="6.82666in" height="6.82666in" style="shape-rendering:geometricPrecision; text-rendering:geometricPrecision; image-rendering:optimizeQuality; fill-rule:evenodd; clip-rule:evenodd"
viewBox="0 0 6.82666 6.82666"
 xmlns:xlink="http://www.w3.org/1999/xlink">
 <defs>
  <style type="text/css">
   <![CDATA[
    .fil0 {fill:#42A5F5}
    .fil1 {fill:#FFFFFE}
    .fil2 {fill:#FFFFFE;fill-rule:nonzero}
   ]]>
  </style>
 </defs>
 <g id="Layer_x0020_1">
  <metadata id="CorelCorpID_0Corel-Layer"/>
  <circle class="fil0" cx="3.41333" cy="3.41333" r="3.41333"/>
  <g id="_283575360">
   <path id="_283575672" class="fil1" d="M3.18313 2.23101c-0.00175591,-0.000909449 -0.00351575,-0.00180315 -0.00529134,-0.00267323 -0.00638583,-0.0031378 -0.012874,-0.00606299 -0.019437,-0.00881102 -0.0199213,-0.00834252 -0.0408465,-0.0152165 -0.0620866,-0.0192638 -0.269323,-0.0513543 -0.55463,0.133724 -0.751528,0.298315 -0.168154,0.140559 -0.320461,0.304437 -0.457461,0.475224 -0.0574488,0.0716102 -0.0459055,0.177043 0.0257441,0.234472 0.0296732,0.0237835 0.0662402,0.0367047 0.104283,0.0367047 0.0507717,0 0.0984094,-0.0228386 0.130177,-0.0624528 0.0774016,-0.0964961 0.158555,-0.19035 0.245713,-0.278197l0.185201 -0.186654 -0.0552165 0.257079c-0.0212598,0.0989961 -0.0410945,0.198516 -0.0549606,0.29885 -0.0241181,0.174512 -0.0251929,0.350276 -0.0206063,0.526051 0.000405512,0.0154606 0.000795276,0.0309291 0.00118504,0.0463898 0.00214567,0.0864528 0.00408661,0.172917 0.00493307,0.259394 0.000535433,0.0547638 0.00166535,0.109591 -0.00125984,0.164311l-0.00065748 0.0122441 -0.274354 0.709075c-0.0421378,0.108898 0.0124764,0.232539 0.121445,0.274587 0.0244331,0.00942913 0.0503976,0.0143425 0.0765945,0.0143425 0.0876693,0 0.166406,-0.0539685 0.198031,-0.135744l0.285913 -0.739264c0.00774409,-0.0200197 0.0124252,-0.0411772 0.0138307,-0.0625984l0.0251142 -0.383035 0.252252 0.398535 0.208929 0.764539c0.0252638,0.0924528 0.108862,0.157567 0.204965,0.157567 0.0184882,0 0.0369173,-0.00244882 0.0547677,-0.00725197 0.112126,-0.0301614 0.181193,-0.147224 0.15048,-0.259732l-0.217272 -0.795839c-0.00564961,-0.0206929 -0.0142126,-0.040622 -0.0256969,-0.0587598l-0.342539 -0.541185 0.0133898 -0.0358307c0.00458268,-0.0122677 0.00833071,-0.024815 0.0110787,-0.037622l0.139528 -0.651067 0.100878 0.110972c0.0415157,0.0456693 0.0847362,0.0897323 0.129984,0.131713 0.112587,0.104453 0.236083,0.196665 0.363894,0.281559 0.0902874,0.0599764 0.232516,0.000535433 0.254752,-0.105102 0.0139685,-0.066378 -0.0137953,-0.135169 -0.0703583,-0.172772 -0.112606,-0.0748661 -0.221535,-0.155839 -0.32076,-0.247906 -0.0738701,-0.0685394 -0.140846,-0.143146 -0.204421,-0.221232 -0.0216575,-0.0266024 -0.0429803,-0.0534764 -0.0643031,-0.0803504 -0.0698937,-0.0880866 -0.14087,-0.175346 -0.217043,-0.258134 -0.00764961,-0.00831102 -0.0172953,-0.0157717 -0.0260394,-0.0228819 -0.0344134,-0.0279843 -0.0703701,-0.0563346 -0.110004,-0.0766378 -0.000590551,-0.00030315 -0.0011811,-0.000614173 -0.00176772,-0.000929134z"/>
   <path id="_283575624" class="fil1" d="M3.53547 1.88538l0 -0.0140787c-3.93701e-006,-0.0863937 -0.033685,-0.168429 -0.0947992,-0.229543 -0.061126,-0.061126 -0.143083,-0.0950984 -0.229543,-0.0950984 -0.0864646,0 -0.168417,0.0339606 -0.229547,0.0950906 -0.0611299,0.061126 -0.0950906,0.143091 -0.0950906,0.229551 0,0.0864646 0.0339528,0.168425 0.0950866,0.229555 0.0611142,0.061122 0.143157,0.0947835 0.229555,0.0947874l0.0140787 0c0.0812441,-0.00347638 0.157669,-0.0369921 0.215469,-0.0947953 0.0578031,-0.0577992 0.091311,-0.134224 0.0947913,-0.215469z"/>
   <path id="_283575168" class="fil2" d="M3.68023 3.79346l-0.0191811 -0.0543819 0.97474 -0.344043c0.0269488,-0.00951575 0.0554094,-0.00711024 0.0795354,0.00442913 0.024126,0.0115354 0.0438622,0.032189 0.0533819,0.0591535l0.0332165 0.0941142 -1.16504 0.417697c-0.00140157,0.000496063 -0.00276378,0.00105512 -0.00408268,0.0016811l-0.0342087 -0.0969094c-0.000437008,-0.00104331 -0.000846457,-0.00209843 -0.00122835,-0.00317323l9.84252e-005 -3.54331e-005 8.66142e-005 -2.75591e-005 0.0542913 -0.0191575 -0.0543819 0.0191811c-0.00950394,-0.0269528 -0.00710236,-0.0554055 0.00443701,-0.0795276 0.0108386,-0.0226772 0.0297362,-0.0414764 0.0543543,-0.0515512 0.00154331,-0.000704724 0.00312598,-0.00134646 0.00475591,-0.00192126l3.14961e-005 9.44882e-005 7.87402e-006 -3.93701e-006 0.00958661 0.027189 0.00959843 0.0271929zm1.15009 -0.160264l0.139677 0.395732c0.00951181,0.0269528 0.0071063,0.0554134 -0.00443307,0.0795354 -0.0115315,0.0241299 -0.032185,0.0438661 -0.0591535,0.0533819l-0.974736 0.344043c-0.0269488,0.00951181 -0.0554094,0.0071063 -0.0795354,-0.00443307 -0.0241299,-0.0115354 -0.0438661,-0.032185 -0.0533819,-0.0591535l-0.137713 -0.390154c0.00140945,-0.00034252 0.00282283,-0.000755906 0.00422047,-0.00124803l1.16506 -0.417705z"/>
   <path id="_283575096" class="fil2" d="M4.32817 3.62592l-0.28278 0.0998071c-0.0223976,0.00790157 -0.0460512,0.00590551 -0.066122,-0.00369685 -0.0200591,-0.00959843 -0.0364764,-0.0267638 -0.0443898,-0.0491772l-0.0495709 -0.140437 -9.05512e-005 3.54331e-005c-0.000688976,-0.00194488 -0.00126378,-0.00390157 -0.00173228,-0.00586614 -0.00567717,-0.0206339 -0.00325591,-0.0419724 0.00551575,-0.0603031 0.00958661,-0.0200591 0.0267402,-0.0364646 0.0491535,-0.0443819l-3.54331e-005 -9.44882e-005c0.0010748,-0.00038189 0.00215354,-0.000724409 0.00324016,-0.00103543l0.279594 -0.098689c0.0224055,-0.00790945 0.0460551,-0.0058937 0.066126,0.00369685 0.0200669,0.00959843 0.0364882,0.0267677 0.0443898,0.0491772l0.0495748 0.140449c0.00790551,0.0224016 0.00588976,0.0460551 -0.00369685,0.066122 -0.00960236,0.0200669 -0.0267677,0.0364882 -0.0491772,0.0443937zm-0.294087 -0.0185079l0.228646 -0.0807008 -0.0304646 -0.086315 -0.228646 0.0807047 0.0304646 0.086311z"/>
  </g>
 </g>
</svg>
