<?xml version="1.0" encoding="UTF-8"?>
<!DOCTYPE svg PUBLIC "-//W3C//DTD SVG 1.1//EN" "http://www.w3.org/Graphics/SVG/1.1/DTD/svg11.dtd">
<!-- Creator: CorelDRAW -->
<svg xmlns="http://www.w3.org/2000/svg" xml:space="preserve" width="6.82666in" height="6.82666in" style="shape-rendering:geometricPrecision; text-rendering:geometricPrecision; image-rendering:optimizeQuality; fill-rule:evenodd; clip-rule:evenodd"
viewBox="0 0 6.82666 6.82666"
 xmlns:xlink="http://www.w3.org/1999/xlink">
 <defs>
  <style type="text/css">
   <![CDATA[
    .fil0 {fill:#FFCA28}
    .fil1 {fill:#FFFFFE}
    .fil2 {fill:#FFFFFE;fill-rule:nonzero}
   ]]>
  </style>
 </defs>
 <g id="Layer_x0020_1">
  <metadata id="CorelCorpID_0Corel-Layer"/>
  <circle class="fil0" cx="3.41333" cy="3.41333" r="3.41333"/>
  <g id="_283576056">
   <path id="_283576992" class="fil1" d="M4.21115 2.21885c-0.0015748,-0.0011811 -0.00315748,-0.00235039 -0.00475591,-0.0035 -0.00575591,-0.0041378 -0.0116496,-0.00808268 -0.0176417,-0.0118661 -0.0181929,-0.0114882 -0.0376142,-0.0216929 -0.057811,-0.0291772 -0.256094,-0.0949291 -0.566941,0.0397717 -0.787551,0.168941 -0.188402,0.110311 -0.365091,0.246146 -0.527882,0.391299 -0.0682638,0.0608622 -0.0743346,0.166343 -0.013437,0.234591 0.0252244,0.0282677 0.0590157,0.047 0.0963858,0.0532835 0.049878,0.00838189 0.100449,-0.00618504 0.138201,-0.0398543 0.0919685,-0.0820157 0.187197,-0.160811 0.287327,-0.232713l0.21276 -0.15278 -0.0966969 0.243425c-0.0372362,0.0937402 -0.0731575,0.188232 -0.10335,0.284512 -0.0525118,0.167449 -0.0825984,0.339937 -0.107122,0.513374 -0.00215748,0.0152598 -0.00432677,0.0305157 -0.0065,0.0457717 -0.0121654,0.0852835 -0.0245394,0.170539 -0.0379882,0.255634 -0.00851969,0.0538858 -0.0164646,0.107937 -0.028378,0.161209l-0.00266535 0.0119173 -0.386626 0.651268c-0.0593819,0.100024 -0.0261496,0.230504 0.0739528,0.289807 0.0224488,0.0132953 0.0471417,0.0224094 0.072878,0.0267362 0.086126,0.0144803 0.172386,-0.0255315 0.216965,-0.100646l0.402961 -0.679012c0.0109173,-0.0183898 0.0190118,-0.0384016 0.0239291,-0.0592126l0.0879291 -0.372138 0.181988 0.433173 0.0789803 0.785567c0.00955118,0.0949961 0.0809213,0.172772 0.175331,0.188642 0.0181614,0.00305118 0.0366693,0.00369291 0.055,0.0019252 0.11513,-0.0111142 0.202315,-0.114705 0.190724,-0.230307l-0.0820079 -0.817693c-0.00213386,-0.0212638 -0.00725591,-0.0422559 -0.0155394,-0.0619724l-0.247126 -0.588217 0.0190709 -0.0329882c0.00652756,-0.0112953 0.0122835,-0.0230039 0.0170984,-0.0351299l0.244591 -0.616547 0.0807756 0.125677c0.0332441,0.0517205 0.0684252,0.102146 0.105941,0.150858 0.0933504,0.121205 0.199441,0.232189 0.31098,0.336697 0.0787913,0.0738268 0.228331,0.0389252 0.267618,-0.0611811 0.024689,-0.0629016 0.00877559,-0.135063 -0.0405827,-0.181346 -0.0982559,-0.0921417 -0.191894,-0.189677 -0.274165,-0.296508 -0.061248,-0.0795315 -0.11472,-0.163886 -0.16428,-0.251094 -0.0168858,-0.0297126 -0.0333898,-0.0596339 -0.0499016,-0.0895551 -0.0541102,-0.0980787 -0.109429,-0.195524 -0.170583,-0.289429 -0.00614567,-0.00942913 -0.0143898,-0.0183504 -0.0218031,-0.0267795 -0.029185,-0.0331732 -0.0598268,-0.0669646 -0.0954094,-0.0934528 -0.000531496,-0.000397638 -0.00105906,-0.00080315 -0.00158268,-0.00120866z"/>
   <path id="_283576200" class="fil1" d="M4.61436 1.9375l0.00232677 -0.0138307c0.0142638,-0.084874 -0.00527559,-0.171024 -0.0552165,-0.241157 -0.0499567,-0.0701417 -0.124858,-0.117047 -0.209795,-0.131327 -0.0849409,-0.0142795 -0.171059,0.00554331 -0.241205,0.0555039 -0.0701457,0.0499528 -0.117051,0.124862 -0.131331,0.209799 -0.0142795,0.0849409 0.00554331,0.171067 0.0555,0.241213 0.0499488,0.0701378 0.124984,0.116756 0.209858,0.131028l0.0138307 0.00232677c0.0803858,0.01 0.161,-0.0103031 0.227327,-0.0575394 0.0663307,-0.0472362 0.11187,-0.116776 0.128705,-0.196016z"/>
   <g>
    <path id="_283575864" class="fil2" d="M3.10645 3.4092l0.030689 -0.0485591 -0.870335 -0.550291c-0.024063,-0.0152165 -0.0522362,-0.0191929 -0.0782244,-0.0133346 -0.0259882,0.00585039 -0.0497362,0.0215315 -0.0649606,0.0456063l-0.0531299 0.0840354 1.03881 0.664024c0.00125591,0.000791339 0.00245276,0.00164173 0.00359449,0.00253543l0.0547126 -0.0865276c0.00065748,-0.000913386 0.0012874,-0.00184646 0.00189764,-0.00280709l-8.66142e-005 -5.51181e-005 -7.87402e-005 -4.72441e-005 -0.0484764 -0.0306457 0.0485591 0.030689c0.0152087,-0.0240669 0.019185,-0.0522323 0.0133307,-0.0782205 -0.0055,-0.0244252 -0.0196811,-0.046874 -0.0413543,-0.0621181 -0.00134252,-0.00102362 -0.00274016,-0.002 -0.00419291,-0.00292126l-5.51181e-005 8.66142e-005 -3.93701e-006 -3.93701e-006 -0.0153425 0.0242756 -0.0153504 0.0242795zm-1.08139 -0.410701l-0.223409 0.353346c-0.0152165,0.0240669 -0.0191929,0.0522402 -0.0133346,0.0782283 0.00585039,0.0259882 0.0215276,0.0497362 0.0456063,0.0649606l0.870335 0.550287c0.0240591,0.0152165 0.0522323,0.019189 0.0782244,0.0133346 0.0259882,-0.00585039 0.0497362,-0.0215276 0.0649606,-0.0456063l0.220264 -0.348366c-0.00129134,-0.000645669 -0.00257087,-0.00135827 -0.0038189,-0.00214961l-1.03883 -0.664035z"/>
    <path id="_283575768" class="fil2" d="M2.51435 3.1028l0.252488 0.159642c0.02,0.0126417 0.0434134,0.0159488 0.0650354,0.0110748 0.0216102,-0.00487008 0.0413583,-0.0179055 0.0540157,-0.0379134l0.0792835 -0.125394 8.26772e-005 5.51181e-005c0.00110236,-0.00173622 0.00209449,-0.00351181 0.00298425,-0.00531496 0.0100866,-0.0187835 0.0124685,-0.0400394 0.00801575,-0.0597874 -0.0048622,-0.0216063 -0.0178819,-0.0413425 -0.0378937,-0.054l5.51181e-005 -8.66142e-005c-0.000956693,-0.000610236 -0.00193307,-0.0011811 -0.00291339,-0.00172441l-0.24965 -0.15785c-0.0200039,-0.0126496 -0.0434213,-0.015937 -0.0650354,-0.0110748 -0.0216181,0.00487402 -0.041374,0.0179055 -0.0540197,0.0379134l-0.0792874 0.125406c-0.0126496,0.0200039 -0.015937,0.0434213 -0.0110787,0.0650354 0.00487402,0.0216181 0.0179055,0.041374 0.0379173,0.0540197zm0.289709 0.047248l-0.204154 -0.129083 0.0487283 -0.0770709 0.20415 0.129087 -0.0487244 0.0770669z"/>
   </g>
  </g>
 </g>
</svg>
