<?xml version="1.0" encoding="UTF-8"?>
<!DOCTYPE svg PUBLIC "-//W3C//DTD SVG 1.1//EN" "http://www.w3.org/Graphics/SVG/1.1/DTD/svg11.dtd">
<!-- Creator: CorelDRAW -->
<svg xmlns="http://www.w3.org/2000/svg" xml:space="preserve" width="6.82666in" height="6.82666in" style="shape-rendering:geometricPrecision; text-rendering:geometricPrecision; image-rendering:optimizeQuality; fill-rule:evenodd; clip-rule:evenodd"
viewBox="0 0 6.82666 6.82666"
 xmlns:xlink="http://www.w3.org/1999/xlink">
 <defs>
  <style type="text/css">
   <![CDATA[
    .fil0 {fill:#AB47BC}
    .fil1 {fill:#FFFFFE}
    .fil2 {fill:#FFFFFE;fill-rule:nonzero}
   ]]>
  </style>
 </defs>
 <g id="Layer_x0020_1">
  <metadata id="CorelCorpID_0Corel-Layer"/>
  <circle class="fil0" cx="3.41333" cy="3.41333" r="3.41333"/>
  <g id="_283577856">
   <path id="_283577808" class="fil1" d="M3.86786 1.96485c-0.0908898,-0.0103425 -0.182437,0.0160394 -0.253996,0.0729764 -0.0721024,0.0573701 -0.117866,0.140126 -0.128283,0.231677 -0.021563,0.189516 0.117201,0.352421 0.301972,0.381976 0.00148031,0.00023622 0.00297638,0.000429134 0.00447638,0.00053937 0.0903898,0.00669291 0.180776,-0.016378 0.252197,-0.0732087 0.0713937,-0.0568031 0.114106,-0.139705 0.128031,-0.229193 0.000224409,-0.00142913 0.000385827,-0.0028622 0.000492126,-0.00429921 0.00672441,-0.0903937 -0.0163819,-0.18076 -0.0732087,-0.252181 -0.0573701,-0.0721063 -0.14013,-0.11787 -0.231681,-0.128287z"/>
   <path id="_283577952" class="fil1" d="M2.9232 2.53701c-0.0462126,-0.0081378 -0.0941693,-0.00213386 -0.134878,0.0222913 -0.0426811,0.0256063 -0.0730787,0.0663346 -0.0851535,0.11465 -0.0120591,0.0482362 -0.0045,0.0984488 0.0210748,0.141071 0.0259409,0.0432283 0.0677559,0.0724291 0.116134,0.0855394l0.638469 0.173004 0.0919331 0.873858 -0.281217 0.713823c-0.020689,0.0457835 -0.0271142,0.0969252 -0.0109567,0.145114 0.0158307,0.0472205 0.0490787,0.0857126 0.093689,0.107921 0.0445118,0.0221535 0.0954016,0.0255157 0.142516,0.00972047 0.0472283,-0.0158346 0.0857165,-0.0490945 0.107933,-0.0937087l0.316591 -0.635677 0.942642 1.02536c0.0336811,0.0366299 0.0798465,0.0577992 0.129528,0.0598661 0.0489331,0.0020315 0.0976929,-0.0158189 0.133736,-0.0489803 0.036626,-0.0337047 0.0578543,-0.0798622 0.0599213,-0.129567 0.00208661,-0.0502323 -0.0192874,-0.0983976 -0.0512205,-0.136283l-0.857358 -1.10564 -0.233862 -0.778004 0.780197 -0.125469c0.0490236,-0.00788583 0.0961378,-0.0340787 0.125854,-0.0742913 0.0609567,-0.0825 0.0435236,-0.200035 -0.0390276,-0.261028 -0.0377953,-0.0279252 -0.0872008,-0.0445906 -0.134248,-0.0354685 -0.129902,0.0251811 -0.257528,0.0675433 -0.38648,0.0983976 -0.179862,0.0430354 -0.354012,0.0639449 -0.539217,0.0631457 -0.330213,-0.0014252 -0.646441,-0.0730197 -0.946598,-0.209646z"/>
   <path id="_283577568" class="fil2" d="M2.90753 2.09787l0.041811 0.0396142 -0.709945 0.749642c-0.019626,0.0207283 -0.0460236,0.0315472 -0.0727283,0.0322717 -0.0267008,0.000732283 -0.0536496,-0.00864567 -0.0743858,-0.0282835l-0.0723819 -0.0685512 0.845594 -0.90176c0.00102362,-0.00107874 0.00197638,-0.00220079 0.00286614,-0.00335433l0.0745315 0.0705827c0.000862205,0.000728346 0.00170866,0.00147638 0.00253543,0.00226378l-7.08661e-005 7.08661e-005 -6.29921e-005 6.69291e-005 -0.0395433 0.041752 0.0396142 -0.041815c0.0207205,0.0196339 0.0315394,0.0460236 0.0322638,0.0727244 0.000685039,0.0250945 -0.00755512,0.0504094 -0.0248543,0.0705748 -0.00105118,0.00132677 -0.00216535,0.00262205 -0.00335039,0.00387402l-7.48031e-005 -7.08661e-005 -3.93701e-006 7.87402e-006 -0.0209055 -0.0198071 -0.0209094 -0.0198031zm-0.949512 0.666091l-0.304346 -0.288228c-0.0207244,-0.0196299 -0.0315433,-0.0460276 -0.0322717,-0.0727283 -0.000728346,-0.0267047 0.00864567,-0.0536496 0.0282874,-0.0743898l0.709945 -0.749642c0.019626,-0.0207244 0.0460236,-0.0315433 0.0727283,-0.0322717 0.0267008,-0.000728346 0.0536457,0.00864567 0.0743858,0.0282874l0.300059 0.284165c-0.00109843,0.000944882 -0.00216535,0.00195276 -0.0031811,0.0030315l-0.845606 0.901776z"/>
   <path id="_283577352" class="fil2" d="M2.40777 2.54181l0.205961 -0.217476c0.016315,-0.0172205 0.038252,-0.0262165 0.0604685,-0.0268189 0.0222008,-0.000602362 0.0446102,0.00718898 0.0618504,0.0235079l0.108008 0.102287 6.69291e-005 -7.48031e-005c0.00149606,0.00141732 0.00290157,0.00289764 0.0042126,0.00442913 0.014437,0.0157638 0.022,0.0358307 0.0225472,0.056122 0.000610236,0.0222008 -0.00716929,0.0445906 -0.0234921,0.0618346l7.48031e-005 7.08661e-005c-0.000783465,0.000826772 -0.00158661,0.00162205 -0.00240945,0.0023937l-0.203642 0.215031c-0.016315,0.0172323 -0.0382598,0.0262087 -0.0604685,0.0268189 -0.0222126,0.000602362 -0.044626,-0.00718504 -0.0618543,-0.0235079l-0.108012 -0.102295c-0.0172323,-0.016315 -0.0262087,-0.0382598 -0.0268189,-0.0604685 -0.000602362,-0.0222126 0.00718504,-0.044626 0.0235079,-0.0618543zm0.269878 -0.117441l-0.166531 0.175843 0.0663819 0.0628701 0.166528 -0.175846 -0.066378 -0.0628661z"/>
  </g>
 </g>
</svg>
