<?xml version="1.0" encoding="UTF-8"?>
<!DOCTYPE svg PUBLIC "-//W3C//DTD SVG 1.1//EN" "http://www.w3.org/Graphics/SVG/1.1/DTD/svg11.dtd">
<!-- Creator: CorelDRAW -->
<svg xmlns="http://www.w3.org/2000/svg" xml:space="preserve" width="6.82666in" height="6.82666in" style="shape-rendering:geometricPrecision; text-rendering:geometricPrecision; image-rendering:optimizeQuality; fill-rule:evenodd; clip-rule:evenodd"
viewBox="0 0 6.82666 6.82666"
 xmlns:xlink="http://www.w3.org/1999/xlink">
 <defs>
  <style type="text/css">
   <![CDATA[
    .fil0 {fill:#424242}
    .fil2 {fill:#FFFFFE}
    .fil1 {fill:#FFFFFE;fill-rule:nonzero}
   ]]>
  </style>
 </defs>
 <g id="Layer_x0020_1">
  <metadata id="CorelCorpID_0Corel-Layer"/>
  <circle class="fil0" cx="3.41333" cy="3.41333" r="3.41333"/>
  <g id="_283578048">
   <path id="_283579512" class="fil1" d="M1.95954 3.47704l2.90758 0c0.00878346,0 0.0180433,0.000531496 0.027689,0.00156693 0.0551102,0.00590551 0.106976,0.0292717 0.145118,0.0636614 0.040248,0.0362992 0.0659134,0.0848583 0.0659134,0.138984 0,0.00664173 -0.000476378,0.013811 -0.00145669,0.0215039l-0.134886 1.05845c-0.00735039,0.0576772 -0.0343386,0.110752 -0.0760118,0.148972 -0.0414646,0.0380315 -0.0966575,0.0615827 -0.161252,0.0615827l-2.63781 0c-0.0645984,0 -0.119787,-0.0235512 -0.161252,-0.0615827 -0.0416732,-0.0382205 -0.0686654,-0.0912953 -0.0760118,-0.148972l-0.134886 -1.05845c-0.000980315,-0.00769291 -0.00146063,-0.0148583 -0.00146063,-0.0214961 0,-0.0541299 0.0256693,-0.102689 0.0659213,-0.138988 0.0381339,-0.0343976 0.0900079,-0.0577598 0.145118,-0.0636654 0.00964173,-0.00103543 0.0188976,-0.00156693 0.027685,-0.00156693z"/>
   <path id="_283578960" class="fil1" d="M1.86211 5.01746c-0.0403031,0 -0.0729764,0.0587756 -0.0729764,0.131268 0,0.0724961 0.0326732,0.131268 0.0729764,0.131268l3.10241 0c0.0403031,0 0.0729764,-0.0587717 0.0729764,-0.131268 0,-0.0724921 -0.0326732,-0.131268 -0.0729764,-0.131268l-3.10241 0zm2.66724 0.0689094c0.034437,0 0.0623583,0.0279213 0.0623583,0.0623583 0,0.034437 -0.0279213,0.0623583 -0.0623583,0.0623583 -0.034437,0 -0.0623583,-0.0279213 -0.0623583,-0.0623583 0,-0.034437 0.0279213,-0.0623583 0.0623583,-0.0623583zm-2.59577 -0.0130354l0.0525551 0 0 0.155004 -0.0525551 0 0 -0.155004zm0.123819 0l0.0525551 0 0 0.155004 -0.0525551 0 0 -0.155004zm0.123819 0l0.0525551 0 0 0.155004 -0.0525551 0 0 -0.155004z"/>
   <g>
    <path id="_283578696" class="fil1" d="M3.95849 2.76244c0.171287,0.0675472 0.318598,0.195563 0.422516,0.361638 0.0528346,0.0844409 0.0944724,0.178772 0.122331,0.279984l-0.51887 0 0 -0.331063 -0.0259764 0 0 -0.310559zm-0.422165 0.641622l-0.0139921 -0.128913 0.116646 -0.157642c0.00640157,-0.0073189 0.0102008,-0.0163976 0.0102008,-0.0262283 0,-0.0242559 -0.0230827,-0.0439173 -0.0515472,-0.0439173 -0.126417,0.0434134 -0.24711,0.0478543 -0.360114,0 -0.00958268,-9.44882e-005 -0.0193071,0.00208661 -0.0280197,0.00676378 -0.0240748,0.012937 -0.0312913,0.0400591 -0.0161102,0.0605709l0.000125984 -6.69291e-005 0.118776 0.16052 -0.0139646 0.128913 -0.338276 0 0 -0.331063 -0.0323701 0 0 -0.312961c0.00601969,0.00348031 0.0113622,0.00819291 0.0156063,0.013937 0.012063,0.0143031 0.0245709,0.0279016 0.0375118,0.0407323 0.0139409,0.013811 0.0284291,0.0269331 0.0434606,0.0392835 0.0552992,0.0454606 0.119606,0.0821496 0.188035,0.106736 0.0654961,0.0235354 0.134681,0.0359528 0.203181,0.034311 0.101287,-0.00242913 0.192736,-0.0234094 0.272406,-0.0603543 0.0807913,-0.0374606 0.149528,-0.0915472 0.204102,-0.159488l-0.000106299 -7.87402e-005c0.00429528,-0.00534646 0.00943701,-0.0096063 0.0150748,-0.012752l0 0.310634 -0.0297953 0 0 0.331063 -0.340831 0zm-1.21299 0c0.0282913,-0.102717 0.0707677,-0.198366 0.12476,-0.283807 0.10539,-0.166772 0.254681,-0.294736 0.428039,-0.360937l0 0.313681 -0.0233976 0 0 0.331063 -0.529402 0z"/>
    <path id="_283578240" class="fil2" d="M3.85261 2.0117c0.0452756,0.00379134 0.0808701,0.0417717 0.0808701,0.0880197 0,0.0333228 -0.0184724,0.0623504 -0.0457244,0.0773937 -0.00401181,0.0491339 -0.0198268,0.0987717 -0.0504528,0.136469 -0.0465787,0.0573228 -0.114374,0.0780315 -0.186209,0.0774724 -0.00965354,-7.48031e-005 -0.0193346,-0.000255906 -0.0289843,-0.000547244 -0.00726378,-0.000220472 -0.0146969,-0.000444882 -0.0219213,-0.00114173 -0.0600157,-0.0057874 -0.114823,-0.0299921 -0.156882,-0.0735787 -0.0113622,-0.0117756 -0.0213898,-0.0245866 -0.0299882,-0.0382008 -0.0086063,0.0136142 -0.0186299,0.0264252 -0.0299882,0.0381969 -0.042063,0.0435906 -0.096874,0.0677953 -0.156886,0.0735827 -0.00722835,0.00069685 -0.0146614,0.00092126 -0.0219213,0.00114173 -0.00965354,0.000291339 -0.0193307,0.000472441 -0.0289882,0.000547244 -0.0718346,0.000559055 -0.139622,-0.0201496 -0.186205,-0.0774724 -0.0306299,-0.0376969 -0.0464409,-0.0873346 -0.0504528,-0.136472 -0.0272559,-0.0150394 -0.0457283,-0.0440669 -0.0457283,-0.0773898 0,-0.046248 0.0355984,-0.0842283 0.0808701,-0.0880197 0.00461024,-0.00758268 0.00970866,-0.014874 0.015311,-0.0217717 0.0465787,-0.0573268 0.11437,-0.0780276 0.186201,-0.0774724 0.00966535,7.48031e-005 0.0193465,0.000251969 0.029,0.000547244 0.00726378,0.000220472 0.0146969,0.000440945 0.0219252,0.00114567 0.0600827,0.00580315 0.11587,0.027878 0.158256,0.0717992 0.00770079,0.00798031 0.0148189,0.0164803 0.0212992,0.0254449l0.0146102 0c0.00648031,-0.00896457 0.0135984,-0.0174646 0.0212992,-0.0254449 0.0423858,-0.0439213 0.0981693,-0.0659961 0.158252,-0.0717992 0.00723228,-0.000704724 0.0146654,-0.000925197 0.0219252,-0.00114567 0.00965748,-0.000295276 0.0193386,-0.000472441 0.0290039,-0.000547244 0.0718268,-0.000555118 0.139622,0.0201457 0.186201,0.0774724 0.00560236,0.00689764 0.0107008,0.014189 0.0153071,0.0217717zm-0.439402 0.836154l0.000114173 0c0.000818898,0 0.0016378,-1.9685e-005 0.00246457,-5.51181e-005l-7.87402e-006 -0.000145669c0.150343,-0.00722441 0.296217,-0.0562835 0.405512,-0.161744 0.0935039,-0.0902283 0.159193,-0.220504 0.17652,-0.399409 0.00124016,-0.012752 0.00222835,-0.0356732 0.00298819,-0.0607008 0.00108268,-0.0356693 0.00171654,-0.0774567 0.00186614,-0.0972362 0.00172835,-0.223437 -0.0682598,-0.367472 -0.17887,-0.457339 -0.108039,-0.0877835 -0.252339,-0.120665 -0.404839,-0.124256 -0.0021811,-0.00023622 -0.00440157,-0.00034252 -0.00665354,-0.000299213l3.93701e-006 0.00019685c-0.154209,0.00303543 -0.300335,0.035689 -0.409465,0.124358 -0.11061,0.0898661 -0.180602,0.233902 -0.178874,0.457339 0.000149606,0.0197835 0.000783465,0.0615866 0.00187008,0.0972717 0.000751969,0.0250079 0.00174803,0.0479213 0.00298425,0.0606654 0.0167717,0.173185 0.088311,0.303252 0.182839,0.394469 0.118303,0.114146 0.27285,0.166803 0.401362,0.166886l0.000185039 0z"/>
    <path id="_283578384" class="fil1" d="M3.53328 2.22913c0.0178543,0.0185 0.0437402,0.0325433 0.078752,0.0359331 0.00248819,0.000240157 0.00772835,0.00046063 0.0136496,0.000637795 0.010315,0.000311024 0.0212165,0.000488189 0.0261063,0.000527559 0.0451693,0.000346457 0.0727835,-0.0119567 0.0885984,-0.0314173 0.0311929,-0.0383937 0.0313189,-0.127543 0,-0.166094 -0.0158071,-0.0194646 -0.0434291,-0.0317598 -0.0885984,-0.0314134 -0.00488976,3.54331e-005 -0.0157953,0.000212598 -0.0261142,0.000527559 -0.00591732,0.000173228 -0.0111575,0.000393701 -0.0136417,0.000633858 -0.0368465,0.00357087 -0.0628583,0.016252 -0.0801378,0.0341575 -0.042189,0.0437165 -0.0399606,0.11365 0.00138583,0.156508zm-0.187039 0.050874c-0.029,0.0300512 -0.0701654,0.0527835 -0.12474,0.0580669 -0.00406299,0.000389764 -0.0110276,0.000700787 -0.0185354,0.000929134 -0.00988976,0.000295276 -0.0219882,0.000476378 -0.0278307,0.000523622 -0.0704094,0.000543307 -0.116457,-0.0223228 -0.145803,-0.058437 -0.0532283,-0.0655118 -0.0533071,-0.193039 0,-0.258646 0.0293465,-0.0361181 0.0753898,-0.0589803 0.145803,-0.058437 0.00584646,4.72441e-005 0.0179488,0.000224409 0.0278386,0.000523622 0.00750394,0.000228346 0.0144606,0.000535433 0.0185276,0.000925197 0.0560827,0.00543307 0.0972756,0.0263937 0.126126,0.0562992 0.0121496,0.0125866 0.0221024,0.0264685 0.0299055,0.041189l0.0715669 0c0.00780315,-0.0147205 0.0177598,-0.0286024 0.0299094,-0.041189 0.0288465,-0.0299055 0.0700433,-0.0508661 0.126126,-0.0562992 0.00406693,-0.000389764 0.0110197,-0.00069685 0.0185276,-0.000925197 0.00988583,-0.000299213 0.0219961,-0.000476378 0.0278346,-0.000523622 0.0704134,-0.000543307 0.116457,0.0223189 0.145807,0.058437 0.0533031,0.0656063 0.0532244,0.193134 0,0.258646 -0.0293504,0.0361142 -0.0753937,0.0589803 -0.145807,0.058437 -0.00583465,-4.72441e-005 -0.0179409,-0.000228346 -0.0278268,-0.000523622 -0.00751181,-0.000228346 -0.0144764,-0.00053937 -0.0185354,-0.000929134 -0.0545748,-0.00528346 -0.0957402,-0.0280157 -0.12474,-0.0580669 -0.0380276,-0.0394094 -0.0557165,-0.0920709 -0.052185,-0.14348l-0.0297835 0c0.00352756,0.0514094 -0.0141614,0.104067 -0.052185,0.14348zm-0.0515039 -0.207382c-0.0172756,-0.0179055 -0.0432913,-0.0305866 -0.0801378,-0.0341575 -0.00248425,-0.000240157 -0.00772047,-0.00046063 -0.0136378,-0.000633858 -0.0103189,-0.000314961 -0.0212244,-0.000492126 -0.0261181,-0.000527559 -0.0451693,-0.000346457 -0.0727874,0.0119488 -0.0885945,0.0314134 -0.0313189,0.0385512 -0.0311929,0.127701 0,0.166094 0.015811,0.0194606 0.0434252,0.0317638 0.0885945,0.0314173 0.0048937,-3.93701e-005 0.0157913,-0.000216535 0.0261102,-0.000527559 0.00591732,-0.000177165 0.0111575,-0.000397638 0.0136457,-0.000637795 0.100201,-0.00970079 0.147189,-0.122961 0.0801378,-0.192441z"/>
   </g>
  </g>
 </g>
</svg>
