<?xml version="1.0" encoding="UTF-8"?>
<!DOCTYPE svg PUBLIC "-//W3C//DTD SVG 1.1//EN" "http://www.w3.org/Graphics/SVG/1.1/DTD/svg11.dtd">
<!-- Creator: CorelDRAW -->
<svg xmlns="http://www.w3.org/2000/svg" xml:space="preserve" width="6.82666in" height="6.82666in" style="shape-rendering:geometricPrecision; text-rendering:geometricPrecision; image-rendering:optimizeQuality; fill-rule:evenodd; clip-rule:evenodd"
viewBox="0 0 6.82666 6.82666"
 xmlns:xlink="http://www.w3.org/1999/xlink">
 <defs>
  <style type="text/css">
   <![CDATA[
    .fil0 {fill:#FF9800}
    .fil2 {fill:#FFFFFE}
    .fil1 {fill:#FFFFFE;fill-rule:nonzero}
   ]]>
  </style>
 </defs>
 <g id="Layer_x0020_1">
  <metadata id="CorelCorpID_0Corel-Layer"/>
  <circle class="fil0" cx="3.41333" cy="3.41333" r="3.41333"/>
  <g id="_283580208">
   <g>
    <path id="_283581024" class="fil1" d="M4.42802 3.68483c0.217425,0.0946811 0.404224,0.261803 0.53785,0.475362 0.137622,0.219941 0.21898,0.489461 0.21898,0.779453l0 0.0228858c0,0.0845 -0.0305433,0.162169 -0.0797402,0.219236 -0.0522598,0.0606102 -0.12537,0.0982323 -0.206701,0.0982323l-1.19006 0 -0.000870079 -0.00674016c0.00911811,-0.0645945 0.0233465,-0.130295 0.0377205,-0.193358 0.0214724,-0.0942126 0.0459173,-0.188004 0.0725118,-0.280898 0.0371457,-0.129776 0.079248,-0.265193 0.132307,-0.389346 0.0373701,-0.087437 0.0845433,-0.17161 0.135083,-0.252067 0.0568346,-0.0904685 0.119043,-0.177626 0.183224,-0.263012 0.0510748,-0.0679567 0.103941,-0.1345 0.155114,-0.202331 0.0017874,-0.00237008 0.00330315,-0.00485433 0.0045748,-0.00741732zm-0.767055 1.35072c-0.0203701,-0.0872835 -0.0432126,-0.174165 -0.067874,-0.260283 -0.038315,-0.133807 -0.0818268,-0.273445 -0.136543,-0.401465 -0.0375906,-0.0879646 -0.0850551,-0.172815 -0.135657,-0.253909 -0.0577953,-0.0926181 -0.121004,-0.181965 -0.186205,-0.2695 -0.048563,-0.0652047 -0.098622,-0.129177 -0.147772,-0.193886 0.027252,0.00147638 0.0528504,0.0150433 0.0692913,0.0372559 0.0153819,0.0181732 0.0312008,0.0353465 0.0474331,0.051437 0.0180591,0.0179094 0.0367362,0.0348189 0.056,0.0506575 0.0713386,0.0586417 0.15428,0.105969 0.242516,0.137665 0.0842559,0.0302756 0.173169,0.0462559 0.261114,0.0441457 0.131039,-0.00314173 0.24926,-0.0302441 0.352173,-0.0779646 0.103862,-0.0481575 0.192205,-0.117673 0.262346,-0.204988l-0.000181102 -0.000145669c0.0139803,-0.0174016 0.0329724,-0.0284016 0.053252,-0.0325906 -0.047815,0.0628465 -0.0964173,0.125047 -0.143614,0.188413 -0.0651969,0.0875354 -0.128402,0.176882 -0.186201,0.2695 -0.0506024,0.0810945 -0.0980669,0.165945 -0.135657,0.253909 -0.0547126,0.12802 -0.0982283,0.267657 -0.136543,0.401465 -0.0246614,0.0861181 -0.0475079,0.173 -0.067878,0.260283zm-0.0473898 0.244453l-1.19005 0c-0.0813346,0 -0.154445,-0.037622 -0.206705,-0.0982323 -0.0491929,-0.0570669 -0.0797402,-0.134736 -0.0797402,-0.219236l0 -0.0228858c0,-0.292114 0.082685,-0.563594 0.22235,-0.784622 0.133362,-0.211051 0.318846,-0.376252 0.53448,-0.470197 0.00126772,0.00256693 0.00279134,0.00505118 0.0045748,0.00742126 0.0511772,0.0678307 0.104039,0.134374 0.155114,0.202331 0.0641811,0.0853858 0.126394,0.172543 0.183228,0.263012 0.0505394,0.0804567 0.0977126,0.16463 0.135075,0.252067 0.053063,0.124154 0.0951654,0.259571 0.132311,0.389346 0.0265945,0.0928937 0.0510433,0.186685 0.0725157,0.280898 0.0143661,0.063063 0.0285945,0.128764 0.0377126,0.193358l-0.000870079 0.00674016z"/>
    <path id="_283580040" class="fil1" d="M3.96758 2.55546l0.00400394 0.000984252 0.000511811 0.000129921 0.00300394 0.00076378 0.000519685 0.000137795 0.00159843 0.00042126 0.00251969 0.000665354 0.00144882 0.000393701 0.00306693 0.000838583 0.000405512 0.000114173 0.00315354 0.000893701 0.000909449 0.000251969 0.000405512 0.000122047 0.00350394 0.00101575 0.00023622 7.08661e-005 0.00407874 0.00122441 0.000259843 8.26772e-005 0.00330709 0.00101969 0.000622047 0.000192913 0.0019685 0.000622047 0.0010315 0.000326772 0.00174016 0.000555118 0.00253937 0.000830709 0.000964567 0.000318898 0.000681102 0.000220472 0.00343701 0.00115354 3.14961e-005 7.87402e-006 0.0034685 0.00119291 0.000602362 0.000208661 0.00285433 0.001 0.00124016 0.000437008 0.000791339 0.000283465 0.0023937 0.000862205 0.00194882 0.000712598 0.00126378 0.00046063 0.00251575 0.000933071 0.000181102 7.08661e-005 0.0031378 0.0011811 0.000299213 0.000114173 0.00342913 0.0013189 0.000326772 0.000125984 9.84252e-005 3.93701e-005 0.00372441 0.00147244 0.000220472 8.26772e-005 0.00245276 0.000980315 0.00158268 0.000641732 0.000771654 0.000318898 0.00209843 0.000858268 0.00202362 0.000838583 0.000311024 0.000129921 0.00282677 0.00118504 5.51181e-005 2.75591e-005 0.00354331 0.00150787 0.000334646 0.000145669 6.29921e-005 2.75591e-005 0.00329921 0.00143701 0.000685039 0.000295276 0.00266929 0.00118504 0.00129921 0.00057874 0.000744094 0.000338583 0.00248425 0.00112205 0.000724409 0.000330709 0.0014252 0.000653543 0.000984252 0.000456693 0.00212992 0.000984252 0.000212598 9.84252e-005 0.00311417 0.0014685 0.00019685 9.05512e-005 0.00329528 0.00157874 0.00251969 0.00122047 0.00104331 0.000507874 0.00208661 0.00102756 0.00147638 0.000732283 0.00222047 0.0011063 0.000488189 0.000248031 0.00220866 0.00111417 0.000322835 0.000165354 0.00262992 0.00134646 0.000885827 0.000456693 0.000440945 0.000228346 0.00322835 0.0016811 0.000149606 8.26772e-005 0.00305906 0.00161811 0.000748031 0.000397638 0.000641732 0.000350394 0.00304724 0.00164173 0.000220472 0.00011811 0.00295276 0.00161811 0.000685039 0.000370079 0.00125984 0.000700787 0.00248425 0.00138976 0.000673228 0.000377953 0.00305118 0.00172835 9.44882e-005 5.11811e-005 0.00312598 0.00179528 0.000480315 0.000279528 0.000901575 0.000527559 0.00252756 0.00147638 0.000251969 0.000149606 0.00204331 0.00120472 0.00161417 0.00096063 0.00146457 0.00088189 0.00217323 0.00131102 0.000885827 0.00053937 0.00272441 0.00166929 0.000322835 0.000200787 0.00302756 0.00188583 0.00023622 0.000145669 0.00277953 0.00174803 0.000204724 0.000129921 0.00177559 0.0011378 0.00101181 0.000641732 0.00133465 0.000858268 0.000594488 0.000389764 0.00211417 0.00137795 0.00080315 0.000519685 0.00108661 0.000716535 0.00240157 0.00158661 0.000543307 0.000362205 0.00292126 0.00196063c0.0700315,0.0473268 0.120791,0.102102 0.131169,0.14765l-7.48031e-005 1.5748e-005 0.000377953 0.00224803 -0.000102362 1.5748e-005 3.93701e-006 3.54331e-005 1.1811e-005 3.14961e-005 3.93701e-006 3.54331e-005 7.87402e-006 2.75591e-005 3.93701e-006 3.54331e-005 3.93701e-006 3.14961e-005 7.87402e-006 3.14961e-005 7.87402e-006 3.14961e-005c0.000106299,0.000519685 0.000220472,0.00103543 0.000338583,0.00154724l7.87402e-006 3.14961e-005 7.87402e-006 3.14961e-005 3.93701e-006 3.54331e-005 7.87402e-006 3.14961e-005 7.87402e-006 3.14961e-005 1.1811e-005 2.75591e-005 0 7.87402e-006 3.93701e-006 3.14961e-005 7.87402e-006 3.14961e-005c0.0050315,0.0304724 0.00850394,0.0604213 0.0101142,0.0897205l7.87402e-005 0.0013937 7.08661e-005 0.00139764 7.08661e-005 0.00138976 6.69291e-005 0.00139764 6.29921e-005 0.0013937 6.29921e-005 0.0013937 5.51181e-005 0.0013937 5.90551e-005 0.00139764 5.11811e-005 0.00139764 4.72441e-005 0.0013937 4.72441e-005 0.0013937 4.72441e-005 0.00140157 3.54331e-005 0.0013937 3.93701e-006 0 3.54331e-005 0.0013937 0 0 3.54331e-005 0.00140157 3.14961e-005 0.0013937 2.75591e-005 0.00140157 0 0 2.75591e-005 0.00139764 1.9685e-005 0.00140157 1.9685e-005 0.00140157 3.93701e-006 0 1.1811e-005 0.0013937 3.93701e-006 0 1.1811e-005 0.00140157 3.93701e-006 0 3.93701e-006 0.00139764 3.93701e-006 0 3.93701e-006 0.00140157 7.87402e-006 0.00140157 0 0.00279921 -7.87402e-006 0.00140551 0 0 -3.93701e-006 0.00140157 -3.93701e-006 0 -3.93701e-006 0.00140157 -3.93701e-006 0 -1.1811e-005 0.00139764 -3.93701e-006 0 -3.54331e-005 0.00281102 -3.93701e-006 0 -4.33071e-005 0.00280709 0 0c-0.000622047,0.0304961 -0.00346457,0.0595709 -0.00787795,0.0897559 -0.0257559,0.175909 -0.093752,0.30478 -0.186913,0.394669 -0.118268,0.114118 -0.279024,0.167736 -0.44639,0.176354l0 -9.84252e-005c-0.139713,0 -0.308303,-0.0576811 -0.437996,-0.182819 -0.00156299,-0.00150787 -0.00311811,-0.00302756 -0.00467323,-0.00455906l-0.000173228 -0.000173228 -0.00446457 -0.00444094 -7.48031e-005 -7.48031e-005 -0.00208661 -0.00212205 -0.00283071 -0.00288583 -0.00118504 -0.00122835 -0.0033622 -0.00349213 -0.00187008 -0.00197638 -0.00270866 -0.00288189 -0.00241732 -0.00261417 -0.00209055 -0.00226378 -0.00219291 -0.0024252 -0.00244094 -0.00270866 -0.00203937 -0.00229528 -0.00243307 -0.00276378 -0.00218504 -0.00251575 -0.0022126 -0.00256693 -0.00219291 -0.00257874 -0.00227559 -0.00270079 -0.00203937 -0.00244094 -0.00230709 -0.00280315 -0.00223622 -0.00274409 -0.002 -0.00248819 -0.00211811 -0.00265748 -0.00234252 -0.00296457 -0.00209449 -0.00268898 -0.00172835 -0.00223622 -0.0025748 -0.00337402 -0.00177165 -0.00235433 -0.00233858 -0.00313386 -0.0018189 -0.00247638 -0.00209055 -0.0028622 -0.00240551 -0.00335039 -0.00161811 -0.00227165 -0.00212205 -0.00301969 -0.00205906 -0.00294488 -0.00185039 -0.00270472 -0.00215748 -0.00316929 -0.00186614 -0.00279134 -0.00190551 -0.00286614 -0.00218898 -0.00334252 -0.00172047 -0.00264567 -0.00190551 -0.003 -0.00201575 -0.00317717 -0.00134646 -0.00216142 -0.00240945 -0.0038937 -0.000145669 -0.000228346c-0.00111024,-0.0018189 -0.00221654,-0.00364567 -0.00331496,-0.00548031l-8.26772e-005 -0.000137795 -0.00265748 -0.0045 -0.000988189 -0.00167323 -0.000181102 -0.000311024c-0.00117323,-0.00200787 -0.00233858,-0.0040315 -0.00348819,-0.00606299l-4.72441e-005 -8.26772e-005c-0.00116929,-0.00205906 -0.00232677,-0.00412992 -0.00348031,-0.00620472l-8.66142e-005 -0.00015748c-0.00112205,-0.00202756 -0.00223622,-0.00406299 -0.00334252,-0.00611417l-0.000212598 -0.000397638 -0.00108268 -0.00204331 -0.00226772 -0.00426772 -0.00131102 -0.00252756 -0.00201575 -0.0038937 -0.00185827 -0.00368898 -0.00139764 -0.00277953 -0.00173622 -0.00353543 -0.00158661 -0.00324803 -0.00162992 -0.00340945 -0.00155906 -0.00329528 -0.00153937 -0.00330315 -0.00159843 -0.00348031 -0.00154331 -0.00342126 -0.00156299 -0.00349606 -0.00144094 -0.00328346 -0.00150787 -0.00348425 -0.00173622 -0.00408268 -0.00109449 -0.00261024 -0.00175984 -0.00425984 -0.00123622 -0.00303543 -0.0014685 -0.00367717 -0.00141339 -0.00359055 -0.00140551 -0.00363386 -0.00132677 -0.00349606 -0.00134252 -0.00357087 -0.00142126 -0.00385827 -0.00120472 -0.00332283 -0.00142126 -0.00400394 -0.00127953 -0.00365748 -0.00111811 -0.00327165 -0.00136614 -0.00403543 -0.00134252 -0.00409055 -0.00102756 -0.00312598 -0.00133071 -0.00419291 -0.00116142 -0.00370472 -0.001 -0.00327165 -0.00131102 -0.00434646 -0.00113386 -0.00384646 -0.00105906 -0.00366142 -0.00137402 -0.0048937 -0.00073622 -0.00261811 -0.00140945 -0.00523228 -0.000755906 -0.00283465 -0.001 -0.00388189 -0.00107087 -0.00417323 -6.29921e-005 -0.000240157c-0.000610236,-0.0024252 -0.00120472,-0.0048622 -0.0017874,-0.00730315l-0.000122047 -0.0005c-0.000610236,-0.00254724 -0.00120866,-0.00510236 -0.00179921,-0.00767323l-3.93701e-005 -0.000200787c-0.000602362,-0.0026378 -0.00119291,-0.0052874 -0.00177559,-0.00794094l-1.9685e-005 -9.44882e-005c-0.000566929,-0.00262598 -0.00112598,-0.00525984 -0.00166929,-0.00791339l-8.26772e-005 -0.000401575c-0.000527559,-0.00254724 -0.00103937,-0.00509843 -0.00153937,-0.00766535l-7.08661e-005 -0.000350394 -0.000555118 -0.00292126 -0.00104724 -0.00557874 -0.000511811 -0.0028622 -0.000933071 -0.00522047 -0.000724409 -0.00430315 -0.000692913 -0.0041378 -0.000645669 -0.0041063 -0.000704724 -0.00452362 -0.000582677 -0.00395276 -0.000653543 -0.00455906 -0.000562992 -0.00408268 -0.000602362 -0.00447244 -0.00057874 -0.00461417 -0.000330709 -0.00266535c0.119559,-0.123768 0.210252,-0.166689 0.292732,-0.205724 0.088878,-0.042063 0.169559,-0.0802638 0.261445,-0.186264 -0.00327165,0.0445433 -0.0110669,0.0809331 -0.0179291,0.0990827 -0.00703937,0.0144764 -0.00909055,0.0314528 -0.00458268,0.0482165 0.00991732,0.0369409 0.0479173,0.0588465 0.0848622,0.0489252l-2.3622e-005 -8.66142e-005c0.180957,-0.0486811 0.244894,-0.156909 0.307213,-0.313531 0.0348937,-0.087689 0.0683504,-0.180126 0.0950512,-0.270685 0.00358661,-0.0121575 0.0162835,-0.0191457 0.0284646,-0.0155669 0.0121339,0.00356693 0.019122,0.0162638 0.0155354,0.0284094 -0.0270709,0.0918071 -0.0612283,0.185661 -0.0966024,0.274567 -0.00729921,0.0183425 -0.0147795,0.0366654 -0.0225433,0.0548622zm0.747323 1.1953c0.00183858,-0.0824291 -0.00475197,-0.407098 -0.00954331,-0.643307 -0.0026378,-0.129874 -0.00472047,-0.232685 -0.00459055,-0.250039 0.00304724,-0.394165 -0.12048,-0.648311 -0.315689,-0.806909 -0.190606,-0.154858 -0.445087,-0.212882 -0.714008,-0.219244 -0.00390945,-0.000425197 -0.00788976,-0.000602362 -0.0119252,-0.000527559l3.93701e-006 0.00034252c-0.146756,0.00288976 -0.289358,0.0210079 -0.419827,0.0616457 0.00834252,0.0181929 0.0156417,0.0368543 0.0218504,0.0558937 0.0805433,0.0105079 0.142776,0.0794252 0.142776,0.162823 0,0.0833937 -0.0622323,0.152311 -0.142776,0.162819 -0.00841339,0.0258031 -0.0188268,0.0509134 -0.0311378,0.0751063 0.0495354,0.064378 0.044815,0.157122 -0.0141614,0.216094 -0.0589724,0.0589685 -0.151717,0.063689 -0.216094,0.0141496 -0.024189,0.012311 -0.0492992,0.0227244 -0.0751024,0.0311378 -0.0105039,0.0805472 -0.0794173,0.142783 -0.162819,0.142783 -0.054878,0 -0.103476,-0.0269488 -0.133299,-0.0683268 -0.00533071,0.0542008 -0.00787008,0.111539 -0.00740551,0.172213 0.000271654,0.0344685 0.00893307,0.323827 0.0170236,0.565646 0.00405906,0.121276 0.00801575,0.231496 0.0107717,0.293811 0.0579094,-0.0404213 0.119287,-0.0759646 0.183795,-0.105819l-0.00132677 -0.0036063 0.0865669 -0.0319685c0.0760236,-0.0280787 0.160728,-0.00206299 0.210622,0.0609488 0.0121496,0.0153465 0.0261575,0.0294173 0.0400472,0.0431811 0.0158504,0.0157126 0.0323858,0.0307323 0.0496339,0.0449016 0.0637795,0.052437 0.13737,0.0941732 0.215091,0.122102 0.0726811,0.0261102 0.150319,0.0405827 0.227673,0.0387283 0.108646,-0.00260236 0.216614,-0.0235591 0.315535,-0.0694252 0.0844882,-0.0391732 0.158098,-0.0949134 0.218094,-0.165594l0.0109173 -0.0135945c0.0521654,-0.0649291 0.140933,-0.0857323 0.217268,-0.0538858 0.104768,0.0437087 0.202728,0.100272 0.292035,0.167921z"/>
   </g>
   <path id="_283579536" class="fil1" d="M2.84875 1.6721c0.0590984,0.011626 0.114031,0.034874 0.162307,0.0672756l0.0272874 -0.0272913c0.0339252,-0.0339252 0.0889409,-0.0339252 0.122866,0 0.0339291,0.0339291 0.0339291,0.0889409 0,0.122866l-0.0272874 0.0272874c0.0323976,0.0482795 0.0556457,0.103201 0.0672756,0.162299l0.0385433 0c0.0479882,0 0.0868898,0.0389055 0.0868898,0.0868937 0,0.0479843 -0.0389016,0.0868898 -0.0868898,0.0868898l-0.0385433 0c-0.0116299,0.0590945 -0.034878,0.114024 -0.0672795,0.162303l0.0272874 0.0272874c0.0339291,0.0339291 0.0339291,0.0889409 0,0.122866 -0.0339252,0.0339252 -0.088937,0.0339252 -0.122862,0l-0.0272913 -0.0272913c-0.0482795,0.0323976 -0.103209,0.0556496 -0.162303,0.0672717l0 0.0385551c0,0.0479882 -0.0389016,0.0868898 -0.0868898,0.0868898 -0.0479882,0 -0.0868898,-0.0389016 -0.0868898,-0.0868898l0 -0.0385551c-0.0590945,-0.011626 -0.11402,-0.034874 -0.162295,-0.0672717l-0.0272874 0.0272913c-0.0339291,0.0339252 -0.0889409,0.0339252 -0.12287,0 -0.0339252,-0.0339252 -0.0339252,-0.088937 0,-0.122866l0.0272953 -0.0272953c-0.0323937,-0.0482756 -0.0556496,-0.103201 -0.0672756,-0.162295l-0.0385551 0c-0.0479882,0 -0.0868898,-0.0389055 -0.0868898,-0.0868898 0,-0.0479882 0.0389016,-0.0868937 0.0868898,-0.0868937l0.0385551 0c0.011626,-0.0590906 0.034878,-0.11402 0.0672717,-0.162295l-0.0272913 -0.0272913c-0.0339252,-0.0339252 -0.0339252,-0.088937 0,-0.122866 0.0339252,-0.0339252 0.088937,-0.0339252 0.122862,0l0.0272913 0.0272913c0.0482756,-0.0323976 0.103205,-0.0556496 0.162299,-0.0672756l0 -0.0385512c0,-0.0479843 0.0389016,-0.0868858 0.0868898,-0.0868858 0.0479882,0 0.0868898,0.0389016 0.0868898,0.0868858l0 0.0385512zm-0.0868858 0.343949c0.0526811,0 0.0953819,0.0427047 0.0953819,0.0953858 0,0.0526772 -0.0427008,0.0953819 -0.0953819,0.0953819 -0.0526772,0 -0.0953858,-0.0427047 -0.0953858,-0.0953819 0,-0.0526811 0.0427087,-0.0953858 0.0953858,-0.0953858zm0.175906 -0.0805236c-0.0450039,-0.0450039 -0.107201,-0.0728504 -0.175906,-0.0728504 -0.0687008,0 -0.130898,0.0278465 -0.175902,0.0728504 -0.0450039,0.0450039 -0.0728504,0.107201 -0.0728504,0.175906 0,0.0686969 0.0278465,0.130898 0.0728504,0.175906 0.0450039,0.0450039 0.107201,0.0728465 0.175902,0.0728465 0.0687047,0 0.130902,-0.0278425 0.175906,-0.0728465 0.0450039,-0.0450079 0.0728504,-0.107209 0.0728504,-0.175906 0,-0.0687047 -0.0278465,-0.130902 -0.0728504,-0.175906z"/>
   <circle id="_283580280" class="fil2" cx="1.9331" cy="1.92155" r="0.0858152"/>
   <path id="_283580256" class="fil1" d="M2.00406 1.70038c0.0297559,0.00951575 0.0566693,0.0247677 0.0796102,0.0443386l0.015689 -0.0124331c0.0195,-0.0154567 0.0478425,-0.0121772 0.0632992,0.00732677 0.0154567,0.0195039 0.0121772,0.0478465 -0.00732677,0.0633031l-0.015685 0.0124331c0.013811,0.0268031 0.0225157,0.0564882 0.0249803,0.0876299l0.0198622 0.00229528c0.0247244,0.0028622 0.0424488,0.0252244 0.0395866,0.0499488 -0.0028622,0.0247244 -0.0252244,0.0424488 -0.0499488,0.0395866l-0.0198583 -0.00229921c-0.00951575,0.0297559 -0.0247677,0.0566693 -0.0443386,0.0796102l0.0124291 0.015685c0.0154567,0.0195039 0.0121772,0.0478465 -0.00732677,0.0633031 -0.0195,0.0154567 -0.0478425,0.0121772 -0.0632992,-0.00732677l-0.0124331 -0.015685c-0.0268031,0.013811 -0.0564921,0.0225157 -0.0876339,0.0249843l-0.00229528 0.0198583c-0.0028622,0.0247244 -0.0252244,0.0424488 -0.0499488,0.0395866 -0.0247244,-0.0028622 -0.0424488,-0.0252244 -0.0395866,-0.0499488l0.00229921 -0.0198622c-0.0297559,-0.00951181 -0.0566654,-0.0247677 -0.0796063,-0.0443346l-0.015685 0.0124291c-0.0195039,0.0154567 -0.0478465,0.0121772 -0.0633031,-0.00732677 -0.0154567,-0.0195 -0.0121772,-0.0478425 0.00732677,-0.0632992l0.015685 -0.0124331c-0.013811,-0.0268031 -0.0225157,-0.0564921 -0.0249843,-0.0876339l-0.0198622 -0.00229528c-0.0247205,-0.0028622 -0.0424449,-0.0252244 -0.0395827,-0.0499488 0.0028622,-0.0247244 0.0252244,-0.0424488 0.0499449,-0.0395866l0.0198661 0.00229921c0.00951181,-0.0297559 0.0247677,-0.0566654 0.0443346,-0.0796063l-0.0124331 -0.015689c-0.0154567,-0.0195 -0.0121772,-0.0478425 0.00732677,-0.0632992 0.0195039,-0.0154567 0.0478465,-0.0121772 0.0633031,0.00732283l0.0124331 0.015689c0.0268031,-0.013811 0.0564882,-0.0225157 0.0876299,-0.0249803l0.00229528 -0.0198661c0.0028622,-0.0247205 0.0252283,-0.0424449 0.0499488,-0.0395827 0.0247244,0.00285827 0.0424488,0.0252244 0.0395866,0.0499449l-0.00229921 0.0198622zm0.0301575 0.141028c-0.0205039,-0.0258701 -0.0508898,-0.0439252 -0.0862874,-0.0480197 -0.0353937,-0.00409843 -0.0690984,0.00654331 -0.0949724,0.0270433 -0.0258661,0.0205039 -0.0439252,0.0508898 -0.0480197,0.0862835 -0.00409843,0.0353976 0.00654331,0.0691024 0.0270433,0.0949724 0.0205039,0.0258701 0.0508898,0.0439252 0.0862874,0.0480236 0.0353937,0.00409449 0.0690984,-0.00654331 0.0949685,-0.0270433 0.0258701,-0.0205039 0.0439252,-0.0508898 0.0480236,-0.0862874 0.00409449,-0.0353937 -0.00654331,-0.0690984 -0.0270433,-0.0949724z"/>
  </g>
 </g>
</svg>
