<?xml version="1.0" encoding="UTF-8"?>
<!DOCTYPE svg PUBLIC "-//W3C//DTD SVG 1.1//EN" "http://www.w3.org/Graphics/SVG/1.1/DTD/svg11.dtd">
<!-- Creator: CorelDRAW -->
<svg xmlns="http://www.w3.org/2000/svg" xml:space="preserve" width="6.82666in" height="6.82666in" style="shape-rendering:geometricPrecision; text-rendering:geometricPrecision; image-rendering:optimizeQuality; fill-rule:evenodd; clip-rule:evenodd"
viewBox="0 0 6.82666 6.82666"
 xmlns:xlink="http://www.w3.org/1999/xlink">
 <defs>
  <style type="text/css">
   <![CDATA[
    .fil0 {fill:#9E9E9E}
    .fil2 {fill:#FFFFFE}
    .fil1 {fill:#FFFFFE;fill-rule:nonzero}
   ]]>
  </style>
 </defs>
 <g id="Layer_x0020_1">
  <metadata id="CorelCorpID_0Corel-Layer"/>
  <circle class="fil0" cx="3.41333" cy="3.41333" r="3.41333"/>
  <g id="_283581312">
   <g>
    <path id="_283582176" class="fil1" d="M4.70313 2.68793c0.123311,0.0537008 0.229256,0.14848 0.305043,0.269602 0.076626,0.122461 0.122492,0.272016 0.124146,0.433055l-0.794732 0c0.00620079,-0.0236693 0.0126811,-0.0472598 0.0194055,-0.070748 0.0210669,-0.0736024 0.0449409,-0.150406 0.0750394,-0.220823 0.0211969,-0.0495866 0.0479528,-0.0973307 0.0766102,-0.142957 0.0322362,-0.051311 0.0675197,-0.100744 0.103913,-0.149169 0.0289724,-0.0385472 0.0589567,-0.0762835 0.0879764,-0.114756 0.00101969,-0.00134252 0.00187795,-0.00275197 0.00259843,-0.00420472zm-0.450614 0.702657c-0.00725591,-0.028189 -0.0149213,-0.0562717 -0.0229213,-0.0842165 -0.0217323,-0.0758858 -0.0464134,-0.155083 -0.0774409,-0.227689 -0.0213189,-0.0498937 -0.0482402,-0.0980157 -0.076937,-0.144008 -0.0327795,-0.0525276 -0.0686299,-0.103201 -0.10561,-0.15285 -0.0275394,-0.0369764 -0.0559291,-0.0732598 -0.0838071,-0.109957 0.0154567,0.000834646 0.0299724,0.00852756 0.0392992,0.021126 0.00872441,0.0103071 0.0176929,0.0200472 0.0269016,0.0291732 0.0102441,0.0101575 0.0208346,0.019748 0.0317598,0.0287323 0.0404567,0.0332559 0.0875039,0.0600984 0.137547,0.0780787 0.0477835,0.0171654 0.0982126,0.0262323 0.148091,0.0250354 0.0743189,-0.00177953 0.141366,-0.0171535 0.199736,-0.0442205 0.0589055,-0.027311 0.109008,-0.0667362 0.148791,-0.116256l-0.000106299 -8.66142e-005c0.00792913,-0.00987008 0.0187047,-0.0161063 0.0302047,-0.0184843 -0.0271181,0.0356457 -0.054685,0.0709252 -0.0814488,0.106858 -0.0369764,0.0496496 -0.0728268,0.100323 -0.105606,0.15285 -0.0287047,0.0459921 -0.0556181,0.0941142 -0.0769409,0.144008 -0.0310276,0.0726063 -0.0557087,0.151803 -0.077437,0.227689 -0.008,0.0279449 -0.0156693,0.0560276 -0.0229252,0.0842165l-0.0311496 0zm-0.84865 0c0.00166535,-0.16224 0.0482795,-0.312906 0.126055,-0.435984 0.0756378,-0.119701 0.180835,-0.213394 0.30313,-0.266677 0.000720472,0.00145669 0.00158268,0.00286614 0.00259449,0.00420866 0.0290276,0.0384724 0.0590079,0.0762087 0.0879803,0.114756 0.0363937,0.0484252 0.0716811,0.0978583 0.103913,0.149169 0.0286614,0.045626 0.0554173,0.0933701 0.0766102,0.142957 0.0300945,0.0704173 0.0539724,0.14722 0.0750394,0.220823 0.00672441,0.0234882 0.0132087,0.0470787 0.0194094,0.070748l-0.794732 0z"/>
    <path id="_283582440" class="fil1" d="M4.442 2.04741l0.00226772 0.000559055 0.000291339 7.48031e-005 0.00170472 0.000433071 0.000291339 7.87402e-005 0.000909449 0.00023622 0.0014252 0.00038189 0.000826772 0.000220472 0.00173622 0.000476378 0.000228346 6.29921e-005 0.00179134 0.000503937 0.000515748 0.000145669 0.00023622 7.08661e-005 0.00198031 0.000574803 0.000133858 4.33071e-005 0.00231496 0.000692913 0.000145669 4.72441e-005 0.00187795 0.00057874 0.000354331 0.000106299 0.00111024 0.000350394 0.000590551 0.000192913 0.000984252 0.000311024 0.00143701 0.000472441 0.000547244 0.000177165 0.000389764 0.000129921 0.00194882 0.000649606 1.9685e-005 3.93701e-006 0.00196457 0.000677165 0.00034252 0.00011811 0.00161417 0.000566929 0.000708661 0.000248031 0.000448819 0.000165354 0.00135827 0.000488189 0.00110236 0.000401575 0.000720472 0.000259843 0.0014252 0.000535433 0.000102362 3.54331e-005 0.00177559 0.000669291 0.000173228 6.69291e-005 0.00194488 0.000744094 0.000188976 7.87402e-005 5.51181e-005 1.9685e-005 0.00211024 0.000830709 0.000125984 5.11811e-005 0.00138976 0.000551181 0.000897638 0.000370079 0.000437008 0.000177165 0.00118898 0.000488189 0.00114961 0.000472441 0.000177165 7.48031e-005 0.0016063 0.000673228 3.14961e-005 1.1811e-005 0.00200394 0.000862205 0.000192913 7.87402e-005 3.54331e-005 1.9685e-005 0.00187008 0.000814961 0.000389764 0.000165354 0.00151181 0.000673228 0.00073622 0.000326772 0.00042126 0.000192913 0.00140945 0.000637795 0.000413386 0.000181102 0.000807087 0.000374016 0.000559055 0.000259843 0.00120472 0.000559055 0.000122047 5.51181e-005 0.00176378 0.000830709 0.000114173 5.51181e-005 0.00187008 0.000893701 0.00142913 0.000688976 0.000590551 0.000291339 0.00118504 0.000582677 0.000838583 0.000413386 0.00125591 0.000629921 0.000275591 0.000141732 0.00125591 0.000625984 0.000185039 9.84252e-005 0.00149213 0.00076378 0.0005 0.000259843 0.000251969 0.000129921 0.00183071 0.000948819 8.26772e-005 5.11811e-005 0.00174016 0.000917323 0.000417323 0.000224409 0.000366142 0.000192913 0.00172835 0.000937008 0.000125984 6.69291e-005 0.00167717 0.000917323 0.000385827 0.000208661 0.000712598 0.000401575 0.00141339 0.000787402 0.00038189 0.000212598 0.00172441 0.000976378 5.11811e-005 3.54331e-005 0.00177953 0.00101181 0.000267717 0.000165354 0.000515748 0.000299213 0.00142913 0.000830709 0.000141732 8.66142e-005 0.00116142 0.000681102 0.000917323 0.000547244 0.000826772 0.0005 0.00123622 0.000744094 0.0005 0.000307087 0.00154724 0.000948819 0.000185039 0.000106299 0.00171654 0.0010748 0.000133858 7.87402e-005 0.0015748 0.000996063 0.00011811 7.08661e-005 0.00100394 0.000645669 0.000574803 0.000366142 0.000755906 0.000488189 0.000338583 0.000224409 0.00120079 0.000771654 0.000452756 0.000299213 0.00061811 0.000409449 0.0013622 0.000897638 0.000307087 0.000204724 0.00165354 0.00111417c0.0397244,0.0268386 0.0685079,0.0579055 0.0743976,0.0837402l-4.33071e-005 7.87402e-006 0.000216535 0.00127559 -5.90551e-005 7.87402e-006 3.93701e-006 1.9685e-005 3.93701e-006 1.9685e-005 3.93701e-006 1.5748e-005 3.93701e-006 1.5748e-005 0 2.3622e-005 3.93701e-006 1.5748e-005 3.93701e-006 1.9685e-005 7.87402e-006 1.5748e-005c5.51181e-005,0.000295276 0.000125984,0.000586614 0.000188976,0.000877953l0 1.9685e-005 7.87402e-006 1.9685e-005 3.93701e-006 1.9685e-005 3.93701e-006 1.5748e-005 3.93701e-006 1.5748e-005 3.93701e-006 1.5748e-005 0 0 3.93701e-006 1.9685e-005 7.87402e-006 2.3622e-005c0.00285039,0.0172795 0.0048189,0.0342677 0.00573622,0.0508858l3.93701e-005 0.000787402 4.33071e-005 0.000791339 3.93701e-005 0.000791339 3.93701e-005 0.000787402 3.54331e-005 0.000791339 3.14961e-005 0.000795276 3.54331e-005 0.000787402 3.14961e-005 0.000791339 3.14961e-005 0.000795276 2.3622e-005 0.000791339 2.75591e-005 0.000791339 2.75591e-005 0.000795276 2.3622e-005 0.000787402 0 3.93701e-006 1.9685e-005 0.000791339 0 0 1.9685e-005 0.000791339 1.9685e-005 0.000787402 1.1811e-005 0.000799213 0 0 1.9685e-005 0.000791339 1.1811e-005 0.000795276 1.1811e-005 0.000791339 0 0 7.87402e-006 0.000791339 3.93701e-006 0 3.93701e-006 0.000795276 0 0 3.93701e-006 0.000795276 3.93701e-006 0 0 0.000795276 0 0.000795276 0 0.00158661 0 0.000795276 0 0 0 0.000795276 -3.93701e-006 0 -3.93701e-006 0.000791339 0 0 -3.93701e-006 0.000799213 -3.93701e-006 0 -1.9685e-005 0.00159055 -3.93701e-006 0 -2.75591e-005 0.00159449 0 0c-0.000346457,0.0172992 -0.00196457,0.0337835 -0.00446457,0.0509055 -0.0146102,0.0997677 -0.0531693,0.172854 -0.106012,0.223835 -0.0670748,0.0647283 -0.158244,0.0951378 -0.253169,0.10002l0 -5.11811e-005c-0.0792402,0 -0.174854,-0.0327165 -0.248409,-0.103689 -0.000885827,-0.000854331 -0.00177165,-0.0017126 -0.00265354,-0.00258268l-9.84252e-005 -0.000102362 -0.0025315 -0.00251575 -4.33071e-005 -4.33071e-005 -0.00118504 -0.00120079 -0.00160236 -0.0016378 -0.000673228 -0.000700787 -0.00190551 -0.00197638 -0.00106299 -0.00112598 -0.00153543 -0.00163386 -0.00136614 -0.00148031 -0.00118898 -0.0012874 -0.00124409 -0.00137008 -0.00138583 -0.00153937 -0.00115748 -0.00130315 -0.00137795 -0.00156299 -0.00124409 -0.00142913 -0.00124803 -0.00145669 -0.00124803 -0.00146063 -0.0012874 -0.0015315 -0.00115354 -0.00138583 -0.00130709 -0.00159055 -0.00127165 -0.00155906 -0.0011378 -0.00140551 -0.00120079 -0.00150787 -0.00132677 -0.0016811 -0.00118898 -0.00152756 -0.000980315 -0.00126378 -0.00145669 -0.00191732 -0.00100787 -0.00133465 -0.00132677 -0.00177953 -0.0010315 -0.00140157 -0.00118504 -0.00162598 -0.00136614 -0.00189764 -0.000917323 -0.0012874 -0.00120079 -0.00171654 -0.00116929 -0.00166929 -0.00104724 -0.0015315 -0.00122835 -0.00179921 -0.00105512 -0.00158268 -0.00108268 -0.00162598 -0.00124409 -0.00189764 -0.000972441 -0.0015 -0.00107874 -0.00169685 -0.00114567 -0.00180315 -0.00076378 -0.00122441 -0.00136614 -0.00220866 -8.26772e-005 -0.000129921c-0.000625984,-0.0010315 -0.00125984,-0.00207087 -0.00187402,-0.00311024l-5.11811e-005 -7.48031e-005 -0.00150787 -0.00255512 -0.000562992 -0.000948819 -9.84252e-005 -0.000173228c-0.000669291,-0.00114173 -0.00133071,-0.0022874 -0.00198031,-0.00344094l-2.75591e-005 -5.11811e-005c-0.000665354,-0.00116142 -0.0013189,-0.00233858 -0.00197638,-0.00351575l-4.33071e-005 -9.05512e-005c-0.000637795,-0.00114567 -0.00127165,-0.00230315 -0.00189764,-0.00346457l-0.000122047 -0.000224409 -0.000610236 -0.00116142 -0.00129134 -0.00242126 -0.000740157 -0.00143307 -0.00114567 -0.00220866 -0.00105512 -0.00209055 -0.000795276 -0.00157874 -0.000980315 -0.00200787 -0.000897638 -0.00183858 -0.000925197 -0.00193307 -0.000885827 -0.00187008 -0.000874016 -0.00187402 -0.000905512 -0.00197638 -0.000874016 -0.00193701 -0.000889764 -0.00198425 -0.000814961 -0.00185827 -0.000854331 -0.00198031 -0.000988189 -0.00231496 -0.00061811 -0.00147638 -0.000996063 -0.00242126 -0.000704724 -0.00172047 -0.000830709 -0.00208268 -0.00080315 -0.00203543 -0.000799213 -0.00206693 -0.000751969 -0.00198031 -0.000759843 -0.00202362 -0.000807087 -0.00219291 -0.000681102 -0.00188189 -0.00080315 -0.00226772 -0.000728346 -0.0020748 -0.000633858 -0.00185827 -0.000775591 -0.0022874 -0.00076378 -0.0023189 -0.00057874 -0.00177165 -0.000751969 -0.00238189 -0.000665354 -0.00209843 -0.000562992 -0.00185433 -0.000748031 -0.0024685 -0.000641732 -0.0021811 -0.000598425 -0.00207087 -0.000779528 -0.00277953 -0.000417323 -0.00148819 -0.000799213 -0.00296457 -0.000429134 -0.0016063 -0.000570866 -0.00220079 -0.000606299 -0.00237008 -3.14961e-005 -0.000133858c-0.000346457,-0.00137795 -0.000688976,-0.00275984 -0.00101969,-0.00414567l-6.29921e-005 -0.000283465c-0.000346457,-0.00144488 -0.000685039,-0.00288976 -0.00102362,-0.00435039l-1.9685e-005 -0.00011811c-0.00034252,-0.00149213 -0.000677165,-0.00299213 -0.00100787,-0.00449606l-1.1811e-005 -5.51181e-005c-0.000318898,-0.00148819 -0.000641732,-0.00298425 -0.000948819,-0.00448819l-4.72441e-005 -0.000228346c-0.000295276,-0.00144488 -0.000586614,-0.00288976 -0.000870079,-0.00434646l-4.33071e-005 -0.000200787 -0.000311024 -0.00165354 -0.000598425 -0.00316929 -0.000287402 -0.00162205 -0.000527559 -0.00296063 -0.000409449 -0.00243701 -0.000393701 -0.00235039 -0.000370079 -0.00232677 -0.000397638 -0.00256299 -0.000330709 -0.00224409 -0.000374016 -0.00258661 -0.000318898 -0.00231102 -0.000334646 -0.00254331 -0.000334646 -0.00261417 -0.000185039 -0.00151575c0.0678071,-0.0701929 0.119248,-0.0945394 0.166028,-0.116677 0.0504016,-0.0238543 0.0961614,-0.0455197 0.148276,-0.105638 -0.00185433,0.0252638 -0.00627953,0.0459016 -0.0101654,0.0561969 -0.00399213,0.00820866 -0.00516142,0.0178346 -0.00260236,0.0273465 0.00562598,0.0209528 0.0271772,0.033374 0.0481299,0.0277441l-1.5748e-005 -4.72441e-005c0.102634,-0.0276063 0.138898,-0.0889921 0.17424,-0.177819 0.0197913,-0.0497323 0.0387598,-0.102161 0.0539094,-0.15352 0.0020315,-0.0068937 0.00923228,-0.0108622 0.0161457,-0.00883071 0.00687402,0.00202362 0.0108425,0.00922441 0.00881102,0.0161102 -0.0153543,0.0520709 -0.0347323,0.105299 -0.0547913,0.155724 -0.0041378,0.0104016 -0.00838189,0.0207913 -0.0127835,0.0311142zm0.423843 0.677921c0.00104331,-0.046752 -0.00269685,-0.230886 -0.00540945,-0.364858 -0.00149606,-0.0736575 -0.0026811,-0.131965 -0.0026063,-0.141807 0.00172835,-0.223555 -0.0683268,-0.367689 -0.179043,-0.457642 -0.108102,-0.0878307 -0.252433,-0.12074 -0.404953,-0.124346 -0.00222047,-0.000240157 -0.00447638,-0.00034252 -0.00676378,-0.000299213l0 0.000192913c-0.154252,0.00303543 -0.300433,0.0357126 -0.40965,0.124449 -0.110713,0.0899567 -0.180776,0.234091 -0.179051,0.457646 0.000153543,0.0195472 0.00507087,0.183657 0.00965354,0.320803 0.00230315,0.0687874 0.00454724,0.131299 0.00611024,0.166642 0.0328425,-0.0229291 0.0676575,-0.0430866 0.104244,-0.0600197l-0.000755906 -0.00203937 0.0490984 -0.0181339c0.0431181,-0.0159252 0.0911614,-0.00116929 0.119453,0.0345669 0.0068937,0.00870472 0.0148386,0.016685 0.0227126,0.0244921 0.00899213,0.00890945 0.018374,0.0174252 0.0281496,0.0254646 0.0361732,0.0297362 0.0779173,0.0534134 0.121992,0.069248 0.0412244,0.0148071 0.0852559,0.0230157 0.129126,0.0219685 0.0616181,-0.00147638 0.122854,-0.0133583 0.178957,-0.039374 0.0479173,-0.0222165 0.0896654,-0.0538307 0.123693,-0.0939173l0.00618898 -0.0077126c0.0295906,-0.0368268 0.0799331,-0.048626 0.123228,-0.0305591 0.0594173,0.0247874 0.114972,0.0568661 0.165626,0.0952362z"/>
   </g>
   <polygon id="_283581288" class="fil1" points="3.2552,3.48478 5.28,3.48478 5.28,3.63535 3.2552,3.63535 "/>
   <rect id="_283581072" class="fil2" x="5.0032" y="3.61274" width="0.154392" height="0.941085"/>
   <path id="_283581672" class="fil1" d="M2.24085 3.9107c-0.0794606,-0.0766654 -0.139551,-0.185579 -0.153551,-0.330083 -0.0010315,-0.0107087 -0.00184646,-0.0292559 -0.00244882,-0.0493071 -0.000814961,-0.0267795 -0.00130709,-0.0592756 -0.00142126,-0.0749134 -0.00144094,-0.186429 0.0587402,-0.308055 0.153819,-0.385299 0.0925433,-0.075189 0.213752,-0.102823 0.340673,-0.105319l-7.87402e-006 -0.000334646c0.00391732,-7.08661e-005 0.00776772,0.000106299 0.0115591,0.000523622 0.12398,0.00350787 0.242024,0.0315433 0.332587,0.10513 0.0950748,0.0772441 0.155264,0.19887 0.153819,0.385299 -0.000114173,0.0156378 -0.000602362,0.0481339 -0.00141732,0.0749134 -0.000606299,0.0200512 -0.00142126,0.0385984 -0.00245276,0.0493071 -0.0143937,0.148622 -0.0697795,0.257626 -0.148752,0.333835 -0.225504,0.0377402 -0.524276,0.0426614 -0.682406,-0.00375197z"/>
   <path id="_283581240" class="fil1" d="M2.08043 3.82632c-0.097311,0.0585866 -0.181165,0.144252 -0.244488,0.248528 -0.0612835,0.100906 -0.103429,0.219299 -0.119831,0.347205 0.013874,-0.0039252 0.0284528,-0.0060315 0.0434921,-0.0060315l1.64009 0c0.0150472,0 0.0296339,0.00211024 0.0435079,0.00603543 -0.0162165,-0.126685 -0.0576339,-0.243976 -0.117854,-0.344114 -0.0628504,-0.1045 -0.146232,-0.190528 -0.243102,-0.249642 -0.0265236,0.0518898 -0.0611417,0.0998071 -0.104992,0.142122l-0.0173622 0.0167559 -0.0238071 0.00398425c-0.202161,0.0338346 -0.522752,0.0512244 -0.717142,-0.00583071l-0.0183425 -0.00538189 -0.0137598 -0.0132756c-0.0435079,-0.0419803 -0.0788819,-0.089189 -0.106413,-0.140354z"/>
   <path id="_283581624" class="fil2" d="M1.65826 4.49047l1.84277 0c0.0613858,0 0.111606,0.0485945 0.111606,0.107976l0 0.59185 -2.06598 0 0 -0.59185c0,-0.0593858 0.0502205,-0.107976 0.111602,-0.107976z"/>
  </g>
 </g>
</svg>
