<?xml version="1.0" encoding="UTF-8"?>
<!DOCTYPE svg PUBLIC "-//W3C//DTD SVG 1.1//EN" "http://www.w3.org/Graphics/SVG/1.1/DTD/svg11.dtd">
<!-- Creator: CorelDRAW -->
<svg xmlns="http://www.w3.org/2000/svg" xml:space="preserve" width="6.82666in" height="6.82666in" style="shape-rendering:geometricPrecision; text-rendering:geometricPrecision; image-rendering:optimizeQuality; fill-rule:evenodd; clip-rule:evenodd"
viewBox="0 0 6.82666 6.82666"
 xmlns:xlink="http://www.w3.org/1999/xlink">
 <defs>
  <style type="text/css">
   <![CDATA[
    .fil0 {fill:#FF5722}
    .fil2 {fill:#FFFFFE}
    .fil1 {fill:#FFFFFE;fill-rule:nonzero}
   ]]>
  </style>
 </defs>
 <g id="Layer_x0020_1">
  <metadata id="CorelCorpID_0Corel-Layer"/>
  <circle class="fil0" cx="3.41333" cy="3.41333" r="3.41333"/>
  <g id="_283583184">
   <polygon id="_283583808" class="fil1" points="3.53391,2.69491 3.83533,2.81601 3.8747,2.83183 3.85889,2.8712 3.68747,3.29789 3.67165,3.33727 3.63227,3.32145 3.53576,3.28534 3.3073,3.14516 3.47872,2.71847 3.49454,2.6791 "/>
   <g>
    <path id="_283583544" class="fil2" d="M2.63093 2.41697c-0.00148819,-0.000704724 -0.00298425,-0.0013937 -0.00448819,-0.00207087 -0.00540945,-0.00242126 -0.0109055,-0.00466142 -0.0164488,-0.00675197 -0.0168465,-0.00635039 -0.0344764,-0.0114449 -0.0522874,-0.0141772 -0.225846,-0.0346772 -0.457898,0.128035 -0.616941,0.271031 -0.135815,0.122114 -0.25774,0.263173 -0.366709,0.409531 -0.045689,0.0613622 -0.0329094,0.148827 0.0284882,0.1945 0.0254291,0.0189173 0.0562717,0.0285787 0.0879528,0.027437 0.0422835,-0.00152362 0.0812756,-0.0219803 0.106543,-0.0559252 0.0615591,-0.0826929 0.126331,-0.163295 0.19628,-0.239075l0.14863 -0.16102 -0.0382598 0.215764c-0.0147323,0.0830866 -0.0282598,0.166567 -0.0367953,0.250547 -0.0148386,0.146063 -0.0104567,0.292476 -0.00135039,0.438732 0.000799213,0.0128661 0.00159055,0.0257323 0.00237795,0.0386024 0.00438583,0.0719331 0.00859843,0.143886 0.0119055,0.215882 0.00209055,0.0455945 0.0046811,0.0912205 0.00388583,0.136882l-0.000177165 0.0102165 -0.207185 0.598787c-0.0318228,0.0919606 0.017374,0.193291 0.109394,0.225035 0.0206339,0.00711811 0.0424016,0.0104291 0.0642205,0.00964173 0.0730118,-0.00263386 0.136969,-0.0499449 0.16085,-0.119004l0.215906 -0.624272c0.00584646,-0.0169055 0.00911024,-0.0346693 0.0096378,-0.0525512l0.00940551 -0.31976 0.222059 0.324335 0.196976 0.630457c0.0238228,0.0762362 0.0954016,0.127953 0.175437,0.125067 0.0153976,-0.000555118 0.0306732,-0.00314961 0.0453976,-0.00768504 0.0924764,-0.0284882 0.14648,-0.128055 0.11752,-0.220839l-0.204866 -0.656272c-0.00532677,-0.017063 -0.0130591,-0.0334055 -0.0231654,-0.0481654l-0.301543 -0.440425 0.0100709 -0.0302441c0.00344882,-0.0103543 0.00619685,-0.0209173 0.00809843,-0.0316654l0.0966378 -0.546425 0.0873543 0.0893937c0.0359449,0.0367874 0.0732677,0.072185 0.112213,0.105787 0.0969016,0.0836102 0.202528,0.156697 0.311524,0.223559 0.0769961,0.0472362 0.193665,-0.00654331 0.209008,-0.0951929 0.00964173,-0.0556969 -0.0155512,-0.112154 -0.0637874,-0.141772 -0.0960315,-0.0589685 -0.189185,-0.12313 -0.274591,-0.196827 -0.0635827,-0.0548622 -0.121602,-0.114984 -0.176898,-0.178106 -0.0188386,-0.0215079 -0.0374016,-0.043248 -0.0559685,-0.0649882 -0.0608543,-0.0712598 -0.122591,-0.141803 -0.188516,-0.208461 -0.00662205,-0.00669291 -0.014878,-0.0126142 -0.022378,-0.0182756 -0.0295,-0.0222717 -0.0602992,-0.0448031 -0.0939173,-0.0605197 -0.0005,-0.00023622 -0.001,-0.000476378 -0.0015,-0.000720472z"/>
    <path id="_283583832" class="fil2" d="M2.91399 2.11853l-0.00042126 -0.0117244c-0.00259843,-0.0719528 -0.0331142,-0.139264 -0.0858504,-0.188327 -0.0527441,-0.0490709 -0.12202,-0.0748976 -0.194028,-0.0722992 -0.0720118,0.00259843 -0.139244,0.0333425 -0.188319,0.0860906 -0.0490748,0.0527441 -0.0748976,0.122028 -0.0722992,0.194035 0.00259843,0.0720118 0.0333425,0.139252 0.0860906,0.188323 0.0527362,0.0490669 0.122079,0.0746378 0.194031,0.0720433l0.0117244 -0.00042126c0.0675591,-0.00533858 0.130205,-0.0355472 0.176602,-0.0854252 0.0464055,-0.049874 0.0720157,-0.114528 0.0724685,-0.182295z"/>
   </g>
   <path id="_283582632" class="fil1" d="M4.57535 3.15241l-0.00015748 0 -0.000255906 -3.93701e-006c-0.0729843,-0.000110236 -0.160539,-0.0298898 -0.227339,-0.0943465 -0.0533346,-0.0514685 -0.0936614,-0.124449 -0.103024,-0.22113 -0.00069685,-0.00718898 -0.00123622,-0.0194213 -0.00163386,-0.0325906 -0.000519685,-0.0170591 -0.000830709,-0.0381417 -0.000909449,-0.0483583 -0.00096063,-0.124732 0.039815,-0.206528 0.104232,-0.258866 0.0623504,-0.0506575 0.143252,-0.0692638 0.227669,-0.0709252l-3.93701e-006 -0.000267717c0.00322835,-6.29921e-005 0.00640157,9.05512e-005 0.00952362,0.000440945 0.0820039,0.00249606 0.160291,0.021437 0.220984,0.070752 0.0644173,0.0523386 0.105197,0.134134 0.104232,0.258866 -7.48031e-005,0.0102165 -0.000389764,0.0312992 -0.000905512,0.0483583 -0.000397638,0.0131693 -0.000940945,0.0254016 -0.00163386,0.0325906 -0.00961417,0.099248 -0.0468346,0.172276 -0.0999528,0.223528 -0.0620197,0.0598465 -0.143701,0.0876378 -0.22737,0.0916654l1.1811e-005 0.000200787c-0.00116142,5.51181e-005 -0.0023189,7.87402e-005 -0.0034685,8.26772e-005l0 3.93701e-006z"/>
   <path id="_283583328" class="fil1" d="M4.23746 3.03693c-0.0680827,0.0394173 -0.126693,0.0974724 -0.170768,0.16828 -0.054878,0.0881614 -0.0873661,0.196185 -0.0873661,0.312165l0 0.00624803 1.19207 0 0 -0.00624803c0,-0.115189 -0.0319449,-0.222429 -0.0859843,-0.310091 -0.0436732,-0.0708504 -0.101839,-0.129079 -0.169476,-0.168843 -0.0163701,0.0266063 -0.0361181,0.0514488 -0.0595433,0.0740512 -0.183177,0.176764 -0.483957,0.135713 -0.618929,-0.075563z"/>
   <polygon id="_283582920" class="fil1" points="3.43607,3.59593 5.28,3.59593 5.28,3.74054 3.43607,3.74054 "/>
  </g>
 </g>
</svg>
