<?xml version="1.0" encoding="UTF-8"?>
<!DOCTYPE svg PUBLIC "-//W3C//DTD SVG 1.1//EN" "http://www.w3.org/Graphics/SVG/1.1/DTD/svg11.dtd">
<!-- Creator: CorelDRAW -->
<svg xmlns="http://www.w3.org/2000/svg" xml:space="preserve" width="6.82666in" height="6.82666in" style="shape-rendering:geometricPrecision; text-rendering:geometricPrecision; image-rendering:optimizeQuality; fill-rule:evenodd; clip-rule:evenodd"
viewBox="0 0 6.82666 6.82666"
 xmlns:xlink="http://www.w3.org/1999/xlink">
 <defs>
  <style type="text/css">
   <![CDATA[
    .fil0 {fill:#607D8B}
    .fil1 {fill:#FFFFFE}
    .fil2 {fill:#FFFFFE;fill-rule:nonzero}
   ]]>
  </style>
 </defs>
 <g id="Layer_x0020_1">
  <metadata id="CorelCorpID_0Corel-Layer"/>
  <circle class="fil0" cx="3.41333" cy="3.41333" r="3.41333"/>
  <g id="_283584768">
   <path id="_283584576" class="fil1" d="M2.82426 2.27228c-0.00169685,-0.000862205 -0.00339764,-0.0017126 -0.00511024,-0.00253937 -0.00616929,-0.00298425 -0.0124409,-0.00575984 -0.0187756,-0.0083622 -0.0192402,-0.00790551 -0.0394331,-0.0143898 -0.0599134,-0.0181496 -0.259681,-0.0477283 -0.53324,0.132331 -0.721795,0.292094 -0.161024,0.136433 -0.306642,0.295224 -0.437476,0.460567 -0.0548583,0.0693307 -0.0430669,0.170783 0.0262953,0.225626 0.0287283,0.0227165 0.0640276,0.0349252 0.100661,0.0346811 0.0488898,-0.000326772 0.0946181,-0.022626 0.124957,-0.0609803 0.0739173,-0.0934213 0.151465,-0.184323 0.234835,-0.269472l0.177146 -0.180933 -0.0515236 0.247913c-0.0198386,0.0954685 -0.0382992,0.191433 -0.0510079,0.288142 -0.0221063,0.168205 -0.0220157,0.337469 -0.0164685,0.506709 0.000488189,0.0148898 0.000964567,0.0297795 0.00143701,0.0446654 0.00262598,0.0832402 0.00504724,0.166488 0.00641732,0.24976 0.000866142,0.0527323 0.00230709,0.105524 -0.000161417,0.15824l-0.000551181 0.0117913 -0.25965 0.684587c-0.039878,0.105138 0.0135079,0.22385 0.118713,0.263646 0.0235906,0.00892126 0.048622,0.0134843 0.0738504,0.013315 0.0844213,-0.000562992 0.159898,-0.0530354 0.189831,-0.131988l0.270587 -0.713728c0.00732677,-0.0193307 0.0117008,-0.0397362 0.0129173,-0.060374l0.0217244 -0.369016 0.245472 0.382165 0.206098 0.734894c0.0249252,0.0888661 0.105846,0.151035 0.19839,0.150417 0.0178031,-0.00011811 0.0355354,-0.00259449 0.0526969,-0.00733071 0.10778,-0.0297677 0.173539,-0.142937 0.14324,-0.251087l-0.214335 -0.76498c-0.0055748,-0.0198937 -0.0139488,-0.0390276 -0.025122,-0.0564213l-0.333331 -0.518957 0.0126614 -0.0345866c0.00433465,-0.0118425 0.0078622,-0.0239528 0.0104252,-0.0363031l0.130185 -0.627858 0.0978583 0.106217c0.0402717,0.0437126 0.0821772,0.0858661 0.126016,0.126004 0.109091,0.0998622 0.228606,0.18787 0.352232,0.268803 0.0873307,0.0571732 0.223913,-0.000980315 0.244646,-0.10285 0.0130276,-0.0640079 -0.0141496,-0.130075 -0.0688622,-0.165921 -0.108917,-0.071374 -0.214335,-0.14865 -0.310476,-0.236673 -0.0715748,-0.0655276 -0.136551,-0.136941 -0.198272,-0.211728 -0.0210315,-0.0254803 -0.0417362,-0.0512244 -0.0624409,-0.0769646 -0.0678701,-0.084378 -0.136783,-0.167953 -0.210665,-0.247185 -0.00741732,-0.00795669 -0.0167559,-0.0150787 -0.0252205,-0.0218661 -0.0333189,-0.0267283 -0.0681299,-0.0537992 -0.106425,-0.0730945 -0.000570866,-0.000291339 -0.00114173,-0.000586614 -0.00170866,-0.000885827z"/>
   <path id="_283584312" class="fil1" d="M3.16135 1.93719l-9.05512e-005 -0.0135591c-0.000555118,-0.0831969 -0.0335157,-0.16198 -0.0927598,-0.220441 -0.0592559,-0.0584685 -0.138398,-0.0906535 -0.221654,-0.0900984 -0.0832638,0.000551181 -0.161969,0.0337795 -0.220441,0.0930394 -0.0584764,0.0592559 -0.0906575,0.138406 -0.0901024,0.221665 0.000555118,0.0832638 0.0337795,0.161972 0.0930433,0.220445 0.0592441,0.0584685 0.138469,0.0903583 0.221665,0.0898071l0.0135591 -9.05512e-005c0.0782126,-0.00387008 0.151594,-0.0366378 0.206886,-0.0926693 0.0552913,-0.0560315 0.0870669,-0.129839 0.0898937,-0.208098z"/>
   <g>
    <path id="_283584336" class="fil2" d="M5.28 2.0715c0,0.0947441 -0.0384134,0.180528 -0.100504,0.242622 -0.0620984,0.0620984 -0.147882,0.100504 -0.242622,0.100504l0 -0.000291339c-0.0949409,-3.93701e-006 -0.180713,-0.0382992 -0.242622,-0.100209 -0.0620945,-0.0620945 -0.1005,-0.147878 -0.1005,-0.242626 0,-0.0947362 0.0384055,-0.180524 0.100504,-0.242622 0.0620945,-0.0620906 0.147874,-0.1005 0.242618,-0.1005 0.0947362,0 0.18052,0.0384134 0.242618,0.100508 0.0620945,0.0620984 0.100508,0.147878 0.100508,0.242614z"/>
    <path id="_283584816" class="fil1" d="M4.73524 5.02058c0,0.119886 0.0939055,0.187209 0.206354,0.192646 0.122575,0.00592126 0.224953,-0.0618346 0.224953,-0.192646l0 -0.904823c0.0379528,-0.0566732 0.0603819,-0.102142 0.0603819,-0.173382l0 -1.18614c0,-0.152461 -0.0969685,-0.278693 -0.249433,-0.278693 -0.133028,0 -0.207264,0.068748 -0.279429,0.164122l-0.357083 0.471925 -0.0147441 0.00833071c-0.0848465,0.0479449 -0.318634,0.163673 -0.347118,0.265571 -0.0114606,0.0410039 -0.00629134,0.0847008 0.0146063,0.121819 0.0210984,0.0374685 0.0558228,0.0644961 0.0971929,0.0760591 0.10639,0.0297323 0.358354,-0.142823 0.434504,-0.208287l0.149437 -0.128461 0 0.693752c0,0.0310512 0.00538189,0.0617717 0.0156457,0.091063 0.0076378,0.0217835 0.0180748,0.0425118 0.0309173,0.061685l0.013815 0.0206339 0 0.904823z"/>
   </g>
  </g>
 </g>
</svg>
