<?xml version="1.0" encoding="UTF-8"?>
<!DOCTYPE svg PUBLIC "-//W3C//DTD SVG 1.1//EN" "http://www.w3.org/Graphics/SVG/1.1/DTD/svg11.dtd">
<!-- Creator: CorelDRAW -->
<svg xmlns="http://www.w3.org/2000/svg" xml:space="preserve" width="6.82666in" height="6.82666in" style="shape-rendering:geometricPrecision; text-rendering:geometricPrecision; image-rendering:optimizeQuality; fill-rule:evenodd; clip-rule:evenodd"
viewBox="0 0 6.82666 6.82666"
 xmlns:xlink="http://www.w3.org/1999/xlink">
 <defs>
  <style type="text/css">
   <![CDATA[
    .fil0 {fill:#009688}
    .fil2 {fill:#FFFFFE}
    .fil1 {fill:#FFFFFE;fill-rule:nonzero}
   ]]>
  </style>
 </defs>
 <g id="Layer_x0020_1">
  <metadata id="CorelCorpID_0Corel-Layer"/>
  <circle class="fil0" cx="3.41333" cy="3.41333" r="3.41333"/>
  <g id="_283587672">
   <path id="_283587336" class="fil1" d="M3.78354 3.56179c0.104937,0.0456969 0.195091,0.126354 0.259583,0.229425 0.0652047,0.104209 0.104236,0.231476 0.105646,0.368516l-0.676295 0c0.00527559,-0.0201457 0.0107913,-0.0402165 0.0165157,-0.0602047 0.0179252,-0.0626339 0.0382441,-0.127992 0.0638543,-0.187913 0.0180394,-0.0421969 0.0408071,-0.0828268 0.0651969,-0.12165 0.0274291,-0.0436693 0.0574528,-0.0857323 0.0884252,-0.126941 0.0246535,-0.0327992 0.0501693,-0.0649134 0.0748661,-0.0976535 0.000866142,-0.00114173 0.00159449,-0.00234252 0.00220866,-0.00357874zm-0.383457 0.597941c-0.00617717,-0.0239882 -0.0127008,-0.0478858 -0.0195079,-0.0716654 -0.0184921,-0.0645748 -0.0394961,-0.131972 -0.0658976,-0.19376 -0.0181457,-0.0424528 -0.0410512,-0.0834055 -0.0654724,-0.122543 -0.0278937,-0.0447008 -0.0584016,-0.0878189 -0.089874,-0.130071 -0.0234331,-0.0314646 -0.0475906,-0.0623425 -0.071315,-0.0935709 0.0131535,0.000712598 0.0255039,0.00725984 0.0334409,0.0179764 0.0074252,0.00877559 0.0150591,0.017063 0.0228937,0.0248268 0.00871654,0.00864567 0.0177283,0.0168031 0.0270276,0.0244488 0.0344252,0.0283031 0.0744646,0.0511457 0.117047,0.0664449 0.0406614,0.0146063 0.0835748,0.0223228 0.12602,0.0213031 0.0632441,-0.00151575 0.120299,-0.0145945 0.169972,-0.0376299 0.050126,-0.0232402 0.0927598,-0.0567913 0.126614,-0.0989291l-8.66142e-005 -7.48031e-005c0.00674409,-0.00839764 0.0159134,-0.0137047 0.0257008,-0.0157283 -0.0230787,0.0303307 -0.0465354,0.0603543 -0.069311,0.0909331 -0.0314646,0.042252 -0.0619724,0.0853701 -0.0898661,0.130071 -0.0244252,0.0391378 -0.0473307,0.0800906 -0.0654764,0.122543 -0.0264016,0.0617874 -0.0474055,0.129185 -0.0658976,0.19376 -0.00680709,0.0237795 -0.0133307,0.0476772 -0.0195079,0.0716654l-0.0265039 0zm-0.722177 0c0.00141732,-0.138063 0.0410866,-0.266276 0.107272,-0.371008 0.0643622,-0.101862 0.153886,-0.181594 0.257953,-0.226937 0.000614173,0.00124016 0.00134646,0.00244094 0.00220866,0.00358268 0.0247008,0.0327402 0.0502126,0.0648543 0.0748661,0.0976535 0.0309724,0.0412087 0.061,0.0832717 0.0884291,0.126941 0.0243898,0.0388228 0.0471575,0.0794528 0.065189,0.12165 0.0256142,0.0599213 0.0459331,0.12528 0.0638583,0.187913 0.00572441,0.0199882 0.0112402,0.0400591 0.0165157,0.0602047l-0.676291 0z"/>
   <path id="_283587552" class="fil1" d="M3.56131 3.01672l0.00193307 0.000472441 0.000248031 6.69291e-005 0.00144882 0.000370079 0.000248031 6.29921e-005 0.000771654 0.000200787 0.0012126 0.000326772 0.000704724 0.000185039 0.00147638 0.000405512 0.00019685 5.51181e-005 0.00152362 0.000429134 0.000440945 0.000122047 0.00019685 6.29921e-005 0.00168504 0.000488189 0.00011811 3.54331e-005 0.00196457 0.000590551 0.000125984 3.93701e-005 0.00159843 0.000492126 0.00030315 9.05512e-005 0.000944882 0.000299213 0.0005 0.000161417 0.000838583 0.000267717 0.00122441 0.000401575 0.000464567 0.000149606 0.000330709 0.000110236 0.00165748 0.000555118 1.9685e-005 3.93701e-006 0.00166929 0.000574803 0.000291339 0.000102362 0.00137795 0.000480315 0.000602362 0.000212598 0.00038189 0.000137795 0.00115354 0.000417323 0.000940945 0.00034252 0.000610236 0.000220472 0.0012126 0.000452756 9.05512e-005 3.54331e-005 0.00150787 0.000566929 0.000149606 5.51181e-005 0.00164961 0.000633858 0.000161417 6.69291e-005 4.72441e-005 1.9685e-005 0.00179921 0.000704724 0.000106299 4.33071e-005 0.0011811 0.000472441 0.000767717 0.000311024 0.000370079 0.000153543 0.00101181 0.000413386 0.000976378 0.000401575 0.000153543 6.69291e-005 0.00136614 0.000570866 2.3622e-005 1.1811e-005 0.00170866 0.000732283 0.000161417 6.69291e-005 3.14961e-005 1.5748e-005 0.00159055 0.000692913 0.000334646 0.000141732 0.00128346 0.000574803 0.000629921 0.000275591 0.000358268 0.000165354 0.00119685 0.00053937 0.000354331 0.00015748 0.000685039 0.000318898 0.000476378 0.000220472 0.00102362 0.000476378 0.000102362 4.72441e-005 0.00150394 0.000704724 9.84252e-005 4.72441e-005 0.00159055 0.00076378 0.00121654 0.000586614 0.0005 0.000244094 0.00100787 0.000496063 0.000712598 0.000354331 0.00107087 0.000535433 0.00023622 0.00011811 0.00106693 0.000535433 0.00015748 8.26772e-005 0.00127165 0.000649606 0.000425197 0.000220472 0.000212598 0.000110236 0.00155906 0.000811024 7.08661e-005 3.93701e-005 0.00148031 0.000783465 0.000354331 0.000188976 0.000311024 0.000165354 0.00147244 0.000799213 0.000106299 5.51181e-005 0.0014252 0.000779528 0.000330709 0.000177165 0.000606299 0.00034252 0.00120079 0.000669291 0.000326772 0.000181102 0.0014685 0.000834646 4.33071e-005 2.75591e-005 0.00151181 0.000862205 0.000232283 0.000137795 0.000437008 0.000255906 0.00121654 0.000708661 0.000122047 7.08661e-005 0.000984252 0.000582677 0.000779528 0.000464567 0.000704724 0.000425197 0.00105512 0.000629921 0.000425197 0.00026378 0.00131496 0.000807087 0.00015748 9.05512e-005 0.00146063 0.000917323 0.000114173 6.69291e-005 0.00134252 0.000846457 9.84252e-005 5.90551e-005 0.000854331 0.000551181 0.000488189 0.000311024 0.000645669 0.000413386 0.000287402 0.000192913 0.00102362 0.00065748 0.00038189 0.000251969 0.000527559 0.000350394 0.00115748 0.00076378 0.00026378 0.000173228 0.00140551 0.000944882c0.0338031,0.0228425 0.0582992,0.0492795 0.063311,0.0712638l-3.93701e-005 7.87402e-006 0.000185039 0.00108268 -5.11811e-005 7.87402e-006 3.93701e-006 1.5748e-005 3.93701e-006 1.9685e-005 3.93701e-006 1.1811e-005 0 1.5748e-005 3.93701e-006 1.9685e-005 3.93701e-006 1.1811e-005 3.93701e-006 1.5748e-005 3.93701e-006 1.1811e-005c4.72441e-005,0.000255906 0.000106299,0.000503937 0.000161417,0.000748031l0 1.5748e-005 7.87402e-006 1.9685e-005 0 1.5748e-005 3.93701e-006 1.1811e-005 3.93701e-006 1.5748e-005 3.93701e-006 1.5748e-005 0 0 3.93701e-006 1.5748e-005 7.87402e-006 1.9685e-005c0.0024252,0.0147047 0.00409843,0.0291614 0.00487795,0.0432992l3.54331e-005 0.000673228 3.54331e-005 0.000669291 3.54331e-005 0.000677165 3.14961e-005 0.000669291 3.14961e-005 0.000673228 2.75591e-005 0.000677165 2.75591e-005 0.000669291 3.14961e-005 0.000673228 2.3622e-005 0.000677165 2.3622e-005 0.000673228 2.3622e-005 0.000673228 2.3622e-005 0.000677165 1.5748e-005 0.000669291 0 3.93701e-006 1.9685e-005 0.000673228 0 0 1.5748e-005 0.000673228 1.5748e-005 0.000673228 7.87402e-006 0.000677165 3.93701e-006 0 1.5748e-005 0.000673228 1.1811e-005 0.000677165 7.87402e-006 0.000673228 0 0 7.87402e-006 0.000673228 0 0 7.87402e-006 0.000677165 0 0 0 0.000677165 3.93701e-006 0 0 0.000677165 0 0.000677165 0 0.00135039 0 0.000677165 0 0 0 0.000673228 -3.93701e-006 0 0 0.000677165 0 0 -7.87402e-006 0.000677165 0 0 -1.5748e-005 0.00135433 -7.87402e-006 0 -1.9685e-005 0.00135827 -3.93701e-006 0c-0.000295276,0.0147165 -0.00166929,0.028748 -0.00379921,0.043315 -0.0124291,0.0849016 -0.0452441,0.147098 -0.0902087,0.19048 -0.0570827,0.0550787 -0.134661,0.0809567 -0.215441,0.0851142l0 -4.72441e-005c-0.0674291,0 -0.148795,-0.0278386 -0.21139,-0.0882323 -0.000751969,-0.000728346 -0.00150787,-0.00146063 -0.00225591,-0.00220079l-8.26772e-005 -8.26772e-005 -0.00215748 -0.00214567 -3.54331e-005 -3.54331e-005 -0.00100787 -0.00102362 -0.00136614 -0.00138976 -0.000574803 -0.000598425 -0.00161811 -0.0016811 -0.000901575 -0.000956693 -0.00131102 -0.00138976 -0.00116142 -0.00125984 -0.00101181 -0.00109843 -0.00105906 -0.00116535 -0.00117717 -0.00130709 -0.000988189 -0.00111024 -0.00117323 -0.00133071 -0.00105512 -0.00121654 -0.00106299 -0.00124016 -0.00106299 -0.00124409 -0.00109449 -0.00130315 -0.000980315 -0.00117717 -0.00111417 -0.00135433 -0.00108268 -0.00132677 -0.000968504 -0.00119685 -0.00101969 -0.00128346 -0.00112992 -0.00142913 -0.00101181 -0.00129921 -0.000834646 -0.00107874 -0.00124016 -0.00162992 -0.000858268 -0.0011378 -0.00112598 -0.00151181 -0.000877953 -0.00119291 -0.00101181 -0.00138189 -0.00116142 -0.00161417 -0.000779528 -0.00109843 -0.00102362 -0.00146063 -0.000992126 -0.00142126 -0.000893701 -0.00130315 -0.00104331 -0.0015315 -0.000897638 -0.00134646 -0.000925197 -0.00138189 -0.00105512 -0.00161417 -0.000826772 -0.00127559 -0.00092126 -0.00144488 -0.000972441 -0.00153543 -0.000649606 -0.00103937 -0.00116142 -0.00188583 -7.08661e-005 -0.000106299c-0.000535433,-0.00088189 -0.0010748,-0.00176378 -0.00159843,-0.00264567l-4.33071e-005 -6.69291e-005 -0.00127953 -0.00217323 -0.000480315 -0.000807087 -8.66142e-005 -0.000149606c-0.000566929,-0.000972441 -0.00112992,-0.00194488 -0.0016811,-0.0029252l-2.3622e-005 -4.33071e-005c-0.000566929,-0.000988189 -0.00112598,-0.00199213 -0.0016811,-0.00299213l-3.93701e-005 -7.87402e-005c-0.000543307,-0.000976378 -0.00108268,-0.00196063 -0.00161417,-0.00294882l-0.000106299 -0.000188976 -0.000519685 -0.000988189 -0.00109843 -0.00206299 -0.000629921 -0.00121654 -0.000972441 -0.00188189 -0.000897638 -0.00177953 -0.000677165 -0.00134252 -0.000834646 -0.00170472 -0.00076378 -0.00156693 -0.000787402 -0.00164567 -0.000751969 -0.00159055 -0.000744094 -0.00159449 -0.000771654 -0.0016811 -0.000744094 -0.00164961 -0.000755906 -0.00168898 -0.000692913 -0.00157874 -0.000728346 -0.00168898 -0.000838583 -0.0019685 -0.000527559 -0.00125984 -0.000850394 -0.00205512 -0.000598425 -0.00146457 -0.000708661 -0.00177559 -0.000681102 -0.00173228 -0.000677165 -0.00175591 -0.000641732 -0.00168504 -0.000649606 -0.00172441 -0.000685039 -0.00186614 -0.00057874 -0.00160236 -0.000685039 -0.00192913 -0.00061811 -0.00176378 -0.00053937 -0.00158268 -0.000661417 -0.00194488 -0.000649606 -0.00197244 -0.000492126 -0.00151181 -0.000641732 -0.00202362 -0.000566929 -0.0017874 -0.000480315 -0.0015748 -0.000633858 -0.00210236 -0.000543307 -0.00185433 -0.000511811 -0.00176378 -0.000661417 -0.00236614 -0.000358268 -0.00126378 -0.000677165 -0.00252756 -0.000366142 -0.00136614 -0.000488189 -0.00187402 -0.000511811 -0.00201575 -3.14961e-005 -0.000114173c-0.000295276,-0.00116929 -0.000582677,-0.00234646 -0.000862205,-0.00352756l-5.51181e-005 -0.000240157c-0.000295276,-0.00122835 -0.000586614,-0.00246063 -0.000874016,-0.00370079l-1.5748e-005 -9.84252e-005c-0.000291339,-0.00127165 -0.000574803,-0.00255118 -0.000858268,-0.00383071l-1.1811e-005 -4.72441e-005c-0.000271654,-0.00126378 -0.000543307,-0.00253937 -0.00080315,-0.00381496l-4.33071e-005 -0.00019685c-0.000251969,-0.00122835 -0.000496063,-0.00246063 -0.000740157,-0.00369685l-3.54331e-005 -0.000173228 -0.00026378 -0.00140551 -0.000511811 -0.00269685 -0.000244094 -0.00137795 -0.000448819 -0.00252362 -0.000346457 -0.00207087 -0.000338583 -0.002 -0.000314961 -0.00198031 -0.000334646 -0.00218504 -0.000279528 -0.00190551 -0.000318898 -0.00220472 -0.000275591 -0.00196457 -0.000283465 -0.00216142 -0.000283465 -0.00222835 -0.00015748 -0.0012874c0.0577008,-0.0597323 0.101476,-0.0804488 0.141283,-0.0992874 0.0428898,-0.0203031 0.0818307,-0.0387402 0.126177,-0.0898976 -0.00157874,0.0214961 -0.00534252,0.0390591 -0.00864961,0.0478228 -0.00339764,0.00698425 -0.00438976,0.0151772 -0.0022126,0.0232677 0.00478346,0.0178346 0.023126,0.0284016 0.0409567,0.0236142l-1.1811e-005 -4.33071e-005c0.0873346,-0.0234921 0.118193,-0.0757283 0.148272,-0.151319 0.0168386,-0.0423189 0.0329843,-0.086937 0.045874,-0.130642 0.00172835,-0.00586614 0.00785827,-0.00924016 0.0137362,-0.00751181 0.00585433,0.00172047 0.00922835,0.00785039 0.0075,0.0137087 -0.013063,0.044311 -0.0295551,0.0896063 -0.046626,0.13252 -0.00352362,0.00885039 -0.00713386,0.0176929 -0.010878,0.0264764zm0.360677 0.57689c0.000889764,-0.0397835 -0.00229134,-0.19648 -0.00460236,-0.310484 -0.00127165,-0.0626811 -0.00227953,-0.112299 -0.00221654,-0.120673 0.00147244,-0.190236 -0.0581457,-0.312894 -0.152362,-0.389441 -0.0919921,-0.0747402 -0.214811,-0.102744 -0.344602,-0.105815 -0.00188976,-0.000204724 -0.00380709,-0.000287402 -0.00575591,-0.000251969l0 0.000165354c-0.131264,0.00257874 -0.255657,0.0303898 -0.348598,0.105902 -0.0942165,0.0765512 -0.153835,0.199205 -0.152366,0.389441 0.000129921,0.0166339 0.00431102,0.156287 0.0082126,0.272992 0.00196063,0.0585354 0.00387008,0.111732 0.00520079,0.141807 0.0279488,-0.0195118 0.0575748,-0.0366654 0.0887047,-0.0510748l-0.000637795 -0.00173622 0.0417795 -0.0154291c0.036689,-0.0135512 0.0775748,-0.000996063 0.10165,0.0294134 0.00586614,0.00740945 0.0126299,0.0142008 0.0193307,0.0208425 0.00764961,0.00758268 0.0156299,0.0148307 0.0239528,0.0216732 0.0307795,0.0253031 0.0663031,0.0454488 0.103811,0.0589252 0.0350787,0.0126024 0.0725472,0.0195866 0.109882,0.0186929 0.052437,-0.00125591 0.104543,-0.0113661 0.152287,-0.0335039 0.0407756,-0.0189055 0.0763031,-0.045811 0.10526,-0.0799213l0.00526772 -0.00656299c0.0251772,-0.0313386 0.0680197,-0.041378 0.104858,-0.0260079 0.0505669,0.0210984 0.0978425,0.0483937 0.140945,0.0810472z"/>
   <path id="_283587456" class="fil2" d="M2.56177 2.56177l0 0.43176c0,0.0355354 -0.0288307,0.0643622 -0.0643661,0.0643622 -0.0355354,0 -0.0643661,-0.0288268 -0.0643661,-0.0643622l0 -0.496126c0,-0.0355354 0.0288307,-0.0643661 0.0643661,-0.0643661l0.515209 0c0.0355354,0 0.0643661,0.0288307 0.0643661,0.0643661 0,0.0355354 -0.0288307,0.0643661 -0.0643661,0.0643661l-0.450843 0zm1.70312 0l-0.450843 0c-0.0355354,0 -0.0643661,-0.0288307 -0.0643661,-0.0643661 0,-0.0355354 0.0288307,-0.0643661 0.0643661,-0.0643661l0.515209 0c0.0355354,0 0.0643661,0.0288307 0.0643661,0.0643661l0 0.496126c0,0.0355354 -0.0288307,0.0643622 -0.0643661,0.0643622 -0.0355354,0 -0.0643661,-0.0288268 -0.0643661,-0.0643622l0 -0.43176zm0 1.70312l0 -0.327386c0.0257126,0.0146142 0.0548858,0.0226732 0.0854882,0.0226732l0.0432441 0 0 0.369079c0,0.0355354 -0.0288307,0.0643661 -0.0643661,0.0643661l-0.515209 0c-0.0355354,0 -0.0643661,-0.0288307 -0.0643661,-0.0643661 0,-0.0355354 0.0288307,-0.0643661 0.0643661,-0.0643661l0.450843 0zm-1.70312 0l0.450843 0c0.0355354,0 0.0643661,0.0288307 0.0643661,0.0643661 0,0.0355354 -0.0288307,0.0643661 -0.0643661,0.0643661l-0.515209 0c-0.0355354,0 -0.0643661,-0.0288307 -0.0643661,-0.0643661l0 -0.369079 0.0432402 0c0.0306024,0 0.0597795,-0.00805906 0.0854921,-0.0226732l0 0.327386z"/>
   <path id="_283587744" class="fil1" d="M1.77322 3.34688c-0.0598583,0.0337953 -0.111409,0.0839409 -0.150142,0.145244 -0.0480039,0.0759606 -0.0764173,0.169126 -0.0764173,0.269236l0 0.00753937c0,0.0328465 0.0119961,0.063185 0.0313189,0.0855945 0.0210079,0.0243701 0.0505551,0.0395 0.083563,0.0395l0.814736 0c0.0330118,0 0.0625591,-0.0151299 0.0835669,-0.0395 0.0193228,-0.0224094 0.0313189,-0.052748 0.0313189,-0.0855945l0 -0.00753937c0,-0.0994134 -0.0279528,-0.191902 -0.0752244,-0.267453 -0.0384803,-0.0614921 -0.0897953,-0.111886 -0.149453,-0.145996 -0.0158937,0.0324134 -0.0370394,0.0622835 -0.0642008,0.0884921 -0.162299,0.156598 -0.427709,0.106622 -0.529067,-0.0895236zm0.295693 0.13161l-0.000114173 0 -0.000185039 -3.93701e-006c-0.0625236,-7.87402e-005 -0.137583,-0.025622 -0.194909,-0.080937 -0.0457835,-0.0441772 -0.0804055,-0.106925 -0.0884724,-0.190185 -0.000594488,-0.00616929 -0.00106299,-0.0168543 -0.00141339,-0.0284094 -0.000468504,-0.0154291 -0.000751969,-0.0341535 -0.000814961,-0.0431614 -0.000830709,-0.107413 0.0338425,-0.177492 0.088626,-0.222 0.0533189,-0.0433189 0.123154,-0.0592441 0.196283,-0.0606811l-3.93701e-006 -0.000192913c0.00225591,-3.93701e-005 0.00447638,6.29921e-005 0.00665748,0.00030315 0.071437,0.00201969 0.139449,0.0181772 0.19163,0.0605709 0.0547756,0.0445079 0.0894567,0.114587 0.088626,0.222 -6.69291e-005,0.00900787 -0.000350394,0.0277323 -0.000818898,0.0431614 -0.000346457,0.0115551 -0.000814961,0.0222402 -0.00140945,0.0284094 -0.00829528,0.0856299 -0.0402087,0.148437 -0.0857126,0.192343 -0.0531457,0.0512835 -0.123417,0.0751102 -0.195531,0.0785787l3.93701e-006 0.000141732c-0.000814961,3.93701e-005 -0.00162992,5.90551e-005 -0.00244094,5.90551e-005l0 3.93701e-006z"/>
   <path id="_283587864" class="fil1" d="M4.46206 3.34688c-0.0598583,0.0337953 -0.111409,0.0839409 -0.150142,0.145244 -0.0480039,0.0759606 -0.0764173,0.169126 -0.0764173,0.269236l0 0.00753937c0,0.0328465 0.0119961,0.063185 0.031315,0.0855945 0.0210118,0.0243701 0.0505591,0.0395 0.0835669,0.0395l0.814736 0c0.0330118,0 0.0625591,-0.0151299 0.0835669,-0.0395 0.0193228,-0.0224094 0.031315,-0.052748 0.031315,-0.0855945l0 -0.00753937c0,-0.0994134 -0.0279488,-0.191902 -0.0752205,-0.267453 -0.0384803,-0.0614921 -0.0897953,-0.111886 -0.149453,-0.145996 -0.0158937,0.0324134 -0.0370394,0.0622835 -0.0642008,0.0884921 -0.162299,0.156598 -0.427709,0.106622 -0.529067,-0.0895236zm0.295693 0.13161l-0.000114173 0 -0.000185039 -3.93701e-006c-0.0625236,-7.87402e-005 -0.137583,-0.025622 -0.194909,-0.080937 -0.0457835,-0.0441772 -0.0804055,-0.106925 -0.0884724,-0.190185 -0.000594488,-0.00616929 -0.00106299,-0.0168543 -0.00141339,-0.0284094 -0.000468504,-0.0154291 -0.000751969,-0.0341535 -0.000814961,-0.0431614 -0.000830709,-0.107413 0.0338425,-0.177492 0.088626,-0.222 0.0533189,-0.0433189 0.123154,-0.0592441 0.196283,-0.0606811l-3.93701e-006 -0.000192913c0.00225591,-3.93701e-005 0.00447638,6.29921e-005 0.00665748,0.00030315 0.071437,0.00201969 0.139449,0.0181772 0.19163,0.0605709 0.0547756,0.0445079 0.0894567,0.114587 0.088626,0.222 -6.69291e-005,0.00900787 -0.000350394,0.0277323 -0.000818898,0.0431614 -0.000346457,0.0115551 -0.000818898,0.0222402 -0.00141339,0.0284094 -0.00829134,0.0856299 -0.0402047,0.148437 -0.0857087,0.192343 -0.0531457,0.0512835 -0.123421,0.0751102 -0.195531,0.0785787l3.93701e-006 0.000141732c-0.000814961,3.93701e-005 -0.00162992,5.90551e-005 -0.00244094,5.90551e-005l0 3.93701e-006z"/>
  </g>
 </g>
</svg>
