<?xml version="1.0" encoding="UTF-8"?>
<!DOCTYPE svg PUBLIC "-//W3C//DTD SVG 1.1//EN" "http://www.w3.org/Graphics/SVG/1.1/DTD/svg11.dtd">
<!-- Creator: CorelDRAW -->
<svg xmlns="http://www.w3.org/2000/svg" xml:space="preserve" width="6.82666in" height="6.82666in" style="shape-rendering:geometricPrecision; text-rendering:geometricPrecision; image-rendering:optimizeQuality; fill-rule:evenodd; clip-rule:evenodd"
viewBox="0 0 6.82666 6.82666"
 xmlns:xlink="http://www.w3.org/1999/xlink">
 <defs>
  <style type="text/css">
   <![CDATA[
    .fil0 {fill:#3F51B5}
    .fil1 {fill:#FFFFFE;fill-rule:nonzero}
   ]]>
  </style>
 </defs>
 <g id="Layer_x0020_1">
  <metadata id="CorelCorpID_0Corel-Layer"/>
  <circle class="fil0" cx="3.41333" cy="3.41333" r="3.41333"/>
  <g id="_283588224">
   <path id="_283588920" class="fil1" d="M2.89471 3.70653c-0.104177,0.058815 -0.193898,0.146094 -0.261311,0.252787 -0.0835433,0.132205 -0.132996,0.294354 -0.132996,0.468591l0 0.0131181c0,0.0571732 0.020874,0.109972 0.0545039,0.148976 0.036563,0.0424134 0.0879921,0.0687441 0.145437,0.0687441l1.418 0c0.0574567,0 0.108882,-0.0263307 0.145445,-0.0687441 0.0336299,-0.0390039 0.0545079,-0.0918031 0.0545079,-0.148976l0 -0.0131181c0,-0.173024 -0.0486457,-0.333992 -0.130921,-0.465488 -0.0669685,-0.107024 -0.156283,-0.194732 -0.260114,-0.254094 -0.0276575,0.0564134 -0.0644646,0.108398 -0.111736,0.154012 -0.282469,0.272555 -0.744402,0.185575 -0.920811,-0.155807zm0.514638 0.229055l-0.00019685 0 -0.000322835 -7.87402e-006c-0.108815,-0.000137795 -0.239457,-0.0445866 -0.339228,-0.140862 -0.0796811,-0.0768858 -0.139941,-0.186098 -0.15398,-0.331 -0.00103543,-0.0107441 -0.00185039,-0.0293386 -0.00245669,-0.0494488 -0.000814961,-0.0268543 -0.00131102,-0.0594409 -0.00142126,-0.075122 -0.00144882,-0.186949 0.0589016,-0.308913 0.154244,-0.386374 0.0927992,-0.0753976 0.214346,-0.10311 0.341622,-0.105614l-7.87402e-006 -0.000330709c0.00392913,-7.48031e-005 0.00779134,0.000102362 0.0115906,0.000523622 0.124327,0.00351575 0.242697,0.0316339 0.333516,0.105421 0.0953386,0.0774606 0.155693,0.199425 0.154248,0.386374 -0.000114173,0.0156811 -0.000606299,0.0482677 -0.00142126,0.075122 -0.000606299,0.0201102 -0.0014252,0.0387047 -0.00246063,0.0494488 -0.0144331,0.149031 -0.0699724,0.258343 -0.149169,0.33476 -0.0925,0.089248 -0.214807,0.13072 -0.340315,0.136756l1.1811e-005 0.000251969c-0.0014252,6.29921e-005 -0.00283858,9.44882e-005 -0.00425197,9.44882e-005l0 7.87402e-006z"/>
   <polygon id="_283589448" class="fil1" points="3.44167,2.26805 3.48136,2.391 3.61064,2.39075 3.7158,2.39055 3.63059,2.4522 3.5259,2.52796 3.56607,2.65079 3.59873,2.75066 3.5138,2.6887 3.40935,2.61251 3.3049,2.6887 3.21997,2.75066 3.25263,2.65079 3.2928,2.52796 3.18811,2.4522 3.1029,2.39055 3.20806,2.39075 3.33734,2.391 3.37702,2.26805 3.40935,2.16791 "/>
   <path id="_283589328" class="fil1" d="M1.78633 3.76192c-0.0633228,0.035748 -0.117854,0.0887953 -0.158831,0.153646 -0.0507795,0.0803504 -0.0808386,0.178909 -0.0808386,0.284811l0 0.00797244c0,0.034748 0.0126929,0.0668386 0.0331299,0.0905512 0.0222283,0.0257756 0.0534843,0.0417795 0.0884016,0.0417795l0.768004 0c0.0132008,-0.147654 0.0599567,-0.291504 0.139413,-0.417386 -0.00118898,-0.00195276 -0.00238189,-0.00390551 -0.00359449,-0.00584252 -0.0407008,-0.0650512 -0.0949882,-0.118362 -0.158098,-0.154441 -0.016815,0.0342874 -0.0391811,0.0658819 -0.0679134,0.0936102 -0.171685,0.165657 -0.452457,0.112795 -0.559673,-0.0947008zm0.312795 0.139217l-0.00011811 0 -0.000192913 0c-0.0661417,-8.66142e-005 -0.145543,-0.0271024 -0.206189,-0.0856181 -0.0484331,-0.0467283 -0.0850551,-0.11311 -0.0935906,-0.201189 -0.000625984,-0.00652362 -0.00112205,-0.0178307 -0.00148819,-0.0300512 -0.0005,-0.0163228 -0.000799213,-0.036126 -0.000862205,-0.0456614 -0.000885827,-0.113626 0.0357953,-0.18776 0.0937441,-0.234839 0.0564055,-0.0458268 0.130287,-0.0626693 0.207642,-0.0641929l-7.87402e-006 -0.000204724c0.00238976,-3.93701e-005 0.00474016,6.69291e-005 0.00705118,0.000322835 0.0755591,0.00213386 0.147512,0.0192244 0.202709,0.0640748 0.0579488,0.0470787 0.0946339,0.121213 0.093752,0.234839 -6.69291e-005,0.00953543 -0.000370079,0.0293386 -0.000862205,0.0456614 -0.000370079,0.0122205 -0.000866142,0.0235276 -0.00149213,0.0300512 -0.00877165,0.0905866 -0.0425354,0.157028 -0.0906654,0.203472 -0.0562244,0.054248 -0.130567,0.0794528 -0.20685,0.083122l7.87402e-006 0.000153543c-0.000866142,3.93701e-005 -0.00172441,5.90551e-005 -0.00258661,5.90551e-005l0 0z"/>
   <path id="_283589016" class="fil1" d="M4.41474 3.76192c-0.0633228,0.035748 -0.117854,0.0887953 -0.158831,0.153646 -0.00295276,0.00467717 -0.00583465,0.00941732 -0.00864961,0.0142165 0.0770079,0.124327 0.122299,0.265795 0.135248,0.410898l0.775957 0c0.0349252,0 0.066185,-0.0160039 0.0884055,-0.0417795 0.0204449,-0.0237126 0.0331299,-0.0558031 0.0331299,-0.0905512l0 -0.00797244c0,-0.105165 -0.0295669,-0.203004 -0.0795748,-0.282925 -0.0407008,-0.0650512 -0.0949882,-0.118362 -0.158098,-0.154441 -0.016815,0.0342874 -0.0391811,0.0658819 -0.0679134,0.0936102 -0.171685,0.165657 -0.452457,0.112795 -0.559673,-0.0947008zm0.312795 0.139217l-0.00011811 0 -0.000192913 0c-0.0661417,-8.66142e-005 -0.145543,-0.0271024 -0.206189,-0.0856181 -0.0484331,-0.0467283 -0.0850551,-0.11311 -0.0935906,-0.201189 -0.000625984,-0.00652362 -0.00112205,-0.0178307 -0.00148819,-0.0300512 -0.0005,-0.0163228 -0.000799213,-0.036126 -0.000862205,-0.0456614 -0.000885827,-0.113626 0.0357953,-0.18776 0.0937441,-0.234839 0.0564055,-0.0458268 0.130287,-0.0626693 0.207642,-0.0641929l-7.87402e-006 -0.000204724c0.00238976,-3.93701e-005 0.00474016,6.69291e-005 0.00705118,0.000322835 0.0755591,0.00213386 0.147512,0.0192244 0.202709,0.0640748 0.0579488,0.0470787 0.0946339,0.121213 0.093752,0.234839 -6.69291e-005,0.00953543 -0.000370079,0.0293386 -0.000862205,0.0456614 -0.000370079,0.0122205 -0.000866142,0.0235276 -0.00149213,0.0300512 -0.00877165,0.0905866 -0.0425354,0.157028 -0.0906654,0.203472 -0.0562244,0.054248 -0.130567,0.0794528 -0.20685,0.083122l7.87402e-006 0.000153543c-0.000866142,3.93701e-005 -0.00172441,5.90551e-005 -0.00258661,5.90551e-005l0 0z"/>
  </g>
 </g>
</svg>
