<?xml version="1.0" encoding="UTF-8"?>
<!DOCTYPE svg PUBLIC "-//W3C//DTD SVG 1.1//EN" "http://www.w3.org/Graphics/SVG/1.1/DTD/svg11.dtd">
<!-- Creator: CorelDRAW -->
<svg xmlns="http://www.w3.org/2000/svg" xml:space="preserve" width="6.82666in" height="6.82666in" style="shape-rendering:geometricPrecision; text-rendering:geometricPrecision; image-rendering:optimizeQuality; fill-rule:evenodd; clip-rule:evenodd"
viewBox="0 0 6.82666 6.82666"
 xmlns:xlink="http://www.w3.org/1999/xlink">
 <defs>
  <style type="text/css">
   <![CDATA[
    .fil0 {fill:#EC407A}
    .fil1 {fill:#FFFFFE;fill-rule:nonzero}
   ]]>
  </style>
 </defs>
 <g id="Layer_x0020_1">
  <metadata id="CorelCorpID_0Corel-Layer"/>
  <circle class="fil0" cx="3.41333" cy="3.41333" r="3.41333"/>
  <g id="_283589592">
   <g>
    <path id="_283590312" class="fil1" d="M1.76565 3.12007c-0.0578583,0.0326614 -0.107685,0.0811339 -0.145122,0.140386 -0.0463976,0.0734252 -0.0738661,0.16348 -0.0738661,0.260244l0 0.00728346c0,0.031752 0.0115945,0.0610748 0.0302717,0.0827362 0.0203071,0.0235551 0.0488661,0.0381811 0.0807717,0.0381811l0.787508 0c0.0319094,0 0.0604685,-0.014626 0.0807756,-0.0381811 0.0186772,-0.0216614 0.0302717,-0.0509843 0.0302717,-0.0827362l0 -0.00728346c0,-0.0960906 -0.0270157,-0.185492 -0.0727087,-0.25852 -0.0371929,-0.059437 -0.0867953,-0.108146 -0.144461,-0.141114 -0.0153583,0.0313307 -0.0357992,0.0602008 -0.0620551,0.0855315 -0.156874,0.15137 -0.413413,0.103063 -0.511386,-0.0865276zm0.285811 0.127209l-0.000106299 0 -0.000181102 -3.93701e-006c-0.0604331,-7.48031e-005 -0.132984,-0.0247638 -0.188398,-0.0782323 -0.044252,-0.0426969 -0.0777165,-0.10335 -0.0855157,-0.183827 -0.000574803,-0.00596457 -0.00102756,-0.0162953 -0.0013622,-0.0274606 -0.000452756,-0.0149173 -0.000728346,-0.0330118 -0.000791339,-0.0417205 -0.00080315,-0.103827 0.0327126,-0.171563 0.0856654,-0.214579 0.0515354,-0.041874 0.119039,-0.0572677 0.189724,-0.0586575l-3.93701e-006 -0.000185039c0.0021811,-3.93701e-005 0.00432677,5.90551e-005 0.00643701,0.000291339 0.0690472,0.00195276 0.134783,0.0175709 0.185224,0.0585512 0.0529449,0.0430157 0.0864646,0.110752 0.0856614,0.214579 -6.29921e-005,0.00870866 -0.000334646,0.0268031 -0.000791339,0.0417205 -0.000334646,0.0111654 -0.000787402,0.0214961 -0.0013622,0.0274606 -0.00801575,0.0827677 -0.0388622,0.143476 -0.0828465,0.185913 -0.0513701,0.0495669 -0.119295,0.0725984 -0.188996,0.0759528l3.93701e-006 0.000137795c-0.000791339,3.54331e-005 -0.0015748,5.51181e-005 -0.0023622,5.51181e-005l0 3.93701e-006z"/>
    <path id="_283590336" class="fil1" d="M4.48939 3.12007c-0.0578583,0.0326614 -0.107685,0.0811339 -0.145126,0.140386 -0.0463976,0.0734252 -0.0738622,0.16348 -0.0738622,0.260244l0 0.00728346c0,0.031752 0.0115945,0.0610748 0.0302717,0.0827362 0.0203031,0.0235551 0.0488661,0.0381811 0.0807717,0.0381811l0.787508 0c0.0319094,0 0.0604685,-0.014626 0.0807756,-0.0381811 0.0186772,-0.0216614 0.0302717,-0.0509843 0.0302717,-0.0827362l0 -0.00728346c0,-0.0960906 -0.0270197,-0.185492 -0.0727126,-0.25852 -0.0371929,-0.059437 -0.0867953,-0.108146 -0.144457,-0.141114 -0.0153622,0.0313307 -0.0358031,0.0602008 -0.0620551,0.0855315 -0.156874,0.15137 -0.413417,0.103063 -0.511386,-0.0865276zm0.285811 0.127209l-0.000110236 0 -0.000177165 -3.93701e-006c-0.0604331,-7.48031e-005 -0.132988,-0.0247638 -0.188398,-0.0782323 -0.044252,-0.0426969 -0.0777205,-0.10335 -0.0855157,-0.183827 -0.000574803,-0.00596457 -0.00102756,-0.0162953 -0.00136614,-0.0274606 -0.000452756,-0.0149173 -0.000724409,-0.0330118 -0.000787402,-0.0417205 -0.00080315,-0.103827 0.0327126,-0.171563 0.0856614,-0.214579 0.0515394,-0.041874 0.119043,-0.0572677 0.189728,-0.0586575l-7.87402e-006 -0.000185039c0.00218504,-3.93701e-005 0.00433071,5.90551e-005 0.00643701,0.000291339 0.0690472,0.00195276 0.134787,0.0175709 0.185224,0.0585512 0.0529488,0.0430157 0.0864685,0.110752 0.0856654,0.214579 -6.29921e-005,0.00870866 -0.000338583,0.0268031 -0.000791339,0.0417205 -0.000334646,0.0111654 -0.000791339,0.0214961 -0.0013622,0.0274606 -0.00801969,0.0827677 -0.0388622,0.143476 -0.0828465,0.185913 -0.0513701,0.0495669 -0.119295,0.0725984 -0.189,0.0759528l3.93701e-006 0.000137795c-0.000787402,3.54331e-005 -0.0015748,5.51181e-005 -0.00235827,5.51181e-005l0 3.93701e-006z"/>
   </g>
   <path id="_283590528" class="fil1" d="M2.83406 2.44662c0.167461,-0.158831 0.383406,-0.234756 0.597157,-0.22911 0.213992,0.00565354 0.425728,0.0928386 0.584469,0.260201 0.158835,0.167457 0.23476,0.383402 0.229114,0.597157 -0.00564173,0.21348 -0.0924331,0.424705 -0.259008,0.583323l0.000106299 0.000110236 0 0 3.93701e-006 7.87402e-006c-0.00167323,0.00166929 -0.00341339,0.00323622 -0.0052126,0.00469291 -0.166902,0.156331 -0.38115,0.231055 -0.593248,0.225449 -0.21348,-0.00564173 -0.424701,-0.0924331 -0.583319,-0.259004l-0.000106299 0.000106299 -3.93701e-006 -3.93701e-006 -3.93701e-006 7.87402e-006c-0.00167323,-0.00167323 -0.00323622,-0.00341339 -0.00469291,-0.0052126 -0.156335,-0.166906 -0.231059,-0.38115 -0.225453,-0.593252 0.00565354,-0.213992 0.0928386,-0.425728 0.260197,-0.584472zm0.594039 -0.0965472c-0.179945,-0.00475591 -0.361681,0.0591142 -0.502543,0.19272 -0.140961,0.133701 -0.214382,0.311709 -0.21913,0.491417 -0.00472047,0.17865 0.0582047,0.359051 0.18985,0.499484l0.000385827 0.000358268 0.000224409 0.000208661 0.000409449 0.000397638 0.000814961 0.000795276 -3.93701e-006 0c0.000417323,0.000413386 0.000826772,0.000834646 0.00123228,0.00125984l-0.000125984 0.00011811c0.133693,0.140906 0.311673,0.214307 0.491346,0.219055 0.178646,0.00472441 0.359051,-0.0582008 0.49948,-0.189846l0.000358268 -0.000389764 0.000208661 -0.000224409 0.000397638 -0.000405512 0.000795276 -0.000814961 3.93701e-006 0c0.000409449,-0.000413386 0.000834646,-0.000822835 0.00125984,-0.00122835l0.000114173 0.000122047c0.140909,-0.133697 0.214311,-0.311677 0.219059,-0.49135 0.00475197,-0.179949 -0.0591102,-0.361685 -0.19272,-0.502547 -0.133701,-0.140961 -0.311709,-0.214382 -0.491417,-0.21913z"/>
   <path id="_283590288" class="fil1" d="M4.01348 3.59349c-0.0252638,-0.0265551 -0.0672756,-0.0276024 -0.0938307,-0.00233858 -0.0265551,0.0252638 -0.0276024,0.0672756 -0.00233858,0.0938307l0.224606 0.236803c0.0252638,0.0265551 0.0672756,0.0276024 0.0938307,0.00233858 0.0265551,-0.0252638 0.0276024,-0.0672756 0.00233858,-0.0938346l-0.224606 -0.236799z"/>
   <path id="_283591032" class="fil1" d="M4.03611 3.93052c-0.0265551,0.0252638 -0.0276024,0.0672756 -0.00233858,0.0938346 0.0252677,0.0265551 0.0672795,0.0276024 0.0938346,0.00233858l0.216276 -0.205142c0.0265551,-0.0252638 0.0276024,-0.0672756 0.00233858,-0.0938346 -0.0252638,-0.0265551 -0.0672756,-0.0276024 -0.0938346,-0.00233465l-0.216276 0.205138z"/>
   <path id="_283590384" class="fil1" d="M2.87624 3.41018c0.0548346,-0.083748 0.129752,-0.149311 0.216433,-0.187079 0.000523622,0.00106299 0.00115354,0.00209055 0.0018937,0.00307087 0.0211929,0.0280945 0.0430866,0.0556535 0.0642441,0.0837953 0.0265748,0.0353661 0.0523425,0.0714606 0.075878,0.108929 0.0209331,0.0333189 0.0404685,0.0681811 0.0559449,0.104394 0.0219724,0.0514173 0.0394134,0.1075 0.0547913,0.161248l0.000555118 0.00192913c-0.146354,-0.0144961 -0.282476,-0.0789567 -0.386949,-0.183563l-0.0115472 -0.0121102c-0.00183071,-0.00191732 -0.00116929,-0.00125197 -0.00283465,-0.00288583l-0.00181496 -0.00177559 -0.00140551 -0.00130709c-0.0246142,-0.0227441 -0.0462874,-0.0477992 -0.065189,-0.0746457z"/>
   <path id="_283590144" class="fil1" d="M3.38634 3.68918c-0.00135039,-0.00482677 -0.00271654,-0.00964961 -0.00409449,-0.0144685 -0.015874,-0.0554213 -0.0338937,-0.113248 -0.0565551,-0.166268 -0.0155669,-0.0364331 -0.0352205,-0.0715709 -0.0561811,-0.105154 -0.023937,-0.0383622 -0.0501142,-0.0753622 -0.0771181,-0.111618 -0.0201102,-0.0270039 -0.0408425,-0.0535 -0.0611969,-0.0802953 0.0112835,0.000610236 0.0218858,0.00622835 0.0286969,0.0154252 0.00636614,0.00752756 0.0129213,0.0146417 0.0196457,0.0213031 0.00747638,0.00741732 0.0152126,0.0144213 0.023189,0.0209803 0.0295472,0.0242874 0.0638937,0.0438898 0.100441,0.0570157 0.0348937,0.0125354 0.0717165,0.0191575 0.108138,0.0182835 0.0542717,-0.00130315 0.103232,-0.0125276 0.145854,-0.0322913 0.0430118,-0.0199449 0.0796024,-0.0487323 0.10865,-0.0848976l-7.48031e-005 -5.90551e-005c0.00579134,-0.00720472 0.0136575,-0.0117598 0.0220551,-0.0134961 -0.0198031,0.0260276 -0.0399291,0.0517913 -0.0594764,0.0780315 -0.027,0.0362559 -0.0531811,0.0732559 -0.0771142,0.111618 -0.0209606,0.0335827 -0.0406142,0.0687205 -0.056185,0.105154 -0.0226614,0.0530197 -0.0406811,0.110846 -0.0565512,0.166268 -0.00138976,0.00485039 -0.00275984,0.00970472 -0.00412205,0.0145669 -0.0140354,0.000433071 -0.0280551,0.000464567 -0.0420197,9.84252e-005 -0.00199606,-5.51181e-005 -0.00398819,-0.000125984 -0.00598031,-0.00019685z"/>
   <path id="_283589952" class="fil1" d="M3.72803 3.2231c0.0845748,0.0368307 0.157965,0.10013 0.212425,0.180972 -0.0234764,0.0354134 -0.050622,0.0686614 -0.0812047,0.0992047l-0.0121102 0.0115472c-0.00191732,0.00183071 -0.00125197,0.00116929 -0.00288583,0.00283858l-0.00177165 0.00181496 -0.00130709 0.00140551c-0.0947283,0.102512 -0.229547,0.154157 -0.366583,0.166035l0.000681102 -0.00238189c0.0153819,-0.053748 0.0328189,-0.109831 0.0547913,-0.161248 0.0154803,-0.0362126 0.0350118,-0.0710748 0.0559449,-0.104394 0.0235394,-0.0374685 0.0493031,-0.073563 0.0758819,-0.108929 0.0211575,-0.0281417 0.0430512,-0.0557008 0.0642402,-0.0837953 0.000744094,-0.000980315 0.00137008,-0.00200787 0.00189764,-0.00307087z"/>
   <path id="_283590072" class="fil1" d="M3.53734 2.75537l0.00165748 0.000409449 0.000212598 5.51181e-005 0.00124016 0.000314961 0.000216535 5.90551e-005 0.000661417 0.000173228 0.00104331 0.000275591 0.000602362 0.000161417 0.00127165 0.000350394 0.000165354 4.72441e-005 0.00130709 0.000370079 0.000374016 0.000106299 0.000169291 4.72441e-005 0.00145276 0.00042126 9.44882e-005 2.75591e-005 0.00168898 0.000511811 0.000110236 3.14961e-005 0.00137008 0.000425197 0.000259843 7.87402e-005 0.000814961 0.000251969 0.000425197 0.000141732 0.000716535 0.000228346 0.00105512 0.00034252 0.000401575 0.000129921 0.000279528 9.44882e-005 0.0014252 0.000476378 1.1811e-005 3.93701e-006 0.00143701 0.000492126 0.000248031 8.66142e-005 0.00118504 0.000413386 0.000511811 0.000185039 0.000326772 0.000114173 0.000992126 0.000358268 0.00080315 0.000295276 0.000527559 0.000192913 0.00104331 0.00038189 7.48031e-005 3.14961e-005 0.00129921 0.000488189 0.000125984 4.72441e-005 0.00141339 0.000547244 0.000137795 5.51181e-005 3.93701e-005 1.5748e-005 0.00154724 0.000610236 9.05512e-005 3.14961e-005 0.00101575 0.000405512 0.00065748 0.000267717 0.000314961 0.000129921 0.000874016 0.000358268 0.000834646 0.000346457 0.000129921 5.11811e-005 0.00116929 0.000492126 2.75591e-005 1.1811e-005 0.00146457 0.000625984 0.000137795 5.90551e-005 2.75591e-005 1.1811e-005 0.00136614 0.000594488 0.000283465 0.000122047 0.0011063 0.000492126 0.000535433 0.00023622 0.000307087 0.000141732 0.00102756 0.000468504 0.00030315 0.000133858 0.000586614 0.000271654 0.000413386 0.000188976 0.00088189 0.000409449 8.66142e-005 3.93701e-005 0.0012874 0.000606299 8.26772e-005 3.93701e-005 0.00136614 0.000653543 0.00103937 0.000503937 0.000433071 0.000212598 0.000866142 0.000425197 0.000610236 0.00030315 0.00092126 0.000452756 0.000200787 0.000106299 0.000917323 0.000464567 0.000133858 6.69291e-005 0.00108661 0.000559055 0.000366142 0.000188976 0.000185039 9.05512e-005 0.00133465 0.000700787 6.29921e-005 3.14961e-005 0.00126378 0.000669291 0.000314961 0.000165354 0.00026378 0.000145669 0.00126378 0.000681102 9.05512e-005 4.72441e-005 0.00122047 0.000669291 0.000287402 0.000153543 0.000519685 0.000291339 0.00102756 0.000574803 0.000283465 0.00015748 0.00125984 0.000712598 3.93701e-005 2.3622e-005 0.00129528 0.000744094 0.00019685 0.000114173 0.000374016 0.000224409 0.00105118 0.000606299 9.84252e-005 6.29921e-005 0.000846457 0.000496063 0.000669291 0.000401575 0.000610236 0.000362205 0.000897638 0.000543307 0.000370079 0.000224409 0.00112205 0.000688976 0.000137795 8.66142e-005 0.00125197 0.000779528 9.84252e-005 6.29921e-005 0.00114961 0.000724409 8.66142e-005 5.11811e-005 0.00073622 0.000468504 0.000417323 0.000267717 0.000551181 0.000358268 0.000248031 0.00015748 0.000877953 0.000574803 0.000330709 0.000212598 0.000448819 0.000299213 0.001 0.00065748 0.000220472 0.000149606 0.00120866 0.000811024c0.0290079,0.0195984 0.0500276,0.0422835 0.0543268,0.0611457l-3.14961e-005 7.87402e-006 0.00015748 0.000933071 -4.33071e-005 7.87402e-006 3.93701e-006 1.5748e-005 0 1.1811e-005 3.93701e-006 1.5748e-005 3.93701e-006 7.87402e-006 0 1.5748e-005 3.93701e-006 1.1811e-005 0 1.5748e-005 3.93701e-006 1.1811e-005c4.33071e-005,0.000212598 9.44882e-005,0.000429134 0.000141732,0.000641732l3.93701e-006 1.1811e-005 3.93701e-006 1.5748e-005 0 1.1811e-005 3.93701e-006 1.1811e-005 0 1.5748e-005 7.87402e-006 1.1811e-005 0 0 0 1.1811e-005 3.93701e-006 1.5748e-005c0.00208661,0.012622 0.00351969,0.0250236 0.00418898,0.0371575l3.14961e-005 0.000574803 3.14961e-005 0.000582677 2.75591e-005 0.000574803 2.75591e-005 0.000574803 2.75591e-005 0.00057874 2.3622e-005 0.00057874 2.3622e-005 0.000574803 2.75591e-005 0.00057874 1.9685e-005 0.00057874 1.9685e-005 0.00057874 1.9685e-005 0.00057874 1.9685e-005 0.000582677 1.1811e-005 0.000574803 3.93701e-006 0 1.5748e-005 0.00057874 0 0 1.1811e-005 0.00057874 1.5748e-005 0.00057874 1.1811e-005 0.00057874 0 0 7.87402e-006 0.00057874 1.1811e-005 0.00057874 7.87402e-006 0.00057874 0 0 3.93701e-006 0.000582677 3.93701e-006 0 3.93701e-006 0.00057874 3.93701e-006 0 0 0.000582677 3.93701e-006 0 0 0.00057874 0 0.00057874 0 0.00115748 0 0.000582677 0 0 0 0.00057874 -3.93701e-006 0 0 0.000582677 -3.93701e-006 0 -3.93701e-006 0.00057874 -3.93701e-006 0 -1.1811e-005 0.00116535 0 0 -1.9685e-005 0.00116142 0 0c-0.000255906,0.0126299 -0.00143701,0.0246732 -0.00326378,0.0371693 -0.0106693,0.0728583 -0.0388268,0.126228 -0.0774134,0.163457 -0.0489803,0.0472638 -0.115555,0.0694685 -0.18487,0.0730354l0 -3.54331e-005c-0.0578622,0 -0.127685,-0.0238937 -0.181394,-0.0757205 -0.000649606,-0.000622047 -0.00129528,-0.00125197 -0.00193701,-0.00188583l-7.48031e-005 -7.08661e-005 -0.00184646 -0.00184252 -3.14961e-005 -2.75591e-005 -0.000862205 -0.000877953 -0.00117717 -0.00119685 -0.000488189 -0.000507874 -0.00138976 -0.00144882 -0.000779528 -0.000814961 -0.00111811 -0.00119685 -0.001 -0.00108268 -0.000870079 -0.000937008 -0.000905512 -0.00100394 -0.00101181 -0.00112205 -0.000846457 -0.000952756 -0.00100787 -0.00114173 -0.000901575 -0.00104331 -0.000917323 -0.00106299 -0.000909449 -0.00106693 -0.000944882 -0.00111811 -0.000838583 -0.00101181 -0.00096063 -0.00116142 -0.000925197 -0.0011378 -0.000826772 -0.00102756 -0.000877953 -0.00109843 -0.000968504 -0.00123228 -0.000870079 -0.00111417 -0.000712598 -0.00092126 -0.00106693 -0.00140157 -0.000732283 -0.000976378 -0.000972441 -0.00129528 -0.000751969 -0.00102362 -0.000866142 -0.00118898 -0.001 -0.00138189 -0.000665354 -0.000940945 -0.000877953 -0.00125197 -0.000854331 -0.00122441 -0.000767717 -0.00111811 -0.000893701 -0.00131102 -0.000771654 -0.00115748 -0.000791339 -0.00118504 -0.000901575 -0.00138583 -0.000712598 -0.00109843 -0.000791339 -0.00124016 -0.000834646 -0.00131496 -0.000559055 -0.000893701 -0.001 -0.00161417 -5.90551e-005 -9.84252e-005c-0.00046063,-0.000748031 -0.000917323,-0.00150787 -0.00137008,-0.00226378l-3.54331e-005 -5.90551e-005 -0.00109843 -0.00186614 -0.000413386 -0.000688976 -7.08661e-005 -0.000129921c-0.000488189,-0.000834646 -0.000968504,-0.00166929 -0.00144488,-0.00251181l-2.3622e-005 -3.54331e-005c-0.000484252,-0.000850394 -0.00096063,-0.00170866 -0.00143701,-0.00256693l-3.93701e-005 -6.69291e-005c-0.000464567,-0.000838583 -0.000925197,-0.0016811 -0.00138189,-0.0025315l-8.66142e-005 -0.000165354 -0.000448819 -0.000846457 -0.000940945 -0.00176772 -0.000543307 -0.00104724 -0.000834646 -0.00161024 -0.000767717 -0.0015315 -0.000582677 -0.00114961 -0.000720472 -0.00146457 -0.000653543 -0.00134252 -0.000677165 -0.00141339 -0.000641732 -0.00136614 -0.000637795 -0.00136614 -0.000661417 -0.00144094 -0.000641732 -0.00141732 -0.000649606 -0.00144882 -0.000594488 -0.00135827 -0.000625984 -0.00144488 -0.000716535 -0.00169291 -0.000452756 -0.00107874 -0.000728346 -0.00176378 -0.000511811 -0.00125984 -0.000610236 -0.00151969 -0.000586614 -0.00148425 -0.000582677 -0.00150787 -0.000547244 -0.00144882 -0.000559055 -0.00148031 -0.000586614 -0.00159449 -0.000496063 -0.00137795 -0.000590551 -0.00165748 -0.000531496 -0.00151575 -0.000464567 -0.00135433 -0.000562992 -0.00167323 -0.000555118 -0.00169291 -0.00042126 -0.00129528 -0.000555118 -0.00173622 -0.000484252 -0.0015315 -0.000413386 -0.00135827 -0.000543307 -0.00179921 -0.000464567 -0.00159055 -0.000440945 -0.00151969 -0.000570866 -0.00202362 -0.00030315 -0.00108661 -0.000586614 -0.00216535 -0.000311024 -0.00117323 -0.000413386 -0.00161024 -0.000444882 -0.00172835 -2.3622e-005 -9.84252e-005c-0.000255906,-0.00100394 -0.0005,-0.00201181 -0.000744094,-0.00302362l-4.72441e-005 -0.000208661c-0.000255906,-0.00105512 -0.000503937,-0.00211417 -0.000744094,-0.00317717l-1.9685e-005 -8.26772e-005c-0.000248031,-0.00109055 -0.000492126,-0.00218898 -0.000732283,-0.0032874l-1.1811e-005 -4.33071e-005c-0.000232283,-0.00108268 -0.000464567,-0.00217717 -0.000688976,-0.00327559l-3.54331e-005 -0.000165354c-0.000216535,-0.00105512 -0.000429134,-0.00211417 -0.000633858,-0.00317323l-3.14961e-005 -0.000149606 -0.000228346 -0.00120866 -0.000437008 -0.00231102 -0.000212598 -0.0011811 -0.000385827 -0.00216535 -0.000299213 -0.00177953 -0.000287402 -0.00171654 -0.000267717 -0.00169685 -0.000291339 -0.00187795 -0.000240157 -0.00163386 -0.000271654 -0.00188976 -0.000232283 -0.00169291 -0.000248031 -0.00185039 -0.000244094 -0.00190945 -0.000137795 -0.0011063c0.0495157,-0.0512559 0.0870787,-0.0690354 0.121236,-0.0852008 0.036811,-0.0174213 0.0702244,-0.0332402 0.10828,-0.0771378 -0.00135433,0.0184449 -0.00458661,0.0335157 -0.0074252,0.0410315 -0.00291339,0.00599606 -0.00376772,0.0130276 -0.00189764,0.0199724 0.0041063,0.0152953 0.0198465,0.0243701 0.0351457,0.0202598l-1.1811e-005 -3.54331e-005c0.0749488,-0.0201614 0.101425,-0.0649843 0.127236,-0.129846 0.0144488,-0.0363189 0.0283031,-0.0746024 0.0393622,-0.112106 0.00148819,-0.00503937 0.00674409,-0.00793307 0.0117913,-0.00644882 0.00502362,0.00148031 0.00791732,0.00673622 0.00643701,0.0117677 -0.0112165,0.0380197 -0.0253622,0.0768898 -0.0400118,0.113709 -0.00302362,0.00759843 -0.00612205,0.015185 -0.00933465,0.0227205zm0.3095 0.495039c0.00076378,-0.0341378 -0.00196457,-0.168602 -0.00394882,-0.266429 -0.00109055,-0.0537835 -0.00195669,-0.0963622 -0.00189764,-0.103555 0.00125984,-0.16324 -0.0498976,-0.268492 -0.130748,-0.334177 -0.078937,-0.0641378 -0.184331,-0.0881693 -0.295705,-0.0908031 -0.00162205,-0.000177165 -0.00326772,-0.000251969 -0.00494094,-0.000220472l3.93701e-006 0.000141732c-0.112642,0.00221654 -0.21939,0.0260787 -0.299146,0.090878 -0.0808425,0.065689 -0.132004,0.170941 -0.130744,0.334181 0.000114173,0.0142756 0.00370079,0.134114 0.00704724,0.234264 0.00168504,0.0502283 0.00332283,0.095874 0.0044685,0.121685 0.0239764,-0.0167402 0.0493976,-0.0314606 0.0761142,-0.0438268l-0.000547244 -0.00149213 0.0358504 -0.0132402c0.0314843,-0.0116299 0.0665669,-0.000854331 0.0872283,0.0252402 0.00503543,0.00635433 0.0108346,0.012185 0.0165866,0.0178858 0.00656693,0.00650787 0.0134134,0.0127244 0.0205551,0.0185945 0.0264134,0.0217165 0.0568937,0.0390039 0.0890827,0.0505669 0.0300984,0.010815 0.0622559,0.016811 0.0942913,0.0160394 0.0449961,-0.00107874 0.0897087,-0.00975197 0.130677,-0.028752 0.0349882,-0.0162244 0.0654764,-0.0393071 0.0903228,-0.0685827l0.00452362 -0.00562598c0.0216063,-0.0268898 0.0583701,-0.0355079 0.0899803,-0.0223189 0.0433898,0.0181024 0.0839606,0.0415315 0.120945,0.0695472z"/>
   <path id="_283589760" class="fil1" d="M4.06882 3.8995l0.15437 -0.146417 0.0457441 0.0480827 -0.0457913 -0.0482756c0.0266654,-0.0252913 0.0687795,-0.0241772 0.0940709,0.00248425 0.00109055,0.00115354 0.00212992,0.00233465 0.00312598,0.00354331l0.558193 0.5885 -0.0480866 0.045748 0.0482795 -0.0457913c0.0252874,0.0266614 0.0241732,0.0687795 -0.00248819,0.0940669 -0.00114961,0.00109449 -0.00233465,0.00213386 -0.00354331,0.00312992l-0.154366 0.146413 -0.045748 -0.0480827 0.0457913 0.0482795c-0.0266614,0.0252874 -0.0687795,0.0241732 -0.0940709,-0.00248819 -0.00109843,-0.00116142 -0.00214173,-0.00235039 -0.00314173,-0.00356299l-0.558173 -0.58848 0.0480827 -0.045748 -0.0482756 0.0457913c-0.0252874,-0.0266614 -0.0241772,-0.0687795 0.00248425,-0.0940669 0.00115354,-0.00109449 0.00233858,-0.00212992 0.00354331,-0.00312598z"/>
  </g>
 </g>
</svg>
