<?xml version="1.0" encoding="UTF-8"?>
<!DOCTYPE svg PUBLIC "-//W3C//DTD SVG 1.1//EN" "http://www.w3.org/Graphics/SVG/1.1/DTD/svg11.dtd">
<!-- Creator: CorelDRAW -->
<svg xmlns="http://www.w3.org/2000/svg" xml:space="preserve" width="6.82666in" height="6.82666in" style="shape-rendering:geometricPrecision; text-rendering:geometricPrecision; image-rendering:optimizeQuality; fill-rule:evenodd; clip-rule:evenodd"
viewBox="0 0 6.82666 6.82666"
 xmlns:xlink="http://www.w3.org/1999/xlink">
 <defs>
  <style type="text/css">
   <![CDATA[
    .fil0 {fill:#00838F}
    .fil2 {fill:#FFFFFE}
    .fil1 {fill:#FFFFFE;fill-rule:nonzero}
   ]]>
  </style>
 </defs>
 <g id="Layer_x0020_1">
  <metadata id="CorelCorpID_0Corel-Layer"/>
  <circle class="fil0" cx="3.41333" cy="3.41333" r="3.41333"/>
  <g id="_283593216">
   <path id="_283593456" class="fil1" d="M4.20767 4.39267c0.279268,-0.0595079 0.520272,-0.149563 0.701146,-0.260543 0.23363,-0.143354 0.371181,-0.323862 0.371181,-0.52365 0,-0.250665 -0.217811,-0.471858 -0.569957,-0.626839 -0.333205,-0.146642 -0.791772,-0.237346 -1.29671,-0.237346 -0.504941,0 -0.963508,0.0907047 -1.29671,0.237346 -0.352146,0.15498 -0.569957,0.376173 -0.569957,0.626839 0,0.199075 0.136606,0.378992 0.368768,0.522051 0.181409,0.111787 0.423307,0.202433 0.703567,0.262189 0.0178937,-0.0971299 0.0526654,-0.19111 0.103988,-0.275622 0.0573937,-0.0945157 0.135343,-0.176567 0.230213,-0.233965 -0.0152913,-0.042815 -0.0251063,-0.0879724 -0.0296142,-0.134657 -0.00147638,-0.0152992 -0.00190945,-0.0310984 -0.00237795,-0.0464724 -0.000649606,-0.0215394 -0.00106299,-0.0431457 -0.00122441,-0.0646969 -0.00112205,-0.147421 0.0394882,-0.287783 0.157457,-0.38363 0.0739016,-0.0600394 0.163409,-0.0894055 0.256063,-0.100413l-0.00011811 -0.00393307 0.0769921 -0.00151181c0.0135,-0.00026378 0.00748819,-1.5748e-005 0.0165039,0.000610236 0.115213,0.00802362 0.230504,0.0306299 0.32235,0.105248 0.117965,0.0958465 0.158579,0.236213 0.157457,0.38363 -0.000161417,0.0215512 -0.000574803,0.0431575 -0.00122441,0.0646969 -0.000468504,0.015374 -0.000905512,0.0311811 -0.00238189,0.0464843 -0.00451575,0.0467008 -0.0136654,0.0922047 -0.0281535,0.135476l0.000614173 0.000374016c0.0949488,0.0579409 0.172811,0.140587 0.229976,0.235638 0.0503622,0.0837402 0.0844961,0.176689 0.102157,0.272697z"/>
   <g>
    <path id="_283593360" class="fil1" d="M4.04911 2.29029c-0.0688976,0.0381772 -0.128236,0.0948228 -0.172823,0.164067 -0.0431024,0.0669449 -0.0724843,0.14572 -0.0833189,0.230815 0.326339,0.0296535 0.659787,0.0999961 0.94776,0.226732 0.079378,0.0349291 0.163004,0.0782992 0.242154,0.130283 0.00500787,-0.0148701 0.00775197,-0.0308425 0.00775197,-0.047378l0 -0.00850787c0,-0.112299 -0.0321732,-0.444583 -0.0865906,-0.529933 -0.0442874,-0.0694567 -0.103362,-0.126386 -0.172031,-0.164913 -0.0182913,0.0366102 -0.0426339,0.0703504 -0.0738976,0.0999567 -0.186819,0.176898 -0.492331,0.120445 -0.609004,-0.101122zm0.34037 0.148661l-0.000125984 0 -0.000216535 0c-0.0719724,-8.66142e-005 -0.158374,-0.0289449 -0.224358,-0.0914252 -0.0527008,-0.0499016 -0.0925551,-0.120787 -0.101835,-0.214831 -0.000688976,-0.00697244 -0.00122835,-0.0190472 -0.00162992,-0.0320945 -0.00053937,-0.0174331 -0.000862205,-0.0385827 -0.000940945,-0.0487638 -0.000956693,-0.121331 0.0389606,-0.200492 0.102012,-0.250764 0.061378,-0.0489331 0.141764,-0.0669252 0.225945,-0.0685512l-7.87402e-006 -0.000212598c0.00259843,-5.11811e-005 0.00515748,7.08661e-005 0.00766929,0.00034252 0.0822244,0.00227559 0.160508,0.0205276 0.220579,0.0684213 0.0630512,0.0502717 0.102969,0.129437 0.102016,0.250764 -7.87402e-005,0.0101811 -0.000401575,0.0313307 -0.000940945,0.0487638 -0.000401575,0.0130472 -0.000940945,0.025122 -0.00162992,0.0320945 -0.00954724,0.0967244 -0.0462756,0.167673 -0.0986575,0.217268 -0.0611732,0.0579291 -0.142067,0.0848425 -0.225071,0.0887638l7.87402e-006 0.00015748c-0.000940945,4.72441e-005 -0.00188189,6.69291e-005 -0.00281496,6.69291e-005l0 0z"/>
    <path id="_283594032" class="fil1" d="M2.77755 2.29029c0.0688976,0.0381772 0.128236,0.0948228 0.172823,0.164067 0.0431024,0.0669449 0.0724843,0.14572 0.0833189,0.230815 -0.326339,0.0296535 -0.659787,0.0999961 -0.94776,0.226732 -0.079378,0.0349291 -0.163004,0.0782992 -0.242154,0.130283 -0.00500787,-0.0148701 -0.00775197,-0.0308425 -0.00775197,-0.047378l0 -0.00850787c0,-0.112299 0.0321732,-0.444583 0.0865906,-0.529933 0.0442874,-0.0694567 0.103362,-0.126386 0.172031,-0.164913 0.0182913,0.0366102 0.0426339,0.0703504 0.0738976,0.0999567 0.186819,0.176898 0.492331,0.120445 0.609004,-0.101122zm-0.34037 0.148661l0.000125984 0 0.000216535 0c0.0719724,-8.66142e-005 0.158374,-0.0289449 0.224358,-0.0914252 0.0527008,-0.0499016 0.0925551,-0.120787 0.101835,-0.214831 0.000688976,-0.00697244 0.00122835,-0.0190472 0.00162992,-0.0320945 0.00053937,-0.0174331 0.000862205,-0.0385827 0.000940945,-0.0487638 0.000956693,-0.121331 -0.0389606,-0.200492 -0.102012,-0.250764 -0.061378,-0.0489331 -0.141764,-0.0669252 -0.225945,-0.0685512l7.87402e-006 -0.000212598c-0.00259843,-5.11811e-005 -0.00515748,7.08661e-005 -0.00766929,0.00034252 -0.0822244,0.00227559 -0.160508,0.0205276 -0.220579,0.0684213 -0.0630512,0.0502717 -0.102969,0.129437 -0.102016,0.250764 7.87402e-005,0.0101811 0.000401575,0.0313307 0.000940945,0.0487638 0.000401575,0.0130472 0.000940945,0.025122 0.00162992,0.0320945 0.00954724,0.0967244 0.0462756,0.167673 0.0986575,0.217268 0.0611732,0.0579291 0.142067,0.0848425 0.225071,0.0887638l-7.87402e-006 0.00015748c0.000940945,4.72441e-005 0.00188189,6.69291e-005 0.00281496,6.69291e-005l0 0z"/>
   </g>
   <path id="_283592856" class="fil1" d="M3.12851 4.01864c-0.0668031,-0.0644528 -0.117319,-0.156012 -0.129091,-0.277492 -0.000866142,-0.00900787 -0.00155118,-0.0245984 -0.00205512,-0.0414567 -0.000688976,-0.0225118 -0.00109843,-0.0498307 -0.00119685,-0.0629724 -0.0012126,-0.156728 0.0493819,-0.25898 0.129315,-0.323917 0.0777953,-0.0632087 0.179693,-0.086437 0.286398,-0.0885394l-7.87402e-006 -0.000279528c0.00329134,-6.29921e-005 0.0065315,9.05512e-005 0.0097126,0.000444882 0.104232,0.00294094 0.203465,0.0265157 0.279602,0.088374 0.0799252,0.064937 0.130528,0.167189 0.129315,0.323917 -9.84252e-005,0.0131417 -0.000511811,0.0404606 -0.00119685,0.0629724 -0.000503937,0.0168583 -0.00119291,0.0324488 -0.00205906,0.0414567 -0.0121024,0.124941 -0.0586614,0.216579 -0.125055,0.280642 -0.189571,0.0317283 -0.440744,0.0358701 -0.573681,-0.00314961zm-0.134866 -0.070937c-0.0818071,0.049252 -0.152303,0.121268 -0.205535,0.208933 -0.0515197,0.0848268 -0.0869528,0.184354 -0.100744,0.291882 0.0116654,-0.00329921 0.0239252,-0.00507087 0.0365669,-0.00507087l1.3788 0c0.0126457,0 0.0249094,0.00177559 0.0365748,0.0050748 -0.0136339,-0.1065 -0.0484528,-0.205102 -0.0990748,-0.289287 -0.0528425,-0.0878504 -0.122937,-0.160173 -0.204374,-0.20987 -0.0222992,0.043622 -0.0514016,0.0839094 -0.0882638,0.11948l-0.0145984 0.0140866 -0.0200118 0.00334646c-0.169957,0.0284488 -0.439465,0.0430669 -0.60289,-0.00489764l-0.0154213 -0.00452756 -0.0115669 -0.0111575c-0.0365748,-0.0352913 -0.066315,-0.0749803 -0.0894567,-0.117992z"/>
   <path id="_283592664" class="fil2" d="M2.63874 4.50604l1.54918 0c0.0516063,0 0.0938228,0.0408504 0.0938228,0.0907717l0 0.497555 -1.73682 0 0 -0.497555c0,-0.0499252 0.0422165,-0.0907717 0.0938189,-0.0907717z"/>
  </g>
 </g>
</svg>
