<?xml version="1.0" encoding="UTF-8"?>
<!DOCTYPE svg PUBLIC "-//W3C//DTD SVG 1.1//EN" "http://www.w3.org/Graphics/SVG/1.1/DTD/svg11.dtd">
<!-- Creator: CorelDRAW -->
<svg xmlns="http://www.w3.org/2000/svg" xml:space="preserve" width="6.82666in" height="6.82666in" style="shape-rendering:geometricPrecision; text-rendering:geometricPrecision; image-rendering:optimizeQuality; fill-rule:evenodd; clip-rule:evenodd"
viewBox="0 0 6.82666 6.82666"
 xmlns:xlink="http://www.w3.org/1999/xlink">
 <defs>
  <style type="text/css">
   <![CDATA[
    .fil0 {fill:#795548}
    .fil2 {fill:#FFFFFE}
    .fil1 {fill:#FFFFFE;fill-rule:nonzero}
   ]]>
  </style>
 </defs>
 <g id="Layer_x0020_1">
  <metadata id="CorelCorpID_0Corel-Layer"/>
  <circle class="fil0" cx="3.41333" cy="3.41333" r="3.41333"/>
  <g id="_283585944">
   <g>
    <path id="_283586688" class="fil1" d="M2.32639 4.35776c0,-0.0340709 -0.027622,-0.0616929 -0.0616929,-0.0616929 -0.0340748,0 -0.0616969,0.027622 -0.0616969,0.0616929l0 0.550657c0,0.0340709 0.027622,0.0616969 0.0616969,0.0616969 0.0340709,0 0.0616929,-0.027626 0.0616929,-0.0616969l0 -0.550657z"/>
    <path id="_283586904" class="fil1" d="M2.37958 4.61026c0,-0.0200236 -0.0514409,-0.0362559 -0.114886,-0.0362559 -0.0634488,0 -0.11489,0.0162323 -0.11489,0.0362559l0 0.323594c0,0.0200236 0.0514409,0.0362598 0.11489,0.0362598 0.0634449,0 0.114886,-0.0162362 0.114886,-0.0362598l0 -0.323594z"/>
    <path id="_283586472" class="fil1" d="M1.56473 5.16196c-0.0240906,0.0240906 -0.0240906,0.0631496 0,0.0872402 0.0240906,0.0240906 0.0631496,0.0240906 0.0872402,0l0.124772 -0.124772c0.462417,-0.0868976 0.499811,-0.087626 0.962697,-0.0131969l0.137976 0.137969c0.0240906,0.0240906 0.0631496,0.0240906 0.0872402,0 0.0240906,-0.0240906 0.0240906,-0.0631496 0,-0.0872402l-0.151157 -0.151154c-0.0088622,-0.0091378 -0.020622,-0.0156181 -0.0341457,-0.0178622l-0.0100945 0.0608622 0.00987795 -0.0607323 -0.499748 -0.0828937c-0.00829528,-0.00203543 -0.0171457,-0.00238189 -0.0260866,-0.000700787l2.75591e-005 0.000149606 -0.514012 0.0965984c-0.0133465,0.00153937 -0.0262835,0.00742126 -0.0365197,0.0176575l3.93701e-006 3.93701e-006 -0.138071 0.138071z"/>
    <path id="_283585896" class="fil1" d="M2.2647 4.47681c-0.0170354,0 -0.0308465,0.013811 -0.0308465,0.0308465 0,0.0170354 0.013811,0.0308504 0.0308465,0.0308504l0.29548 0 0.034937 0.0362244 0.047126 0.0676024c0.0168819,0.0175551 0.0448031,0.0180945 0.0623543,0.0012126 0.0175512,-0.0168819 0.0180945,-0.0456654 0.00120866,-0.0632205l-0.0641929 -0.046622 -0.0447441 -0.0463937c-0.00565748,-0.0067874 -0.0141732,-0.0105 -0.0236969,-0.0105l-0.308472 0z"/>
   </g>
   <path id="_283586352" class="fil2" d="M2.71077 3.17199c0.0104252,0.00879134 0.0243189,0.017748 0.0355394,0.0254567 0.0223031,0.0153307 0.0448661,0.0303189 0.0674843,0.0451732 0.0235433,0.0154528 0.0472008,0.0307677 0.0710079,0.0458189 0.0124055,0.00784646 0.0260669,0.0170197 0.0389764,0.0239055 0.0581063,0.0294134 0.226701,0.0250315 0.292559,0.0225118 0.0651063,-0.00249606 0.13013,-0.00709843 0.195075,-0.0122323 0.0467992,-0.00370079 0.0944646,-0.00850394 0.141323,-0.010374l0.0249803 -0.000996063c0.0428346,-0.00440945 0.0838307,-0.0217638 0.116016,-0.050878 0.035685,-0.0322795 0.0574173,-0.0760866 0.0574173,-0.124638 0,-0.0485551 -0.0217323,-0.0923622 -0.0574173,-0.124642 -0.0374134,-0.0338425 -0.0867323,-0.0517953 -0.137,-0.0519961 -0.00225984,5.51181e-005 -0.00450394,4.33071e-005 -0.00676378,-6.69291e-005l-0.43511 -0.0212756 -0.363059 -0.508276c-0.0122283,-0.0171181 -0.0269646,-0.0322717 -0.0439016,-0.0447638 -0.0163819,-0.0120827 -0.0368543,-0.0208465 -0.0555157,-0.0287795 -0.0171969,-0.00731496 -0.0348425,-0.0159409 -0.0526496,-0.0215118 -0.102094,-0.0319409 -0.214421,-0.0118858 -0.299256,0.0533661 -0.0332244,0.0255551 -0.0613701,0.0572835 -0.0826929,0.093374 -0.0181102,0.0306614 -0.0287441,0.0922441 -0.0347677,0.12722 -0.0132441,0.0769094 -0.0228465,0.154563 -0.0356535,0.231622 -0.0571614,0.343972 -0.0959646,0.689035 -0.141508,1.03441 -0.00510236,0.0387126 -0.00332677,0.078122 0.00543701,0.116177 0.00583858,0.0253425 0.0150827,0.0530866 0.027374,0.0809173 0.242366,-0.0281693 0.503614,-0.0197559 0.730571,0.0310394 0.0509055,0.00327165 0.0952559,0.0307087 0.121705,0.0709409l0.0869094 -0.0133386 0.0276299 0.0435551c0.0153937,0.0242677 0.0290748,0.052126 0.0421417,0.0777598 0.0211732,0.0415512 0.0418976,0.0833583 0.0627559,0.125071 0.0555866,0.111189 0.111764,0.222094 0.171118,0.331327 0.05,0.0920039 0.102504,0.184413 0.160575,0.271579 0.121453,0.230228 0.491248,0.179461 0.345654,-0.172732 -0.0570197,-0.137933 -0.129807,-0.274583 -0.20178,-0.405307 -0.0601024,-0.109169 -0.122449,-0.217098 -0.185354,-0.324673 -0.0463937,-0.0793425 -0.0939685,-0.158539 -0.13872,-0.238791 -0.036752,-0.0659016 -0.108236,-0.139874 -0.190622,-0.132114l-0.495685 0.0467008 0.00298819 -0.739098 0.13222 0.128559z"/>
   <path id="_283586184" class="fil1" d="M2.65092 1.55939c0.103508,0 0.197232,0.0419646 0.265075,0.109807 0.0678425,0.0678425 0.109807,0.161567 0.109807,0.265075 0,0.103508 -0.0419646,0.197232 -0.109807,0.265075 -0.0678425,0.0678425 -0.161567,0.109807 -0.265075,0.109807 -0.103508,0 -0.197232,-0.0419646 -0.265075,-0.109807 -0.0678386,-0.0678425 -0.109803,-0.161567 -0.109803,-0.265075 0,-0.103508 0.0419646,-0.197232 0.109803,-0.265075 0.0678425,-0.0678425 0.161567,-0.109807 0.265075,-0.109807z"/>
   <polygon id="_283585800" class="fil1" points="3.58879,3.42413 5.28,3.42413 5.28,3.58197 3.58879,3.58197 "/>
   <polygon id="_283586232" class="fil1" points="4.88667,3.50305 4.88667,5.02514 4.72883,5.02514 4.72883,3.50305 "/>
   <polygon id="_283586112" class="fil1" points="4.36718,4.94622 5.24832,4.94622 5.24832,5.10406 4.36718,5.10406 "/>
   <path id="_283586088" class="fil1" d="M3.78214 3.22286c-0.0435827,0 -0.0542559,0.0353386 -0.0542559,0.0789213 0,0.0435827 0.0106732,0.0789173 0.0542559,0.0789173l0.670748 0c0.027752,0 0.0521535,-0.0143268 0.0662244,-0.0359843l0.00525591 -0.0115709 0 -0.0615197c0.00698425,-0.00273228 0.0130354,-0.00732283 0.0175591,-0.0131575l0.0145433 0.00398819 0.309571 -0.681673 -0.0665906 -0.0289764 -0.290028 0.640161 -9.84252e-005 0c-0.0192087,0 -0.0353425,0.013126 -0.039937,0.0308937l-0.687248 0zm0.330685 0.0523819l0.282071 0 0 0.0246654 -0.282071 0 0 -0.0246654z"/>
   <path id="_283586064" class="fil1" d="M1.75013 2.70569c-0.00187008,-0.0434134 -0.0385866,-0.0770866 -0.082,-0.0752165 -0.0434134,0.00187008 -0.0770906,0.0385827 -0.0752205,0.082l0.109091 1.55098 -0.000220472 0.000295276c0.00197244,0.0423031 0.0369134,0.0752598 0.0788307,0.0752323l0 0 0.978358 0c0.0435827,0 0.0789173,-0.0353346 0.0789173,-0.0789173 0,-0.0435866 -0.0353346,-0.0789213 -0.0789173,-0.0789213 -0.25311,-0.0578583 -0.595362,-0.0654488 -0.90328,0 0.12315,-0.462413 0.0590118,-0.876031 -0.105559,-1.47545z"/>
  </g>
 </g>
</svg>
