<?xml version="1.0" encoding="UTF-8"?>
<!DOCTYPE svg PUBLIC "-//W3C//DTD SVG 1.1//EN" "http://www.w3.org/Graphics/SVG/1.1/DTD/svg11.dtd">
<!-- Creator: CorelDRAW -->
<svg xmlns="http://www.w3.org/2000/svg" xml:space="preserve" width="6.82666in" height="6.82666in" style="shape-rendering:geometricPrecision; text-rendering:geometricPrecision; image-rendering:optimizeQuality; fill-rule:evenodd; clip-rule:evenodd"
viewBox="0 0 6.82666 6.82666"
 xmlns:xlink="http://www.w3.org/1999/xlink">
 <defs>
  <style type="text/css">
   <![CDATA[
    .fil0 {fill:#66BB6A}
    .fil2 {fill:#FFFFFE}
    .fil1 {fill:#FFFFFE;fill-rule:nonzero}
   ]]>
  </style>
 </defs>
 <g id="Layer_x0020_1">
  <metadata id="CorelCorpID_0Corel-Layer"/>
  <circle class="fil0" cx="3.41333" cy="3.41333" r="3.41333"/>
  <g id="_283573848">
   <path id="_283574832" class="fil1" d="M4.26371 3.44307c0.267173,0.105362 0.496953,0.305043 0.659051,0.564094 0.159016,0.254134 0.253016,0.565677 0.253016,0.901031l0 0.0268976c0,0.0924016 -0.0332323,0.17715 -0.0867717,0.239252 -0.0562047,0.0651811 -0.134622,0.10565 -0.221673,0.10565l-0.533283 0 0 -1.33024 -0.0703386 0 0 -0.506681zm-0.155087 1.83693l-0.412681 0 -0.112559 -1.03719 0.181941 -0.245894c0.00999213,-0.0114173 0.0159094,-0.0255787 0.0159094,-0.0409134 0,-0.0378346 -0.0359961,-0.0685039 -0.0803976,-0.0685039 -0.197193,0.0677205 -0.385449,0.0746496 -0.561717,0 -0.0149528,-0.000145669 -0.0301181,0.00325591 -0.0437087,0.0105551 -0.0375551,0.0201732 -0.0488071,0.0624803 -0.0251299,0.0944803l0.00019685 -0.000110236 0.185268 0.25039 -0.112327 1.03719 -0.415508 0 0 -1.33024 -0.0720945 0 0 -0.510429c0.00938976,0.00543701 0.0177244,0.0127795 0.0243504,0.0217441 0.018815,0.022311 0.0383228,0.0435157 0.0585118,0.0635236 0.0217402,0.0215512 0.0443465,0.0420118 0.0677913,0.0612874 0.086252,0.0709094 0.186563,0.128134 0.293299,0.166484 0.102169,0.0367087 0.210075,0.0560787 0.316925,0.0535157 0.157992,-0.0037874 0.300638,-0.0365118 0.424906,-0.0941378 0.126028,-0.058437 0.233236,-0.142803 0.31837,-0.248776l-0.000165354 -0.000129921c0.00669291,-0.00833465 0.0147126,-0.0149764 0.0235079,-0.019878l0 0.506795 -0.074689 0 0 1.33024zm-1.60613 0l-0.543165 0c-0.0870512,0 -0.165469,-0.0404685 -0.221673,-0.10565 -0.0535394,-0.0621024 -0.0867717,-0.14685 -0.0867717,-0.239252l0 -0.0268976c0,-0.337843 0.0955157,-0.651654 0.25687,-0.906992 0.164386,-0.260146 0.397264,-0.459744 0.667669,-0.563004l0 0.511551 -0.0729291 0 0 1.33024z"/>
   <path id="_283574568" class="fil2" d="M4.09856 2.27205c0.070622,0.00591339 0.126142,0.0651535 0.126142,0.137299 0,0.0519724 -0.028811,0.097248 -0.0713268,0.120717 -0.00625197,0.0766417 -0.0309213,0.154067 -0.0786969,0.212866 -0.0726535,0.0894173 -0.178402,0.121713 -0.290445,0.120843 -0.015063,-0.00011811 -0.0301614,-0.000397638 -0.0452205,-0.000854331 -0.0113268,-0.00034252 -0.0229173,-0.000692913 -0.0341929,-0.00177953 -0.0936063,-0.00902756 -0.179098,-0.0467795 -0.244709,-0.114772 -0.0177205,-0.0183661 -0.0333543,-0.0383465 -0.0467756,-0.0595827 -0.0134213,0.0212362 -0.0290551,0.0412165 -0.0467756,0.0595787 -0.0656102,0.0679961 -0.151102,0.105748 -0.244709,0.114776 -0.0112756,0.00108661 -0.0228661,0.00143701 -0.0341929,0.00177953 -0.0150591,0.000456693 -0.0301575,0.00073622 -0.0452205,0.000854331 -0.112043,0.000870079 -0.217787,-0.0314252 -0.290445,-0.120843 -0.0477756,-0.0587992 -0.0724449,-0.136224 -0.0786969,-0.21287 -0.0425157,-0.0234646 -0.0713268,-0.0687402 -0.0713268,-0.120713 0,-0.0721457 0.0555197,-0.131386 0.126142,-0.137299 0.00719291,-0.0118307 0.0151417,-0.0232008 0.023878,-0.0339567 0.0726535,-0.0894252 0.178402,-0.121717 0.290445,-0.120846 0.0150709,0.00011811 0.0301772,0.000397638 0.0452362,0.000850394 0.0113268,0.00034252 0.0229213,0.000692913 0.0341969,0.00178346 0.0937244,0.00905906 0.180736,0.0434882 0.246854,0.112 0.0120079,0.0124488 0.0231102,0.0257087 0.0332205,0.039685l0.0227874 0c0.0101102,-0.0139764 0.0212126,-0.0272362 0.0332205,-0.039685 0.0661181,-0.0685118 0.15313,-0.102941 0.246854,-0.112 0.0112756,-0.00109055 0.0228701,-0.00144094 0.0341969,-0.00178346 0.0150591,-0.000452756 0.0301654,-0.000732283 0.0452362,-0.000850394 0.112043,-0.000870079 0.217791,0.0314213 0.290445,0.120846 0.00873622,0.0107559 0.016685,0.022126 0.023878,0.0339567zm-0.685394 1.30426l0.000173228 -3.93701e-006c0.00127953,-3.93701e-006 0.00256299,-2.75591e-005 0.00385433,-9.05512e-005l-1.1811e-005 -0.000224409c0.234504,-0.0112677 0.462039,-0.0877874 0.632524,-0.252291 0.145854,-0.14074 0.248315,-0.343949 0.275346,-0.623016 0.0019252,-0.0198858 0.00347244,-0.0556417 0.00465354,-0.0946732 0.00168898,-0.0556457 0.00267717,-0.120827 0.00291339,-0.151673 0.00269685,-0.348528 -0.106476,-0.573201 -0.279012,-0.713378 -0.16852,-0.136921 -0.393598,-0.188209 -0.631476,-0.193815 -0.00340157,-0.000370079 -0.0068622,-0.000531496 -0.010378,-0.00046063l7.87402e-006 0.000295276c-0.240539,0.00473622 -0.468469,0.0556732 -0.638697,0.19398 -0.172531,0.140177 -0.281705,0.36485 -0.279012,0.713378 0.000240157,0.0308543 0.00122835,0.0960669 0.00291732,0.151724 0.0011811,0.0390118 0.00273228,0.0747441 0.00465354,0.094622 0.0261614,0.270146 0.137752,0.473024 0.285209,0.615307 0.18452,0.178051 0.425591,0.260189 0.626039,0.260315l0.000295276 3.93701e-006z"/>
   <path id="_283573728" class="fil1" d="M3.60046 2.61119c0.0278465,0.0288583 0.0682283,0.0507677 0.122839,0.0560512 0.00388189,0.000374016 0.0120512,0.000716535 0.0212874,0.000996063 0.0160945,0.000488189 0.0330945,0.000759843 0.0407165,0.000818898 0.0704606,0.000543307 0.113539,-0.0186417 0.138205,-0.049 0.0486535,-0.0598858 0.0488504,-0.198953 0,-0.259083 -0.0246614,-0.0303583 -0.0677441,-0.0495394 -0.138205,-0.0489961 -0.00762205,5.90551e-005 -0.0246299,0.000330709 -0.0407283,0.000818898 -0.00922835,0.000275591 -0.0174055,0.00061811 -0.0212756,0.000992126 -0.0574724,0.00556693 -0.0980551,0.0253543 -0.125004,0.0532795 -0.0658071,0.0681929 -0.0623346,0.177272 0.00216535,0.244122zm-0.291752 0.0793583c-0.0452402,0.046878 -0.109449,0.0823307 -0.194579,0.0905748 -0.00633071,0.000610236 -0.0171969,0.00109449 -0.0289094,0.00144488 -0.0154213,0.000468504 -0.0342992,0.000748031 -0.0434094,0.000818898 -0.109827,0.000850394 -0.18165,-0.034815 -0.227425,-0.0911457 -0.0830276,-0.102193 -0.0831496,-0.301106 0,-0.403449 0.0457756,-0.0563346 0.117594,-0.0919961 0.227425,-0.0911457 0.00911417,7.08661e-005 0.028,0.000350394 0.0434252,0.000814961 0.0117047,0.000354331 0.0225551,0.000834646 0.0288937,0.00144488 0.0874843,0.00847244 0.151736,0.0411693 0.19674,0.0878071 0.0189488,0.0196378 0.0344764,0.0412953 0.0466496,0.064252l0.11163 0c0.0121732,-0.0229567 0.0277008,-0.0446142 0.0466496,-0.064252 0.0450039,-0.0466378 0.109256,-0.0793346 0.19674,-0.0878071 0.00633858,-0.000610236 0.017189,-0.00109055 0.0288937,-0.00144488 0.0154252,-0.000464567 0.034311,-0.000744094 0.0434252,-0.000814961 0.109831,-0.000850394 0.18165,0.034811 0.227425,0.0911457 0.0831496,0.102339 0.0830236,0.30126 0,0.403449 -0.0457756,0.0563307 -0.117598,0.0919961 -0.227425,0.0911457 -0.00911024,-7.08661e-005 -0.0279882,-0.000350394 -0.0434094,-0.000818898 -0.0117126,-0.000350394 -0.0225787,-0.000834646 -0.0289094,-0.00144488 -0.0851299,-0.00824409 -0.149339,-0.0436969 -0.194579,-0.0905748 -0.059315,-0.0614764 -0.0869055,-0.14361 -0.0814016,-0.223803l-0.0464488 0c0.0055,0.0801929 -0.0220866,0.162323 -0.0814016,0.223803zm-0.0803346 -0.32348c-0.0269488,-0.0279252 -0.0675315,-0.0477126 -0.125004,-0.0532795 -0.00387008,-0.000374016 -0.0120472,-0.000716535 -0.0212756,-0.000992126 -0.0160984,-0.000488189 -0.0331063,-0.000759843 -0.0407283,-0.000818898 -0.0704606,-0.000543307 -0.113543,0.0186378 -0.138205,0.0489961 -0.0488504,0.0601299 -0.0486535,0.199197 0,0.259083 0.0246654,0.0303583 0.0677441,0.0495433 0.138205,0.049 0.00762205,-5.90551e-005 0.024622,-0.000330709 0.0407165,-0.000818898 0.00923622,-0.000279528 0.0174055,-0.000622047 0.0212874,-0.000996063 0.156291,-0.0151299 0.229591,-0.191795 0.125004,-0.300173z"/>
   <path id="_283574040" class="fil1" d="M4.04165 2.35196c-0.0316929,0 -0.0573858,0.0256969 -0.0573858,0.0573898 0,0.031689 0.0256929,0.0573898 0.0573858,0.0573898l0.0452717 0c0.0316929,0 0.0573898,-0.0257008 0.0573898,-0.0573898 0,-0.0316929 -0.0256969,-0.0573898 -0.0573898,-0.0573898l-0.0452717 0zm-1.3019 0c-0.0316929,0 -0.0573898,0.0256969 -0.0573898,0.0573898 0,0.031689 0.0256969,0.0573898 0.0573898,0.0573898l0.0452717 0c0.0316969,0 0.0573898,-0.0257008 0.0573898,-0.0573898 0,-0.0316929 -0.0256929,-0.0573898 -0.0573898,-0.0573898l-0.0452717 0z"/>
  </g>
 </g>
</svg>
