<?xml version="1.0" encoding="UTF-8"?>
<!DOCTYPE svg PUBLIC "-//W3C//DTD SVG 1.1//EN" "http://www.w3.org/Graphics/SVG/1.1/DTD/svg11.dtd">
<!-- Creator: CorelDRAW -->
<svg xmlns="http://www.w3.org/2000/svg" xml:space="preserve" width="6.82666in" height="6.82666in" style="shape-rendering:geometricPrecision; text-rendering:geometricPrecision; image-rendering:optimizeQuality; fill-rule:evenodd; clip-rule:evenodd"
viewBox="0 0 6.82666 6.82666"
 xmlns:xlink="http://www.w3.org/1999/xlink">
 <defs>
  <style type="text/css">
   <![CDATA[
    .fil0 {fill:#EF5350}
    .fil2 {fill:#FFFFFE}
    .fil1 {fill:#FFFFFE;fill-rule:nonzero}
   ]]>
  </style>
 </defs>
 <g id="Layer_x0020_1">
  <metadata id="CorelCorpID_0Corel-Layer"/>
  <circle class="fil0" cx="3.41333" cy="3.41333" r="3.41333"/>
  <g id="_283572024">
   <g>
    <path id="_283573272" class="fil1" d="M4.01064 2.9419c0.163614,0.071248 0.304185,0.197008 0.40474,0.357713 0.0667677,0.106709 0.115929,0.228925 0.142437,0.36078 -0.111134,-0.0119724 -0.220535,-0.0491811 -0.329362,-0.0862087 -0.189177,-0.0643661 -0.376862,-0.128138 -0.579291,-0.0826535l0.00178346 -0.00418898c0.028122,-0.0657992 0.063622,-0.129142 0.10165,-0.189685 0.0427677,-0.0680787 0.0895827,-0.133669 0.137878,-0.197917 0.038437,-0.0511378 0.0782205,-0.101213 0.116724,-0.15226 0.00134646,-0.00177953 0.00249213,-0.00364961 0.00344094,-0.00557874zm-0.706157 0.580217c-0.00794882,-0.0208937 -0.0162244,-0.0415236 -0.024874,-0.0617638 -0.0282913,-0.0661929 -0.0640079,-0.130047 -0.102087,-0.191063 -0.0434921,-0.0697008 -0.0910591,-0.136933 -0.140118,-0.202803 -0.0365472,-0.0490669 -0.0742165,-0.0972087 -0.111201,-0.145902 0.0205039,0.00111024 0.0397677,0.0113189 0.0521417,0.0280315 0.0115709,0.0136811 0.0234724,0.0266024 0.0356929,0.0387126 0.0135945,0.0134724 0.0276378,0.0261969 0.0421417,0.0381142 0.0536811,0.0441339 0.116094,0.0797402 0.182492,0.103602 0.0634055,0.0227756 0.130315,0.0348031 0.196492,0.0332126 0.0986063,-0.0023622 0.187567,-0.0227598 0.265012,-0.0586693 0.0781575,-0.0362362 0.144634,-0.0885472 0.197417,-0.154248l-0.000137795 -0.000114173c0.0105197,-0.0130945 0.024811,-0.021374 0.0400748,-0.0245236 -0.0359843,0.0472913 -0.0725551,0.0940945 -0.108071,0.141783 -0.0490591,0.0658701 -0.096626,0.133102 -0.140118,0.202803 -0.0380827,0.0610157 -0.0737913,0.12487 -0.102083,0.191063 -0.00793701,0.0185669 -0.0155551,0.0374606 -0.0228976,0.0565827 -0.044689,0.0167953 -0.0901693,0.0393819 -0.136614,0.0688937 -0.0418268,-0.0265787 -0.082874,-0.0475276 -0.123264,-0.0637126zm-0.995138 0.136929c0.0269134,-0.132894 0.0768622,-0.256008 0.144673,-0.363319 0.100358,-0.158823 0.239937,-0.283138 0.402201,-0.353831 0.000948819,0.00193307 0.00210236,0.00380315 0.00344488,0.00558268 0.0385079,0.0510472 0.0782874,0.101122 0.116724,0.15226 0.0482913,0.064248 0.0951102,0.129839 0.137874,0.197917 0.0380315,0.0605433 0.0735315,0.123886 0.10165,0.189685l0.00303937 0.00716535c-0.207264,-0.0511102 -0.398811,0.0139724 -0.591913,0.0796772 -0.105016,0.0357283 -0.210567,0.0716299 -0.317693,0.0848622z"/>
    <path id="_283573080" class="fil1" d="M3.66417 2.09204l0.00300787 0.000740157 0.000385827 9.84252e-005 0.00225591 0.000574803 0.000393701 0.000102362 0.00120472 0.000318898 0.00188976 0.000503937 0.00109843 0.000295276 0.00230315 0.000629921 0.00030315 8.66142e-005 0.00237402 0.000669291 0.000688976 0.000188976 0.00030315 9.44882e-005 0.00263386 0.00076378 0.000177165 5.51181e-005 0.0030748 0.00092126 0.000188976 5.90551e-005 0.00249606 0.000767717 0.000464567 0.000149606 0.00148031 0.000464567 0.000779528 0.000248031 0.00130709 0.000413386 0.00191339 0.000629921 0.000724409 0.00023622 0.000507874 0.000169291 0.00259055 0.000866142 2.75591e-005 7.87402e-006 0.0026063 0.000889764 0.000456693 0.000161417 0.00214173 0.000751969 0.000933071 0.000326772 0.000598425 0.000216535 0.00180315 0.000649606 0.00146457 0.000535433 0.000948819 0.000346457 0.0018937 0.000704724 0.000137795 5.11811e-005 0.00235827 0.000889764 0.000224409 8.66142e-005 0.00257874 0.000992126 0.000251969 9.44882e-005 7.08661e-005 3.14961e-005 0.00280709 0.0011063 0.000165354 5.90551e-005 0.00184252 0.000744094 0.00119291 0.000476378 0.00057874 0.000240157 0.00158268 0.000645669 0.00152362 0.000633858 0.000232283 9.84252e-005 0.00212598 0.000889764 4.33071e-005 1.9685e-005 0.00266142 0.0011378 0.000251969 0.000106299 4.72441e-005 1.9685e-005 0.00248425 0.00108268 0.000519685 0.000224409 0.00200394 0.000889764 0.000980315 0.000437008 0.000559055 0.000255906 0.00187008 0.00084252 0.000543307 0.000248031 0.0010748 0.000492126 0.000740157 0.000346457 0.00159843 0.000740157 0.000161417 7.08661e-005 0.00234646 0.00111024 0.000141732 6.69291e-005 0.00248819 0.00118504 0.0018937 0.00092126 0.000783465 0.00038189 0.00156693 0.000775591 0.00111811 0.000547244 0.00166535 0.000830709 0.000366142 0.000188976 0.00166535 0.000838583 0.000240157 0.000125984 0.00198031 0.00101181 0.000669291 0.00034252 0.000330709 0.000173228 0.00242913 0.00126378 0.000114173 6.69291e-005 0.00230315 0.0012126 0.000562992 0.000299213 0.000480315 0.00026378 0.00229134 0.00123622 0.000173228 8.66142e-005 0.00222047 0.00121654 0.000511811 0.000283465 0.000952756 0.000527559 0.00186614 0.00104331 0.000507874 0.000283465 0.00229134 0.00129921 7.08661e-005 3.93701e-005 0.00235433 0.00135433 0.000362205 0.000208661 0.000677165 0.000397638 0.00190157 0.00111024 0.000188976 0.000110236 0.00153937 0.000909449 0.00121654 0.000724409 0.00110236 0.000661417 0.00163386 0.000984252 0.000665354 0.000409449 0.00205118 0.00125197 0.000244094 0.000153543 0.00227559 0.00141732 0.000181102 0.000110236 0.00209055 0.00131496 0.000153543 0.000102362 0.00133858 0.000850394 0.000755906 0.000488189 0.00100394 0.000645669 0.000448819 0.000291339 0.00159843 0.00103937 0.000598425 0.000389764 0.000818898 0.00053937 0.00180709 0.00119291 0.000405512 0.000275591 0.00219685 0.00147638c0.0527008,0.0356063 0.0908976,0.0768268 0.0987087,0.111102l-5.51181e-005 7.87402e-006 0.000283465 0.00169685 -7.87402e-005 1.5748e-005 7.87402e-006 1.9685e-005 3.93701e-006 2.75591e-005 3.93701e-006 2.3622e-005 7.87402e-006 2.75591e-005 0 2.3622e-005 7.87402e-006 1.9685e-005 3.93701e-006 2.3622e-005 3.93701e-006 2.75591e-005c7.87402e-005,0.000389764 0.000173228,0.000775591 0.000255906,0.00116535l3.93701e-006 1.9685e-005 7.87402e-006 2.75591e-005 3.93701e-006 2.3622e-005 3.93701e-006 2.3622e-005 1.1811e-005 2.3622e-005 0 1.9685e-005 0 3.93701e-006 7.87402e-006 2.75591e-005 3.93701e-006 2.3622e-005c0.0037874,0.0229331 0.00639764,0.0454685 0.00761417,0.0675157l5.51181e-005 0.00104724 5.51181e-005 0.00105118 5.51181e-005 0.00104724 4.72441e-005 0.00105118 4.72441e-005 0.00104724 4.72441e-005 0.00105512 3.93701e-005 0.00104331 4.72441e-005 0.00105118 3.93701e-005 0.00104724 3.54331e-005 0.00105118 3.54331e-005 0.00105512 3.54331e-005 0.00104724 2.75591e-005 0.00105118 3.93701e-006 3.93701e-006 2.3622e-005 0.00104724 3.93701e-006 0 2.3622e-005 0.00105118 2.3622e-005 0.00105512 1.9685e-005 0.00105512 3.93701e-006 0 1.5748e-005 0.00104724 1.9685e-005 0.00105512 1.1811e-005 0.00105118 3.93701e-006 0 1.1811e-005 0.00105512 0 0 1.1811e-005 0.00105118 0 0 7.87402e-006 0.00105512 0 0 3.93701e-006 0.00105512 3.93701e-006 0.00105512 0 0.0021063 -3.93701e-006 0.00105118 -3.93701e-006 0 0 0.00105512 0 0 -7.87402e-006 0.00105906 0 0 -1.1811e-005 0.00105118 0 0 -2.75591e-005 0.00211417 0 0 -3.54331e-005 0.00211417 -3.93701e-006 0c-0.000464567,0.0229449 -0.00260236,0.0448307 -0.0059252,0.0675394 -0.0193819,0.132374 -0.0705512,0.22935 -0.140654,0.296992 -0.089,0.085878 -0.209965,0.126224 -0.335909,0.132709l0 -7.48031e-005c-0.105138,0 -0.232004,-0.0434055 -0.329594,-0.137571 -0.00117717,-0.00113386 -0.00234646,-0.00227953 -0.00351575,-0.00342913l-0.000137795 -0.000129921 -0.00335433 -0.00334252 -5.51181e-005 -5.90551e-005 -0.00157087 -0.00159449 -0.00213386 -0.00217323 -0.000889764 -0.000925197 -0.0025315 -0.00262992 -0.00140157 -0.00148425 -0.00204724 -0.00216929 -0.00181496 -0.0019685 -0.00157087 -0.00170472 -0.00165354 -0.00182283 -0.00183465 -0.00203543 -0.0015315 -0.00173228 -0.00183465 -0.0020748 -0.00164567 -0.0018937 -0.00166142 -0.00192913 -0.00165354 -0.00194488 -0.0017126 -0.0020315 -0.0015315 -0.00183858 -0.00173228 -0.0021063 -0.00168898 -0.00206693 -0.00150787 -0.00187008 -0.00159055 -0.002 -0.00175984 -0.00223228 -0.00158268 -0.00202756 -0.00129134 -0.00167717 -0.00194094 -0.00254331 -0.00133465 -0.00177165 -0.00176378 -0.00235827 -0.0013622 -0.0018622 -0.00157087 -0.00215354 -0.00181496 -0.00251969 -0.00121654 -0.00170866 -0.00160236 -0.00227953 -0.00154331 -0.0022126 -0.0013937 -0.0020315 -0.00162205 -0.00238583 -0.00140551 -0.00210236 -0.00143307 -0.00215748 -0.00164961 -0.00251181 -0.00129528 -0.00199606 -0.00143307 -0.00225591 -0.00151969 -0.00238583 -0.00100787 -0.00162598 -0.0018189 -0.00293307 -0.000106299 -0.000173228c-0.000834646,-0.00136614 -0.00166929,-0.00274016 -0.00249213,-0.00412205l-6.29921e-005 -0.000102362 -0.00200394 -0.00338583 -0.000740157 -0.00126378 -0.000137795 -0.000232283c-0.00088189,-0.00151181 -0.00175984,-0.0030315 -0.00262598,-0.00456299l-3.54331e-005 -5.90551e-005c-0.000877953,-0.00155118 -0.00175197,-0.0031063 -0.00261811,-0.00466929l-6.69291e-005 -0.00011811c-0.00084252,-0.00152756 -0.0016811,-0.00305906 -0.00251181,-0.00460236l-0.000161417 -0.00030315 -0.000811024 -0.0015315 -0.00170866 -0.00321654 -0.000988189 -0.00190157 -0.00151575 -0.00292913 -0.00139764 -0.00277165 -0.00105118 -0.00209843 -0.00131102 -0.00265748 -0.00119291 -0.00244488 -0.00122441 -0.00256693 -0.00117717 -0.00248031 -0.00114961 -0.00248425 -0.0012126 -0.00261417 -0.00115748 -0.0025748 -0.00117717 -0.00263386 -0.00108268 -0.0024685 -0.0011378 -0.00262205 -0.00130315 -0.00307874 -0.000822835 -0.00195669 -0.00132677 -0.0032126 -0.000925197 -0.00228346 -0.0011063 -0.00276378 -0.00106693 -0.00270079 -0.00105512 -0.00273622 -0.001 -0.00262992 -0.00101181 -0.00268898 -0.00106693 -0.00290551 -0.000905512 -0.0025 -0.00106693 -0.00300787 -0.000964567 -0.00275591 -0.00084252 -0.00246063 -0.00102756 -0.00303937 -0.00101575 -0.00307087 -0.000767717 -0.00235827 -0.00100394 -0.00315354 -0.000870079 -0.0027874 -0.000755906 -0.00245669 -0.000988189 -0.00327559 -0.000850394 -0.00290157 -0.000799213 -0.00274803 -0.0010315 -0.0036811 -0.000551181 -0.00197638 -0.00106693 -0.00393307 -0.000566929 -0.00213386 -0.000751969 -0.00292126 -0.000807087 -0.00314173 -4.33071e-005 -0.000177165c-0.00046063,-0.00182677 -0.000909449,-0.00365748 -0.00135039,-0.00549606l-9.05512e-005 -0.00038189c-0.00046063,-0.00191732 -0.000909449,-0.00383858 -0.00135039,-0.00576772l-3.54331e-005 -0.000153543c-0.000448819,-0.00198425 -0.000893701,-0.00398031 -0.00133071,-0.00597638l-1.5748e-005 -7.08661e-005c-0.000429134,-0.00197638 -0.000850394,-0.00396063 -0.00125984,-0.00595276l-5.90551e-005 -0.00030315c-0.000397638,-0.00191339 -0.000779528,-0.00383465 -0.00115748,-0.00576772l-5.11811e-005 -0.00026378 -0.00042126 -0.00220079 -0.000787402 -0.00419685 -0.000385827 -0.00215354 -0.000700787 -0.00392913 -0.000543307 -0.00323622 -0.000523622 -0.00311417 -0.000484252 -0.00308661 -0.000531496 -0.00340945 -0.000437008 -0.00297638 -0.000496063 -0.00342913 -0.00042126 -0.00307087 -0.000452756 -0.00336614 -0.000437008 -0.00347244 -0.000251969 -0.00200787c0.0899685,-0.0931339 0.15822,-0.125437 0.220287,-0.154807 0.0668819,-0.0316535 0.127594,-0.0603976 0.196736,-0.140165 -0.00245669,0.0335236 -0.00832677,0.0609055 -0.0134921,0.074563 -0.00529921,0.0108937 -0.00683858,0.0236654 -0.00344882,0.0362795 0.00746457,0.0278031 0.0360591,0.0442835 0.0638622,0.0368189l-1.9685e-005 -6.69291e-005c0.136173,-0.0366299 0.184287,-0.118075 0.231181,-0.235933 0.0262559,-0.0659882 0.0514331,-0.135547 0.0715236,-0.203693 0.00270079,-0.00914567 0.012252,-0.0144055 0.0214213,-0.0117126 0.00912992,0.0026811 0.0143858,0.0122402 0.011689,0.0213819 -0.0203661,0.0690827 -0.0460748,0.139705 -0.0726929,0.206614 -0.00549213,0.0137992 -0.0111181,0.0275866 -0.0169567,0.0412795zm0.562354 0.899469c0.00138976,-0.0620276 -0.00357087,-0.306339 -0.00717717,-0.484091 -0.00198031,-0.0977323 -0.00355512,-0.175094 -0.00345276,-0.188157 0.00229134,-0.29661 -0.0906614,-0.487854 -0.237559,-0.607201 -0.143437,-0.116535 -0.334925,-0.160201 -0.537295,-0.164984 -0.00294488,-0.000322835 -0.00594094,-0.000456693 -0.00897244,-0.000397638l3.93701e-006 0.000255906c-0.204669,0.0040315 -0.39863,0.0473898 -0.543539,0.165122 -0.146894,0.119354 -0.23985,0.310591 -0.237559,0.607205 0.00019685,0.0259409 0.00672047,0.243681 0.0128071,0.425654 0.00305512,0.0912598 0.0060315,0.174201 0.0081063,0.221094 0.0435748,-0.0304173 0.0897638,-0.0571575 0.138303,-0.079626l-0.000996063 -0.00271654 0.0651417 -0.0240591c0.0572087,-0.021126 0.120949,-0.00155118 0.158496,0.0458661 0.00914173,0.0115512 0.019685,0.0221378 0.0301339,0.0324961 0.0119291,0.0118268 0.024378,0.023122 0.0373504,0.0337874 0.0479961,0.0394567 0.103378,0.0708661 0.161858,0.091878 0.0546929,0.0196496 0.113114,0.0305433 0.171327,0.0291496 0.0817559,-0.00196063 0.163004,-0.0177283 0.237441,-0.0522441 0.0635787,-0.0294764 0.118972,-0.0714213 0.164118,-0.124614l0.00821654 -0.0102244c0.039252,-0.0488622 0.106047,-0.0645197 0.163496,-0.0405551 0.0788346,0.0328976 0.152551,0.0754606 0.219752,0.126362z"/>
   </g>
   <path id="_283573248" class="fil2" d="M2.00193 3.69641c-2.75591e-005,0.000366142 -3.14961e-005,0.000755906 -3.14961e-005,0.00105118l0 0.33185 0.0433937 -0.0110315c0.0779803,-0.0198228 0.158098,0.0278386 0.177909,0.105819 0.0105709,0.0416181 0.0019252,0.0838465 -0.0202913,0.117185 0.00910236,0.0135118 0.0160669,0.0287598 0.0202913,0.0453858 0.0105709,0.0416181 0.0019252,0.0838425 -0.0202913,0.117185 0.00910236,0.0135079 0.0160669,0.0287559 0.0202913,0.0453819 0.0105709,0.0416181 0.0019252,0.0838425 -0.0202913,0.117185 0.00910236,0.0135079 0.0160669,0.0287559 0.0202913,0.0453819 0.0198071,0.0779724 -0.0278425,0.158071 -0.105811,0.177894l-0.115492 0.0293583 0 0.41402 0.00586614 0.0022126c0.233201,0.0881024 0.438626,0.0299409 0.665224,-0.036874 0.261508,-0.0771102 0.499657,-0.147756 0.751736,0.0105748 0.000952756,0.000598425 0.00199606,0.00127953 0.00302362,0.00187008 0.00102756,-0.000590551 0.00207087,-0.00127165 0.00302362,-0.00187008 0.252079,-0.158331 0.490228,-0.087685 0.751736,-0.0105748 0.226598,0.066815 0.432024,0.124976 0.665228,0.036874l0.0058622 -0.0022126 0 -0.406693 -0.144323 -0.036685c-0.0779685,-0.0198228 -0.125614,-0.0999213 -0.105807,-0.177894 0.00422047,-0.016626 0.011185,-0.031874 0.0202874,-0.0453819 -0.0222165,-0.0333425 -0.0308622,-0.0755669 -0.0202874,-0.117185 0.00422047,-0.016626 0.011185,-0.031874 0.0202874,-0.0453819 -0.0222165,-0.0333425 -0.0308622,-0.0755669 -0.0202874,-0.117185 0.00422047,-0.016626 0.011185,-0.031874 0.0202874,-0.0453858 -0.0222165,-0.0333386 -0.0308622,-0.0755669 -0.0202874,-0.117185 0.0198071,-0.0779803 0.0999252,-0.125642 0.177906,-0.105819l0.0722244 0.0183583 0 -0.339177c0,-0.000295276 -3.93701e-006,-0.000685039 -3.14961e-005,-0.00105118 -0.224654,0.0869409 -0.432917,0.0204803 -0.648685,-0.0529331 -0.263063,-0.0895039 -0.48213,-0.158374 -0.737878,0.00412992l-0.0392559 0.0249488 -0.0392559 -0.0249488c-0.255748,-0.162504 -0.474815,-0.0936339 -0.737874,-0.00412992 -0.215772,0.0734134 -0.424031,0.139874 -0.648689,0.0529331z"/>
   <path id="_283572504" class="fil1" d="M1.88079 4.13562c-0.0391654,0.00994882 -0.0628465,0.0497677 -0.0528976,0.0889291 0.00994488,0.0391614 0.0497638,0.0628465 0.0889252,0.0528976l0.182535 -0.0464016c0.0391614,-0.00994488 0.0628425,-0.0497638 0.0528976,-0.0889252 -0.00994882,-0.0391614 -0.0497677,-0.0628465 -0.0889291,-0.0528976l-0.182531 0.0463976zm3.02905 0.629531c0.0391614,0.00994882 0.0789803,-0.0137362 0.0889291,-0.0528976 0.00994488,-0.0391614 -0.0137362,-0.0789803 -0.0528976,-0.0889291l-0.182535 -0.0463976c-0.0391614,-0.00994882 -0.0789803,0.0137323 -0.0889252,0.0528976 -0.00994882,0.0391614 0.0137323,0.0789803 0.0528976,0.0889252l0.182531 0.0464016zm0 -0.162567c0.0391614,0.00994882 0.0789803,-0.0137362 0.0889291,-0.0528976 0.00994488,-0.0391614 -0.0137362,-0.0789803 -0.0528976,-0.0889291l-0.182535 -0.0464016c-0.0391614,-0.00994488 -0.0789803,0.0137362 -0.0889252,0.0528976 -0.00994882,0.0391654 0.0137323,0.0789843 0.0528976,0.0889291l0.182531 0.0464016zm0 -0.162567c0.0391614,0.00994882 0.0789803,-0.0137362 0.0889291,-0.0528976 0.00994488,-0.0391614 -0.0137362,-0.0789803 -0.0528976,-0.0889291l-0.182535 -0.0464016c-0.0391614,-0.00994488 -0.0789803,0.0137362 -0.0889252,0.0528976 -0.00994882,0.0391654 0.0137323,0.0789803 0.0528976,0.0889291l0.182531 0.0464016zm0 -0.162571c0.0391614,0.00994882 0.0789803,-0.0137362 0.0889291,-0.0528976 0.00994488,-0.0391614 -0.0137362,-0.0789803 -0.0528976,-0.0889291l-0.182535 -0.0463976c-0.0391614,-0.00994882 -0.0789803,0.0137362 -0.0889252,0.0528976 -0.00994882,0.0391614 0.0137323,0.0789803 0.0528976,0.0889252l0.182531 0.0464016zm-3.02905 0.345878c-0.0391654,0.00994882 -0.0628465,0.0497677 -0.0528976,0.0889291 0.00994488,0.0391614 0.0497638,0.0628465 0.0889252,0.0528976l0.182535 -0.0464016c0.0391614,-0.00994488 0.0628425,-0.0497638 0.0528976,-0.0889252 -0.00994882,-0.0391654 -0.0497677,-0.0628465 -0.0889291,-0.0528976l-0.182531 0.0463976zm0 -0.162567c-0.0391654,0.00994882 -0.0628465,0.0497677 -0.0528976,0.0889291 0.00994488,0.0391614 0.0497638,0.0628465 0.0889252,0.0528976l0.182535 -0.0464016c0.0391614,-0.00994488 0.0628425,-0.0497638 0.0528976,-0.0889291 -0.00994882,-0.0391614 -0.0497677,-0.0628425 -0.0889291,-0.0528976l-0.182531 0.0464016zm0 -0.162567c-0.0391654,0.00994882 -0.0628465,0.0497677 -0.0528976,0.0889291 0.00994488,0.0391614 0.0497638,0.0628465 0.0889252,0.0528976l0.182535 -0.0464016c0.0391614,-0.00994882 0.0628425,-0.0497638 0.0528976,-0.0889291 -0.00994882,-0.0391614 -0.0497677,-0.0628425 -0.0889291,-0.0528976l-0.182531 0.0464016z"/>
  </g>
 </g>
</svg>
